%TF.GenerationSoftware,KiCad,Pcbnew,10.0.5*%
%TF.CreationDate,2026-09-15T14:19:57-06:00*%
%TF.ProjectId,seed3-carrier,73656564-332d-4636-9172-726965722e6b,rev?*%
%TF.SameCoordinates,Original*%
%TF.FileFunction,Copper,L2,Bot*%
%TF.FilePolarity,Positive*%
%FSLAX46Y46*%
G04 Gerber Fmt 4.6, Leading zero omitted, Abs format (unit mm)*
G04 Created by KiCad (PCBNEW 10.0.5) date 2026-09-15 14:19:57*
%MOMM*%
%LPD*%
G01*
G04 APERTURE LIST*
G04 Aperture macros list*
%AMRoundRect*
0 Rectangle with rounded corners*
0 $1 Rounding radius*
0 $2 $3 $4 $5 $6 $7 $8 $9 X,Y pos of 4 corners*
0 Add a 4 corners polygon primitive as box body*
4,1,4,$2,$3,$4,$5,$6,$7,$8,$9,$2,$3,0*
0 Add four circle primitives for the rounded corners*
1,1,$1+$1,$2,$3*
1,1,$1+$1,$4,$5*
1,1,$1+$1,$6,$7*
1,1,$1+$1,$8,$9*
0 Add four rect primitives between the rounded corners*
20,1,$1+$1,$2,$3,$4,$5,0*
20,1,$1+$1,$4,$5,$6,$7,0*
20,1,$1+$1,$6,$7,$8,$9,0*
20,1,$1+$1,$8,$9,$2,$3,0*%
G04 Aperture macros list end*
%TA.AperFunction,ComponentPad*%
%ADD10C,3.000000*%
%TD*%
%TA.AperFunction,ComponentPad*%
%ADD11C,1.800000*%
%TD*%
%TA.AperFunction,ComponentPad*%
%ADD12C,4.400000*%
%TD*%
%TA.AperFunction,ComponentPad*%
%ADD13R,1.700000X1.700000*%
%TD*%
%TA.AperFunction,ComponentPad*%
%ADD14C,1.700000*%
%TD*%
%TA.AperFunction,ComponentPad*%
%ADD15O,1.800000X2.800000*%
%TD*%
%TA.AperFunction,ComponentPad*%
%ADD16RoundRect,0.250000X-0.550000X-0.550000X0.550000X-0.550000X0.550000X0.550000X-0.550000X0.550000X0*%
%TD*%
%TA.AperFunction,ComponentPad*%
%ADD17C,1.600000*%
%TD*%
%TA.AperFunction,ViaPad*%
%ADD18C,0.600000*%
%TD*%
%TA.AperFunction,Conductor*%
%ADD19C,0.300000*%
%TD*%
G04 APERTURE END LIST*
D10*
%TO.P,J1,S*%
%TO.N,GND*%
X55626000Y-94685000D03*
%TO.P,J1,SN*%
%TO.N,unconnected-(J1-PadSN)*%
X55626000Y-83255000D03*
%TO.P,J1,T*%
%TO.N,Net-(C1-Pad1)*%
X68326000Y-94685000D03*
%TO.P,J1,TN*%
%TO.N,GND*%
X68326000Y-83255000D03*
%TD*%
D11*
%TO.P,RV1,1,1_1*%
%TO.N,/VREF*%
X86320000Y-92918000D03*
%TO.P,RV1,2,2_2*%
%TO.N,Net-(R1-Pad1)*%
X83820000Y-92918000D03*
%TO.P,RV1,3,3_3*%
%TO.N,Net-(C3-Pad2)*%
X81320000Y-92918000D03*
D12*
%TO.P,RV1,MP*%
%TO.N,N/C*%
X79420000Y-85918000D03*
X88220000Y-85918000D03*
%TD*%
D13*
%TO.P,J6,1,Pin_1_1*%
%TO.N,GND*%
X100975000Y-71755000D03*
D14*
%TO.P,J6,2,Pin_2_2*%
%TO.N,/AUDIO_OUT_2*%
X98435000Y-71755000D03*
%TO.P,J6,3,Pin_3_3*%
%TO.N,/AUDIO_OUT_1*%
X95895000Y-71755000D03*
%TO.P,J6,4,Pin_4_4*%
%TO.N,/AUDIO_IN_2*%
X93355000Y-71755000D03*
%TO.P,J6,5,Pin_5_5*%
%TO.N,/AUDIO_IN_1*%
X90815000Y-71755000D03*
%TO.P,J6,6,Pin_6_6*%
%TO.N,/DISPLAY_UART_RX*%
X88275000Y-71755000D03*
%TO.P,J6,7,Pin_7_7*%
%TO.N,/DISPLAY_UART_TX*%
X85735000Y-71755000D03*
%TO.P,J6,8,Pin_8_8*%
%TO.N,/D12*%
X83195000Y-71755000D03*
%TO.P,J6,9,Pin_9_9*%
%TO.N,/D11*%
X80655000Y-71755000D03*
%TO.P,J6,10,Pin_10_10*%
%TO.N,/D10*%
X78115000Y-71755000D03*
%TO.P,J6,11,Pin_11_11*%
%TO.N,/D9*%
X75575000Y-71755000D03*
%TO.P,J6,12,Pin_12_12*%
%TO.N,/D8*%
X73035000Y-71755000D03*
%TO.P,J6,13,Pin_13_13*%
%TO.N,/D7*%
X70495000Y-71755000D03*
%TO.P,J6,14,Pin_14_14*%
%TO.N,/D6*%
X67955000Y-71755000D03*
%TO.P,J6,15,Pin_15_15*%
%TO.N,/D5*%
X65415000Y-71755000D03*
%TO.P,J6,16,Pin_16_16*%
%TO.N,/D4*%
X62875000Y-71755000D03*
%TO.P,J6,17,Pin_17_17*%
%TO.N,/D3*%
X60335000Y-71755000D03*
%TO.P,J6,18,Pin_18_18*%
%TO.N,/D2*%
X57795000Y-71755000D03*
%TO.P,J6,19,Pin_19_19*%
%TO.N,/D1*%
X55255000Y-71755000D03*
%TO.P,J6,20,Pin_20_20*%
%TO.N,/D0*%
X52715000Y-71755000D03*
%TD*%
D11*
%TO.P,RV3,1,1_1*%
%TO.N,GND*%
X158625000Y-56850000D03*
%TO.P,RV3,2,2_2*%
%TO.N,/TONE_POT*%
X156125000Y-56850000D03*
%TO.P,RV3,3,3_3*%
%TO.N,/3V3_A*%
X153625000Y-56850000D03*
D12*
%TO.P,RV3,MP*%
%TO.N,N/C*%
X151725000Y-49850000D03*
X160525000Y-49850000D03*
%TD*%
D15*
%TO.P,J5,R*%
%TO.N,/HP_R*%
X153814000Y-97790000D03*
%TO.P,J5,RN*%
%TO.N,unconnected-(J5-PadRN)*%
X155614000Y-95790000D03*
%TO.P,J5,S*%
%TO.N,GND*%
X161714000Y-95790000D03*
%TO.P,J5,T*%
%TO.N,/HP_L*%
X159314000Y-97790000D03*
%TO.P,J5,TN*%
%TO.N,/LINE_SEND*%
X150114000Y-95790000D03*
%TD*%
D10*
%TO.P,J2,S*%
%TO.N,GND*%
X159232349Y-67260000D03*
%TO.P,J2,SN*%
%TO.N,N/C*%
X159232349Y-78690000D03*
%TO.P,J2,T*%
%TO.N,Net-(J2-PadT)*%
X146532349Y-67260000D03*
%TO.P,J2,TN*%
%TO.N,N/C*%
X146532349Y-78690000D03*
%TD*%
D13*
%TO.P,J7,1,Pin_1_1*%
%TO.N,/3V3_A*%
X100975000Y-48260000D03*
D14*
%TO.P,J7,2,Pin_2_2*%
%TO.N,/VOLUME_POT*%
X98435000Y-48260000D03*
%TO.P,J7,3,Pin_3_3*%
%TO.N,/TONE_POT*%
X95895000Y-48260000D03*
%TO.P,J7,4,Pin_4_4*%
%TO.N,/A2*%
X93355000Y-48260000D03*
%TO.P,J7,5,Pin_5_5*%
%TO.N,/A3*%
X90815000Y-48260000D03*
%TO.P,J7,6,Pin_6_6*%
%TO.N,/A4*%
X88275000Y-48260000D03*
%TO.P,J7,7,Pin_7_7*%
%TO.N,/A5*%
X85735000Y-48260000D03*
%TO.P,J7,8,Pin_8_8*%
%TO.N,/A6*%
X83195000Y-48260000D03*
%TO.P,J7,9,Pin_9_9*%
%TO.N,/A7*%
X80655000Y-48260000D03*
%TO.P,J7,10,Pin_10_10*%
%TO.N,/A8*%
X78115000Y-48260000D03*
%TO.P,J7,11,Pin_11_11*%
%TO.N,/A9*%
X75575000Y-48260000D03*
%TO.P,J7,12,Pin_12_12*%
%TO.N,/A10*%
X73035000Y-48260000D03*
%TO.P,J7,13,Pin_13_13*%
%TO.N,/D26*%
X70495000Y-48260000D03*
%TO.P,J7,14,Pin_14_14*%
%TO.N,/D27*%
X67955000Y-48260000D03*
%TO.P,J7,15,Pin_15_15*%
%TO.N,/A11*%
X65415000Y-48260000D03*
%TO.P,J7,16,Pin_16_16*%
%TO.N,/USB_D-*%
X62875000Y-48260000D03*
%TO.P,J7,17,Pin_17_17*%
%TO.N,/USB_D+*%
X60335000Y-48260000D03*
%TO.P,J7,18,Pin_18_18*%
%TO.N,/3V3_D*%
X57795000Y-48260000D03*
%TO.P,J7,19,Pin_19_19*%
%TO.N,+5V*%
X55255000Y-48260000D03*
%TO.P,J7,20,Pin_20_20*%
%TO.N,GND*%
X52715000Y-48260000D03*
%TD*%
D16*
%TO.P,C14,1*%
%TO.N,Net-(U2-VOUT1)*%
X130681349Y-96520000D03*
D17*
%TO.P,C14,2*%
%TO.N,Net-(C14-Pad2)*%
X134181349Y-96520000D03*
%TD*%
D16*
%TO.P,C18,1*%
%TO.N,+5V*%
X120202888Y-81280000D03*
D17*
%TO.P,C18,2*%
%TO.N,GND*%
X122202888Y-81280000D03*
%TD*%
D13*
%TO.P,J3,1,Pin_1_1*%
%TO.N,Net-(J3-Pin_1)*%
X55377000Y-42164000D03*
D14*
%TO.P,J3,2,Pin_2_2*%
%TO.N,GND*%
X52837000Y-42164000D03*
%TD*%
D13*
%TO.P,A1,1,USB_ID_1*%
%TO.N,/D0*%
X52715000Y-67945000D03*
D14*
%TO.P,A1,2,SD_DATA_3_2*%
%TO.N,/D1*%
X55255000Y-67945000D03*
%TO.P,A1,3,SD_DATA_2_3*%
%TO.N,/D2*%
X57795000Y-67945000D03*
%TO.P,A1,4,SD_DATA_1_4*%
%TO.N,/D3*%
X60335000Y-67945000D03*
%TO.P,A1,5,SD_DATA_0_5*%
%TO.N,/D4*%
X62875000Y-67945000D03*
%TO.P,A1,6,SD_CMD_6*%
%TO.N,/D5*%
X65415000Y-67945000D03*
%TO.P,A1,7,SD_CLK_7*%
%TO.N,/D6*%
X67955000Y-67945000D03*
%TO.P,A1,8,SPI1_CS_8*%
%TO.N,/D7*%
X70495000Y-67945000D03*
%TO.P,A1,9,SPI1_SCK_9*%
%TO.N,/D8*%
X73035000Y-67945000D03*
%TO.P,A1,10,SPI1_POCI_10*%
%TO.N,/D9*%
X75575000Y-67945000D03*
%TO.P,A1,11,SPI1_PICO_11*%
%TO.N,/D10*%
X78115000Y-67945000D03*
%TO.P,A1,12,I2C1_SCL_12*%
%TO.N,/D11*%
X80655000Y-67945000D03*
%TO.P,A1,13,I2C1_SDA_13*%
%TO.N,/D12*%
X83195000Y-67945000D03*
%TO.P,A1,14,USART1_TX_14*%
%TO.N,/DISPLAY_UART_TX*%
X85735000Y-67945000D03*
%TO.P,A1,15,USART1_RX_15*%
%TO.N,/DISPLAY_UART_RX*%
X88275000Y-67945000D03*
%TO.P,A1,16,AUDIO_IN_1_16*%
%TO.N,/AUDIO_IN_1*%
X90815000Y-67945000D03*
%TO.P,A1,17,AUDIO_IN_2_17*%
%TO.N,/AUDIO_IN_2*%
X93355000Y-67945000D03*
%TO.P,A1,18,AUDIO_OUT_1_18*%
%TO.N,/AUDIO_OUT_1*%
X95895000Y-67945000D03*
%TO.P,A1,19,AUDIO_OUT_2_19*%
%TO.N,/AUDIO_OUT_2*%
X98435000Y-67945000D03*
%TO.P,A1,20,AGND_20*%
%TO.N,GND*%
X100975000Y-67945000D03*
%TO.P,A1,21,3V3_A_21*%
%TO.N,/3V3_A*%
X100975000Y-52705000D03*
%TO.P,A1,22,ADC_0_22*%
%TO.N,/VOLUME_POT*%
X98435000Y-52705000D03*
%TO.P,A1,23,ADC_1_23*%
%TO.N,/TONE_POT*%
X95895000Y-52705000D03*
%TO.P,A1,24,ADC_2_24*%
%TO.N,/A2*%
X93355000Y-52705000D03*
%TO.P,A1,25,ADC_3_25*%
%TO.N,/A3*%
X90815000Y-52705000D03*
%TO.P,A1,26,ADC_4_26*%
%TO.N,/A4*%
X88275000Y-52705000D03*
%TO.P,A1,27,ADC_5_27*%
%TO.N,/A5*%
X85735000Y-52705000D03*
%TO.P,A1,28,ADC_6_28*%
%TO.N,/A6*%
X83195000Y-52705000D03*
%TO.P,A1,29,DAC_OUT2_29*%
%TO.N,/A7*%
X80655000Y-52705000D03*
%TO.P,A1,30,DAC_OUT1_30*%
%TO.N,/A8*%
X78115000Y-52705000D03*
%TO.P,A1,31,SAI2_MCLK_31*%
%TO.N,/A9*%
X75575000Y-52705000D03*
%TO.P,A1,32,SAI2_SD_B_32*%
%TO.N,/A10*%
X73035000Y-52705000D03*
%TO.P,A1,33,SAI2_SD_A_33*%
%TO.N,/D26*%
X70495000Y-52705000D03*
%TO.P,A1,34,SAI2_FS_34*%
%TO.N,/D27*%
X67955000Y-52705000D03*
%TO.P,A1,35,SAI2_SCK_35*%
%TO.N,/A11*%
X65415000Y-52705000D03*
%TO.P,A1,36,USB_D_-_36*%
%TO.N,/USB_D-*%
X62875000Y-52705000D03*
%TO.P,A1,37,USB_D_+_37*%
%TO.N,/USB_D+*%
X60335000Y-52705000D03*
%TO.P,A1,38,3V3_D_38*%
%TO.N,/3V3_D*%
X57795000Y-52705000D03*
%TO.P,A1,39,VIN_39*%
%TO.N,+5V*%
X55255000Y-52705000D03*
%TO.P,A1,40,DGND_40*%
%TO.N,GND*%
X52715000Y-52705000D03*
%TD*%
D13*
%TO.P,J4,1,Pin_1_1*%
%TO.N,GND*%
X78994000Y-75565000D03*
D14*
%TO.P,J4,2,Pin_2_2*%
%TO.N,/DISPLAY_UART_TX*%
X81534000Y-75565000D03*
%TO.P,J4,3,Pin_3_3*%
%TO.N,/DISPLAY_UART_RX*%
X84074000Y-75565000D03*
%TO.P,J4,4,Pin_4_4*%
%TO.N,+5V*%
X86614000Y-75565000D03*
%TD*%
D11*
%TO.P,RV2,1,1_1*%
%TO.N,GND*%
X140250000Y-56850000D03*
%TO.P,RV2,2,2_2*%
%TO.N,/VOLUME_POT*%
X137750000Y-56850000D03*
%TO.P,RV2,3,3_3*%
%TO.N,/3V3_A*%
X135250000Y-56850000D03*
D12*
%TO.P,RV2,MP*%
%TO.N,N/C*%
X133350000Y-49850000D03*
X142150000Y-49850000D03*
%TD*%
D16*
%TO.P,C15,1*%
%TO.N,Net-(U2-VOUT2)*%
X132332349Y-85725000D03*
D17*
%TO.P,C15,2*%
%TO.N,Net-(C15-Pad2)*%
X135832349Y-85725000D03*
%TD*%
D18*
%TO.N,GND*%
X140970000Y-92710000D03*
X61722000Y-43434000D03*
X106934000Y-52324000D03*
X93472000Y-77470000D03*
X117856000Y-84582000D03*
X63500000Y-45212000D03*
X80518000Y-98806000D03*
X93980000Y-85090000D03*
X119888000Y-75438000D03*
X154940000Y-88900000D03*
X105918000Y-75438000D03*
X141478000Y-58674000D03*
X159766000Y-58674000D03*
X116840000Y-93980000D03*
X138430000Y-99568000D03*
X61214000Y-40894000D03*
X112014000Y-95758000D03*
X106934000Y-60706000D03*
%TO.N,/VREF*%
X101600000Y-90170000D03*
X103505000Y-88265000D03*
%TO.N,+5V*%
X89662000Y-75692000D03*
X109220000Y-80010000D03*
X91948000Y-75692000D03*
X112014000Y-81280000D03*
%TO.N,Net-(U2-VOUT1)*%
X124460000Y-95250000D03*
X127000000Y-95250000D03*
%TD*%
%TO.N,/VREF*%
D19*
X103505000Y-88265000D02*
X101600000Y-90170000D01*
%TO.N,+5V*%
X110490000Y-81280000D02*
X112014000Y-81280000D01*
X109220000Y-80010000D02*
X110490000Y-81280000D01*
X89662000Y-75692000D02*
X91948000Y-75692000D01*
%TO.N,Net-(U2-VOUT1)*%
X124460000Y-95250000D02*
X127000000Y-95250000D01*
%TD*%
%TA.AperFunction,Conductor*%
%TO.N,GND*%
G36*
X163272539Y-40525185D02*
G01*
X163318294Y-40577989D01*
X163329500Y-40629500D01*
X163329500Y-94964865D01*
X163309815Y-95031904D01*
X163257011Y-95077659D01*
X163187853Y-95087603D01*
X163124297Y-95058578D01*
X163086523Y-94999800D01*
X163083027Y-94984263D01*
X163079526Y-94962164D01*
X163011432Y-94752589D01*
X162911386Y-94556239D01*
X162781857Y-94377958D01*
X162626041Y-94222142D01*
X162447760Y-94092613D01*
X162251410Y-93992567D01*
X162041836Y-93924473D01*
X161964000Y-93912144D01*
X161964000Y-94856988D01*
X161906993Y-94824075D01*
X161779826Y-94790000D01*
X161648174Y-94790000D01*
X161521007Y-94824075D01*
X161464000Y-94856988D01*
X161464000Y-93912144D01*
X161386164Y-93924473D01*
X161386161Y-93924473D01*
X161176589Y-93992567D01*
X160980239Y-94092613D01*
X160801958Y-94222142D01*
X160646142Y-94377958D01*
X160516613Y-94556239D01*
X160416567Y-94752589D01*
X160348473Y-94962164D01*
X160314000Y-95179818D01*
X160314000Y-95540000D01*
X161214000Y-95540000D01*
X161214000Y-96040000D01*
X160314000Y-96040000D01*
X160314000Y-96400179D01*
X160317057Y-96419485D01*
X160308100Y-96488778D01*
X160263102Y-96542229D01*
X160196350Y-96562866D01*
X160129037Y-96544139D01*
X160106902Y-96526560D01*
X160030930Y-96450588D01*
X160030928Y-96450586D01*
X159890788Y-96348768D01*
X159736445Y-96270127D01*
X159571701Y-96216598D01*
X159571699Y-96216597D01*
X159571698Y-96216597D01*
X159440271Y-96195781D01*
X159400611Y-96189500D01*
X159227389Y-96189500D01*
X159187728Y-96195781D01*
X159056302Y-96216597D01*
X159056299Y-96216598D01*
X158907584Y-96264919D01*
X158891552Y-96270128D01*
X158737211Y-96348768D01*
X158686655Y-96385500D01*
X158597072Y-96450586D01*
X158597070Y-96450588D01*
X158597069Y-96450588D01*
X158474588Y-96573069D01*
X158474588Y-96573070D01*
X158474586Y-96573072D01*
X158441551Y-96618541D01*
X158372768Y-96713211D01*
X158294128Y-96867552D01*
X158240597Y-97032302D01*
X158213713Y-97202042D01*
X158213500Y-97203389D01*
X158213500Y-98376611D01*
X158240598Y-98547701D01*
X158294127Y-98712445D01*
X158372768Y-98866788D01*
X158474586Y-99006928D01*
X158597072Y-99129414D01*
X158737212Y-99231232D01*
X158891555Y-99309873D01*
X159056299Y-99363402D01*
X159227389Y-99390500D01*
X159227390Y-99390500D01*
X159400610Y-99390500D01*
X159400611Y-99390500D01*
X159571701Y-99363402D01*
X159736445Y-99309873D01*
X159890788Y-99231232D01*
X160030928Y-99129414D01*
X160153414Y-99006928D01*
X160255232Y-98866788D01*
X160333873Y-98712445D01*
X160387402Y-98547701D01*
X160414500Y-98376611D01*
X160414500Y-97264846D01*
X160434185Y-97197807D01*
X160486989Y-97152052D01*
X160556147Y-97142108D01*
X160619703Y-97171133D01*
X160638819Y-97191961D01*
X160646143Y-97202042D01*
X160801958Y-97357857D01*
X160980239Y-97487386D01*
X161176589Y-97587432D01*
X161386163Y-97655526D01*
X161463999Y-97667854D01*
X161464000Y-97667854D01*
X161464000Y-96723012D01*
X161521007Y-96755925D01*
X161648174Y-96790000D01*
X161779826Y-96790000D01*
X161906993Y-96755925D01*
X161964000Y-96723012D01*
X161964000Y-97667854D01*
X162041834Y-97655526D01*
X162041837Y-97655526D01*
X162251410Y-97587432D01*
X162447760Y-97487386D01*
X162626041Y-97357857D01*
X162781857Y-97202041D01*
X162911386Y-97023760D01*
X163011432Y-96827410D01*
X163079527Y-96617834D01*
X163083027Y-96595737D01*
X163112956Y-96532602D01*
X163172267Y-96495670D01*
X163242130Y-96496668D01*
X163300363Y-96535277D01*
X163328477Y-96599241D01*
X163329500Y-96615134D01*
X163329500Y-100975500D01*
X163309815Y-101042539D01*
X163257011Y-101088294D01*
X163205500Y-101099500D01*
X51424500Y-101099500D01*
X51357461Y-101079815D01*
X51311706Y-101027011D01*
X51300500Y-100975500D01*
X51300500Y-94553905D01*
X53626000Y-94553905D01*
X53626000Y-94816094D01*
X53660220Y-95076009D01*
X53660222Y-95076020D01*
X53728075Y-95329255D01*
X53828404Y-95571471D01*
X53828409Y-95571482D01*
X53959488Y-95798516D01*
X53959494Y-95798524D01*
X54046080Y-95911365D01*
X54948421Y-95009024D01*
X54961359Y-95040258D01*
X55043437Y-95163097D01*
X55147903Y-95267563D01*
X55270742Y-95349641D01*
X55301974Y-95362577D01*
X54399633Y-96264917D01*
X54399633Y-96264918D01*
X54512475Y-96351505D01*
X54512483Y-96351511D01*
X54739517Y-96482590D01*
X54739528Y-96482595D01*
X54981744Y-96582924D01*
X55234979Y-96650777D01*
X55234990Y-96650779D01*
X55494905Y-96684999D01*
X55494920Y-96685000D01*
X55757080Y-96685000D01*
X55757094Y-96684999D01*
X56017009Y-96650779D01*
X56017020Y-96650777D01*
X56270255Y-96582924D01*
X56512471Y-96482595D01*
X56512482Y-96482590D01*
X56739516Y-96351511D01*
X56739534Y-96351499D01*
X56852365Y-96264919D01*
X56852365Y-96264917D01*
X55950025Y-95362578D01*
X55981258Y-95349641D01*
X56104097Y-95267563D01*
X56208563Y-95163097D01*
X56290641Y-95040258D01*
X56303577Y-95009025D01*
X57205917Y-95911365D01*
X57205919Y-95911365D01*
X57292499Y-95798534D01*
X57292511Y-95798516D01*
X57423590Y-95571482D01*
X57423598Y-95571466D01*
X57522722Y-95332158D01*
X57566563Y-95277754D01*
X57632857Y-95255689D01*
X57700556Y-95272968D01*
X57747767Y-95323314D01*
X57756474Y-95340402D01*
X57756476Y-95340405D01*
X57872172Y-95499646D01*
X58011354Y-95638828D01*
X58170595Y-95754524D01*
X58253455Y-95796743D01*
X58345970Y-95843882D01*
X58345972Y-95843882D01*
X58345975Y-95843884D01*
X58446317Y-95876487D01*
X58533173Y-95904709D01*
X58727578Y-95935500D01*
X58727583Y-95935500D01*
X58924422Y-95935500D01*
X59118826Y-95904709D01*
X59178560Y-95885300D01*
X59306025Y-95843884D01*
X59481405Y-95754524D01*
X59640646Y-95638828D01*
X59779828Y-95499646D01*
X59895524Y-95340405D01*
X59984884Y-95165025D01*
X60045709Y-94977826D01*
X60057439Y-94903767D01*
X60076500Y-94783422D01*
X60076500Y-94586577D01*
X60074437Y-94573549D01*
X66625500Y-94573549D01*
X66625500Y-94796450D01*
X66625501Y-94796466D01*
X66654594Y-95017452D01*
X66654595Y-95017457D01*
X66654596Y-95017463D01*
X66709984Y-95224174D01*
X66712290Y-95232780D01*
X66712293Y-95232790D01*
X66797593Y-95438722D01*
X66797595Y-95438726D01*
X66909052Y-95631774D01*
X66909057Y-95631780D01*
X66909058Y-95631782D01*
X67044751Y-95808622D01*
X67044757Y-95808629D01*
X67202370Y-95966242D01*
X67202376Y-95966247D01*
X67379226Y-96101948D01*
X67572274Y-96213405D01*
X67778219Y-96298710D01*
X67993537Y-96356404D01*
X68214543Y-96385500D01*
X68214550Y-96385500D01*
X68437450Y-96385500D01*
X68437457Y-96385500D01*
X68658463Y-96356404D01*
X68873781Y-96298710D01*
X69079726Y-96213405D01*
X69272774Y-96101948D01*
X69449624Y-95966247D01*
X69500141Y-95915730D01*
X129680849Y-95915730D01*
X129680849Y-97124269D01*
X129683702Y-97154699D01*
X129683702Y-97154701D01*
X129728555Y-97282880D01*
X129728556Y-97282882D01*
X129809199Y-97392150D01*
X129918467Y-97472793D01*
X129944925Y-97482051D01*
X130046648Y-97517646D01*
X130077079Y-97520500D01*
X130077083Y-97520500D01*
X131285619Y-97520500D01*
X131316048Y-97517646D01*
X131316050Y-97517646D01*
X131402526Y-97487386D01*
X131444231Y-97472793D01*
X131553499Y-97392150D01*
X131634142Y-97282882D01*
X131662429Y-97202042D01*
X131678995Y-97154701D01*
X131678995Y-97154699D01*
X131681849Y-97124269D01*
X131681849Y-96618543D01*
X133180848Y-96618543D01*
X133219296Y-96811829D01*
X133219299Y-96811839D01*
X133294713Y-96993907D01*
X133294720Y-96993920D01*
X133404209Y-97157781D01*
X133404212Y-97157785D01*
X133543563Y-97297136D01*
X133543567Y-97297139D01*
X133707428Y-97406628D01*
X133707441Y-97406635D01*
X133867163Y-97472793D01*
X133889514Y-97482051D01*
X133889518Y-97482051D01*
X133889519Y-97482052D01*
X134082805Y-97520500D01*
X134082808Y-97520500D01*
X134279892Y-97520500D01*
X134446363Y-97487386D01*
X134473184Y-97482051D01*
X134655263Y-97406632D01*
X134819131Y-97297139D01*
X134958488Y-97157782D01*
X135067981Y-96993914D01*
X135143400Y-96811835D01*
X135167615Y-96690099D01*
X135181849Y-96618543D01*
X135181849Y-96421456D01*
X135143401Y-96228170D01*
X135143400Y-96228169D01*
X135143400Y-96228165D01*
X135138609Y-96216598D01*
X135067984Y-96046092D01*
X135067977Y-96046079D01*
X134958488Y-95882218D01*
X134958485Y-95882214D01*
X134819134Y-95742863D01*
X134819130Y-95742860D01*
X134655269Y-95633371D01*
X134655256Y-95633364D01*
X134473188Y-95557950D01*
X134473178Y-95557947D01*
X134279892Y-95519500D01*
X134279890Y-95519500D01*
X134082808Y-95519500D01*
X134082806Y-95519500D01*
X133889519Y-95557947D01*
X133889509Y-95557950D01*
X133707441Y-95633364D01*
X133707428Y-95633371D01*
X133543567Y-95742860D01*
X133543563Y-95742863D01*
X133404212Y-95882214D01*
X133404209Y-95882218D01*
X133294720Y-96046079D01*
X133294713Y-96046092D01*
X133219299Y-96228160D01*
X133219296Y-96228170D01*
X133180849Y-96421456D01*
X133180849Y-96421459D01*
X133180849Y-96618541D01*
X133180849Y-96618543D01*
X133180848Y-96618543D01*
X131681849Y-96618543D01*
X131681849Y-95915730D01*
X131678995Y-95885300D01*
X131678995Y-95885298D01*
X131634142Y-95757119D01*
X131634141Y-95757117D01*
X131553499Y-95647850D01*
X131444231Y-95567207D01*
X131444229Y-95567206D01*
X131316049Y-95522353D01*
X131285619Y-95519500D01*
X131285615Y-95519500D01*
X130077083Y-95519500D01*
X130077079Y-95519500D01*
X130046649Y-95522353D01*
X130046647Y-95522353D01*
X129918468Y-95567206D01*
X129918466Y-95567207D01*
X129809199Y-95647850D01*
X129728556Y-95757117D01*
X129728555Y-95757119D01*
X129683702Y-95885298D01*
X129683702Y-95885300D01*
X129680849Y-95915730D01*
X69500141Y-95915730D01*
X69511162Y-95904709D01*
X69590718Y-95825154D01*
X69607242Y-95808629D01*
X69607247Y-95808624D01*
X69742948Y-95631774D01*
X69854405Y-95438726D01*
X69939710Y-95232781D01*
X69952752Y-95184108D01*
X123959500Y-95184108D01*
X123959500Y-95315892D01*
X123966068Y-95340405D01*
X123993608Y-95443187D01*
X124026205Y-95499646D01*
X124059500Y-95557314D01*
X124152686Y-95650500D01*
X124266814Y-95716392D01*
X124394108Y-95750500D01*
X124394110Y-95750500D01*
X124525890Y-95750500D01*
X124525892Y-95750500D01*
X124653186Y-95716392D01*
X124767314Y-95650500D01*
X124780995Y-95636819D01*
X124842318Y-95603334D01*
X124868676Y-95600500D01*
X126591324Y-95600500D01*
X126658363Y-95620185D01*
X126679005Y-95636819D01*
X126692686Y-95650500D01*
X126806814Y-95716392D01*
X126934108Y-95750500D01*
X126934110Y-95750500D01*
X127065890Y-95750500D01*
X127065892Y-95750500D01*
X127193186Y-95716392D01*
X127307314Y-95650500D01*
X127400500Y-95557314D01*
X127466392Y-95443186D01*
X127500500Y-95315892D01*
X127500500Y-95203389D01*
X149013500Y-95203389D01*
X149013500Y-96376610D01*
X149040033Y-96544139D01*
X149040598Y-96547701D01*
X149094127Y-96712445D01*
X149172768Y-96866788D01*
X149274586Y-97006928D01*
X149397072Y-97129414D01*
X149537212Y-97231232D01*
X149691555Y-97309873D01*
X149856299Y-97363402D01*
X150027389Y-97390500D01*
X150027390Y-97390500D01*
X150200610Y-97390500D01*
X150200611Y-97390500D01*
X150371701Y-97363402D01*
X150536445Y-97309873D01*
X150690788Y-97231232D01*
X150729110Y-97203389D01*
X152713500Y-97203389D01*
X152713500Y-98376611D01*
X152740598Y-98547701D01*
X152794127Y-98712445D01*
X152872768Y-98866788D01*
X152974586Y-99006928D01*
X153097072Y-99129414D01*
X153237212Y-99231232D01*
X153391555Y-99309873D01*
X153556299Y-99363402D01*
X153727389Y-99390500D01*
X153727390Y-99390500D01*
X153900610Y-99390500D01*
X153900611Y-99390500D01*
X154071701Y-99363402D01*
X154236445Y-99309873D01*
X154390788Y-99231232D01*
X154530928Y-99129414D01*
X154653414Y-99006928D01*
X154755232Y-98866788D01*
X154833873Y-98712445D01*
X154887402Y-98547701D01*
X154914500Y-98376611D01*
X154914500Y-97371056D01*
X154934185Y-97304017D01*
X154986989Y-97258262D01*
X155056147Y-97248318D01*
X155094791Y-97260569D01*
X155191555Y-97309873D01*
X155356299Y-97363402D01*
X155527389Y-97390500D01*
X155527390Y-97390500D01*
X155700610Y-97390500D01*
X155700611Y-97390500D01*
X155871701Y-97363402D01*
X156036445Y-97309873D01*
X156190788Y-97231232D01*
X156330928Y-97129414D01*
X156453414Y-97006928D01*
X156555232Y-96866788D01*
X156633873Y-96712445D01*
X156687402Y-96547701D01*
X156714500Y-96376611D01*
X156714500Y-95203389D01*
X156696161Y-95087603D01*
X156687403Y-95032303D01*
X156687402Y-95032302D01*
X156687402Y-95032299D01*
X156633873Y-94867555D01*
X156555232Y-94713212D01*
X156453414Y-94573072D01*
X156330928Y-94450586D01*
X156190788Y-94348768D01*
X156047084Y-94275548D01*
X156036447Y-94270128D01*
X156036446Y-94270127D01*
X156036445Y-94270127D01*
X155871701Y-94216598D01*
X155871699Y-94216597D01*
X155871698Y-94216597D01*
X155740271Y-94195781D01*
X155700611Y-94189500D01*
X155527389Y-94189500D01*
X155487728Y-94195781D01*
X155356302Y-94216597D01*
X155191552Y-94270128D01*
X155037211Y-94348768D01*
X154977470Y-94392173D01*
X154897072Y-94450586D01*
X154897070Y-94450588D01*
X154897069Y-94450588D01*
X154774588Y-94573069D01*
X154774588Y-94573070D01*
X154774586Y-94573072D01*
X154730859Y-94633256D01*
X154672768Y-94713211D01*
X154594128Y-94867552D01*
X154540597Y-95032302D01*
X154513500Y-95203389D01*
X154513500Y-96208943D01*
X154493815Y-96275982D01*
X154441011Y-96321737D01*
X154371853Y-96331681D01*
X154333206Y-96319428D01*
X154236450Y-96270129D01*
X154236447Y-96270128D01*
X154236445Y-96270127D01*
X154071701Y-96216598D01*
X154071699Y-96216597D01*
X154071698Y-96216597D01*
X153940271Y-96195781D01*
X153900611Y-96189500D01*
X153727389Y-96189500D01*
X153687728Y-96195781D01*
X153556302Y-96216597D01*
X153556299Y-96216598D01*
X153407584Y-96264919D01*
X153391552Y-96270128D01*
X153237211Y-96348768D01*
X153186655Y-96385500D01*
X153097072Y-96450586D01*
X153097070Y-96450588D01*
X153097069Y-96450588D01*
X152974588Y-96573069D01*
X152974588Y-96573070D01*
X152974586Y-96573072D01*
X152941551Y-96618541D01*
X152872768Y-96713211D01*
X152794128Y-96867552D01*
X152740597Y-97032302D01*
X152713713Y-97202042D01*
X152713500Y-97203389D01*
X150729110Y-97203389D01*
X150830928Y-97129414D01*
X150953414Y-97006928D01*
X151055232Y-96866788D01*
X151133873Y-96712445D01*
X151187402Y-96547701D01*
X151214500Y-96376611D01*
X151214500Y-95203389D01*
X151187402Y-95032299D01*
X151133873Y-94867555D01*
X151055232Y-94713212D01*
X150953414Y-94573072D01*
X150830928Y-94450586D01*
X150690788Y-94348768D01*
X150547084Y-94275548D01*
X150536447Y-94270128D01*
X150536446Y-94270127D01*
X150536445Y-94270127D01*
X150371701Y-94216598D01*
X150371699Y-94216597D01*
X150371698Y-94216597D01*
X150240271Y-94195781D01*
X150200611Y-94189500D01*
X150027389Y-94189500D01*
X149987728Y-94195781D01*
X149856302Y-94216597D01*
X149691552Y-94270128D01*
X149537211Y-94348768D01*
X149477470Y-94392173D01*
X149397072Y-94450586D01*
X149397070Y-94450588D01*
X149397069Y-94450588D01*
X149274588Y-94573069D01*
X149274588Y-94573070D01*
X149274586Y-94573072D01*
X149230859Y-94633256D01*
X149172768Y-94713211D01*
X149094128Y-94867552D01*
X149040597Y-95032302D01*
X149013500Y-95203389D01*
X127500500Y-95203389D01*
X127500500Y-95184108D01*
X127466392Y-95056814D01*
X127400500Y-94942686D01*
X127307314Y-94849500D01*
X127215457Y-94796466D01*
X127193187Y-94783608D01*
X127129539Y-94766554D01*
X127065892Y-94749500D01*
X126934108Y-94749500D01*
X126806812Y-94783608D01*
X126692686Y-94849500D01*
X126692683Y-94849502D01*
X126679005Y-94863181D01*
X126617682Y-94896666D01*
X126591324Y-94899500D01*
X124868676Y-94899500D01*
X124801637Y-94879815D01*
X124780995Y-94863181D01*
X124767316Y-94849502D01*
X124767314Y-94849500D01*
X124675457Y-94796466D01*
X124653187Y-94783608D01*
X124589539Y-94766554D01*
X124525892Y-94749500D01*
X124394108Y-94749500D01*
X124266812Y-94783608D01*
X124152686Y-94849500D01*
X124152683Y-94849502D01*
X124059502Y-94942683D01*
X124059500Y-94942686D01*
X123993608Y-95056812D01*
X123985358Y-95087603D01*
X123959500Y-95184108D01*
X69952752Y-95184108D01*
X69997404Y-95017463D01*
X70026500Y-94796457D01*
X70026500Y-94573543D01*
X69997404Y-94352537D01*
X69939710Y-94137219D01*
X69923250Y-94097482D01*
X69908197Y-94061140D01*
X69854405Y-93931274D01*
X69742948Y-93738226D01*
X69648759Y-93615476D01*
X69607248Y-93561377D01*
X69607242Y-93561370D01*
X69449629Y-93403757D01*
X69449622Y-93403751D01*
X69272782Y-93268058D01*
X69272780Y-93268057D01*
X69272774Y-93268052D01*
X69079726Y-93156595D01*
X69079722Y-93156593D01*
X68873790Y-93071293D01*
X68873783Y-93071291D01*
X68873781Y-93071290D01*
X68658463Y-93013596D01*
X68658457Y-93013595D01*
X68658452Y-93013594D01*
X68437466Y-92984501D01*
X68437463Y-92984500D01*
X68437457Y-92984500D01*
X68214543Y-92984500D01*
X68214537Y-92984500D01*
X68214533Y-92984501D01*
X67993547Y-93013594D01*
X67993540Y-93013595D01*
X67993537Y-93013596D01*
X67778219Y-93071290D01*
X67778209Y-93071293D01*
X67572277Y-93156593D01*
X67572273Y-93156595D01*
X67379226Y-93268052D01*
X67379217Y-93268058D01*
X67202377Y-93403751D01*
X67202370Y-93403757D01*
X67044757Y-93561370D01*
X67044751Y-93561377D01*
X66909058Y-93738217D01*
X66909052Y-93738226D01*
X66797595Y-93931273D01*
X66797593Y-93931277D01*
X66712293Y-94137209D01*
X66712290Y-94137219D01*
X66667200Y-94305500D01*
X66654597Y-94352534D01*
X66654594Y-94352547D01*
X66625501Y-94573533D01*
X66625500Y-94573549D01*
X60074437Y-94573549D01*
X60045709Y-94392173D01*
X60007814Y-94275546D01*
X59984884Y-94204975D01*
X59984882Y-94204972D01*
X59984882Y-94204970D01*
X59927186Y-94091735D01*
X59895524Y-94029595D01*
X59779828Y-93870354D01*
X59640646Y-93731172D01*
X59481405Y-93615476D01*
X59306029Y-93526117D01*
X59118826Y-93465290D01*
X58924422Y-93434500D01*
X58924417Y-93434500D01*
X58727583Y-93434500D01*
X58727578Y-93434500D01*
X58533173Y-93465290D01*
X58345970Y-93526117D01*
X58170594Y-93615476D01*
X58079741Y-93681485D01*
X58011354Y-93731172D01*
X58011352Y-93731174D01*
X58011351Y-93731174D01*
X57872174Y-93870351D01*
X57872174Y-93870352D01*
X57872172Y-93870354D01*
X57869588Y-93873911D01*
X57756474Y-94029597D01*
X57747766Y-94046687D01*
X57699790Y-94097482D01*
X57631968Y-94114275D01*
X57565834Y-94091735D01*
X57522722Y-94037841D01*
X57423598Y-93798534D01*
X57423590Y-93798517D01*
X57292511Y-93571483D01*
X57292505Y-93571475D01*
X57205918Y-93458633D01*
X57205917Y-93458633D01*
X56303577Y-94360973D01*
X56290641Y-94329742D01*
X56208563Y-94206903D01*
X56104097Y-94102437D01*
X55981258Y-94020359D01*
X55950023Y-94007421D01*
X56852365Y-93105080D01*
X56739524Y-93018494D01*
X56739516Y-93018488D01*
X56512482Y-92887409D01*
X56512471Y-92887404D01*
X56270255Y-92787075D01*
X56017020Y-92719222D01*
X56017009Y-92719220D01*
X55757094Y-92685000D01*
X55494905Y-92685000D01*
X55234990Y-92719220D01*
X55234979Y-92719222D01*
X54981744Y-92787075D01*
X54739528Y-92887404D01*
X54739517Y-92887409D01*
X54512471Y-93018496D01*
X54399633Y-93105079D01*
X54399633Y-93105080D01*
X55301974Y-94007421D01*
X55270742Y-94020359D01*
X55147903Y-94102437D01*
X55043437Y-94206903D01*
X54961359Y-94329742D01*
X54948421Y-94360974D01*
X54046080Y-93458633D01*
X54046079Y-93458633D01*
X53959496Y-93571471D01*
X53828409Y-93798517D01*
X53828404Y-93798528D01*
X53728075Y-94040744D01*
X53660222Y-94293979D01*
X53660220Y-94293990D01*
X53626000Y-94553905D01*
X51300500Y-94553905D01*
X51300500Y-92440258D01*
X63425500Y-92440258D01*
X63425500Y-92669741D01*
X63444010Y-92810330D01*
X63455452Y-92897238D01*
X63487942Y-93018494D01*
X63514842Y-93118887D01*
X63602650Y-93330876D01*
X63602657Y-93330890D01*
X63717392Y-93529617D01*
X63857081Y-93711661D01*
X63857089Y-93711670D01*
X64019330Y-93873911D01*
X64019338Y-93873918D01*
X64201382Y-94013607D01*
X64201385Y-94013608D01*
X64201388Y-94013611D01*
X64400112Y-94128344D01*
X64400117Y-94128346D01*
X64400123Y-94128349D01*
X64491480Y-94166190D01*
X64612113Y-94216158D01*
X64833762Y-94275548D01*
X65061266Y-94305500D01*
X65061273Y-94305500D01*
X65290727Y-94305500D01*
X65290734Y-94305500D01*
X65518238Y-94275548D01*
X65739887Y-94216158D01*
X65951888Y-94128344D01*
X66150612Y-94013611D01*
X66332661Y-93873919D01*
X66332665Y-93873914D01*
X66332670Y-93873911D01*
X66494911Y-93711670D01*
X66494914Y-93711665D01*
X66494919Y-93711661D01*
X66634611Y-93529612D01*
X66749344Y-93330888D01*
X66837158Y-93118887D01*
X66896548Y-92897238D01*
X66905217Y-92831389D01*
X80219500Y-92831389D01*
X80219500Y-93004610D01*
X80243571Y-93156593D01*
X80246598Y-93175701D01*
X80300127Y-93340445D01*
X80378768Y-93494788D01*
X80480586Y-93634928D01*
X80603072Y-93757414D01*
X80743212Y-93859232D01*
X80897555Y-93937873D01*
X81062299Y-93991402D01*
X81233389Y-94018500D01*
X81233390Y-94018500D01*
X81406610Y-94018500D01*
X81406611Y-94018500D01*
X81577701Y-93991402D01*
X81742445Y-93937873D01*
X81896788Y-93859232D01*
X82036928Y-93757414D01*
X82159414Y-93634928D01*
X82261232Y-93494788D01*
X82339873Y-93340445D01*
X82393402Y-93175701D01*
X82420500Y-93004611D01*
X82420500Y-92831389D01*
X82719500Y-92831389D01*
X82719500Y-93004610D01*
X82743571Y-93156593D01*
X82746598Y-93175701D01*
X82800127Y-93340445D01*
X82878768Y-93494788D01*
X82980586Y-93634928D01*
X83103072Y-93757414D01*
X83243212Y-93859232D01*
X83397555Y-93937873D01*
X83562299Y-93991402D01*
X83733389Y-94018500D01*
X83733390Y-94018500D01*
X83906610Y-94018500D01*
X83906611Y-94018500D01*
X84077701Y-93991402D01*
X84242445Y-93937873D01*
X84396788Y-93859232D01*
X84536928Y-93757414D01*
X84659414Y-93634928D01*
X84761232Y-93494788D01*
X84839873Y-93340445D01*
X84893402Y-93175701D01*
X84920500Y-93004611D01*
X84920500Y-92831389D01*
X85219500Y-92831389D01*
X85219500Y-93004610D01*
X85243571Y-93156593D01*
X85246598Y-93175701D01*
X85300127Y-93340445D01*
X85378768Y-93494788D01*
X85480586Y-93634928D01*
X85603072Y-93757414D01*
X85743212Y-93859232D01*
X85897555Y-93937873D01*
X86062299Y-93991402D01*
X86233389Y-94018500D01*
X86233390Y-94018500D01*
X86406610Y-94018500D01*
X86406611Y-94018500D01*
X86577701Y-93991402D01*
X86742445Y-93937873D01*
X86896788Y-93859232D01*
X87036928Y-93757414D01*
X87159414Y-93634928D01*
X87261232Y-93494788D01*
X87339873Y-93340445D01*
X87393402Y-93175701D01*
X87420500Y-93004611D01*
X87420500Y-92831389D01*
X87393402Y-92660299D01*
X87339873Y-92495555D01*
X87261232Y-92341212D01*
X87159414Y-92201072D01*
X87036928Y-92078586D01*
X86896788Y-91976768D01*
X86742445Y-91898127D01*
X86577701Y-91844598D01*
X86577699Y-91844597D01*
X86577698Y-91844597D01*
X86446271Y-91823781D01*
X86406611Y-91817500D01*
X86233389Y-91817500D01*
X86193728Y-91823781D01*
X86062302Y-91844597D01*
X85897552Y-91898128D01*
X85743211Y-91976768D01*
X85663256Y-92034859D01*
X85603072Y-92078586D01*
X85603070Y-92078588D01*
X85603069Y-92078588D01*
X85480588Y-92201069D01*
X85480588Y-92201070D01*
X85480586Y-92201072D01*
X85472095Y-92212759D01*
X85378768Y-92341211D01*
X85300128Y-92495552D01*
X85246597Y-92660302D01*
X85219500Y-92831389D01*
X84920500Y-92831389D01*
X84893402Y-92660299D01*
X84839873Y-92495555D01*
X84761232Y-92341212D01*
X84659414Y-92201072D01*
X84536928Y-92078586D01*
X84396788Y-91976768D01*
X84242445Y-91898127D01*
X84077701Y-91844598D01*
X84077699Y-91844597D01*
X84077698Y-91844597D01*
X83946271Y-91823781D01*
X83906611Y-91817500D01*
X83733389Y-91817500D01*
X83693728Y-91823781D01*
X83562302Y-91844597D01*
X83397552Y-91898128D01*
X83243211Y-91976768D01*
X83163256Y-92034859D01*
X83103072Y-92078586D01*
X83103070Y-92078588D01*
X83103069Y-92078588D01*
X82980588Y-92201069D01*
X82980588Y-92201070D01*
X82980586Y-92201072D01*
X82972095Y-92212759D01*
X82878768Y-92341211D01*
X82800128Y-92495552D01*
X82746597Y-92660302D01*
X82719500Y-92831389D01*
X82420500Y-92831389D01*
X82393402Y-92660299D01*
X82339873Y-92495555D01*
X82261232Y-92341212D01*
X82159414Y-92201072D01*
X82036928Y-92078586D01*
X81896788Y-91976768D01*
X81742445Y-91898127D01*
X81577701Y-91844598D01*
X81577699Y-91844597D01*
X81577698Y-91844597D01*
X81446271Y-91823781D01*
X81406611Y-91817500D01*
X81233389Y-91817500D01*
X81193728Y-91823781D01*
X81062302Y-91844597D01*
X80897552Y-91898128D01*
X80743211Y-91976768D01*
X80663256Y-92034859D01*
X80603072Y-92078586D01*
X80603070Y-92078588D01*
X80603069Y-92078588D01*
X80480588Y-92201069D01*
X80480588Y-92201070D01*
X80480586Y-92201072D01*
X80472095Y-92212759D01*
X80378768Y-92341211D01*
X80300128Y-92495552D01*
X80246597Y-92660302D01*
X80219500Y-92831389D01*
X66905217Y-92831389D01*
X66926500Y-92669734D01*
X66926500Y-92440266D01*
X66896548Y-92212762D01*
X66837158Y-91991113D01*
X66749344Y-91779112D01*
X66634611Y-91580388D01*
X66634608Y-91580385D01*
X66634607Y-91580382D01*
X66494918Y-91398338D01*
X66494911Y-91398330D01*
X66332670Y-91236089D01*
X66332661Y-91236081D01*
X66150617Y-91096392D01*
X65951890Y-90981657D01*
X65951876Y-90981650D01*
X65739887Y-90893842D01*
X65518238Y-90834452D01*
X65480215Y-90829446D01*
X65290741Y-90804500D01*
X65290734Y-90804500D01*
X65061266Y-90804500D01*
X65061258Y-90804500D01*
X64844715Y-90833009D01*
X64833762Y-90834452D01*
X64740076Y-90859554D01*
X64612112Y-90893842D01*
X64400123Y-90981650D01*
X64400109Y-90981657D01*
X64201382Y-91096392D01*
X64019338Y-91236081D01*
X63857081Y-91398338D01*
X63717392Y-91580382D01*
X63602657Y-91779109D01*
X63602650Y-91779123D01*
X63514842Y-91991112D01*
X63455453Y-92212759D01*
X63455451Y-92212770D01*
X63425500Y-92440258D01*
X51300500Y-92440258D01*
X51300500Y-90104108D01*
X101099500Y-90104108D01*
X101099500Y-90235891D01*
X101133608Y-90363187D01*
X101166554Y-90420250D01*
X101199500Y-90477314D01*
X101292686Y-90570500D01*
X101406814Y-90636392D01*
X101534108Y-90670500D01*
X101534110Y-90670500D01*
X101665890Y-90670500D01*
X101665892Y-90670500D01*
X101793186Y-90636392D01*
X101907314Y-90570500D01*
X102000500Y-90477314D01*
X102066392Y-90363186D01*
X102100500Y-90235892D01*
X102100500Y-90216544D01*
X102120185Y-90149505D01*
X102136819Y-90128863D01*
X103463863Y-88801819D01*
X103525186Y-88768334D01*
X103551544Y-88765500D01*
X103570890Y-88765500D01*
X103570892Y-88765500D01*
X103698186Y-88731392D01*
X103812314Y-88665500D01*
X103905500Y-88572314D01*
X103971392Y-88458186D01*
X104005500Y-88330892D01*
X104005500Y-88199108D01*
X103971392Y-88071814D01*
X103905500Y-87957686D01*
X103812314Y-87864500D01*
X103755250Y-87831554D01*
X103698187Y-87798608D01*
X103634539Y-87781554D01*
X103570892Y-87764500D01*
X103439108Y-87764500D01*
X103311812Y-87798608D01*
X103197686Y-87864500D01*
X103197683Y-87864502D01*
X103104502Y-87957683D01*
X103104500Y-87957686D01*
X103038608Y-88071812D01*
X103004500Y-88199108D01*
X103004500Y-88218456D01*
X102984815Y-88285495D01*
X102968181Y-88306137D01*
X101641137Y-89633181D01*
X101579814Y-89666666D01*
X101553456Y-89669500D01*
X101534108Y-89669500D01*
X101406812Y-89703608D01*
X101292686Y-89769500D01*
X101292683Y-89769502D01*
X101199502Y-89862683D01*
X101199500Y-89862686D01*
X101133608Y-89976812D01*
X101099500Y-90104108D01*
X51300500Y-90104108D01*
X51300500Y-85783186D01*
X77019500Y-85783186D01*
X77019500Y-86052813D01*
X77049686Y-86320719D01*
X77049687Y-86320728D01*
X77049688Y-86320732D01*
X77059286Y-86362782D01*
X77109684Y-86583594D01*
X77109687Y-86583602D01*
X77198734Y-86838082D01*
X77315714Y-87080994D01*
X77315716Y-87080997D01*
X77459162Y-87309289D01*
X77627266Y-87520085D01*
X77817915Y-87710734D01*
X78028711Y-87878838D01*
X78257003Y-88022284D01*
X78499921Y-88139267D01*
X78670937Y-88199108D01*
X78754397Y-88228312D01*
X78754405Y-88228315D01*
X78754408Y-88228315D01*
X78754409Y-88228316D01*
X79017268Y-88288312D01*
X79285187Y-88318499D01*
X79285188Y-88318500D01*
X79285191Y-88318500D01*
X79554812Y-88318500D01*
X79554812Y-88318499D01*
X79822732Y-88288312D01*
X80085591Y-88228316D01*
X80340079Y-88139267D01*
X80582997Y-88022284D01*
X80811289Y-87878838D01*
X81022085Y-87710734D01*
X81212734Y-87520085D01*
X81380838Y-87309289D01*
X81524284Y-87080997D01*
X81641267Y-86838079D01*
X81730316Y-86583591D01*
X81790312Y-86320732D01*
X81820500Y-86052809D01*
X81820500Y-85783191D01*
X81820499Y-85783186D01*
X85819500Y-85783186D01*
X85819500Y-86052813D01*
X85849686Y-86320719D01*
X85849687Y-86320728D01*
X85849688Y-86320732D01*
X85859286Y-86362782D01*
X85909684Y-86583594D01*
X85909687Y-86583602D01*
X85998734Y-86838082D01*
X86115714Y-87080994D01*
X86115716Y-87080997D01*
X86259162Y-87309289D01*
X86427266Y-87520085D01*
X86617915Y-87710734D01*
X86828711Y-87878838D01*
X87057003Y-88022284D01*
X87299921Y-88139267D01*
X87470937Y-88199108D01*
X87554397Y-88228312D01*
X87554405Y-88228315D01*
X87554408Y-88228315D01*
X87554409Y-88228316D01*
X87817268Y-88288312D01*
X88085187Y-88318499D01*
X88085188Y-88318500D01*
X88085191Y-88318500D01*
X88354812Y-88318500D01*
X88354812Y-88318499D01*
X88622732Y-88288312D01*
X88885591Y-88228316D01*
X89140079Y-88139267D01*
X89382997Y-88022284D01*
X89611289Y-87878838D01*
X89822085Y-87710734D01*
X90012734Y-87520085D01*
X90180838Y-87309289D01*
X90324284Y-87080997D01*
X90441267Y-86838079D01*
X90530316Y-86583591D01*
X90590312Y-86320732D01*
X90620500Y-86052809D01*
X90620500Y-85783191D01*
X90590312Y-85515268D01*
X90530316Y-85252409D01*
X90529851Y-85251079D01*
X90497558Y-85158790D01*
X90484240Y-85120730D01*
X131331849Y-85120730D01*
X131331849Y-86329269D01*
X131334702Y-86359699D01*
X131334702Y-86359701D01*
X131379555Y-86487880D01*
X131379556Y-86487882D01*
X131460199Y-86597150D01*
X131569467Y-86677793D01*
X131595925Y-86687051D01*
X131697648Y-86722646D01*
X131728079Y-86725500D01*
X131728083Y-86725500D01*
X132936619Y-86725500D01*
X132967048Y-86722646D01*
X132967050Y-86722646D01*
X133031139Y-86700219D01*
X133095231Y-86677793D01*
X133204499Y-86597150D01*
X133285142Y-86487882D01*
X133307568Y-86423790D01*
X133329995Y-86359701D01*
X133329995Y-86359699D01*
X133332849Y-86329269D01*
X133332849Y-85823543D01*
X134831848Y-85823543D01*
X134870296Y-86016829D01*
X134870299Y-86016839D01*
X134945713Y-86198907D01*
X134945720Y-86198920D01*
X135055209Y-86362781D01*
X135055212Y-86362785D01*
X135194563Y-86502136D01*
X135194567Y-86502139D01*
X135358428Y-86611628D01*
X135358441Y-86611635D01*
X135518163Y-86677793D01*
X135540514Y-86687051D01*
X135540518Y-86687051D01*
X135540519Y-86687052D01*
X135733805Y-86725500D01*
X135733808Y-86725500D01*
X135930892Y-86725500D01*
X136060931Y-86699632D01*
X136124184Y-86687051D01*
X136306263Y-86611632D01*
X136470131Y-86502139D01*
X136609488Y-86362782D01*
X136718981Y-86198914D01*
X136794400Y-86016835D01*
X136832849Y-85823541D01*
X136832849Y-85626459D01*
X136832849Y-85626456D01*
X136794401Y-85433170D01*
X136794400Y-85433169D01*
X136794400Y-85433165D01*
X136794398Y-85433160D01*
X136718984Y-85251092D01*
X136718977Y-85251079D01*
X136609488Y-85087218D01*
X136609485Y-85087214D01*
X136470134Y-84947863D01*
X136470130Y-84947860D01*
X136306269Y-84838371D01*
X136306256Y-84838364D01*
X136124188Y-84762950D01*
X136124178Y-84762947D01*
X135930892Y-84724500D01*
X135930890Y-84724500D01*
X135733808Y-84724500D01*
X135733806Y-84724500D01*
X135540519Y-84762947D01*
X135540509Y-84762950D01*
X135358441Y-84838364D01*
X135358428Y-84838371D01*
X135194567Y-84947860D01*
X135194563Y-84947863D01*
X135055212Y-85087214D01*
X135055209Y-85087218D01*
X134945720Y-85251079D01*
X134945713Y-85251092D01*
X134870299Y-85433160D01*
X134870296Y-85433170D01*
X134831849Y-85626456D01*
X134831849Y-85626459D01*
X134831849Y-85823541D01*
X134831849Y-85823543D01*
X134831848Y-85823543D01*
X133332849Y-85823543D01*
X133332849Y-85120730D01*
X133329995Y-85090300D01*
X133329995Y-85090298D01*
X133285142Y-84962119D01*
X133285141Y-84962117D01*
X133204499Y-84852850D01*
X133095231Y-84772207D01*
X133095229Y-84772206D01*
X132967049Y-84727353D01*
X132936619Y-84724500D01*
X132936615Y-84724500D01*
X131728083Y-84724500D01*
X131728079Y-84724500D01*
X131697649Y-84727353D01*
X131697647Y-84727353D01*
X131569468Y-84772206D01*
X131569466Y-84772207D01*
X131460199Y-84852850D01*
X131379556Y-84962117D01*
X131379555Y-84962119D01*
X131334702Y-85090298D01*
X131334702Y-85090300D01*
X131331849Y-85120730D01*
X90484240Y-85120730D01*
X90460396Y-85052590D01*
X90441267Y-84997921D01*
X90324284Y-84755003D01*
X90180838Y-84526711D01*
X90012734Y-84315915D01*
X89822085Y-84125266D01*
X89611289Y-83957162D01*
X89382997Y-83813716D01*
X89382994Y-83813714D01*
X89140082Y-83696734D01*
X88885602Y-83607687D01*
X88885594Y-83607684D01*
X88688446Y-83562687D01*
X88622732Y-83547688D01*
X88622728Y-83547687D01*
X88622719Y-83547686D01*
X88354813Y-83517500D01*
X88354809Y-83517500D01*
X88085191Y-83517500D01*
X88085186Y-83517500D01*
X87817280Y-83547686D01*
X87817268Y-83547688D01*
X87554405Y-83607684D01*
X87554397Y-83607687D01*
X87299917Y-83696734D01*
X87057005Y-83813714D01*
X86828712Y-83957161D01*
X86617915Y-84125265D01*
X86427265Y-84315915D01*
X86259161Y-84526712D01*
X86115714Y-84755005D01*
X85998734Y-84997917D01*
X85909687Y-85252397D01*
X85909684Y-85252405D01*
X85849688Y-85515268D01*
X85849686Y-85515280D01*
X85819500Y-85783186D01*
X81820499Y-85783186D01*
X81790312Y-85515268D01*
X81730316Y-85252409D01*
X81641267Y-84997921D01*
X81524284Y-84755003D01*
X81380838Y-84526711D01*
X81212734Y-84315915D01*
X81022085Y-84125266D01*
X80811289Y-83957162D01*
X80582997Y-83813716D01*
X80582994Y-83813714D01*
X80340082Y-83696734D01*
X80085602Y-83607687D01*
X80085594Y-83607684D01*
X79888446Y-83562687D01*
X79822732Y-83547688D01*
X79822728Y-83547687D01*
X79822719Y-83547686D01*
X79554813Y-83517500D01*
X79554809Y-83517500D01*
X79285191Y-83517500D01*
X79285186Y-83517500D01*
X79017280Y-83547686D01*
X79017268Y-83547688D01*
X78754405Y-83607684D01*
X78754397Y-83607687D01*
X78499917Y-83696734D01*
X78257005Y-83813714D01*
X78028712Y-83957161D01*
X77817915Y-84125265D01*
X77627265Y-84315915D01*
X77459161Y-84526712D01*
X77315714Y-84755005D01*
X77198734Y-84997917D01*
X77109687Y-85252397D01*
X77109684Y-85252405D01*
X77049688Y-85515268D01*
X77049686Y-85515280D01*
X77019500Y-85783186D01*
X51300500Y-85783186D01*
X51300500Y-83143549D01*
X53925500Y-83143549D01*
X53925500Y-83366450D01*
X53925501Y-83366466D01*
X53954594Y-83587452D01*
X53954595Y-83587457D01*
X53954596Y-83587463D01*
X53994135Y-83735025D01*
X54012290Y-83802780D01*
X54012293Y-83802790D01*
X54097593Y-84008722D01*
X54097595Y-84008726D01*
X54209052Y-84201774D01*
X54209057Y-84201780D01*
X54209058Y-84201782D01*
X54344751Y-84378622D01*
X54344757Y-84378629D01*
X54502370Y-84536242D01*
X54502376Y-84536247D01*
X54679226Y-84671948D01*
X54872274Y-84783405D01*
X55078219Y-84868710D01*
X55293537Y-84926404D01*
X55514543Y-84955500D01*
X55514550Y-84955500D01*
X55737450Y-84955500D01*
X55737457Y-84955500D01*
X55958463Y-84926404D01*
X56173781Y-84868710D01*
X56379726Y-84783405D01*
X56379733Y-84783401D01*
X56559559Y-84679578D01*
X56562272Y-84678011D01*
X56572774Y-84671948D01*
X56749624Y-84536247D01*
X56907247Y-84378624D01*
X57042948Y-84201774D01*
X57154405Y-84008726D01*
X57239710Y-83802781D01*
X57297404Y-83587463D01*
X57326500Y-83366457D01*
X57326500Y-83156577D01*
X57575500Y-83156577D01*
X57575500Y-83353422D01*
X57606290Y-83547826D01*
X57667117Y-83735029D01*
X57719361Y-83837563D01*
X57756476Y-83910405D01*
X57872172Y-84069646D01*
X58011354Y-84208828D01*
X58170595Y-84324524D01*
X58253455Y-84366743D01*
X58345970Y-84413882D01*
X58345972Y-84413882D01*
X58345975Y-84413884D01*
X58446317Y-84446487D01*
X58533173Y-84474709D01*
X58727578Y-84505500D01*
X58727583Y-84505500D01*
X58924422Y-84505500D01*
X59118826Y-84474709D01*
X59306025Y-84413884D01*
X59481405Y-84324524D01*
X59640646Y-84208828D01*
X59779828Y-84069646D01*
X59895524Y-83910405D01*
X59984884Y-83735025D01*
X60045709Y-83547826D01*
X60071327Y-83386080D01*
X60076500Y-83353422D01*
X60076500Y-83156576D01*
X60073756Y-83139251D01*
X60071325Y-83123905D01*
X66326000Y-83123905D01*
X66326000Y-83386094D01*
X66360220Y-83646009D01*
X66360222Y-83646020D01*
X66428075Y-83899255D01*
X66528404Y-84141471D01*
X66528409Y-84141482D01*
X66659488Y-84368516D01*
X66659494Y-84368524D01*
X66746080Y-84481365D01*
X67648421Y-83579024D01*
X67661359Y-83610258D01*
X67743437Y-83733097D01*
X67847903Y-83837563D01*
X67970742Y-83919641D01*
X68001974Y-83932577D01*
X67099633Y-84834917D01*
X67099633Y-84834918D01*
X67212475Y-84921505D01*
X67212483Y-84921511D01*
X67439517Y-85052590D01*
X67439528Y-85052595D01*
X67681744Y-85152924D01*
X67934979Y-85220777D01*
X67934990Y-85220779D01*
X68194905Y-85254999D01*
X68194920Y-85255000D01*
X68457080Y-85255000D01*
X68457094Y-85254999D01*
X68717009Y-85220779D01*
X68717020Y-85220777D01*
X68970255Y-85152924D01*
X69212471Y-85052595D01*
X69212482Y-85052590D01*
X69439516Y-84921511D01*
X69439534Y-84921499D01*
X69552365Y-84834919D01*
X69552365Y-84834917D01*
X68650025Y-83932578D01*
X68681258Y-83919641D01*
X68804097Y-83837563D01*
X68908563Y-83733097D01*
X68990641Y-83610258D01*
X69003577Y-83579025D01*
X69905917Y-84481365D01*
X69905919Y-84481365D01*
X69992499Y-84368534D01*
X69992511Y-84368516D01*
X70123590Y-84141482D01*
X70123595Y-84141471D01*
X70223924Y-83899255D01*
X70291777Y-83646020D01*
X70291779Y-83646009D01*
X70325999Y-83386094D01*
X70326000Y-83386080D01*
X70326000Y-83123919D01*
X70325999Y-83123905D01*
X70291779Y-82863990D01*
X70291777Y-82863979D01*
X70223924Y-82610744D01*
X70123595Y-82368528D01*
X70123590Y-82368517D01*
X69992511Y-82141483D01*
X69992505Y-82141475D01*
X69905918Y-82028633D01*
X69905917Y-82028633D01*
X69003577Y-82930973D01*
X68990641Y-82899742D01*
X68908563Y-82776903D01*
X68804097Y-82672437D01*
X68681258Y-82590359D01*
X68650023Y-82577421D01*
X69552365Y-81675080D01*
X69439524Y-81588494D01*
X69439516Y-81588488D01*
X69212482Y-81457409D01*
X69212471Y-81457404D01*
X68970255Y-81357075D01*
X68717020Y-81289222D01*
X68717009Y-81289220D01*
X68457094Y-81255000D01*
X68194905Y-81255000D01*
X67934990Y-81289220D01*
X67934979Y-81289222D01*
X67681744Y-81357075D01*
X67439528Y-81457404D01*
X67439517Y-81457409D01*
X67212471Y-81588496D01*
X67099633Y-81675079D01*
X67099633Y-81675080D01*
X68001974Y-82577421D01*
X67970742Y-82590359D01*
X67847903Y-82672437D01*
X67743437Y-82776903D01*
X67661359Y-82899742D01*
X67648421Y-82930974D01*
X66746080Y-82028633D01*
X66746079Y-82028633D01*
X66659496Y-82141471D01*
X66528409Y-82368517D01*
X66528404Y-82368528D01*
X66428075Y-82610744D01*
X66360222Y-82863979D01*
X66360220Y-82863990D01*
X66326000Y-83123905D01*
X60071325Y-83123905D01*
X60045709Y-82962173D01*
X59984882Y-82774970D01*
X59932639Y-82672437D01*
X59895524Y-82599595D01*
X59779828Y-82440354D01*
X59640646Y-82301172D01*
X59481405Y-82185476D01*
X59415997Y-82152149D01*
X59306029Y-82096117D01*
X59118826Y-82035290D01*
X58924422Y-82004500D01*
X58924417Y-82004500D01*
X58727583Y-82004500D01*
X58727578Y-82004500D01*
X58533173Y-82035290D01*
X58345970Y-82096117D01*
X58170594Y-82185476D01*
X58105470Y-82232792D01*
X58011354Y-82301172D01*
X58011352Y-82301174D01*
X58011351Y-82301174D01*
X57872174Y-82440351D01*
X57872174Y-82440352D01*
X57872172Y-82440354D01*
X57839913Y-82484755D01*
X57756476Y-82599594D01*
X57667117Y-82774970D01*
X57606290Y-82962173D01*
X57575500Y-83156577D01*
X57326500Y-83156577D01*
X57326500Y-83143543D01*
X57297404Y-82922537D01*
X57239710Y-82707219D01*
X57154405Y-82501274D01*
X57042948Y-82308226D01*
X56923188Y-82152151D01*
X56907248Y-82131377D01*
X56907242Y-82131370D01*
X56749629Y-81973757D01*
X56749622Y-81973751D01*
X56572782Y-81838058D01*
X56572780Y-81838056D01*
X56572774Y-81838052D01*
X56572769Y-81838049D01*
X56572766Y-81838047D01*
X56559555Y-81830420D01*
X56379726Y-81726595D01*
X56379722Y-81726593D01*
X56173790Y-81641293D01*
X56173783Y-81641291D01*
X56173781Y-81641290D01*
X55958463Y-81583596D01*
X55958457Y-81583595D01*
X55958452Y-81583594D01*
X55737466Y-81554501D01*
X55737463Y-81554500D01*
X55737457Y-81554500D01*
X55514543Y-81554500D01*
X55514537Y-81554500D01*
X55514533Y-81554501D01*
X55293547Y-81583594D01*
X55293540Y-81583595D01*
X55293537Y-81583596D01*
X55118492Y-81630499D01*
X55078219Y-81641290D01*
X55078209Y-81641293D01*
X54872277Y-81726593D01*
X54872273Y-81726595D01*
X54679226Y-81838052D01*
X54679217Y-81838058D01*
X54502377Y-81973751D01*
X54502370Y-81973757D01*
X54344757Y-82131370D01*
X54344751Y-82131377D01*
X54209058Y-82308217D01*
X54209052Y-82308226D01*
X54097595Y-82501273D01*
X54097593Y-82501277D01*
X54012293Y-82707209D01*
X54012290Y-82707219D01*
X53970287Y-82863979D01*
X53954597Y-82922534D01*
X53954594Y-82922547D01*
X53925501Y-83143533D01*
X53925500Y-83143549D01*
X51300500Y-83143549D01*
X51300500Y-79944108D01*
X108719500Y-79944108D01*
X108719500Y-80075892D01*
X108727821Y-80106947D01*
X108753608Y-80203187D01*
X108762395Y-80218406D01*
X108819500Y-80317314D01*
X108912686Y-80410500D01*
X109026814Y-80476392D01*
X109154108Y-80510500D01*
X109173456Y-80510500D01*
X109240495Y-80530185D01*
X109261137Y-80546819D01*
X110274788Y-81560470D01*
X110344085Y-81600478D01*
X110344087Y-81600480D01*
X110351342Y-81604668D01*
X110354712Y-81606614D01*
X110443856Y-81630500D01*
X111605324Y-81630500D01*
X111672363Y-81650185D01*
X111693005Y-81666819D01*
X111706686Y-81680500D01*
X111820814Y-81746392D01*
X111948108Y-81780500D01*
X111948110Y-81780500D01*
X112079890Y-81780500D01*
X112079892Y-81780500D01*
X112207186Y-81746392D01*
X112321314Y-81680500D01*
X112414500Y-81587314D01*
X112480392Y-81473186D01*
X112514500Y-81345892D01*
X112514500Y-81214108D01*
X112480392Y-81086814D01*
X112414500Y-80972686D01*
X112321314Y-80879500D01*
X112264250Y-80846554D01*
X112207187Y-80813608D01*
X112177631Y-80805688D01*
X112079892Y-80779500D01*
X111948108Y-80779500D01*
X111820812Y-80813608D01*
X111706686Y-80879500D01*
X111706683Y-80879502D01*
X111693005Y-80893181D01*
X111631682Y-80926666D01*
X111605324Y-80929500D01*
X110686544Y-80929500D01*
X110619505Y-80909815D01*
X110598863Y-80893181D01*
X110381412Y-80675730D01*
X119202388Y-80675730D01*
X119202388Y-81884269D01*
X119205241Y-81914699D01*
X119205241Y-81914701D01*
X119250094Y-82042879D01*
X119250095Y-82042882D01*
X119330738Y-82152150D01*
X119440006Y-82232793D01*
X119482733Y-82247744D01*
X119568187Y-82277646D01*
X119598618Y-82280500D01*
X119598622Y-82280500D01*
X120807158Y-82280500D01*
X120837587Y-82277646D01*
X120837589Y-82277646D01*
X120901678Y-82255219D01*
X120965770Y-82232793D01*
X121075038Y-82152150D01*
X121155681Y-82042882D01*
X121183597Y-81963101D01*
X121212956Y-81916377D01*
X121802888Y-81326445D01*
X121802888Y-81332661D01*
X121830147Y-81434394D01*
X121882808Y-81525606D01*
X121957282Y-81600080D01*
X122048494Y-81652741D01*
X122150227Y-81680000D01*
X122156441Y-81680000D01*
X121476964Y-82359474D01*
X121521538Y-82391859D01*
X121703856Y-82484755D01*
X121898470Y-82547990D01*
X122100571Y-82580000D01*
X122305205Y-82580000D01*
X122507305Y-82547990D01*
X122701919Y-82484755D01*
X122884237Y-82391859D01*
X122928809Y-82359474D01*
X122249335Y-81680000D01*
X122255549Y-81680000D01*
X122357282Y-81652741D01*
X122448494Y-81600080D01*
X122522968Y-81525606D01*
X122575629Y-81434394D01*
X122602888Y-81332661D01*
X122602888Y-81326447D01*
X123282362Y-82005921D01*
X123314747Y-81961349D01*
X123407643Y-81779031D01*
X123470878Y-81584417D01*
X123502888Y-81382317D01*
X123502888Y-81177682D01*
X123470878Y-80975582D01*
X123407643Y-80780968D01*
X123314747Y-80598650D01*
X123282362Y-80554077D01*
X123282362Y-80554076D01*
X122602888Y-81233551D01*
X122602888Y-81227339D01*
X122575629Y-81125606D01*
X122522968Y-81034394D01*
X122448494Y-80959920D01*
X122357282Y-80907259D01*
X122255549Y-80880000D01*
X122249334Y-80880000D01*
X122928810Y-80200524D01*
X122928809Y-80200523D01*
X122884247Y-80168147D01*
X122884238Y-80168141D01*
X122701919Y-80075244D01*
X122507305Y-80012009D01*
X122305205Y-79980000D01*
X122100571Y-79980000D01*
X121898470Y-80012009D01*
X121703856Y-80075244D01*
X121521532Y-80168143D01*
X121476965Y-80200523D01*
X121476965Y-80200524D01*
X122156442Y-80880000D01*
X122150227Y-80880000D01*
X122048494Y-80907259D01*
X121957282Y-80959920D01*
X121882808Y-81034394D01*
X121830147Y-81125606D01*
X121802888Y-81227339D01*
X121802888Y-81233553D01*
X121212956Y-80643621D01*
X121183596Y-80596896D01*
X121155681Y-80517118D01*
X121075038Y-80407850D01*
X120965770Y-80327207D01*
X120965768Y-80327206D01*
X120837588Y-80282353D01*
X120807158Y-80279500D01*
X120807154Y-80279500D01*
X119598622Y-80279500D01*
X119598618Y-80279500D01*
X119568188Y-80282353D01*
X119568186Y-80282353D01*
X119440007Y-80327206D01*
X119440005Y-80327207D01*
X119330738Y-80407850D01*
X119250095Y-80517117D01*
X119250094Y-80517119D01*
X119205241Y-80645298D01*
X119205241Y-80645300D01*
X119202388Y-80675730D01*
X110381412Y-80675730D01*
X109756819Y-80051137D01*
X109723334Y-79989814D01*
X109720500Y-79963456D01*
X109720500Y-79944110D01*
X109720500Y-79944108D01*
X109686392Y-79816814D01*
X109620500Y-79702686D01*
X109527314Y-79609500D01*
X109470250Y-79576554D01*
X109413187Y-79543608D01*
X109349539Y-79526554D01*
X109285892Y-79509500D01*
X109154108Y-79509500D01*
X109026812Y-79543608D01*
X108912686Y-79609500D01*
X108912683Y-79609502D01*
X108819502Y-79702683D01*
X108819500Y-79702686D01*
X108753608Y-79816812D01*
X108745015Y-79848882D01*
X108719500Y-79944108D01*
X51300500Y-79944108D01*
X51300500Y-78578549D01*
X144831849Y-78578549D01*
X144831849Y-78801450D01*
X144831850Y-78801466D01*
X144860943Y-79022452D01*
X144860944Y-79022457D01*
X144860945Y-79022463D01*
X144860946Y-79022465D01*
X144918639Y-79237780D01*
X144918642Y-79237790D01*
X144963218Y-79345405D01*
X145003944Y-79443726D01*
X145115401Y-79636774D01*
X145115406Y-79636780D01*
X145115407Y-79636782D01*
X145251100Y-79813622D01*
X145251106Y-79813629D01*
X145408719Y-79971242D01*
X145408725Y-79971247D01*
X145585575Y-80106948D01*
X145778623Y-80218405D01*
X145908489Y-80272197D01*
X145933007Y-80282353D01*
X145984568Y-80303710D01*
X146199886Y-80361404D01*
X146420892Y-80390500D01*
X146420899Y-80390500D01*
X146643799Y-80390500D01*
X146643806Y-80390500D01*
X146864812Y-80361404D01*
X147080130Y-80303710D01*
X147286075Y-80218405D01*
X147479123Y-80106948D01*
X147655973Y-79971247D01*
X147813596Y-79813624D01*
X147949297Y-79636774D01*
X148060754Y-79443726D01*
X148146059Y-79237781D01*
X148203753Y-79022463D01*
X148232849Y-78801457D01*
X148232849Y-78591577D01*
X154781849Y-78591577D01*
X154781849Y-78788422D01*
X154812639Y-78982826D01*
X154873466Y-79170029D01*
X154962825Y-79345405D01*
X155078521Y-79504646D01*
X155217703Y-79643828D01*
X155376944Y-79759524D01*
X155459804Y-79801743D01*
X155552319Y-79848882D01*
X155552321Y-79848882D01*
X155552324Y-79848884D01*
X155652666Y-79881487D01*
X155739522Y-79909709D01*
X155933927Y-79940500D01*
X155933932Y-79940500D01*
X156130771Y-79940500D01*
X156325175Y-79909709D01*
X156512374Y-79848884D01*
X156687754Y-79759524D01*
X156846995Y-79643828D01*
X156986177Y-79504646D01*
X157101873Y-79345405D01*
X157191233Y-79170025D01*
X157252058Y-78982826D01*
X157282849Y-78788422D01*
X157282849Y-78591577D01*
X157280786Y-78578549D01*
X157531849Y-78578549D01*
X157531849Y-78801450D01*
X157531850Y-78801466D01*
X157560943Y-79022452D01*
X157560944Y-79022457D01*
X157560945Y-79022463D01*
X157560946Y-79022465D01*
X157618639Y-79237780D01*
X157618642Y-79237790D01*
X157663218Y-79345405D01*
X157703944Y-79443726D01*
X157815401Y-79636774D01*
X157815406Y-79636780D01*
X157815407Y-79636782D01*
X157951100Y-79813622D01*
X157951106Y-79813629D01*
X158108719Y-79971242D01*
X158108725Y-79971247D01*
X158285575Y-80106948D01*
X158478623Y-80218405D01*
X158608489Y-80272197D01*
X158633007Y-80282353D01*
X158684568Y-80303710D01*
X158899886Y-80361404D01*
X159120892Y-80390500D01*
X159120899Y-80390500D01*
X159343799Y-80390500D01*
X159343806Y-80390500D01*
X159564812Y-80361404D01*
X159780130Y-80303710D01*
X159986075Y-80218405D01*
X160179123Y-80106948D01*
X160355973Y-79971247D01*
X160513596Y-79813624D01*
X160649297Y-79636774D01*
X160760754Y-79443726D01*
X160846059Y-79237781D01*
X160903753Y-79022463D01*
X160932849Y-78801457D01*
X160932849Y-78578543D01*
X160903753Y-78357537D01*
X160846059Y-78142219D01*
X160760754Y-77936274D01*
X160649297Y-77743226D01*
X160513596Y-77566376D01*
X160513591Y-77566370D01*
X160355978Y-77408757D01*
X160355971Y-77408751D01*
X160179131Y-77273058D01*
X160179129Y-77273057D01*
X160179123Y-77273052D01*
X159986075Y-77161595D01*
X159986071Y-77161593D01*
X159780139Y-77076293D01*
X159780132Y-77076291D01*
X159780130Y-77076290D01*
X159564812Y-77018596D01*
X159564806Y-77018595D01*
X159564801Y-77018594D01*
X159343815Y-76989501D01*
X159343812Y-76989500D01*
X159343806Y-76989500D01*
X159120892Y-76989500D01*
X159120886Y-76989500D01*
X159120882Y-76989501D01*
X158899896Y-77018594D01*
X158899889Y-77018595D01*
X158899886Y-77018596D01*
X158684568Y-77076290D01*
X158684558Y-77076293D01*
X158478626Y-77161593D01*
X158478622Y-77161595D01*
X158285575Y-77273052D01*
X158285566Y-77273058D01*
X158108726Y-77408751D01*
X158108719Y-77408757D01*
X157951106Y-77566370D01*
X157951100Y-77566377D01*
X157815407Y-77743217D01*
X157815401Y-77743226D01*
X157703944Y-77936273D01*
X157703942Y-77936277D01*
X157618642Y-78142209D01*
X157618639Y-78142219D01*
X157560946Y-78357534D01*
X157560943Y-78357547D01*
X157531850Y-78578533D01*
X157531849Y-78578549D01*
X157280786Y-78578549D01*
X157252058Y-78397173D01*
X157191231Y-78209970D01*
X157101872Y-78034594D01*
X156986177Y-77875354D01*
X156846995Y-77736172D01*
X156687754Y-77620476D01*
X156512378Y-77531117D01*
X156325175Y-77470290D01*
X156130771Y-77439500D01*
X156130766Y-77439500D01*
X155933932Y-77439500D01*
X155933927Y-77439500D01*
X155739522Y-77470290D01*
X155552319Y-77531117D01*
X155376943Y-77620476D01*
X155286090Y-77686485D01*
X155217703Y-77736172D01*
X155217701Y-77736174D01*
X155217700Y-77736174D01*
X155078523Y-77875351D01*
X155078523Y-77875352D01*
X155078521Y-77875354D01*
X155034261Y-77936273D01*
X154962825Y-78034594D01*
X154873466Y-78209970D01*
X154812639Y-78397173D01*
X154781849Y-78591577D01*
X148232849Y-78591577D01*
X148232849Y-78578543D01*
X148203753Y-78357537D01*
X148146059Y-78142219D01*
X148060754Y-77936274D01*
X147949297Y-77743226D01*
X147813596Y-77566376D01*
X147813591Y-77566370D01*
X147655978Y-77408757D01*
X147655971Y-77408751D01*
X147479131Y-77273058D01*
X147479129Y-77273057D01*
X147479123Y-77273052D01*
X147286075Y-77161595D01*
X147286071Y-77161593D01*
X147080139Y-77076293D01*
X147080132Y-77076291D01*
X147080130Y-77076290D01*
X146864812Y-77018596D01*
X146864806Y-77018595D01*
X146864801Y-77018594D01*
X146643815Y-76989501D01*
X146643812Y-76989500D01*
X146643806Y-76989500D01*
X146420892Y-76989500D01*
X146420886Y-76989500D01*
X146420882Y-76989501D01*
X146199896Y-77018594D01*
X146199889Y-77018595D01*
X146199886Y-77018596D01*
X145984568Y-77076290D01*
X145984558Y-77076293D01*
X145778626Y-77161593D01*
X145778622Y-77161595D01*
X145585575Y-77273052D01*
X145585566Y-77273058D01*
X145408726Y-77408751D01*
X145408719Y-77408757D01*
X145251106Y-77566370D01*
X145251100Y-77566377D01*
X145115407Y-77743217D01*
X145115401Y-77743226D01*
X145003944Y-77936273D01*
X145003942Y-77936277D01*
X144918642Y-78142209D01*
X144918639Y-78142219D01*
X144860946Y-78357534D01*
X144860943Y-78357547D01*
X144831850Y-78578533D01*
X144831849Y-78578549D01*
X51300500Y-78578549D01*
X51300500Y-74667155D01*
X77644000Y-74667155D01*
X77644000Y-75315000D01*
X78560988Y-75315000D01*
X78528075Y-75372007D01*
X78494000Y-75499174D01*
X78494000Y-75630826D01*
X78528075Y-75757993D01*
X78560988Y-75815000D01*
X77644000Y-75815000D01*
X77644000Y-76462844D01*
X77650401Y-76522372D01*
X77650403Y-76522379D01*
X77700645Y-76657086D01*
X77700649Y-76657093D01*
X77786809Y-76772187D01*
X77786812Y-76772190D01*
X77901906Y-76858350D01*
X77901913Y-76858354D01*
X78036620Y-76908596D01*
X78036627Y-76908598D01*
X78096155Y-76914999D01*
X78096172Y-76915000D01*
X78744000Y-76915000D01*
X78744000Y-75998012D01*
X78801007Y-76030925D01*
X78928174Y-76065000D01*
X79059826Y-76065000D01*
X79186993Y-76030925D01*
X79244000Y-75998012D01*
X79244000Y-76915000D01*
X79891828Y-76915000D01*
X79891844Y-76914999D01*
X79951372Y-76908598D01*
X79951379Y-76908596D01*
X80086086Y-76858354D01*
X80086093Y-76858350D01*
X80201187Y-76772190D01*
X80201190Y-76772187D01*
X80287350Y-76657093D01*
X80287354Y-76657086D01*
X80337596Y-76522379D01*
X80337598Y-76522372D01*
X80343999Y-76462844D01*
X80344000Y-76462827D01*
X80344000Y-76060564D01*
X80363685Y-75993525D01*
X80416489Y-75947770D01*
X80485647Y-75937826D01*
X80549203Y-75966851D01*
X80582561Y-76013112D01*
X80589939Y-76030925D01*
X80603059Y-76062598D01*
X80623039Y-76092500D01*
X80718024Y-76234657D01*
X80864342Y-76380975D01*
X80864345Y-76380977D01*
X81036402Y-76495941D01*
X81227580Y-76575130D01*
X81430530Y-76615499D01*
X81430534Y-76615500D01*
X81430535Y-76615500D01*
X81637466Y-76615500D01*
X81637467Y-76615499D01*
X81840420Y-76575130D01*
X82031598Y-76495941D01*
X82203655Y-76380977D01*
X82349977Y-76234655D01*
X82464941Y-76062598D01*
X82544130Y-75871420D01*
X82584500Y-75668465D01*
X82584500Y-75461535D01*
X82584499Y-75461530D01*
X83023500Y-75461530D01*
X83023500Y-75668469D01*
X83063868Y-75871412D01*
X83063870Y-75871420D01*
X83129939Y-76030925D01*
X83143059Y-76062598D01*
X83163037Y-76092497D01*
X83258024Y-76234657D01*
X83404342Y-76380975D01*
X83404345Y-76380977D01*
X83576402Y-76495941D01*
X83767580Y-76575130D01*
X83970530Y-76615499D01*
X83970534Y-76615500D01*
X83970535Y-76615500D01*
X84177466Y-76615500D01*
X84177467Y-76615499D01*
X84380420Y-76575130D01*
X84571598Y-76495941D01*
X84743655Y-76380977D01*
X84889977Y-76234655D01*
X85004941Y-76062598D01*
X85084130Y-75871420D01*
X85124500Y-75668465D01*
X85124500Y-75461535D01*
X85124499Y-75461530D01*
X85563500Y-75461530D01*
X85563500Y-75668469D01*
X85603868Y-75871412D01*
X85603870Y-75871420D01*
X85669939Y-76030925D01*
X85683059Y-76062598D01*
X85703037Y-76092497D01*
X85798024Y-76234657D01*
X85944342Y-76380975D01*
X85944345Y-76380977D01*
X86116402Y-76495941D01*
X86307580Y-76575130D01*
X86510530Y-76615499D01*
X86510534Y-76615500D01*
X86510535Y-76615500D01*
X86717466Y-76615500D01*
X86717467Y-76615499D01*
X86920420Y-76575130D01*
X87111598Y-76495941D01*
X87283655Y-76380977D01*
X87429977Y-76234655D01*
X87544941Y-76062598D01*
X87624130Y-75871420D01*
X87664500Y-75668465D01*
X87664500Y-75626108D01*
X89161500Y-75626108D01*
X89161500Y-75757891D01*
X89195608Y-75885187D01*
X89226000Y-75937826D01*
X89261500Y-75999314D01*
X89354686Y-76092500D01*
X89468814Y-76158392D01*
X89596108Y-76192500D01*
X89596110Y-76192500D01*
X89727890Y-76192500D01*
X89727892Y-76192500D01*
X89855186Y-76158392D01*
X89969314Y-76092500D01*
X89982995Y-76078819D01*
X90044318Y-76045334D01*
X90070676Y-76042500D01*
X91539324Y-76042500D01*
X91606363Y-76062185D01*
X91627005Y-76078819D01*
X91640686Y-76092500D01*
X91754814Y-76158392D01*
X91882108Y-76192500D01*
X91882110Y-76192500D01*
X92013890Y-76192500D01*
X92013892Y-76192500D01*
X92141186Y-76158392D01*
X92255314Y-76092500D01*
X92348500Y-75999314D01*
X92414392Y-75885186D01*
X92448500Y-75757892D01*
X92448500Y-75626108D01*
X92414392Y-75498814D01*
X92348500Y-75384686D01*
X92255314Y-75291500D01*
X92197278Y-75257993D01*
X92141187Y-75225608D01*
X92077539Y-75208554D01*
X92013892Y-75191500D01*
X91882108Y-75191500D01*
X91754812Y-75225608D01*
X91640686Y-75291500D01*
X91640683Y-75291502D01*
X91627005Y-75305181D01*
X91565682Y-75338666D01*
X91539324Y-75341500D01*
X90070676Y-75341500D01*
X90003637Y-75321815D01*
X89982995Y-75305181D01*
X89969316Y-75291502D01*
X89969314Y-75291500D01*
X89911278Y-75257993D01*
X89855187Y-75225608D01*
X89791539Y-75208554D01*
X89727892Y-75191500D01*
X89596108Y-75191500D01*
X89468812Y-75225608D01*
X89354686Y-75291500D01*
X89354683Y-75291502D01*
X89261502Y-75384683D01*
X89261500Y-75384686D01*
X89195608Y-75498812D01*
X89161500Y-75626108D01*
X87664500Y-75626108D01*
X87664500Y-75461535D01*
X87624130Y-75258580D01*
X87544941Y-75067402D01*
X87429977Y-74895345D01*
X87429975Y-74895342D01*
X87283657Y-74749024D01*
X87161130Y-74667155D01*
X87111598Y-74634059D01*
X86920420Y-74554870D01*
X86920412Y-74554868D01*
X86717469Y-74514500D01*
X86717465Y-74514500D01*
X86510535Y-74514500D01*
X86510530Y-74514500D01*
X86307587Y-74554868D01*
X86307579Y-74554870D01*
X86116403Y-74634058D01*
X85944342Y-74749024D01*
X85798024Y-74895342D01*
X85683058Y-75067403D01*
X85603870Y-75258579D01*
X85603868Y-75258587D01*
X85563500Y-75461530D01*
X85124499Y-75461530D01*
X85084130Y-75258580D01*
X85004941Y-75067402D01*
X84889977Y-74895345D01*
X84889975Y-74895342D01*
X84743657Y-74749024D01*
X84621130Y-74667155D01*
X84571598Y-74634059D01*
X84380420Y-74554870D01*
X84380412Y-74554868D01*
X84177469Y-74514500D01*
X84177465Y-74514500D01*
X83970535Y-74514500D01*
X83970530Y-74514500D01*
X83767587Y-74554868D01*
X83767579Y-74554870D01*
X83576403Y-74634058D01*
X83404342Y-74749024D01*
X83258024Y-74895342D01*
X83143058Y-75067403D01*
X83063870Y-75258579D01*
X83063868Y-75258587D01*
X83023500Y-75461530D01*
X82584499Y-75461530D01*
X82544130Y-75258580D01*
X82464941Y-75067402D01*
X82349977Y-74895345D01*
X82349975Y-74895342D01*
X82203657Y-74749024D01*
X82081130Y-74667155D01*
X82031598Y-74634059D01*
X81840420Y-74554870D01*
X81840412Y-74554868D01*
X81637469Y-74514500D01*
X81637465Y-74514500D01*
X81430535Y-74514500D01*
X81430530Y-74514500D01*
X81227587Y-74554868D01*
X81227579Y-74554870D01*
X81036403Y-74634058D01*
X80864342Y-74749024D01*
X80718024Y-74895342D01*
X80603058Y-75067403D01*
X80582561Y-75116888D01*
X80538720Y-75171291D01*
X80472426Y-75193356D01*
X80404726Y-75176077D01*
X80357116Y-75124939D01*
X80344000Y-75069435D01*
X80344000Y-74667172D01*
X80343999Y-74667155D01*
X80337598Y-74607627D01*
X80337596Y-74607620D01*
X80287354Y-74472913D01*
X80287350Y-74472906D01*
X80201190Y-74357812D01*
X80201187Y-74357809D01*
X80086093Y-74271649D01*
X80086086Y-74271645D01*
X79951379Y-74221403D01*
X79951372Y-74221401D01*
X79891844Y-74215000D01*
X79244000Y-74215000D01*
X79244000Y-75131988D01*
X79186993Y-75099075D01*
X79059826Y-75065000D01*
X78928174Y-75065000D01*
X78801007Y-75099075D01*
X78744000Y-75131988D01*
X78744000Y-74215000D01*
X78096155Y-74215000D01*
X78036627Y-74221401D01*
X78036620Y-74221403D01*
X77901913Y-74271645D01*
X77901906Y-74271649D01*
X77786812Y-74357809D01*
X77786809Y-74357812D01*
X77700649Y-74472906D01*
X77700645Y-74472913D01*
X77650403Y-74607620D01*
X77650401Y-74607627D01*
X77644000Y-74667155D01*
X51300500Y-74667155D01*
X51300500Y-71651530D01*
X51664500Y-71651530D01*
X51664500Y-71858469D01*
X51704868Y-72061412D01*
X51704870Y-72061420D01*
X51784058Y-72252596D01*
X51899024Y-72424657D01*
X52045342Y-72570975D01*
X52045345Y-72570977D01*
X52217402Y-72685941D01*
X52408580Y-72765130D01*
X52611530Y-72805499D01*
X52611534Y-72805500D01*
X52611535Y-72805500D01*
X52818466Y-72805500D01*
X52818467Y-72805499D01*
X53021420Y-72765130D01*
X53212598Y-72685941D01*
X53384655Y-72570977D01*
X53530977Y-72424655D01*
X53645941Y-72252598D01*
X53725130Y-72061420D01*
X53765500Y-71858465D01*
X53765500Y-71651535D01*
X53765499Y-71651530D01*
X54204500Y-71651530D01*
X54204500Y-71858469D01*
X54244868Y-72061412D01*
X54244870Y-72061420D01*
X54324058Y-72252596D01*
X54439024Y-72424657D01*
X54585342Y-72570975D01*
X54585345Y-72570977D01*
X54757402Y-72685941D01*
X54948580Y-72765130D01*
X55151530Y-72805499D01*
X55151534Y-72805500D01*
X55151535Y-72805500D01*
X55358466Y-72805500D01*
X55358467Y-72805499D01*
X55561420Y-72765130D01*
X55752598Y-72685941D01*
X55924655Y-72570977D01*
X56070977Y-72424655D01*
X56185941Y-72252598D01*
X56265130Y-72061420D01*
X56305500Y-71858465D01*
X56305500Y-71651535D01*
X56305499Y-71651530D01*
X56744500Y-71651530D01*
X56744500Y-71858469D01*
X56784868Y-72061412D01*
X56784870Y-72061420D01*
X56864058Y-72252596D01*
X56979024Y-72424657D01*
X57125342Y-72570975D01*
X57125345Y-72570977D01*
X57297402Y-72685941D01*
X57488580Y-72765130D01*
X57691530Y-72805499D01*
X57691534Y-72805500D01*
X57691535Y-72805500D01*
X57898466Y-72805500D01*
X57898467Y-72805499D01*
X58101420Y-72765130D01*
X58292598Y-72685941D01*
X58464655Y-72570977D01*
X58610977Y-72424655D01*
X58725941Y-72252598D01*
X58805130Y-72061420D01*
X58845500Y-71858465D01*
X58845500Y-71651535D01*
X58845499Y-71651530D01*
X59284500Y-71651530D01*
X59284500Y-71858469D01*
X59324868Y-72061412D01*
X59324870Y-72061420D01*
X59404058Y-72252596D01*
X59519024Y-72424657D01*
X59665342Y-72570975D01*
X59665345Y-72570977D01*
X59837402Y-72685941D01*
X60028580Y-72765130D01*
X60231530Y-72805499D01*
X60231534Y-72805500D01*
X60231535Y-72805500D01*
X60438466Y-72805500D01*
X60438467Y-72805499D01*
X60641420Y-72765130D01*
X60832598Y-72685941D01*
X61004655Y-72570977D01*
X61150977Y-72424655D01*
X61265941Y-72252598D01*
X61345130Y-72061420D01*
X61385500Y-71858465D01*
X61385500Y-71651535D01*
X61385499Y-71651530D01*
X61824500Y-71651530D01*
X61824500Y-71858469D01*
X61864868Y-72061412D01*
X61864870Y-72061420D01*
X61944058Y-72252596D01*
X62059024Y-72424657D01*
X62205342Y-72570975D01*
X62205345Y-72570977D01*
X62377402Y-72685941D01*
X62568580Y-72765130D01*
X62771530Y-72805499D01*
X62771534Y-72805500D01*
X62771535Y-72805500D01*
X62978466Y-72805500D01*
X62978467Y-72805499D01*
X63181420Y-72765130D01*
X63372598Y-72685941D01*
X63544655Y-72570977D01*
X63690977Y-72424655D01*
X63805941Y-72252598D01*
X63885130Y-72061420D01*
X63925500Y-71858465D01*
X63925500Y-71651535D01*
X63925499Y-71651530D01*
X64364500Y-71651530D01*
X64364500Y-71858469D01*
X64404868Y-72061412D01*
X64404870Y-72061420D01*
X64484058Y-72252596D01*
X64599024Y-72424657D01*
X64745342Y-72570975D01*
X64745345Y-72570977D01*
X64917402Y-72685941D01*
X65108580Y-72765130D01*
X65311530Y-72805499D01*
X65311534Y-72805500D01*
X65311535Y-72805500D01*
X65518466Y-72805500D01*
X65518467Y-72805499D01*
X65721420Y-72765130D01*
X65912598Y-72685941D01*
X66084655Y-72570977D01*
X66230977Y-72424655D01*
X66345941Y-72252598D01*
X66425130Y-72061420D01*
X66465500Y-71858465D01*
X66465500Y-71651535D01*
X66465499Y-71651530D01*
X66904500Y-71651530D01*
X66904500Y-71858469D01*
X66944868Y-72061412D01*
X66944870Y-72061420D01*
X67024058Y-72252596D01*
X67139024Y-72424657D01*
X67285342Y-72570975D01*
X67285345Y-72570977D01*
X67457402Y-72685941D01*
X67648580Y-72765130D01*
X67851530Y-72805499D01*
X67851534Y-72805500D01*
X67851535Y-72805500D01*
X68058466Y-72805500D01*
X68058467Y-72805499D01*
X68261420Y-72765130D01*
X68452598Y-72685941D01*
X68624655Y-72570977D01*
X68770977Y-72424655D01*
X68885941Y-72252598D01*
X68965130Y-72061420D01*
X69005500Y-71858465D01*
X69005500Y-71651535D01*
X69005499Y-71651530D01*
X69444500Y-71651530D01*
X69444500Y-71858469D01*
X69484868Y-72061412D01*
X69484870Y-72061420D01*
X69564058Y-72252596D01*
X69679024Y-72424657D01*
X69825342Y-72570975D01*
X69825345Y-72570977D01*
X69997402Y-72685941D01*
X70188580Y-72765130D01*
X70391530Y-72805499D01*
X70391534Y-72805500D01*
X70391535Y-72805500D01*
X70598466Y-72805500D01*
X70598467Y-72805499D01*
X70801420Y-72765130D01*
X70992598Y-72685941D01*
X71164655Y-72570977D01*
X71310977Y-72424655D01*
X71425941Y-72252598D01*
X71505130Y-72061420D01*
X71545500Y-71858465D01*
X71545500Y-71651535D01*
X71545499Y-71651530D01*
X71984500Y-71651530D01*
X71984500Y-71858469D01*
X72024868Y-72061412D01*
X72024870Y-72061420D01*
X72104058Y-72252596D01*
X72219024Y-72424657D01*
X72365342Y-72570975D01*
X72365345Y-72570977D01*
X72537402Y-72685941D01*
X72728580Y-72765130D01*
X72931530Y-72805499D01*
X72931534Y-72805500D01*
X72931535Y-72805500D01*
X73138466Y-72805500D01*
X73138467Y-72805499D01*
X73341420Y-72765130D01*
X73532598Y-72685941D01*
X73704655Y-72570977D01*
X73850977Y-72424655D01*
X73965941Y-72252598D01*
X74045130Y-72061420D01*
X74085500Y-71858465D01*
X74085500Y-71651535D01*
X74085499Y-71651530D01*
X74524500Y-71651530D01*
X74524500Y-71858469D01*
X74564868Y-72061412D01*
X74564870Y-72061420D01*
X74644058Y-72252596D01*
X74759024Y-72424657D01*
X74905342Y-72570975D01*
X74905345Y-72570977D01*
X75077402Y-72685941D01*
X75268580Y-72765130D01*
X75471530Y-72805499D01*
X75471534Y-72805500D01*
X75471535Y-72805500D01*
X75678466Y-72805500D01*
X75678467Y-72805499D01*
X75881420Y-72765130D01*
X76072598Y-72685941D01*
X76244655Y-72570977D01*
X76390977Y-72424655D01*
X76505941Y-72252598D01*
X76585130Y-72061420D01*
X76625500Y-71858465D01*
X76625500Y-71651535D01*
X76625499Y-71651530D01*
X77064500Y-71651530D01*
X77064500Y-71858469D01*
X77104868Y-72061412D01*
X77104870Y-72061420D01*
X77184058Y-72252596D01*
X77299024Y-72424657D01*
X77445342Y-72570975D01*
X77445345Y-72570977D01*
X77617402Y-72685941D01*
X77808580Y-72765130D01*
X78011530Y-72805499D01*
X78011534Y-72805500D01*
X78011535Y-72805500D01*
X78218466Y-72805500D01*
X78218467Y-72805499D01*
X78421420Y-72765130D01*
X78612598Y-72685941D01*
X78784655Y-72570977D01*
X78930977Y-72424655D01*
X79045941Y-72252598D01*
X79125130Y-72061420D01*
X79165500Y-71858465D01*
X79165500Y-71651535D01*
X79165499Y-71651530D01*
X79604500Y-71651530D01*
X79604500Y-71858469D01*
X79644868Y-72061412D01*
X79644870Y-72061420D01*
X79724058Y-72252596D01*
X79839024Y-72424657D01*
X79985342Y-72570975D01*
X79985345Y-72570977D01*
X80157402Y-72685941D01*
X80348580Y-72765130D01*
X80551530Y-72805499D01*
X80551534Y-72805500D01*
X80551535Y-72805500D01*
X80758466Y-72805500D01*
X80758467Y-72805499D01*
X80961420Y-72765130D01*
X81152598Y-72685941D01*
X81324655Y-72570977D01*
X81470977Y-72424655D01*
X81585941Y-72252598D01*
X81665130Y-72061420D01*
X81705500Y-71858465D01*
X81705500Y-71651535D01*
X81705499Y-71651530D01*
X82144500Y-71651530D01*
X82144500Y-71858469D01*
X82184868Y-72061412D01*
X82184870Y-72061420D01*
X82264058Y-72252596D01*
X82379024Y-72424657D01*
X82525342Y-72570975D01*
X82525345Y-72570977D01*
X82697402Y-72685941D01*
X82888580Y-72765130D01*
X83091530Y-72805499D01*
X83091534Y-72805500D01*
X83091535Y-72805500D01*
X83298466Y-72805500D01*
X83298467Y-72805499D01*
X83501420Y-72765130D01*
X83692598Y-72685941D01*
X83864655Y-72570977D01*
X84010977Y-72424655D01*
X84125941Y-72252598D01*
X84205130Y-72061420D01*
X84245500Y-71858465D01*
X84245500Y-71651535D01*
X84245499Y-71651530D01*
X84684500Y-71651530D01*
X84684500Y-71858469D01*
X84724868Y-72061412D01*
X84724870Y-72061420D01*
X84804058Y-72252596D01*
X84919024Y-72424657D01*
X85065342Y-72570975D01*
X85065345Y-72570977D01*
X85237402Y-72685941D01*
X85428580Y-72765130D01*
X85631530Y-72805499D01*
X85631534Y-72805500D01*
X85631535Y-72805500D01*
X85838466Y-72805500D01*
X85838467Y-72805499D01*
X86041420Y-72765130D01*
X86232598Y-72685941D01*
X86404655Y-72570977D01*
X86550977Y-72424655D01*
X86665941Y-72252598D01*
X86745130Y-72061420D01*
X86785500Y-71858465D01*
X86785500Y-71651535D01*
X86785499Y-71651530D01*
X87224500Y-71651530D01*
X87224500Y-71858469D01*
X87264868Y-72061412D01*
X87264870Y-72061420D01*
X87344058Y-72252596D01*
X87459024Y-72424657D01*
X87605342Y-72570975D01*
X87605345Y-72570977D01*
X87777402Y-72685941D01*
X87968580Y-72765130D01*
X88171530Y-72805499D01*
X88171534Y-72805500D01*
X88171535Y-72805500D01*
X88378466Y-72805500D01*
X88378467Y-72805499D01*
X88581420Y-72765130D01*
X88772598Y-72685941D01*
X88944655Y-72570977D01*
X89090977Y-72424655D01*
X89205941Y-72252598D01*
X89285130Y-72061420D01*
X89325500Y-71858465D01*
X89325500Y-71651535D01*
X89325499Y-71651530D01*
X89764500Y-71651530D01*
X89764500Y-71858469D01*
X89804868Y-72061412D01*
X89804870Y-72061420D01*
X89884058Y-72252596D01*
X89999024Y-72424657D01*
X90145342Y-72570975D01*
X90145345Y-72570977D01*
X90317402Y-72685941D01*
X90508580Y-72765130D01*
X90711530Y-72805499D01*
X90711534Y-72805500D01*
X90711535Y-72805500D01*
X90918466Y-72805500D01*
X90918467Y-72805499D01*
X91121420Y-72765130D01*
X91312598Y-72685941D01*
X91484655Y-72570977D01*
X91630977Y-72424655D01*
X91745941Y-72252598D01*
X91825130Y-72061420D01*
X91865500Y-71858465D01*
X91865500Y-71651535D01*
X91865499Y-71651530D01*
X92304500Y-71651530D01*
X92304500Y-71858469D01*
X92344868Y-72061412D01*
X92344870Y-72061420D01*
X92424058Y-72252596D01*
X92539024Y-72424657D01*
X92685342Y-72570975D01*
X92685345Y-72570977D01*
X92857402Y-72685941D01*
X93048580Y-72765130D01*
X93251530Y-72805499D01*
X93251534Y-72805500D01*
X93251535Y-72805500D01*
X93458466Y-72805500D01*
X93458467Y-72805499D01*
X93661420Y-72765130D01*
X93852598Y-72685941D01*
X94024655Y-72570977D01*
X94170977Y-72424655D01*
X94285941Y-72252598D01*
X94365130Y-72061420D01*
X94405500Y-71858465D01*
X94405500Y-71651535D01*
X94405499Y-71651530D01*
X94844500Y-71651530D01*
X94844500Y-71858469D01*
X94884868Y-72061412D01*
X94884870Y-72061420D01*
X94964058Y-72252596D01*
X95079024Y-72424657D01*
X95225342Y-72570975D01*
X95225345Y-72570977D01*
X95397402Y-72685941D01*
X95588580Y-72765130D01*
X95791530Y-72805499D01*
X95791534Y-72805500D01*
X95791535Y-72805500D01*
X95998466Y-72805500D01*
X95998467Y-72805499D01*
X96201420Y-72765130D01*
X96392598Y-72685941D01*
X96564655Y-72570977D01*
X96710977Y-72424655D01*
X96825941Y-72252598D01*
X96905130Y-72061420D01*
X96945500Y-71858465D01*
X96945500Y-71651535D01*
X96945499Y-71651530D01*
X97384500Y-71651530D01*
X97384500Y-71858469D01*
X97424868Y-72061412D01*
X97424870Y-72061420D01*
X97504058Y-72252596D01*
X97619024Y-72424657D01*
X97765342Y-72570975D01*
X97765345Y-72570977D01*
X97937402Y-72685941D01*
X98128580Y-72765130D01*
X98331530Y-72805499D01*
X98331534Y-72805500D01*
X98331535Y-72805500D01*
X98538466Y-72805500D01*
X98538467Y-72805499D01*
X98741420Y-72765130D01*
X98932598Y-72685941D01*
X99104655Y-72570977D01*
X99250977Y-72424655D01*
X99365941Y-72252598D01*
X99386439Y-72203112D01*
X99430279Y-72148708D01*
X99496573Y-72126643D01*
X99564273Y-72143922D01*
X99611884Y-72195059D01*
X99625000Y-72250564D01*
X99625000Y-72652844D01*
X99631401Y-72712372D01*
X99631403Y-72712379D01*
X99681645Y-72847086D01*
X99681649Y-72847093D01*
X99767809Y-72962187D01*
X99767812Y-72962190D01*
X99882906Y-73048350D01*
X99882913Y-73048354D01*
X100017620Y-73098596D01*
X100017627Y-73098598D01*
X100077155Y-73104999D01*
X100077172Y-73105000D01*
X100725000Y-73105000D01*
X100725000Y-72188012D01*
X100782007Y-72220925D01*
X100909174Y-72255000D01*
X101040826Y-72255000D01*
X101167993Y-72220925D01*
X101225000Y-72188012D01*
X101225000Y-73105000D01*
X101872828Y-73105000D01*
X101872844Y-73104999D01*
X101932372Y-73098598D01*
X101932379Y-73098596D01*
X102067086Y-73048354D01*
X102067093Y-73048350D01*
X102182187Y-72962190D01*
X102182190Y-72962187D01*
X102268350Y-72847093D01*
X102268354Y-72847086D01*
X102318596Y-72712379D01*
X102318598Y-72712372D01*
X102324999Y-72652844D01*
X102325000Y-72652827D01*
X102325000Y-72005000D01*
X101408012Y-72005000D01*
X101440925Y-71947993D01*
X101475000Y-71820826D01*
X101475000Y-71689174D01*
X101440925Y-71562007D01*
X101408012Y-71505000D01*
X102325000Y-71505000D01*
X102325000Y-70857172D01*
X102324999Y-70857155D01*
X102318598Y-70797627D01*
X102318596Y-70797620D01*
X102268354Y-70662913D01*
X102268350Y-70662906D01*
X102182190Y-70547812D01*
X102182187Y-70547809D01*
X102067093Y-70461649D01*
X102067086Y-70461645D01*
X101932379Y-70411403D01*
X101932372Y-70411401D01*
X101872844Y-70405000D01*
X101225000Y-70405000D01*
X101225000Y-71321988D01*
X101167993Y-71289075D01*
X101040826Y-71255000D01*
X100909174Y-71255000D01*
X100782007Y-71289075D01*
X100725000Y-71321988D01*
X100725000Y-70405000D01*
X100077155Y-70405000D01*
X100017627Y-70411401D01*
X100017620Y-70411403D01*
X99882913Y-70461645D01*
X99882906Y-70461649D01*
X99767812Y-70547809D01*
X99767809Y-70547812D01*
X99681649Y-70662906D01*
X99681645Y-70662913D01*
X99631403Y-70797620D01*
X99631401Y-70797627D01*
X99625000Y-70857155D01*
X99625000Y-71259435D01*
X99605315Y-71326474D01*
X99552511Y-71372229D01*
X99483353Y-71382173D01*
X99419797Y-71353148D01*
X99386439Y-71306888D01*
X99365941Y-71257403D01*
X99365941Y-71257402D01*
X99250977Y-71085345D01*
X99250975Y-71085342D01*
X99104657Y-70939024D01*
X98969337Y-70848607D01*
X98932598Y-70824059D01*
X98741420Y-70744870D01*
X98741412Y-70744868D01*
X98538469Y-70704500D01*
X98538465Y-70704500D01*
X98331535Y-70704500D01*
X98331530Y-70704500D01*
X98128587Y-70744868D01*
X98128579Y-70744870D01*
X97937403Y-70824058D01*
X97765342Y-70939024D01*
X97619024Y-71085342D01*
X97504058Y-71257403D01*
X97424870Y-71448579D01*
X97424868Y-71448587D01*
X97384500Y-71651530D01*
X96945499Y-71651530D01*
X96905130Y-71448580D01*
X96825941Y-71257402D01*
X96710977Y-71085345D01*
X96710975Y-71085342D01*
X96564657Y-70939024D01*
X96429337Y-70848607D01*
X96392598Y-70824059D01*
X96201420Y-70744870D01*
X96201412Y-70744868D01*
X95998469Y-70704500D01*
X95998465Y-70704500D01*
X95791535Y-70704500D01*
X95791530Y-70704500D01*
X95588587Y-70744868D01*
X95588579Y-70744870D01*
X95397403Y-70824058D01*
X95225342Y-70939024D01*
X95079024Y-71085342D01*
X94964058Y-71257403D01*
X94884870Y-71448579D01*
X94884868Y-71448587D01*
X94844500Y-71651530D01*
X94405499Y-71651530D01*
X94365130Y-71448580D01*
X94285941Y-71257402D01*
X94170977Y-71085345D01*
X94170975Y-71085342D01*
X94024657Y-70939024D01*
X93889337Y-70848607D01*
X93852598Y-70824059D01*
X93661420Y-70744870D01*
X93661412Y-70744868D01*
X93458469Y-70704500D01*
X93458465Y-70704500D01*
X93251535Y-70704500D01*
X93251530Y-70704500D01*
X93048587Y-70744868D01*
X93048579Y-70744870D01*
X92857403Y-70824058D01*
X92685342Y-70939024D01*
X92539024Y-71085342D01*
X92424058Y-71257403D01*
X92344870Y-71448579D01*
X92344868Y-71448587D01*
X92304500Y-71651530D01*
X91865499Y-71651530D01*
X91825130Y-71448580D01*
X91745941Y-71257402D01*
X91630977Y-71085345D01*
X91630975Y-71085342D01*
X91484657Y-70939024D01*
X91349337Y-70848607D01*
X91312598Y-70824059D01*
X91121420Y-70744870D01*
X91121412Y-70744868D01*
X90918469Y-70704500D01*
X90918465Y-70704500D01*
X90711535Y-70704500D01*
X90711530Y-70704500D01*
X90508587Y-70744868D01*
X90508579Y-70744870D01*
X90317403Y-70824058D01*
X90145342Y-70939024D01*
X89999024Y-71085342D01*
X89884058Y-71257403D01*
X89804870Y-71448579D01*
X89804868Y-71448587D01*
X89764500Y-71651530D01*
X89325499Y-71651530D01*
X89285130Y-71448580D01*
X89205941Y-71257402D01*
X89090977Y-71085345D01*
X89090975Y-71085342D01*
X88944657Y-70939024D01*
X88809337Y-70848607D01*
X88772598Y-70824059D01*
X88581420Y-70744870D01*
X88581412Y-70744868D01*
X88378469Y-70704500D01*
X88378465Y-70704500D01*
X88171535Y-70704500D01*
X88171530Y-70704500D01*
X87968587Y-70744868D01*
X87968579Y-70744870D01*
X87777403Y-70824058D01*
X87605342Y-70939024D01*
X87459024Y-71085342D01*
X87344058Y-71257403D01*
X87264870Y-71448579D01*
X87264868Y-71448587D01*
X87224500Y-71651530D01*
X86785499Y-71651530D01*
X86745130Y-71448580D01*
X86665941Y-71257402D01*
X86550977Y-71085345D01*
X86550975Y-71085342D01*
X86404657Y-70939024D01*
X86269337Y-70848607D01*
X86232598Y-70824059D01*
X86041420Y-70744870D01*
X86041412Y-70744868D01*
X85838469Y-70704500D01*
X85838465Y-70704500D01*
X85631535Y-70704500D01*
X85631530Y-70704500D01*
X85428587Y-70744868D01*
X85428579Y-70744870D01*
X85237403Y-70824058D01*
X85065342Y-70939024D01*
X84919024Y-71085342D01*
X84804058Y-71257403D01*
X84724870Y-71448579D01*
X84724868Y-71448587D01*
X84684500Y-71651530D01*
X84245499Y-71651530D01*
X84205130Y-71448580D01*
X84125941Y-71257402D01*
X84010977Y-71085345D01*
X84010975Y-71085342D01*
X83864657Y-70939024D01*
X83729337Y-70848607D01*
X83692598Y-70824059D01*
X83501420Y-70744870D01*
X83501412Y-70744868D01*
X83298469Y-70704500D01*
X83298465Y-70704500D01*
X83091535Y-70704500D01*
X83091530Y-70704500D01*
X82888587Y-70744868D01*
X82888579Y-70744870D01*
X82697403Y-70824058D01*
X82525342Y-70939024D01*
X82379024Y-71085342D01*
X82264058Y-71257403D01*
X82184870Y-71448579D01*
X82184868Y-71448587D01*
X82144500Y-71651530D01*
X81705499Y-71651530D01*
X81665130Y-71448580D01*
X81585941Y-71257402D01*
X81470977Y-71085345D01*
X81470975Y-71085342D01*
X81324657Y-70939024D01*
X81189337Y-70848607D01*
X81152598Y-70824059D01*
X80961420Y-70744870D01*
X80961412Y-70744868D01*
X80758469Y-70704500D01*
X80758465Y-70704500D01*
X80551535Y-70704500D01*
X80551530Y-70704500D01*
X80348587Y-70744868D01*
X80348579Y-70744870D01*
X80157403Y-70824058D01*
X79985342Y-70939024D01*
X79839024Y-71085342D01*
X79724058Y-71257403D01*
X79644870Y-71448579D01*
X79644868Y-71448587D01*
X79604500Y-71651530D01*
X79165499Y-71651530D01*
X79125130Y-71448580D01*
X79045941Y-71257402D01*
X78930977Y-71085345D01*
X78930975Y-71085342D01*
X78784657Y-70939024D01*
X78649337Y-70848607D01*
X78612598Y-70824059D01*
X78421420Y-70744870D01*
X78421412Y-70744868D01*
X78218469Y-70704500D01*
X78218465Y-70704500D01*
X78011535Y-70704500D01*
X78011530Y-70704500D01*
X77808587Y-70744868D01*
X77808579Y-70744870D01*
X77617403Y-70824058D01*
X77445342Y-70939024D01*
X77299024Y-71085342D01*
X77184058Y-71257403D01*
X77104870Y-71448579D01*
X77104868Y-71448587D01*
X77064500Y-71651530D01*
X76625499Y-71651530D01*
X76585130Y-71448580D01*
X76505941Y-71257402D01*
X76390977Y-71085345D01*
X76390975Y-71085342D01*
X76244657Y-70939024D01*
X76109337Y-70848607D01*
X76072598Y-70824059D01*
X75881420Y-70744870D01*
X75881412Y-70744868D01*
X75678469Y-70704500D01*
X75678465Y-70704500D01*
X75471535Y-70704500D01*
X75471530Y-70704500D01*
X75268587Y-70744868D01*
X75268579Y-70744870D01*
X75077403Y-70824058D01*
X74905342Y-70939024D01*
X74759024Y-71085342D01*
X74644058Y-71257403D01*
X74564870Y-71448579D01*
X74564868Y-71448587D01*
X74524500Y-71651530D01*
X74085499Y-71651530D01*
X74045130Y-71448580D01*
X73965941Y-71257402D01*
X73850977Y-71085345D01*
X73850975Y-71085342D01*
X73704657Y-70939024D01*
X73569337Y-70848607D01*
X73532598Y-70824059D01*
X73341420Y-70744870D01*
X73341412Y-70744868D01*
X73138469Y-70704500D01*
X73138465Y-70704500D01*
X72931535Y-70704500D01*
X72931530Y-70704500D01*
X72728587Y-70744868D01*
X72728579Y-70744870D01*
X72537403Y-70824058D01*
X72365342Y-70939024D01*
X72219024Y-71085342D01*
X72104058Y-71257403D01*
X72024870Y-71448579D01*
X72024868Y-71448587D01*
X71984500Y-71651530D01*
X71545499Y-71651530D01*
X71505130Y-71448580D01*
X71425941Y-71257402D01*
X71310977Y-71085345D01*
X71310975Y-71085342D01*
X71164657Y-70939024D01*
X71029337Y-70848607D01*
X70992598Y-70824059D01*
X70801420Y-70744870D01*
X70801412Y-70744868D01*
X70598469Y-70704500D01*
X70598465Y-70704500D01*
X70391535Y-70704500D01*
X70391530Y-70704500D01*
X70188587Y-70744868D01*
X70188579Y-70744870D01*
X69997403Y-70824058D01*
X69825342Y-70939024D01*
X69679024Y-71085342D01*
X69564058Y-71257403D01*
X69484870Y-71448579D01*
X69484868Y-71448587D01*
X69444500Y-71651530D01*
X69005499Y-71651530D01*
X68965130Y-71448580D01*
X68885941Y-71257402D01*
X68770977Y-71085345D01*
X68770975Y-71085342D01*
X68624657Y-70939024D01*
X68489337Y-70848607D01*
X68452598Y-70824059D01*
X68261420Y-70744870D01*
X68261412Y-70744868D01*
X68058469Y-70704500D01*
X68058465Y-70704500D01*
X67851535Y-70704500D01*
X67851530Y-70704500D01*
X67648587Y-70744868D01*
X67648579Y-70744870D01*
X67457403Y-70824058D01*
X67285342Y-70939024D01*
X67139024Y-71085342D01*
X67024058Y-71257403D01*
X66944870Y-71448579D01*
X66944868Y-71448587D01*
X66904500Y-71651530D01*
X66465499Y-71651530D01*
X66425130Y-71448580D01*
X66345941Y-71257402D01*
X66230977Y-71085345D01*
X66230975Y-71085342D01*
X66084657Y-70939024D01*
X65949337Y-70848607D01*
X65912598Y-70824059D01*
X65721420Y-70744870D01*
X65721412Y-70744868D01*
X65518469Y-70704500D01*
X65518465Y-70704500D01*
X65311535Y-70704500D01*
X65311530Y-70704500D01*
X65108587Y-70744868D01*
X65108579Y-70744870D01*
X64917403Y-70824058D01*
X64745342Y-70939024D01*
X64599024Y-71085342D01*
X64484058Y-71257403D01*
X64404870Y-71448579D01*
X64404868Y-71448587D01*
X64364500Y-71651530D01*
X63925499Y-71651530D01*
X63885130Y-71448580D01*
X63805941Y-71257402D01*
X63690977Y-71085345D01*
X63690975Y-71085342D01*
X63544657Y-70939024D01*
X63409337Y-70848607D01*
X63372598Y-70824059D01*
X63181420Y-70744870D01*
X63181412Y-70744868D01*
X62978469Y-70704500D01*
X62978465Y-70704500D01*
X62771535Y-70704500D01*
X62771530Y-70704500D01*
X62568587Y-70744868D01*
X62568579Y-70744870D01*
X62377403Y-70824058D01*
X62205342Y-70939024D01*
X62059024Y-71085342D01*
X61944058Y-71257403D01*
X61864870Y-71448579D01*
X61864868Y-71448587D01*
X61824500Y-71651530D01*
X61385499Y-71651530D01*
X61345130Y-71448580D01*
X61265941Y-71257402D01*
X61150977Y-71085345D01*
X61150975Y-71085342D01*
X61004657Y-70939024D01*
X60869337Y-70848607D01*
X60832598Y-70824059D01*
X60641420Y-70744870D01*
X60641412Y-70744868D01*
X60438469Y-70704500D01*
X60438465Y-70704500D01*
X60231535Y-70704500D01*
X60231530Y-70704500D01*
X60028587Y-70744868D01*
X60028579Y-70744870D01*
X59837403Y-70824058D01*
X59665342Y-70939024D01*
X59519024Y-71085342D01*
X59404058Y-71257403D01*
X59324870Y-71448579D01*
X59324868Y-71448587D01*
X59284500Y-71651530D01*
X58845499Y-71651530D01*
X58805130Y-71448580D01*
X58725941Y-71257402D01*
X58610977Y-71085345D01*
X58610975Y-71085342D01*
X58464657Y-70939024D01*
X58329337Y-70848607D01*
X58292598Y-70824059D01*
X58101420Y-70744870D01*
X58101412Y-70744868D01*
X57898469Y-70704500D01*
X57898465Y-70704500D01*
X57691535Y-70704500D01*
X57691530Y-70704500D01*
X57488587Y-70744868D01*
X57488579Y-70744870D01*
X57297403Y-70824058D01*
X57125342Y-70939024D01*
X56979024Y-71085342D01*
X56864058Y-71257403D01*
X56784870Y-71448579D01*
X56784868Y-71448587D01*
X56744500Y-71651530D01*
X56305499Y-71651530D01*
X56265130Y-71448580D01*
X56185941Y-71257402D01*
X56070977Y-71085345D01*
X56070975Y-71085342D01*
X55924657Y-70939024D01*
X55789337Y-70848607D01*
X55752598Y-70824059D01*
X55561420Y-70744870D01*
X55561412Y-70744868D01*
X55358469Y-70704500D01*
X55358465Y-70704500D01*
X55151535Y-70704500D01*
X55151530Y-70704500D01*
X54948587Y-70744868D01*
X54948579Y-70744870D01*
X54757403Y-70824058D01*
X54585342Y-70939024D01*
X54439024Y-71085342D01*
X54324058Y-71257403D01*
X54244870Y-71448579D01*
X54244868Y-71448587D01*
X54204500Y-71651530D01*
X53765499Y-71651530D01*
X53725130Y-71448580D01*
X53645941Y-71257402D01*
X53530977Y-71085345D01*
X53530975Y-71085342D01*
X53384657Y-70939024D01*
X53249337Y-70848607D01*
X53212598Y-70824059D01*
X53021420Y-70744870D01*
X53021412Y-70744868D01*
X52818469Y-70704500D01*
X52818465Y-70704500D01*
X52611535Y-70704500D01*
X52611530Y-70704500D01*
X52408587Y-70744868D01*
X52408579Y-70744870D01*
X52217403Y-70824058D01*
X52045342Y-70939024D01*
X51899024Y-71085342D01*
X51784058Y-71257403D01*
X51704870Y-71448579D01*
X51704868Y-71448587D01*
X51664500Y-71651530D01*
X51300500Y-71651530D01*
X51300500Y-67075247D01*
X51664500Y-67075247D01*
X51664500Y-68814752D01*
X51676131Y-68873229D01*
X51676132Y-68873230D01*
X51720447Y-68939552D01*
X51786769Y-68983867D01*
X51786770Y-68983868D01*
X51845247Y-68995499D01*
X51845250Y-68995500D01*
X51845252Y-68995500D01*
X53584750Y-68995500D01*
X53584751Y-68995499D01*
X53599568Y-68992552D01*
X53643229Y-68983868D01*
X53643229Y-68983867D01*
X53643231Y-68983867D01*
X53709552Y-68939552D01*
X53753867Y-68873231D01*
X53753867Y-68873229D01*
X53753868Y-68873229D01*
X53765499Y-68814752D01*
X53765500Y-68814750D01*
X53765500Y-67841530D01*
X54204500Y-67841530D01*
X54204500Y-68048469D01*
X54244868Y-68251412D01*
X54244870Y-68251420D01*
X54300246Y-68385110D01*
X54324059Y-68442598D01*
X54337836Y-68463217D01*
X54439024Y-68614657D01*
X54585342Y-68760975D01*
X54585345Y-68760977D01*
X54757402Y-68875941D01*
X54948580Y-68955130D01*
X55093052Y-68983867D01*
X55151530Y-68995499D01*
X55151534Y-68995500D01*
X55151535Y-68995500D01*
X55358466Y-68995500D01*
X55358467Y-68995499D01*
X55561420Y-68955130D01*
X55752598Y-68875941D01*
X55924655Y-68760977D01*
X56070977Y-68614655D01*
X56185941Y-68442598D01*
X56265130Y-68251420D01*
X56305500Y-68048465D01*
X56305500Y-67841535D01*
X56305499Y-67841530D01*
X56744500Y-67841530D01*
X56744500Y-68048469D01*
X56784868Y-68251412D01*
X56784870Y-68251420D01*
X56840246Y-68385110D01*
X56864059Y-68442598D01*
X56877836Y-68463217D01*
X56979024Y-68614657D01*
X57125342Y-68760975D01*
X57125345Y-68760977D01*
X57297402Y-68875941D01*
X57488580Y-68955130D01*
X57633052Y-68983867D01*
X57691530Y-68995499D01*
X57691534Y-68995500D01*
X57691535Y-68995500D01*
X57898466Y-68995500D01*
X57898467Y-68995499D01*
X58101420Y-68955130D01*
X58292598Y-68875941D01*
X58464655Y-68760977D01*
X58610977Y-68614655D01*
X58725941Y-68442598D01*
X58805130Y-68251420D01*
X58845500Y-68048465D01*
X58845500Y-67841535D01*
X58845499Y-67841530D01*
X59284500Y-67841530D01*
X59284500Y-68048469D01*
X59324868Y-68251412D01*
X59324870Y-68251420D01*
X59380246Y-68385110D01*
X59404059Y-68442598D01*
X59417836Y-68463217D01*
X59519024Y-68614657D01*
X59665342Y-68760975D01*
X59665345Y-68760977D01*
X59837402Y-68875941D01*
X60028580Y-68955130D01*
X60173052Y-68983867D01*
X60231530Y-68995499D01*
X60231534Y-68995500D01*
X60231535Y-68995500D01*
X60438466Y-68995500D01*
X60438467Y-68995499D01*
X60641420Y-68955130D01*
X60832598Y-68875941D01*
X61004655Y-68760977D01*
X61150977Y-68614655D01*
X61265941Y-68442598D01*
X61345130Y-68251420D01*
X61385500Y-68048465D01*
X61385500Y-67841535D01*
X61385499Y-67841530D01*
X61824500Y-67841530D01*
X61824500Y-68048469D01*
X61864868Y-68251412D01*
X61864870Y-68251420D01*
X61920246Y-68385110D01*
X61944059Y-68442598D01*
X61957836Y-68463217D01*
X62059024Y-68614657D01*
X62205342Y-68760975D01*
X62205345Y-68760977D01*
X62377402Y-68875941D01*
X62568580Y-68955130D01*
X62713052Y-68983867D01*
X62771530Y-68995499D01*
X62771534Y-68995500D01*
X62771535Y-68995500D01*
X62978466Y-68995500D01*
X62978467Y-68995499D01*
X63181420Y-68955130D01*
X63372598Y-68875941D01*
X63544655Y-68760977D01*
X63690977Y-68614655D01*
X63805941Y-68442598D01*
X63885130Y-68251420D01*
X63925500Y-68048465D01*
X63925500Y-67841535D01*
X63925499Y-67841530D01*
X64364500Y-67841530D01*
X64364500Y-68048469D01*
X64404868Y-68251412D01*
X64404870Y-68251420D01*
X64460246Y-68385110D01*
X64484059Y-68442598D01*
X64497836Y-68463217D01*
X64599024Y-68614657D01*
X64745342Y-68760975D01*
X64745345Y-68760977D01*
X64917402Y-68875941D01*
X65108580Y-68955130D01*
X65253052Y-68983867D01*
X65311530Y-68995499D01*
X65311534Y-68995500D01*
X65311535Y-68995500D01*
X65518466Y-68995500D01*
X65518467Y-68995499D01*
X65721420Y-68955130D01*
X65912598Y-68875941D01*
X66084655Y-68760977D01*
X66230977Y-68614655D01*
X66345941Y-68442598D01*
X66425130Y-68251420D01*
X66465500Y-68048465D01*
X66465500Y-67841535D01*
X66465499Y-67841530D01*
X66904500Y-67841530D01*
X66904500Y-68048469D01*
X66944868Y-68251412D01*
X66944870Y-68251420D01*
X67000246Y-68385110D01*
X67024059Y-68442598D01*
X67037836Y-68463217D01*
X67139024Y-68614657D01*
X67285342Y-68760975D01*
X67285345Y-68760977D01*
X67457402Y-68875941D01*
X67648580Y-68955130D01*
X67793052Y-68983867D01*
X67851530Y-68995499D01*
X67851534Y-68995500D01*
X67851535Y-68995500D01*
X68058466Y-68995500D01*
X68058467Y-68995499D01*
X68261420Y-68955130D01*
X68452598Y-68875941D01*
X68624655Y-68760977D01*
X68770977Y-68614655D01*
X68885941Y-68442598D01*
X68965130Y-68251420D01*
X69005500Y-68048465D01*
X69005500Y-67841535D01*
X69005499Y-67841530D01*
X69444500Y-67841530D01*
X69444500Y-68048469D01*
X69484868Y-68251412D01*
X69484870Y-68251420D01*
X69540246Y-68385110D01*
X69564059Y-68442598D01*
X69577836Y-68463217D01*
X69679024Y-68614657D01*
X69825342Y-68760975D01*
X69825345Y-68760977D01*
X69997402Y-68875941D01*
X70188580Y-68955130D01*
X70333052Y-68983867D01*
X70391530Y-68995499D01*
X70391534Y-68995500D01*
X70391535Y-68995500D01*
X70598466Y-68995500D01*
X70598467Y-68995499D01*
X70801420Y-68955130D01*
X70992598Y-68875941D01*
X71164655Y-68760977D01*
X71310977Y-68614655D01*
X71425941Y-68442598D01*
X71505130Y-68251420D01*
X71545500Y-68048465D01*
X71545500Y-67841535D01*
X71545499Y-67841530D01*
X71984500Y-67841530D01*
X71984500Y-68048469D01*
X72024868Y-68251412D01*
X72024870Y-68251420D01*
X72080246Y-68385110D01*
X72104059Y-68442598D01*
X72117836Y-68463217D01*
X72219024Y-68614657D01*
X72365342Y-68760975D01*
X72365345Y-68760977D01*
X72537402Y-68875941D01*
X72728580Y-68955130D01*
X72873052Y-68983867D01*
X72931530Y-68995499D01*
X72931534Y-68995500D01*
X72931535Y-68995500D01*
X73138466Y-68995500D01*
X73138467Y-68995499D01*
X73341420Y-68955130D01*
X73532598Y-68875941D01*
X73704655Y-68760977D01*
X73850977Y-68614655D01*
X73965941Y-68442598D01*
X74045130Y-68251420D01*
X74085500Y-68048465D01*
X74085500Y-67841535D01*
X74085499Y-67841530D01*
X74524500Y-67841530D01*
X74524500Y-68048469D01*
X74564868Y-68251412D01*
X74564870Y-68251420D01*
X74620246Y-68385110D01*
X74644059Y-68442598D01*
X74657836Y-68463217D01*
X74759024Y-68614657D01*
X74905342Y-68760975D01*
X74905345Y-68760977D01*
X75077402Y-68875941D01*
X75268580Y-68955130D01*
X75413052Y-68983867D01*
X75471530Y-68995499D01*
X75471534Y-68995500D01*
X75471535Y-68995500D01*
X75678466Y-68995500D01*
X75678467Y-68995499D01*
X75881420Y-68955130D01*
X76072598Y-68875941D01*
X76244655Y-68760977D01*
X76390977Y-68614655D01*
X76505941Y-68442598D01*
X76585130Y-68251420D01*
X76625500Y-68048465D01*
X76625500Y-67841535D01*
X76625499Y-67841530D01*
X77064500Y-67841530D01*
X77064500Y-68048469D01*
X77104868Y-68251412D01*
X77104870Y-68251420D01*
X77160246Y-68385110D01*
X77184059Y-68442598D01*
X77197836Y-68463217D01*
X77299024Y-68614657D01*
X77445342Y-68760975D01*
X77445345Y-68760977D01*
X77617402Y-68875941D01*
X77808580Y-68955130D01*
X77953052Y-68983867D01*
X78011530Y-68995499D01*
X78011534Y-68995500D01*
X78011535Y-68995500D01*
X78218466Y-68995500D01*
X78218467Y-68995499D01*
X78421420Y-68955130D01*
X78612598Y-68875941D01*
X78784655Y-68760977D01*
X78930977Y-68614655D01*
X79045941Y-68442598D01*
X79125130Y-68251420D01*
X79165500Y-68048465D01*
X79165500Y-67841535D01*
X79165499Y-67841530D01*
X79604500Y-67841530D01*
X79604500Y-68048469D01*
X79644868Y-68251412D01*
X79644870Y-68251420D01*
X79700246Y-68385110D01*
X79724059Y-68442598D01*
X79737836Y-68463217D01*
X79839024Y-68614657D01*
X79985342Y-68760975D01*
X79985345Y-68760977D01*
X80157402Y-68875941D01*
X80348580Y-68955130D01*
X80493052Y-68983867D01*
X80551530Y-68995499D01*
X80551534Y-68995500D01*
X80551535Y-68995500D01*
X80758466Y-68995500D01*
X80758467Y-68995499D01*
X80961420Y-68955130D01*
X81152598Y-68875941D01*
X81324655Y-68760977D01*
X81470977Y-68614655D01*
X81585941Y-68442598D01*
X81665130Y-68251420D01*
X81705500Y-68048465D01*
X81705500Y-67841535D01*
X81705499Y-67841530D01*
X82144500Y-67841530D01*
X82144500Y-68048469D01*
X82184868Y-68251412D01*
X82184870Y-68251420D01*
X82240246Y-68385110D01*
X82264059Y-68442598D01*
X82277836Y-68463217D01*
X82379024Y-68614657D01*
X82525342Y-68760975D01*
X82525345Y-68760977D01*
X82697402Y-68875941D01*
X82888580Y-68955130D01*
X83033052Y-68983867D01*
X83091530Y-68995499D01*
X83091534Y-68995500D01*
X83091535Y-68995500D01*
X83298466Y-68995500D01*
X83298467Y-68995499D01*
X83501420Y-68955130D01*
X83692598Y-68875941D01*
X83864655Y-68760977D01*
X84010977Y-68614655D01*
X84125941Y-68442598D01*
X84205130Y-68251420D01*
X84245500Y-68048465D01*
X84245500Y-67841535D01*
X84245499Y-67841530D01*
X84684500Y-67841530D01*
X84684500Y-68048469D01*
X84724868Y-68251412D01*
X84724870Y-68251420D01*
X84780246Y-68385110D01*
X84804059Y-68442598D01*
X84817836Y-68463217D01*
X84919024Y-68614657D01*
X85065342Y-68760975D01*
X85065345Y-68760977D01*
X85237402Y-68875941D01*
X85428580Y-68955130D01*
X85573052Y-68983867D01*
X85631530Y-68995499D01*
X85631534Y-68995500D01*
X85631535Y-68995500D01*
X85838466Y-68995500D01*
X85838467Y-68995499D01*
X86041420Y-68955130D01*
X86232598Y-68875941D01*
X86404655Y-68760977D01*
X86550977Y-68614655D01*
X86665941Y-68442598D01*
X86745130Y-68251420D01*
X86785500Y-68048465D01*
X86785500Y-67841535D01*
X86785499Y-67841530D01*
X87224500Y-67841530D01*
X87224500Y-68048469D01*
X87264868Y-68251412D01*
X87264870Y-68251420D01*
X87320246Y-68385110D01*
X87344059Y-68442598D01*
X87357836Y-68463217D01*
X87459024Y-68614657D01*
X87605342Y-68760975D01*
X87605345Y-68760977D01*
X87777402Y-68875941D01*
X87968580Y-68955130D01*
X88113052Y-68983867D01*
X88171530Y-68995499D01*
X88171534Y-68995500D01*
X88171535Y-68995500D01*
X88378466Y-68995500D01*
X88378467Y-68995499D01*
X88581420Y-68955130D01*
X88772598Y-68875941D01*
X88944655Y-68760977D01*
X89090977Y-68614655D01*
X89205941Y-68442598D01*
X89285130Y-68251420D01*
X89325500Y-68048465D01*
X89325500Y-67841535D01*
X89325499Y-67841530D01*
X89764500Y-67841530D01*
X89764500Y-68048469D01*
X89804868Y-68251412D01*
X89804870Y-68251420D01*
X89860246Y-68385110D01*
X89884059Y-68442598D01*
X89897836Y-68463217D01*
X89999024Y-68614657D01*
X90145342Y-68760975D01*
X90145345Y-68760977D01*
X90317402Y-68875941D01*
X90508580Y-68955130D01*
X90653052Y-68983867D01*
X90711530Y-68995499D01*
X90711534Y-68995500D01*
X90711535Y-68995500D01*
X90918466Y-68995500D01*
X90918467Y-68995499D01*
X91121420Y-68955130D01*
X91312598Y-68875941D01*
X91484655Y-68760977D01*
X91630977Y-68614655D01*
X91745941Y-68442598D01*
X91825130Y-68251420D01*
X91865500Y-68048465D01*
X91865500Y-67841535D01*
X91865499Y-67841530D01*
X92304500Y-67841530D01*
X92304500Y-68048469D01*
X92344868Y-68251412D01*
X92344870Y-68251420D01*
X92400246Y-68385110D01*
X92424059Y-68442598D01*
X92437836Y-68463217D01*
X92539024Y-68614657D01*
X92685342Y-68760975D01*
X92685345Y-68760977D01*
X92857402Y-68875941D01*
X93048580Y-68955130D01*
X93193052Y-68983867D01*
X93251530Y-68995499D01*
X93251534Y-68995500D01*
X93251535Y-68995500D01*
X93458466Y-68995500D01*
X93458467Y-68995499D01*
X93661420Y-68955130D01*
X93852598Y-68875941D01*
X94024655Y-68760977D01*
X94170977Y-68614655D01*
X94285941Y-68442598D01*
X94365130Y-68251420D01*
X94405500Y-68048465D01*
X94405500Y-67841535D01*
X94405499Y-67841530D01*
X94844500Y-67841530D01*
X94844500Y-68048469D01*
X94884868Y-68251412D01*
X94884870Y-68251420D01*
X94940246Y-68385110D01*
X94964059Y-68442598D01*
X94977836Y-68463217D01*
X95079024Y-68614657D01*
X95225342Y-68760975D01*
X95225345Y-68760977D01*
X95397402Y-68875941D01*
X95588580Y-68955130D01*
X95733052Y-68983867D01*
X95791530Y-68995499D01*
X95791534Y-68995500D01*
X95791535Y-68995500D01*
X95998466Y-68995500D01*
X95998467Y-68995499D01*
X96201420Y-68955130D01*
X96392598Y-68875941D01*
X96564655Y-68760977D01*
X96710977Y-68614655D01*
X96825941Y-68442598D01*
X96905130Y-68251420D01*
X96945500Y-68048465D01*
X96945500Y-67841535D01*
X96945499Y-67841530D01*
X97384500Y-67841530D01*
X97384500Y-68048469D01*
X97424868Y-68251412D01*
X97424870Y-68251420D01*
X97480246Y-68385110D01*
X97504059Y-68442598D01*
X97517836Y-68463217D01*
X97619024Y-68614657D01*
X97765342Y-68760975D01*
X97765345Y-68760977D01*
X97937402Y-68875941D01*
X98128580Y-68955130D01*
X98273052Y-68983867D01*
X98331530Y-68995499D01*
X98331534Y-68995500D01*
X98331535Y-68995500D01*
X98538466Y-68995500D01*
X98538467Y-68995499D01*
X98741420Y-68955130D01*
X98932598Y-68875941D01*
X99104655Y-68760977D01*
X99250977Y-68614655D01*
X99365941Y-68442598D01*
X99434165Y-68277889D01*
X99478004Y-68223488D01*
X99544298Y-68201423D01*
X99611998Y-68218702D01*
X99659609Y-68269839D01*
X99666656Y-68287026D01*
X99723904Y-68463216D01*
X99820375Y-68652550D01*
X99859728Y-68706716D01*
X100451212Y-68115233D01*
X100462482Y-68157292D01*
X100534890Y-68282708D01*
X100637292Y-68385110D01*
X100762708Y-68457518D01*
X100804765Y-68468787D01*
X100213282Y-69060269D01*
X100213282Y-69060270D01*
X100267449Y-69099624D01*
X100456782Y-69196095D01*
X100658870Y-69261757D01*
X100868754Y-69295000D01*
X101081246Y-69295000D01*
X101205888Y-69275258D01*
X147931849Y-69275258D01*
X147931849Y-69504741D01*
X147956795Y-69694215D01*
X147961801Y-69732238D01*
X147961802Y-69732240D01*
X148021191Y-69953887D01*
X148108999Y-70165876D01*
X148109006Y-70165890D01*
X148223741Y-70364617D01*
X148363430Y-70546661D01*
X148363438Y-70546670D01*
X148525679Y-70708911D01*
X148525687Y-70708918D01*
X148707731Y-70848607D01*
X148707734Y-70848608D01*
X148707737Y-70848611D01*
X148906461Y-70963344D01*
X148906466Y-70963346D01*
X148906472Y-70963349D01*
X148997829Y-71001190D01*
X149118462Y-71051158D01*
X149340111Y-71110548D01*
X149567615Y-71140500D01*
X149567622Y-71140500D01*
X149797076Y-71140500D01*
X149797083Y-71140500D01*
X150024587Y-71110548D01*
X150246236Y-71051158D01*
X150458237Y-70963344D01*
X150656961Y-70848611D01*
X150839010Y-70708919D01*
X150839014Y-70708914D01*
X150839019Y-70708911D01*
X151001260Y-70546670D01*
X151001263Y-70546665D01*
X151001268Y-70546661D01*
X151140960Y-70364612D01*
X151255693Y-70165888D01*
X151343507Y-69953887D01*
X151402897Y-69732238D01*
X151432849Y-69504734D01*
X151432849Y-69275266D01*
X151402897Y-69047762D01*
X151343507Y-68826113D01*
X151281718Y-68676941D01*
X151255698Y-68614123D01*
X151255695Y-68614117D01*
X151255693Y-68614112D01*
X151140960Y-68415388D01*
X151140957Y-68415385D01*
X151140956Y-68415382D01*
X151001267Y-68233338D01*
X151001260Y-68233330D01*
X150839019Y-68071089D01*
X150839010Y-68071081D01*
X150656966Y-67931392D01*
X150458239Y-67816657D01*
X150458225Y-67816650D01*
X150246236Y-67728842D01*
X150024587Y-67669452D01*
X149986564Y-67664446D01*
X149797090Y-67639500D01*
X149797083Y-67639500D01*
X149567615Y-67639500D01*
X149567607Y-67639500D01*
X149351064Y-67668009D01*
X149340111Y-67669452D01*
X149271459Y-67687847D01*
X149118461Y-67728842D01*
X148906472Y-67816650D01*
X148906458Y-67816657D01*
X148707731Y-67931392D01*
X148525687Y-68071081D01*
X148363430Y-68233338D01*
X148223741Y-68415382D01*
X148109006Y-68614109D01*
X148108999Y-68614123D01*
X148021191Y-68826112D01*
X147961802Y-69047759D01*
X147961800Y-69047770D01*
X147931849Y-69275258D01*
X101205888Y-69275258D01*
X101291127Y-69261757D01*
X101291130Y-69261757D01*
X101493217Y-69196095D01*
X101562641Y-69160722D01*
X101682554Y-69099622D01*
X101736716Y-69060270D01*
X101736717Y-69060270D01*
X101145233Y-68468787D01*
X101187292Y-68457518D01*
X101312708Y-68385110D01*
X101415110Y-68282708D01*
X101487518Y-68157292D01*
X101498787Y-68115233D01*
X102090270Y-68706717D01*
X102090270Y-68706716D01*
X102129622Y-68652554D01*
X102226095Y-68463217D01*
X102291757Y-68261130D01*
X102291757Y-68261127D01*
X102325000Y-68051246D01*
X102325000Y-67838753D01*
X102291757Y-67628872D01*
X102291757Y-67628869D01*
X102226095Y-67426782D01*
X102129624Y-67237449D01*
X102115036Y-67217370D01*
X102115035Y-67217368D01*
X102090270Y-67183282D01*
X102090269Y-67183282D01*
X101498787Y-67774765D01*
X101487518Y-67732708D01*
X101415110Y-67607292D01*
X101312708Y-67504890D01*
X101187292Y-67432482D01*
X101145233Y-67421212D01*
X101417896Y-67148549D01*
X144831849Y-67148549D01*
X144831849Y-67371450D01*
X144831850Y-67371466D01*
X144860943Y-67592452D01*
X144860944Y-67592457D01*
X144860945Y-67592463D01*
X144900484Y-67740025D01*
X144918639Y-67807780D01*
X144918642Y-67807790D01*
X145003942Y-68013722D01*
X145003944Y-68013726D01*
X145115401Y-68206774D01*
X145115406Y-68206780D01*
X145115407Y-68206782D01*
X145251100Y-68383622D01*
X145251106Y-68383629D01*
X145408719Y-68541242D01*
X145408725Y-68541247D01*
X145585575Y-68676948D01*
X145778623Y-68788405D01*
X145902984Y-68839917D01*
X145983411Y-68873231D01*
X145984568Y-68873710D01*
X146199886Y-68931404D01*
X146420892Y-68960500D01*
X146420899Y-68960500D01*
X146643799Y-68960500D01*
X146643806Y-68960500D01*
X146864812Y-68931404D01*
X147080130Y-68873710D01*
X147286075Y-68788405D01*
X147479123Y-68676948D01*
X147655973Y-68541247D01*
X147813596Y-68383624D01*
X147949297Y-68206774D01*
X148060754Y-68013726D01*
X148146059Y-67807781D01*
X148203753Y-67592463D01*
X148232849Y-67371457D01*
X148232849Y-67161577D01*
X154781849Y-67161577D01*
X154781849Y-67358422D01*
X154812639Y-67552826D01*
X154873466Y-67740029D01*
X154941010Y-67872591D01*
X154962825Y-67915405D01*
X155078521Y-68074646D01*
X155217703Y-68213828D01*
X155376944Y-68329524D01*
X155459804Y-68371743D01*
X155552319Y-68418882D01*
X155552321Y-68418882D01*
X155552324Y-68418884D01*
X155625302Y-68442596D01*
X155739522Y-68479709D01*
X155933927Y-68510500D01*
X155933932Y-68510500D01*
X156130771Y-68510500D01*
X156325175Y-68479709D01*
X156512374Y-68418884D01*
X156687754Y-68329524D01*
X156846995Y-68213828D01*
X156986177Y-68074646D01*
X157101873Y-67915405D01*
X157110579Y-67898317D01*
X157158552Y-67847521D01*
X157226373Y-67830724D01*
X157292508Y-67853260D01*
X157335626Y-67907157D01*
X157434753Y-68146471D01*
X157434758Y-68146482D01*
X157565837Y-68373516D01*
X157565843Y-68373524D01*
X157652429Y-68486365D01*
X158554770Y-67584024D01*
X158567708Y-67615258D01*
X158649786Y-67738097D01*
X158754252Y-67842563D01*
X158877091Y-67924641D01*
X158908323Y-67937577D01*
X158005982Y-68839917D01*
X158005982Y-68839918D01*
X158118824Y-68926505D01*
X158118832Y-68926511D01*
X158345866Y-69057590D01*
X158345877Y-69057595D01*
X158588093Y-69157924D01*
X158841328Y-69225777D01*
X158841339Y-69225779D01*
X159101254Y-69259999D01*
X159101269Y-69260000D01*
X159363429Y-69260000D01*
X159363443Y-69259999D01*
X159623358Y-69225779D01*
X159623369Y-69225777D01*
X159876604Y-69157924D01*
X160118820Y-69057595D01*
X160118831Y-69057590D01*
X160345865Y-68926511D01*
X160345883Y-68926499D01*
X160458714Y-68839919D01*
X160458714Y-68839917D01*
X159556374Y-67937578D01*
X159587607Y-67924641D01*
X159710446Y-67842563D01*
X159814912Y-67738097D01*
X159896990Y-67615258D01*
X159909927Y-67584025D01*
X160812266Y-68486365D01*
X160812268Y-68486365D01*
X160898848Y-68373534D01*
X160898860Y-68373516D01*
X161029939Y-68146482D01*
X161029944Y-68146471D01*
X161130273Y-67904255D01*
X161198126Y-67651020D01*
X161198128Y-67651009D01*
X161232348Y-67391094D01*
X161232349Y-67391080D01*
X161232349Y-67128919D01*
X161232348Y-67128905D01*
X161198128Y-66868990D01*
X161198126Y-66868979D01*
X161130273Y-66615744D01*
X161029944Y-66373528D01*
X161029939Y-66373517D01*
X160898860Y-66146483D01*
X160898854Y-66146475D01*
X160812267Y-66033633D01*
X160812266Y-66033633D01*
X159909926Y-66935973D01*
X159896990Y-66904742D01*
X159814912Y-66781903D01*
X159710446Y-66677437D01*
X159587607Y-66595359D01*
X159556372Y-66582421D01*
X160458714Y-65680080D01*
X160345873Y-65593494D01*
X160345865Y-65593488D01*
X160118831Y-65462409D01*
X160118820Y-65462404D01*
X159876604Y-65362075D01*
X159623369Y-65294222D01*
X159623358Y-65294220D01*
X159363443Y-65260000D01*
X159101254Y-65260000D01*
X158841339Y-65294220D01*
X158841328Y-65294222D01*
X158588093Y-65362075D01*
X158345877Y-65462404D01*
X158345866Y-65462409D01*
X158118820Y-65593496D01*
X158005982Y-65680079D01*
X158005982Y-65680080D01*
X158908323Y-66582421D01*
X158877091Y-66595359D01*
X158754252Y-66677437D01*
X158649786Y-66781903D01*
X158567708Y-66904742D01*
X158554770Y-66935974D01*
X157652429Y-66033633D01*
X157652428Y-66033633D01*
X157565845Y-66146471D01*
X157434758Y-66373517D01*
X157434753Y-66373528D01*
X157335626Y-66612842D01*
X157291785Y-66667245D01*
X157225491Y-66689310D01*
X157157791Y-66672031D01*
X157110580Y-66621683D01*
X157101874Y-66604596D01*
X157084493Y-66580674D01*
X156986177Y-66445354D01*
X156846995Y-66306172D01*
X156687754Y-66190476D01*
X156512378Y-66101117D01*
X156325175Y-66040290D01*
X156130771Y-66009500D01*
X156130766Y-66009500D01*
X155933932Y-66009500D01*
X155933927Y-66009500D01*
X155739522Y-66040290D01*
X155552319Y-66101117D01*
X155376943Y-66190476D01*
X155286090Y-66256485D01*
X155217703Y-66306172D01*
X155217701Y-66306174D01*
X155217700Y-66306174D01*
X155078523Y-66445351D01*
X155078523Y-66445352D01*
X155078521Y-66445354D01*
X155034261Y-66506273D01*
X154962825Y-66604594D01*
X154873466Y-66779970D01*
X154812639Y-66967173D01*
X154781849Y-67161577D01*
X148232849Y-67161577D01*
X148232849Y-67148543D01*
X148203753Y-66927537D01*
X148146059Y-66712219D01*
X148060754Y-66506274D01*
X147949297Y-66313226D01*
X147855108Y-66190476D01*
X147813597Y-66136377D01*
X147813591Y-66136370D01*
X147655978Y-65978757D01*
X147655971Y-65978751D01*
X147479131Y-65843058D01*
X147479129Y-65843056D01*
X147479123Y-65843052D01*
X147479118Y-65843049D01*
X147479115Y-65843047D01*
X147465904Y-65835420D01*
X147286075Y-65731595D01*
X147286071Y-65731593D01*
X147080139Y-65646293D01*
X147080132Y-65646291D01*
X147080130Y-65646290D01*
X146864812Y-65588596D01*
X146864806Y-65588595D01*
X146864801Y-65588594D01*
X146643815Y-65559501D01*
X146643812Y-65559500D01*
X146643806Y-65559500D01*
X146420892Y-65559500D01*
X146420886Y-65559500D01*
X146420882Y-65559501D01*
X146199896Y-65588594D01*
X146199889Y-65588595D01*
X146199886Y-65588596D01*
X145984568Y-65646290D01*
X145984558Y-65646293D01*
X145778626Y-65731593D01*
X145778622Y-65731595D01*
X145585575Y-65843052D01*
X145585566Y-65843058D01*
X145408726Y-65978751D01*
X145408719Y-65978757D01*
X145251106Y-66136370D01*
X145251100Y-66136377D01*
X145115407Y-66313217D01*
X145115401Y-66313226D01*
X145003944Y-66506273D01*
X145003942Y-66506277D01*
X144918642Y-66712209D01*
X144918639Y-66712219D01*
X144866681Y-66906132D01*
X144860946Y-66927534D01*
X144860943Y-66927547D01*
X144831850Y-67148533D01*
X144831849Y-67148549D01*
X101417896Y-67148549D01*
X101736716Y-66829728D01*
X101682550Y-66790375D01*
X101493217Y-66693904D01*
X101291129Y-66628242D01*
X101081246Y-66595000D01*
X100868754Y-66595000D01*
X100658872Y-66628242D01*
X100658869Y-66628242D01*
X100456782Y-66693904D01*
X100267439Y-66790380D01*
X100213282Y-66829727D01*
X100213282Y-66829728D01*
X100804766Y-67421212D01*
X100762708Y-67432482D01*
X100637292Y-67504890D01*
X100534890Y-67607292D01*
X100462482Y-67732708D01*
X100451212Y-67774766D01*
X99859728Y-67183282D01*
X99859727Y-67183282D01*
X99820380Y-67237439D01*
X99723905Y-67426781D01*
X99666656Y-67602974D01*
X99627218Y-67660649D01*
X99562859Y-67687847D01*
X99494013Y-67675932D01*
X99442537Y-67628688D01*
X99434164Y-67612107D01*
X99426027Y-67592463D01*
X99408456Y-67550043D01*
X99365943Y-67447405D01*
X99250975Y-67275342D01*
X99104657Y-67129024D01*
X98936655Y-67016770D01*
X98932598Y-67014059D01*
X98741420Y-66934870D01*
X98741412Y-66934868D01*
X98538469Y-66894500D01*
X98538465Y-66894500D01*
X98331535Y-66894500D01*
X98331530Y-66894500D01*
X98128587Y-66934868D01*
X98128579Y-66934870D01*
X97937403Y-67014058D01*
X97765342Y-67129024D01*
X97619024Y-67275342D01*
X97504058Y-67447403D01*
X97424870Y-67638579D01*
X97424868Y-67638587D01*
X97384500Y-67841530D01*
X96945499Y-67841530D01*
X96905130Y-67638580D01*
X96825941Y-67447402D01*
X96710977Y-67275345D01*
X96710975Y-67275342D01*
X96564657Y-67129024D01*
X96396655Y-67016770D01*
X96392598Y-67014059D01*
X96201420Y-66934870D01*
X96201412Y-66934868D01*
X95998469Y-66894500D01*
X95998465Y-66894500D01*
X95791535Y-66894500D01*
X95791530Y-66894500D01*
X95588587Y-66934868D01*
X95588579Y-66934870D01*
X95397403Y-67014058D01*
X95225342Y-67129024D01*
X95079024Y-67275342D01*
X94964058Y-67447403D01*
X94884870Y-67638579D01*
X94884868Y-67638587D01*
X94844500Y-67841530D01*
X94405499Y-67841530D01*
X94365130Y-67638580D01*
X94285941Y-67447402D01*
X94170977Y-67275345D01*
X94170975Y-67275342D01*
X94024657Y-67129024D01*
X93856655Y-67016770D01*
X93852598Y-67014059D01*
X93661420Y-66934870D01*
X93661412Y-66934868D01*
X93458469Y-66894500D01*
X93458465Y-66894500D01*
X93251535Y-66894500D01*
X93251530Y-66894500D01*
X93048587Y-66934868D01*
X93048579Y-66934870D01*
X92857403Y-67014058D01*
X92685342Y-67129024D01*
X92539024Y-67275342D01*
X92424058Y-67447403D01*
X92344870Y-67638579D01*
X92344868Y-67638587D01*
X92304500Y-67841530D01*
X91865499Y-67841530D01*
X91825130Y-67638580D01*
X91745941Y-67447402D01*
X91630977Y-67275345D01*
X91630975Y-67275342D01*
X91484657Y-67129024D01*
X91316655Y-67016770D01*
X91312598Y-67014059D01*
X91121420Y-66934870D01*
X91121412Y-66934868D01*
X90918469Y-66894500D01*
X90918465Y-66894500D01*
X90711535Y-66894500D01*
X90711530Y-66894500D01*
X90508587Y-66934868D01*
X90508579Y-66934870D01*
X90317403Y-67014058D01*
X90145342Y-67129024D01*
X89999024Y-67275342D01*
X89884058Y-67447403D01*
X89804870Y-67638579D01*
X89804868Y-67638587D01*
X89764500Y-67841530D01*
X89325499Y-67841530D01*
X89285130Y-67638580D01*
X89205941Y-67447402D01*
X89090977Y-67275345D01*
X89090975Y-67275342D01*
X88944657Y-67129024D01*
X88776655Y-67016770D01*
X88772598Y-67014059D01*
X88581420Y-66934870D01*
X88581412Y-66934868D01*
X88378469Y-66894500D01*
X88378465Y-66894500D01*
X88171535Y-66894500D01*
X88171530Y-66894500D01*
X87968587Y-66934868D01*
X87968579Y-66934870D01*
X87777403Y-67014058D01*
X87605342Y-67129024D01*
X87459024Y-67275342D01*
X87344058Y-67447403D01*
X87264870Y-67638579D01*
X87264868Y-67638587D01*
X87224500Y-67841530D01*
X86785499Y-67841530D01*
X86745130Y-67638580D01*
X86665941Y-67447402D01*
X86550977Y-67275345D01*
X86550975Y-67275342D01*
X86404657Y-67129024D01*
X86236655Y-67016770D01*
X86232598Y-67014059D01*
X86041420Y-66934870D01*
X86041412Y-66934868D01*
X85838469Y-66894500D01*
X85838465Y-66894500D01*
X85631535Y-66894500D01*
X85631530Y-66894500D01*
X85428587Y-66934868D01*
X85428579Y-66934870D01*
X85237403Y-67014058D01*
X85065342Y-67129024D01*
X84919024Y-67275342D01*
X84804058Y-67447403D01*
X84724870Y-67638579D01*
X84724868Y-67638587D01*
X84684500Y-67841530D01*
X84245499Y-67841530D01*
X84205130Y-67638580D01*
X84125941Y-67447402D01*
X84010977Y-67275345D01*
X84010975Y-67275342D01*
X83864657Y-67129024D01*
X83696655Y-67016770D01*
X83692598Y-67014059D01*
X83501420Y-66934870D01*
X83501412Y-66934868D01*
X83298469Y-66894500D01*
X83298465Y-66894500D01*
X83091535Y-66894500D01*
X83091530Y-66894500D01*
X82888587Y-66934868D01*
X82888579Y-66934870D01*
X82697403Y-67014058D01*
X82525342Y-67129024D01*
X82379024Y-67275342D01*
X82264058Y-67447403D01*
X82184870Y-67638579D01*
X82184868Y-67638587D01*
X82144500Y-67841530D01*
X81705499Y-67841530D01*
X81665130Y-67638580D01*
X81585941Y-67447402D01*
X81470977Y-67275345D01*
X81470975Y-67275342D01*
X81324657Y-67129024D01*
X81156655Y-67016770D01*
X81152598Y-67014059D01*
X80961420Y-66934870D01*
X80961412Y-66934868D01*
X80758469Y-66894500D01*
X80758465Y-66894500D01*
X80551535Y-66894500D01*
X80551530Y-66894500D01*
X80348587Y-66934868D01*
X80348579Y-66934870D01*
X80157403Y-67014058D01*
X79985342Y-67129024D01*
X79839024Y-67275342D01*
X79724058Y-67447403D01*
X79644870Y-67638579D01*
X79644868Y-67638587D01*
X79604500Y-67841530D01*
X79165499Y-67841530D01*
X79125130Y-67638580D01*
X79045941Y-67447402D01*
X78930977Y-67275345D01*
X78930975Y-67275342D01*
X78784657Y-67129024D01*
X78616655Y-67016770D01*
X78612598Y-67014059D01*
X78421420Y-66934870D01*
X78421412Y-66934868D01*
X78218469Y-66894500D01*
X78218465Y-66894500D01*
X78011535Y-66894500D01*
X78011530Y-66894500D01*
X77808587Y-66934868D01*
X77808579Y-66934870D01*
X77617403Y-67014058D01*
X77445342Y-67129024D01*
X77299024Y-67275342D01*
X77184058Y-67447403D01*
X77104870Y-67638579D01*
X77104868Y-67638587D01*
X77064500Y-67841530D01*
X76625499Y-67841530D01*
X76585130Y-67638580D01*
X76505941Y-67447402D01*
X76390977Y-67275345D01*
X76390975Y-67275342D01*
X76244657Y-67129024D01*
X76076655Y-67016770D01*
X76072598Y-67014059D01*
X75881420Y-66934870D01*
X75881412Y-66934868D01*
X75678469Y-66894500D01*
X75678465Y-66894500D01*
X75471535Y-66894500D01*
X75471530Y-66894500D01*
X75268587Y-66934868D01*
X75268579Y-66934870D01*
X75077403Y-67014058D01*
X74905342Y-67129024D01*
X74759024Y-67275342D01*
X74644058Y-67447403D01*
X74564870Y-67638579D01*
X74564868Y-67638587D01*
X74524500Y-67841530D01*
X74085499Y-67841530D01*
X74045130Y-67638580D01*
X73965941Y-67447402D01*
X73850977Y-67275345D01*
X73850975Y-67275342D01*
X73704657Y-67129024D01*
X73536655Y-67016770D01*
X73532598Y-67014059D01*
X73341420Y-66934870D01*
X73341412Y-66934868D01*
X73138469Y-66894500D01*
X73138465Y-66894500D01*
X72931535Y-66894500D01*
X72931530Y-66894500D01*
X72728587Y-66934868D01*
X72728579Y-66934870D01*
X72537403Y-67014058D01*
X72365342Y-67129024D01*
X72219024Y-67275342D01*
X72104058Y-67447403D01*
X72024870Y-67638579D01*
X72024868Y-67638587D01*
X71984500Y-67841530D01*
X71545499Y-67841530D01*
X71505130Y-67638580D01*
X71425941Y-67447402D01*
X71310977Y-67275345D01*
X71310975Y-67275342D01*
X71164657Y-67129024D01*
X70996655Y-67016770D01*
X70992598Y-67014059D01*
X70801420Y-66934870D01*
X70801412Y-66934868D01*
X70598469Y-66894500D01*
X70598465Y-66894500D01*
X70391535Y-66894500D01*
X70391530Y-66894500D01*
X70188587Y-66934868D01*
X70188579Y-66934870D01*
X69997403Y-67014058D01*
X69825342Y-67129024D01*
X69679024Y-67275342D01*
X69564058Y-67447403D01*
X69484870Y-67638579D01*
X69484868Y-67638587D01*
X69444500Y-67841530D01*
X69005499Y-67841530D01*
X68965130Y-67638580D01*
X68885941Y-67447402D01*
X68770977Y-67275345D01*
X68770975Y-67275342D01*
X68624657Y-67129024D01*
X68456655Y-67016770D01*
X68452598Y-67014059D01*
X68261420Y-66934870D01*
X68261412Y-66934868D01*
X68058469Y-66894500D01*
X68058465Y-66894500D01*
X67851535Y-66894500D01*
X67851530Y-66894500D01*
X67648587Y-66934868D01*
X67648579Y-66934870D01*
X67457403Y-67014058D01*
X67285342Y-67129024D01*
X67139024Y-67275342D01*
X67024058Y-67447403D01*
X66944870Y-67638579D01*
X66944868Y-67638587D01*
X66904500Y-67841530D01*
X66465499Y-67841530D01*
X66425130Y-67638580D01*
X66345941Y-67447402D01*
X66230977Y-67275345D01*
X66230975Y-67275342D01*
X66084657Y-67129024D01*
X65916655Y-67016770D01*
X65912598Y-67014059D01*
X65721420Y-66934870D01*
X65721412Y-66934868D01*
X65518469Y-66894500D01*
X65518465Y-66894500D01*
X65311535Y-66894500D01*
X65311530Y-66894500D01*
X65108587Y-66934868D01*
X65108579Y-66934870D01*
X64917403Y-67014058D01*
X64745342Y-67129024D01*
X64599024Y-67275342D01*
X64484058Y-67447403D01*
X64404870Y-67638579D01*
X64404868Y-67638587D01*
X64364500Y-67841530D01*
X63925499Y-67841530D01*
X63885130Y-67638580D01*
X63805941Y-67447402D01*
X63690977Y-67275345D01*
X63690975Y-67275342D01*
X63544657Y-67129024D01*
X63376655Y-67016770D01*
X63372598Y-67014059D01*
X63181420Y-66934870D01*
X63181412Y-66934868D01*
X62978469Y-66894500D01*
X62978465Y-66894500D01*
X62771535Y-66894500D01*
X62771530Y-66894500D01*
X62568587Y-66934868D01*
X62568579Y-66934870D01*
X62377403Y-67014058D01*
X62205342Y-67129024D01*
X62059024Y-67275342D01*
X61944058Y-67447403D01*
X61864870Y-67638579D01*
X61864868Y-67638587D01*
X61824500Y-67841530D01*
X61385499Y-67841530D01*
X61345130Y-67638580D01*
X61265941Y-67447402D01*
X61150977Y-67275345D01*
X61150975Y-67275342D01*
X61004657Y-67129024D01*
X60836655Y-67016770D01*
X60832598Y-67014059D01*
X60641420Y-66934870D01*
X60641412Y-66934868D01*
X60438469Y-66894500D01*
X60438465Y-66894500D01*
X60231535Y-66894500D01*
X60231530Y-66894500D01*
X60028587Y-66934868D01*
X60028579Y-66934870D01*
X59837403Y-67014058D01*
X59665342Y-67129024D01*
X59519024Y-67275342D01*
X59404058Y-67447403D01*
X59324870Y-67638579D01*
X59324868Y-67638587D01*
X59284500Y-67841530D01*
X58845499Y-67841530D01*
X58805130Y-67638580D01*
X58725941Y-67447402D01*
X58610977Y-67275345D01*
X58610975Y-67275342D01*
X58464657Y-67129024D01*
X58296655Y-67016770D01*
X58292598Y-67014059D01*
X58101420Y-66934870D01*
X58101412Y-66934868D01*
X57898469Y-66894500D01*
X57898465Y-66894500D01*
X57691535Y-66894500D01*
X57691530Y-66894500D01*
X57488587Y-66934868D01*
X57488579Y-66934870D01*
X57297403Y-67014058D01*
X57125342Y-67129024D01*
X56979024Y-67275342D01*
X56864058Y-67447403D01*
X56784870Y-67638579D01*
X56784868Y-67638587D01*
X56744500Y-67841530D01*
X56305499Y-67841530D01*
X56265130Y-67638580D01*
X56185941Y-67447402D01*
X56070977Y-67275345D01*
X56070975Y-67275342D01*
X55924657Y-67129024D01*
X55756655Y-67016770D01*
X55752598Y-67014059D01*
X55561420Y-66934870D01*
X55561412Y-66934868D01*
X55358469Y-66894500D01*
X55358465Y-66894500D01*
X55151535Y-66894500D01*
X55151530Y-66894500D01*
X54948587Y-66934868D01*
X54948579Y-66934870D01*
X54757403Y-67014058D01*
X54585342Y-67129024D01*
X54439024Y-67275342D01*
X54324058Y-67447403D01*
X54244870Y-67638579D01*
X54244868Y-67638587D01*
X54204500Y-67841530D01*
X53765500Y-67841530D01*
X53765500Y-67075249D01*
X53765499Y-67075247D01*
X53753868Y-67016770D01*
X53753867Y-67016769D01*
X53709552Y-66950447D01*
X53643230Y-66906132D01*
X53643229Y-66906131D01*
X53584752Y-66894500D01*
X53584748Y-66894500D01*
X51845252Y-66894500D01*
X51845247Y-66894500D01*
X51786770Y-66906131D01*
X51786769Y-66906132D01*
X51720447Y-66950447D01*
X51676132Y-67016769D01*
X51676131Y-67016770D01*
X51664500Y-67075247D01*
X51300500Y-67075247D01*
X51300500Y-56763389D01*
X134149500Y-56763389D01*
X134149500Y-56936611D01*
X134176598Y-57107701D01*
X134230127Y-57272445D01*
X134308768Y-57426788D01*
X134410586Y-57566928D01*
X134533072Y-57689414D01*
X134673212Y-57791232D01*
X134827555Y-57869873D01*
X134992299Y-57923402D01*
X135163389Y-57950500D01*
X135163390Y-57950500D01*
X135336610Y-57950500D01*
X135336611Y-57950500D01*
X135507701Y-57923402D01*
X135672445Y-57869873D01*
X135826788Y-57791232D01*
X135966928Y-57689414D01*
X136089414Y-57566928D01*
X136191232Y-57426788D01*
X136269873Y-57272445D01*
X136323402Y-57107701D01*
X136350500Y-56936611D01*
X136350500Y-56763389D01*
X136649500Y-56763389D01*
X136649500Y-56936611D01*
X136676598Y-57107701D01*
X136730127Y-57272445D01*
X136808768Y-57426788D01*
X136910586Y-57566928D01*
X137033072Y-57689414D01*
X137173212Y-57791232D01*
X137327555Y-57869873D01*
X137492299Y-57923402D01*
X137663389Y-57950500D01*
X137663390Y-57950500D01*
X137836610Y-57950500D01*
X137836611Y-57950500D01*
X138007701Y-57923402D01*
X138172445Y-57869873D01*
X138326788Y-57791232D01*
X138466928Y-57689414D01*
X138589414Y-57566928D01*
X138691232Y-57426788D01*
X138722712Y-57365003D01*
X138770685Y-57314208D01*
X138838506Y-57297412D01*
X138904641Y-57319949D01*
X138948093Y-57374663D01*
X138951128Y-57382980D01*
X138952567Y-57387410D01*
X139052611Y-57583756D01*
X139098932Y-57647513D01*
X139767037Y-56979408D01*
X139784075Y-57042993D01*
X139849901Y-57157007D01*
X139942993Y-57250099D01*
X140057007Y-57315925D01*
X140120590Y-57332962D01*
X139452485Y-58001065D01*
X139452485Y-58001066D01*
X139516243Y-58047388D01*
X139712589Y-58147432D01*
X139922164Y-58215526D01*
X140139819Y-58250000D01*
X140360181Y-58250000D01*
X140577835Y-58215526D01*
X140787410Y-58147432D01*
X140983760Y-58047386D01*
X141047513Y-58001066D01*
X141047514Y-58001066D01*
X140379409Y-57332962D01*
X140442993Y-57315925D01*
X140557007Y-57250099D01*
X140650099Y-57157007D01*
X140715925Y-57042993D01*
X140732962Y-56979410D01*
X141401066Y-57647514D01*
X141401066Y-57647513D01*
X141447386Y-57583760D01*
X141547432Y-57387410D01*
X141615526Y-57177835D01*
X141650000Y-56960181D01*
X141650000Y-56763389D01*
X152524500Y-56763389D01*
X152524500Y-56936611D01*
X152551598Y-57107701D01*
X152605127Y-57272445D01*
X152683768Y-57426788D01*
X152785586Y-57566928D01*
X152908072Y-57689414D01*
X153048212Y-57791232D01*
X153202555Y-57869873D01*
X153367299Y-57923402D01*
X153538389Y-57950500D01*
X153538390Y-57950500D01*
X153711610Y-57950500D01*
X153711611Y-57950500D01*
X153882701Y-57923402D01*
X154047445Y-57869873D01*
X154201788Y-57791232D01*
X154341928Y-57689414D01*
X154464414Y-57566928D01*
X154566232Y-57426788D01*
X154644873Y-57272445D01*
X154698402Y-57107701D01*
X154725500Y-56936611D01*
X154725500Y-56763389D01*
X155024500Y-56763389D01*
X155024500Y-56936611D01*
X155051598Y-57107701D01*
X155105127Y-57272445D01*
X155183768Y-57426788D01*
X155285586Y-57566928D01*
X155408072Y-57689414D01*
X155548212Y-57791232D01*
X155702555Y-57869873D01*
X155867299Y-57923402D01*
X156038389Y-57950500D01*
X156038390Y-57950500D01*
X156211610Y-57950500D01*
X156211611Y-57950500D01*
X156382701Y-57923402D01*
X156547445Y-57869873D01*
X156701788Y-57791232D01*
X156841928Y-57689414D01*
X156964414Y-57566928D01*
X157066232Y-57426788D01*
X157097712Y-57365003D01*
X157145685Y-57314208D01*
X157213506Y-57297412D01*
X157279641Y-57319949D01*
X157323093Y-57374663D01*
X157326128Y-57382980D01*
X157327567Y-57387410D01*
X157427611Y-57583756D01*
X157473932Y-57647513D01*
X158142037Y-56979408D01*
X158159075Y-57042993D01*
X158224901Y-57157007D01*
X158317993Y-57250099D01*
X158432007Y-57315925D01*
X158495590Y-57332962D01*
X157827485Y-58001065D01*
X157827485Y-58001066D01*
X157891243Y-58047388D01*
X158087589Y-58147432D01*
X158297164Y-58215526D01*
X158514819Y-58250000D01*
X158735181Y-58250000D01*
X158952835Y-58215526D01*
X159162410Y-58147432D01*
X159358760Y-58047386D01*
X159422513Y-58001066D01*
X159422514Y-58001066D01*
X158754409Y-57332962D01*
X158817993Y-57315925D01*
X158932007Y-57250099D01*
X159025099Y-57157007D01*
X159090925Y-57042993D01*
X159107962Y-56979410D01*
X159776066Y-57647514D01*
X159776066Y-57647513D01*
X159822386Y-57583760D01*
X159922432Y-57387410D01*
X159990526Y-57177835D01*
X160025000Y-56960181D01*
X160025000Y-56739818D01*
X159990526Y-56522164D01*
X159922432Y-56312589D01*
X159822388Y-56116243D01*
X159776066Y-56052485D01*
X159776065Y-56052485D01*
X159107962Y-56720589D01*
X159090925Y-56657007D01*
X159025099Y-56542993D01*
X158932007Y-56449901D01*
X158817993Y-56384075D01*
X158754407Y-56367037D01*
X159422513Y-55698932D01*
X159358756Y-55652611D01*
X159162410Y-55552567D01*
X158952835Y-55484473D01*
X158735181Y-55450000D01*
X158514819Y-55450000D01*
X158297164Y-55484473D01*
X158087589Y-55552567D01*
X157891233Y-55652616D01*
X157827485Y-55698931D01*
X157827485Y-55698932D01*
X158495590Y-56367037D01*
X158432007Y-56384075D01*
X158317993Y-56449901D01*
X158224901Y-56542993D01*
X158159075Y-56657007D01*
X158142037Y-56720590D01*
X157473932Y-56052485D01*
X157473931Y-56052485D01*
X157427616Y-56116233D01*
X157327566Y-56312590D01*
X157326127Y-56317022D01*
X157286688Y-56374697D01*
X157222329Y-56401893D01*
X157153482Y-56389977D01*
X157102008Y-56342731D01*
X157097712Y-56334995D01*
X157066233Y-56273213D01*
X157050937Y-56252160D01*
X156964414Y-56133072D01*
X156841928Y-56010586D01*
X156701788Y-55908768D01*
X156547445Y-55830127D01*
X156382701Y-55776598D01*
X156382699Y-55776597D01*
X156382698Y-55776597D01*
X156251271Y-55755781D01*
X156211611Y-55749500D01*
X156038389Y-55749500D01*
X155998728Y-55755781D01*
X155867302Y-55776597D01*
X155702552Y-55830128D01*
X155548211Y-55908768D01*
X155468256Y-55966859D01*
X155408072Y-56010586D01*
X155408070Y-56010588D01*
X155408069Y-56010588D01*
X155285588Y-56133069D01*
X155285588Y-56133070D01*
X155285586Y-56133072D01*
X155241859Y-56193256D01*
X155183768Y-56273211D01*
X155105128Y-56427552D01*
X155051597Y-56592302D01*
X155041349Y-56657007D01*
X155024500Y-56763389D01*
X154725500Y-56763389D01*
X154698402Y-56592299D01*
X154644873Y-56427555D01*
X154566232Y-56273212D01*
X154464414Y-56133072D01*
X154341928Y-56010586D01*
X154201788Y-55908768D01*
X154047445Y-55830127D01*
X153882701Y-55776598D01*
X153882699Y-55776597D01*
X153882698Y-55776597D01*
X153751271Y-55755781D01*
X153711611Y-55749500D01*
X153538389Y-55749500D01*
X153498728Y-55755781D01*
X153367302Y-55776597D01*
X153202552Y-55830128D01*
X153048211Y-55908768D01*
X152968256Y-55966859D01*
X152908072Y-56010586D01*
X152908070Y-56010588D01*
X152908069Y-56010588D01*
X152785588Y-56133069D01*
X152785588Y-56133070D01*
X152785586Y-56133072D01*
X152741859Y-56193256D01*
X152683768Y-56273211D01*
X152605128Y-56427552D01*
X152551597Y-56592302D01*
X152541349Y-56657007D01*
X152524500Y-56763389D01*
X141650000Y-56763389D01*
X141650000Y-56739818D01*
X141615526Y-56522164D01*
X141547432Y-56312589D01*
X141447388Y-56116243D01*
X141401066Y-56052485D01*
X141401065Y-56052485D01*
X140732962Y-56720589D01*
X140715925Y-56657007D01*
X140650099Y-56542993D01*
X140557007Y-56449901D01*
X140442993Y-56384075D01*
X140379407Y-56367037D01*
X141047513Y-55698932D01*
X140983756Y-55652611D01*
X140787410Y-55552567D01*
X140577835Y-55484473D01*
X140360181Y-55450000D01*
X140139819Y-55450000D01*
X139922164Y-55484473D01*
X139712589Y-55552567D01*
X139516233Y-55652616D01*
X139452485Y-55698931D01*
X139452485Y-55698932D01*
X140120590Y-56367037D01*
X140057007Y-56384075D01*
X139942993Y-56449901D01*
X139849901Y-56542993D01*
X139784075Y-56657007D01*
X139767037Y-56720590D01*
X139098932Y-56052485D01*
X139098931Y-56052485D01*
X139052616Y-56116233D01*
X138952566Y-56312590D01*
X138951127Y-56317022D01*
X138911688Y-56374697D01*
X138847329Y-56401893D01*
X138778482Y-56389977D01*
X138727008Y-56342731D01*
X138722712Y-56334995D01*
X138691233Y-56273213D01*
X138675937Y-56252160D01*
X138589414Y-56133072D01*
X138466928Y-56010586D01*
X138326788Y-55908768D01*
X138172445Y-55830127D01*
X138007701Y-55776598D01*
X138007699Y-55776597D01*
X138007698Y-55776597D01*
X137876271Y-55755781D01*
X137836611Y-55749500D01*
X137663389Y-55749500D01*
X137623728Y-55755781D01*
X137492302Y-55776597D01*
X137327552Y-55830128D01*
X137173211Y-55908768D01*
X137093256Y-55966859D01*
X137033072Y-56010586D01*
X137033070Y-56010588D01*
X137033069Y-56010588D01*
X136910588Y-56133069D01*
X136910588Y-56133070D01*
X136910586Y-56133072D01*
X136866859Y-56193256D01*
X136808768Y-56273211D01*
X136730128Y-56427552D01*
X136676597Y-56592302D01*
X136666349Y-56657007D01*
X136649500Y-56763389D01*
X136350500Y-56763389D01*
X136323402Y-56592299D01*
X136269873Y-56427555D01*
X136191232Y-56273212D01*
X136089414Y-56133072D01*
X135966928Y-56010586D01*
X135826788Y-55908768D01*
X135672445Y-55830127D01*
X135507701Y-55776598D01*
X135507699Y-55776597D01*
X135507698Y-55776597D01*
X135376271Y-55755781D01*
X135336611Y-55749500D01*
X135163389Y-55749500D01*
X135123728Y-55755781D01*
X134992302Y-55776597D01*
X134827552Y-55830128D01*
X134673211Y-55908768D01*
X134593256Y-55966859D01*
X134533072Y-56010586D01*
X134533070Y-56010588D01*
X134533069Y-56010588D01*
X134410588Y-56133069D01*
X134410588Y-56133070D01*
X134410586Y-56133072D01*
X134366859Y-56193256D01*
X134308768Y-56273211D01*
X134230128Y-56427552D01*
X134176597Y-56592302D01*
X134166349Y-56657007D01*
X134149500Y-56763389D01*
X51300500Y-56763389D01*
X51300500Y-53419014D01*
X51320185Y-53351975D01*
X51372989Y-53306220D01*
X51442147Y-53296276D01*
X51505703Y-53325301D01*
X51534985Y-53362719D01*
X51560375Y-53412550D01*
X51599728Y-53466716D01*
X52191212Y-52875233D01*
X52202482Y-52917292D01*
X52274890Y-53042708D01*
X52377292Y-53145110D01*
X52502708Y-53217518D01*
X52544765Y-53228787D01*
X51953282Y-53820269D01*
X51953282Y-53820270D01*
X52007449Y-53859624D01*
X52196782Y-53956095D01*
X52398870Y-54021757D01*
X52608754Y-54055000D01*
X52821246Y-54055000D01*
X53031127Y-54021757D01*
X53031130Y-54021757D01*
X53233217Y-53956095D01*
X53422554Y-53859622D01*
X53476716Y-53820270D01*
X53476717Y-53820270D01*
X52885233Y-53228787D01*
X52927292Y-53217518D01*
X53052708Y-53145110D01*
X53155110Y-53042708D01*
X53227518Y-52917292D01*
X53238787Y-52875234D01*
X53830270Y-53466717D01*
X53830270Y-53466716D01*
X53869622Y-53412554D01*
X53966095Y-53223217D01*
X54023343Y-53047026D01*
X54062780Y-52989351D01*
X54127139Y-52962152D01*
X54195985Y-52974066D01*
X54247461Y-53021310D01*
X54255835Y-53037891D01*
X54324058Y-53202596D01*
X54439024Y-53374657D01*
X54585342Y-53520975D01*
X54585345Y-53520977D01*
X54757402Y-53635941D01*
X54948580Y-53715130D01*
X55151530Y-53755499D01*
X55151534Y-53755500D01*
X55151535Y-53755500D01*
X55358466Y-53755500D01*
X55358467Y-53755499D01*
X55561420Y-53715130D01*
X55752598Y-53635941D01*
X55924655Y-53520977D01*
X56070977Y-53374655D01*
X56185941Y-53202598D01*
X56265130Y-53011420D01*
X56305500Y-52808465D01*
X56305500Y-52601535D01*
X56305499Y-52601530D01*
X56744500Y-52601530D01*
X56744500Y-52808469D01*
X56784868Y-53011412D01*
X56784870Y-53011420D01*
X56864058Y-53202596D01*
X56979024Y-53374657D01*
X57125342Y-53520975D01*
X57125345Y-53520977D01*
X57297402Y-53635941D01*
X57488580Y-53715130D01*
X57691530Y-53755499D01*
X57691534Y-53755500D01*
X57691535Y-53755500D01*
X57898466Y-53755500D01*
X57898467Y-53755499D01*
X58101420Y-53715130D01*
X58292598Y-53635941D01*
X58464655Y-53520977D01*
X58610977Y-53374655D01*
X58725941Y-53202598D01*
X58805130Y-53011420D01*
X58845500Y-52808465D01*
X58845500Y-52601535D01*
X58845499Y-52601530D01*
X59284500Y-52601530D01*
X59284500Y-52808469D01*
X59324868Y-53011412D01*
X59324870Y-53011420D01*
X59404058Y-53202596D01*
X59519024Y-53374657D01*
X59665342Y-53520975D01*
X59665345Y-53520977D01*
X59837402Y-53635941D01*
X60028580Y-53715130D01*
X60231530Y-53755499D01*
X60231534Y-53755500D01*
X60231535Y-53755500D01*
X60438466Y-53755500D01*
X60438467Y-53755499D01*
X60641420Y-53715130D01*
X60832598Y-53635941D01*
X61004655Y-53520977D01*
X61150977Y-53374655D01*
X61265941Y-53202598D01*
X61345130Y-53011420D01*
X61385500Y-52808465D01*
X61385500Y-52601535D01*
X61385499Y-52601530D01*
X61824500Y-52601530D01*
X61824500Y-52808469D01*
X61864868Y-53011412D01*
X61864870Y-53011420D01*
X61944058Y-53202596D01*
X62059024Y-53374657D01*
X62205342Y-53520975D01*
X62205345Y-53520977D01*
X62377402Y-53635941D01*
X62568580Y-53715130D01*
X62771530Y-53755499D01*
X62771534Y-53755500D01*
X62771535Y-53755500D01*
X62978466Y-53755500D01*
X62978467Y-53755499D01*
X63181420Y-53715130D01*
X63372598Y-53635941D01*
X63544655Y-53520977D01*
X63690977Y-53374655D01*
X63805941Y-53202598D01*
X63885130Y-53011420D01*
X63925500Y-52808465D01*
X63925500Y-52601535D01*
X63925499Y-52601530D01*
X64364500Y-52601530D01*
X64364500Y-52808469D01*
X64404868Y-53011412D01*
X64404870Y-53011420D01*
X64484058Y-53202596D01*
X64599024Y-53374657D01*
X64745342Y-53520975D01*
X64745345Y-53520977D01*
X64917402Y-53635941D01*
X65108580Y-53715130D01*
X65311530Y-53755499D01*
X65311534Y-53755500D01*
X65311535Y-53755500D01*
X65518466Y-53755500D01*
X65518467Y-53755499D01*
X65721420Y-53715130D01*
X65912598Y-53635941D01*
X66084655Y-53520977D01*
X66230977Y-53374655D01*
X66345941Y-53202598D01*
X66425130Y-53011420D01*
X66465500Y-52808465D01*
X66465500Y-52601535D01*
X66465499Y-52601530D01*
X66904500Y-52601530D01*
X66904500Y-52808469D01*
X66944868Y-53011412D01*
X66944870Y-53011420D01*
X67024058Y-53202596D01*
X67139024Y-53374657D01*
X67285342Y-53520975D01*
X67285345Y-53520977D01*
X67457402Y-53635941D01*
X67648580Y-53715130D01*
X67851530Y-53755499D01*
X67851534Y-53755500D01*
X67851535Y-53755500D01*
X68058466Y-53755500D01*
X68058467Y-53755499D01*
X68261420Y-53715130D01*
X68452598Y-53635941D01*
X68624655Y-53520977D01*
X68770977Y-53374655D01*
X68885941Y-53202598D01*
X68965130Y-53011420D01*
X69005500Y-52808465D01*
X69005500Y-52601535D01*
X69005499Y-52601530D01*
X69444500Y-52601530D01*
X69444500Y-52808469D01*
X69484868Y-53011412D01*
X69484870Y-53011420D01*
X69564058Y-53202596D01*
X69679024Y-53374657D01*
X69825342Y-53520975D01*
X69825345Y-53520977D01*
X69997402Y-53635941D01*
X70188580Y-53715130D01*
X70391530Y-53755499D01*
X70391534Y-53755500D01*
X70391535Y-53755500D01*
X70598466Y-53755500D01*
X70598467Y-53755499D01*
X70801420Y-53715130D01*
X70992598Y-53635941D01*
X71164655Y-53520977D01*
X71310977Y-53374655D01*
X71425941Y-53202598D01*
X71505130Y-53011420D01*
X71545500Y-52808465D01*
X71545500Y-52601535D01*
X71545499Y-52601530D01*
X71984500Y-52601530D01*
X71984500Y-52808469D01*
X72024868Y-53011412D01*
X72024870Y-53011420D01*
X72104058Y-53202596D01*
X72219024Y-53374657D01*
X72365342Y-53520975D01*
X72365345Y-53520977D01*
X72537402Y-53635941D01*
X72728580Y-53715130D01*
X72931530Y-53755499D01*
X72931534Y-53755500D01*
X72931535Y-53755500D01*
X73138466Y-53755500D01*
X73138467Y-53755499D01*
X73341420Y-53715130D01*
X73532598Y-53635941D01*
X73704655Y-53520977D01*
X73850977Y-53374655D01*
X73965941Y-53202598D01*
X74045130Y-53011420D01*
X74085500Y-52808465D01*
X74085500Y-52601535D01*
X74085499Y-52601530D01*
X74524500Y-52601530D01*
X74524500Y-52808469D01*
X74564868Y-53011412D01*
X74564870Y-53011420D01*
X74644058Y-53202596D01*
X74759024Y-53374657D01*
X74905342Y-53520975D01*
X74905345Y-53520977D01*
X75077402Y-53635941D01*
X75268580Y-53715130D01*
X75471530Y-53755499D01*
X75471534Y-53755500D01*
X75471535Y-53755500D01*
X75678466Y-53755500D01*
X75678467Y-53755499D01*
X75881420Y-53715130D01*
X76072598Y-53635941D01*
X76244655Y-53520977D01*
X76390977Y-53374655D01*
X76505941Y-53202598D01*
X76585130Y-53011420D01*
X76625500Y-52808465D01*
X76625500Y-52601535D01*
X76625499Y-52601530D01*
X77064500Y-52601530D01*
X77064500Y-52808469D01*
X77104868Y-53011412D01*
X77104870Y-53011420D01*
X77184058Y-53202596D01*
X77299024Y-53374657D01*
X77445342Y-53520975D01*
X77445345Y-53520977D01*
X77617402Y-53635941D01*
X77808580Y-53715130D01*
X78011530Y-53755499D01*
X78011534Y-53755500D01*
X78011535Y-53755500D01*
X78218466Y-53755500D01*
X78218467Y-53755499D01*
X78421420Y-53715130D01*
X78612598Y-53635941D01*
X78784655Y-53520977D01*
X78930977Y-53374655D01*
X79045941Y-53202598D01*
X79125130Y-53011420D01*
X79165500Y-52808465D01*
X79165500Y-52601535D01*
X79165499Y-52601530D01*
X79604500Y-52601530D01*
X79604500Y-52808469D01*
X79644868Y-53011412D01*
X79644870Y-53011420D01*
X79724058Y-53202596D01*
X79839024Y-53374657D01*
X79985342Y-53520975D01*
X79985345Y-53520977D01*
X80157402Y-53635941D01*
X80348580Y-53715130D01*
X80551530Y-53755499D01*
X80551534Y-53755500D01*
X80551535Y-53755500D01*
X80758466Y-53755500D01*
X80758467Y-53755499D01*
X80961420Y-53715130D01*
X81152598Y-53635941D01*
X81324655Y-53520977D01*
X81470977Y-53374655D01*
X81585941Y-53202598D01*
X81665130Y-53011420D01*
X81705500Y-52808465D01*
X81705500Y-52601535D01*
X81705499Y-52601530D01*
X82144500Y-52601530D01*
X82144500Y-52808469D01*
X82184868Y-53011412D01*
X82184870Y-53011420D01*
X82264058Y-53202596D01*
X82379024Y-53374657D01*
X82525342Y-53520975D01*
X82525345Y-53520977D01*
X82697402Y-53635941D01*
X82888580Y-53715130D01*
X83091530Y-53755499D01*
X83091534Y-53755500D01*
X83091535Y-53755500D01*
X83298466Y-53755500D01*
X83298467Y-53755499D01*
X83501420Y-53715130D01*
X83692598Y-53635941D01*
X83864655Y-53520977D01*
X84010977Y-53374655D01*
X84125941Y-53202598D01*
X84205130Y-53011420D01*
X84245500Y-52808465D01*
X84245500Y-52601535D01*
X84245499Y-52601530D01*
X84684500Y-52601530D01*
X84684500Y-52808469D01*
X84724868Y-53011412D01*
X84724870Y-53011420D01*
X84804058Y-53202596D01*
X84919024Y-53374657D01*
X85065342Y-53520975D01*
X85065345Y-53520977D01*
X85237402Y-53635941D01*
X85428580Y-53715130D01*
X85631530Y-53755499D01*
X85631534Y-53755500D01*
X85631535Y-53755500D01*
X85838466Y-53755500D01*
X85838467Y-53755499D01*
X86041420Y-53715130D01*
X86232598Y-53635941D01*
X86404655Y-53520977D01*
X86550977Y-53374655D01*
X86665941Y-53202598D01*
X86745130Y-53011420D01*
X86785500Y-52808465D01*
X86785500Y-52601535D01*
X86785499Y-52601530D01*
X87224500Y-52601530D01*
X87224500Y-52808469D01*
X87264868Y-53011412D01*
X87264870Y-53011420D01*
X87344058Y-53202596D01*
X87459024Y-53374657D01*
X87605342Y-53520975D01*
X87605345Y-53520977D01*
X87777402Y-53635941D01*
X87968580Y-53715130D01*
X88171530Y-53755499D01*
X88171534Y-53755500D01*
X88171535Y-53755500D01*
X88378466Y-53755500D01*
X88378467Y-53755499D01*
X88581420Y-53715130D01*
X88772598Y-53635941D01*
X88944655Y-53520977D01*
X89090977Y-53374655D01*
X89205941Y-53202598D01*
X89285130Y-53011420D01*
X89325500Y-52808465D01*
X89325500Y-52601535D01*
X89325499Y-52601530D01*
X89764500Y-52601530D01*
X89764500Y-52808469D01*
X89804868Y-53011412D01*
X89804870Y-53011420D01*
X89884058Y-53202596D01*
X89999024Y-53374657D01*
X90145342Y-53520975D01*
X90145345Y-53520977D01*
X90317402Y-53635941D01*
X90508580Y-53715130D01*
X90711530Y-53755499D01*
X90711534Y-53755500D01*
X90711535Y-53755500D01*
X90918466Y-53755500D01*
X90918467Y-53755499D01*
X91121420Y-53715130D01*
X91312598Y-53635941D01*
X91484655Y-53520977D01*
X91630977Y-53374655D01*
X91745941Y-53202598D01*
X91825130Y-53011420D01*
X91865500Y-52808465D01*
X91865500Y-52601535D01*
X91865499Y-52601530D01*
X92304500Y-52601530D01*
X92304500Y-52808469D01*
X92344868Y-53011412D01*
X92344870Y-53011420D01*
X92424058Y-53202596D01*
X92539024Y-53374657D01*
X92685342Y-53520975D01*
X92685345Y-53520977D01*
X92857402Y-53635941D01*
X93048580Y-53715130D01*
X93251530Y-53755499D01*
X93251534Y-53755500D01*
X93251535Y-53755500D01*
X93458466Y-53755500D01*
X93458467Y-53755499D01*
X93661420Y-53715130D01*
X93852598Y-53635941D01*
X94024655Y-53520977D01*
X94170977Y-53374655D01*
X94285941Y-53202598D01*
X94365130Y-53011420D01*
X94405500Y-52808465D01*
X94405500Y-52601535D01*
X94405499Y-52601530D01*
X94844500Y-52601530D01*
X94844500Y-52808469D01*
X94884868Y-53011412D01*
X94884870Y-53011420D01*
X94964058Y-53202596D01*
X95079024Y-53374657D01*
X95225342Y-53520975D01*
X95225345Y-53520977D01*
X95397402Y-53635941D01*
X95588580Y-53715130D01*
X95791530Y-53755499D01*
X95791534Y-53755500D01*
X95791535Y-53755500D01*
X95998466Y-53755500D01*
X95998467Y-53755499D01*
X96201420Y-53715130D01*
X96392598Y-53635941D01*
X96564655Y-53520977D01*
X96710977Y-53374655D01*
X96825941Y-53202598D01*
X96905130Y-53011420D01*
X96945500Y-52808465D01*
X96945500Y-52601535D01*
X96945499Y-52601530D01*
X97384500Y-52601530D01*
X97384500Y-52808469D01*
X97424868Y-53011412D01*
X97424870Y-53011420D01*
X97504058Y-53202596D01*
X97619024Y-53374657D01*
X97765342Y-53520975D01*
X97765345Y-53520977D01*
X97937402Y-53635941D01*
X98128580Y-53715130D01*
X98331530Y-53755499D01*
X98331534Y-53755500D01*
X98331535Y-53755500D01*
X98538466Y-53755500D01*
X98538467Y-53755499D01*
X98741420Y-53715130D01*
X98932598Y-53635941D01*
X99104655Y-53520977D01*
X99250977Y-53374655D01*
X99365941Y-53202598D01*
X99445130Y-53011420D01*
X99485500Y-52808465D01*
X99485500Y-52601535D01*
X99485499Y-52601530D01*
X99924500Y-52601530D01*
X99924500Y-52808469D01*
X99964868Y-53011412D01*
X99964870Y-53011420D01*
X100044058Y-53202596D01*
X100159024Y-53374657D01*
X100305342Y-53520975D01*
X100305345Y-53520977D01*
X100477402Y-53635941D01*
X100668580Y-53715130D01*
X100871530Y-53755499D01*
X100871534Y-53755500D01*
X100871535Y-53755500D01*
X101078466Y-53755500D01*
X101078467Y-53755499D01*
X101281420Y-53715130D01*
X101472598Y-53635941D01*
X101644655Y-53520977D01*
X101790977Y-53374655D01*
X101905941Y-53202598D01*
X101985130Y-53011420D01*
X102025500Y-52808465D01*
X102025500Y-52601535D01*
X101985130Y-52398580D01*
X101905941Y-52207402D01*
X101790977Y-52035345D01*
X101790975Y-52035342D01*
X101644657Y-51889024D01*
X101527642Y-51810838D01*
X101472598Y-51774059D01*
X101281420Y-51694870D01*
X101281412Y-51694868D01*
X101078469Y-51654500D01*
X101078465Y-51654500D01*
X100871535Y-51654500D01*
X100871530Y-51654500D01*
X100668587Y-51694868D01*
X100668579Y-51694870D01*
X100477403Y-51774058D01*
X100305342Y-51889024D01*
X100159024Y-52035342D01*
X100044058Y-52207403D01*
X99964870Y-52398579D01*
X99964868Y-52398587D01*
X99924500Y-52601530D01*
X99485499Y-52601530D01*
X99445130Y-52398580D01*
X99365941Y-52207402D01*
X99250977Y-52035345D01*
X99250975Y-52035342D01*
X99104657Y-51889024D01*
X98987642Y-51810838D01*
X98932598Y-51774059D01*
X98741420Y-51694870D01*
X98741412Y-51694868D01*
X98538469Y-51654500D01*
X98538465Y-51654500D01*
X98331535Y-51654500D01*
X98331530Y-51654500D01*
X98128587Y-51694868D01*
X98128579Y-51694870D01*
X97937403Y-51774058D01*
X97765342Y-51889024D01*
X97619024Y-52035342D01*
X97504058Y-52207403D01*
X97424870Y-52398579D01*
X97424868Y-52398587D01*
X97384500Y-52601530D01*
X96945499Y-52601530D01*
X96905130Y-52398580D01*
X96825941Y-52207402D01*
X96710977Y-52035345D01*
X96710975Y-52035342D01*
X96564657Y-51889024D01*
X96447642Y-51810838D01*
X96392598Y-51774059D01*
X96201420Y-51694870D01*
X96201412Y-51694868D01*
X95998469Y-51654500D01*
X95998465Y-51654500D01*
X95791535Y-51654500D01*
X95791530Y-51654500D01*
X95588587Y-51694868D01*
X95588579Y-51694870D01*
X95397403Y-51774058D01*
X95225342Y-51889024D01*
X95079024Y-52035342D01*
X94964058Y-52207403D01*
X94884870Y-52398579D01*
X94884868Y-52398587D01*
X94844500Y-52601530D01*
X94405499Y-52601530D01*
X94365130Y-52398580D01*
X94285941Y-52207402D01*
X94170977Y-52035345D01*
X94170975Y-52035342D01*
X94024657Y-51889024D01*
X93907642Y-51810838D01*
X93852598Y-51774059D01*
X93661420Y-51694870D01*
X93661412Y-51694868D01*
X93458469Y-51654500D01*
X93458465Y-51654500D01*
X93251535Y-51654500D01*
X93251530Y-51654500D01*
X93048587Y-51694868D01*
X93048579Y-51694870D01*
X92857403Y-51774058D01*
X92685342Y-51889024D01*
X92539024Y-52035342D01*
X92424058Y-52207403D01*
X92344870Y-52398579D01*
X92344868Y-52398587D01*
X92304500Y-52601530D01*
X91865499Y-52601530D01*
X91825130Y-52398580D01*
X91745941Y-52207402D01*
X91630977Y-52035345D01*
X91630975Y-52035342D01*
X91484657Y-51889024D01*
X91367642Y-51810838D01*
X91312598Y-51774059D01*
X91121420Y-51694870D01*
X91121412Y-51694868D01*
X90918469Y-51654500D01*
X90918465Y-51654500D01*
X90711535Y-51654500D01*
X90711530Y-51654500D01*
X90508587Y-51694868D01*
X90508579Y-51694870D01*
X90317403Y-51774058D01*
X90145342Y-51889024D01*
X89999024Y-52035342D01*
X89884058Y-52207403D01*
X89804870Y-52398579D01*
X89804868Y-52398587D01*
X89764500Y-52601530D01*
X89325499Y-52601530D01*
X89285130Y-52398580D01*
X89205941Y-52207402D01*
X89090977Y-52035345D01*
X89090975Y-52035342D01*
X88944657Y-51889024D01*
X88827642Y-51810838D01*
X88772598Y-51774059D01*
X88581420Y-51694870D01*
X88581412Y-51694868D01*
X88378469Y-51654500D01*
X88378465Y-51654500D01*
X88171535Y-51654500D01*
X88171530Y-51654500D01*
X87968587Y-51694868D01*
X87968579Y-51694870D01*
X87777403Y-51774058D01*
X87605342Y-51889024D01*
X87459024Y-52035342D01*
X87344058Y-52207403D01*
X87264870Y-52398579D01*
X87264868Y-52398587D01*
X87224500Y-52601530D01*
X86785499Y-52601530D01*
X86745130Y-52398580D01*
X86665941Y-52207402D01*
X86550977Y-52035345D01*
X86550975Y-52035342D01*
X86404657Y-51889024D01*
X86287642Y-51810838D01*
X86232598Y-51774059D01*
X86041420Y-51694870D01*
X86041412Y-51694868D01*
X85838469Y-51654500D01*
X85838465Y-51654500D01*
X85631535Y-51654500D01*
X85631530Y-51654500D01*
X85428587Y-51694868D01*
X85428579Y-51694870D01*
X85237403Y-51774058D01*
X85065342Y-51889024D01*
X84919024Y-52035342D01*
X84804058Y-52207403D01*
X84724870Y-52398579D01*
X84724868Y-52398587D01*
X84684500Y-52601530D01*
X84245499Y-52601530D01*
X84205130Y-52398580D01*
X84125941Y-52207402D01*
X84010977Y-52035345D01*
X84010975Y-52035342D01*
X83864657Y-51889024D01*
X83747642Y-51810838D01*
X83692598Y-51774059D01*
X83501420Y-51694870D01*
X83501412Y-51694868D01*
X83298469Y-51654500D01*
X83298465Y-51654500D01*
X83091535Y-51654500D01*
X83091530Y-51654500D01*
X82888587Y-51694868D01*
X82888579Y-51694870D01*
X82697403Y-51774058D01*
X82525342Y-51889024D01*
X82379024Y-52035342D01*
X82264058Y-52207403D01*
X82184870Y-52398579D01*
X82184868Y-52398587D01*
X82144500Y-52601530D01*
X81705499Y-52601530D01*
X81665130Y-52398580D01*
X81585941Y-52207402D01*
X81470977Y-52035345D01*
X81470975Y-52035342D01*
X81324657Y-51889024D01*
X81207642Y-51810838D01*
X81152598Y-51774059D01*
X80961420Y-51694870D01*
X80961412Y-51694868D01*
X80758469Y-51654500D01*
X80758465Y-51654500D01*
X80551535Y-51654500D01*
X80551530Y-51654500D01*
X80348587Y-51694868D01*
X80348579Y-51694870D01*
X80157403Y-51774058D01*
X79985342Y-51889024D01*
X79839024Y-52035342D01*
X79724058Y-52207403D01*
X79644870Y-52398579D01*
X79644868Y-52398587D01*
X79604500Y-52601530D01*
X79165499Y-52601530D01*
X79125130Y-52398580D01*
X79045941Y-52207402D01*
X78930977Y-52035345D01*
X78930975Y-52035342D01*
X78784657Y-51889024D01*
X78667642Y-51810838D01*
X78612598Y-51774059D01*
X78421420Y-51694870D01*
X78421412Y-51694868D01*
X78218469Y-51654500D01*
X78218465Y-51654500D01*
X78011535Y-51654500D01*
X78011530Y-51654500D01*
X77808587Y-51694868D01*
X77808579Y-51694870D01*
X77617403Y-51774058D01*
X77445342Y-51889024D01*
X77299024Y-52035342D01*
X77184058Y-52207403D01*
X77104870Y-52398579D01*
X77104868Y-52398587D01*
X77064500Y-52601530D01*
X76625499Y-52601530D01*
X76585130Y-52398580D01*
X76505941Y-52207402D01*
X76390977Y-52035345D01*
X76390975Y-52035342D01*
X76244657Y-51889024D01*
X76127642Y-51810838D01*
X76072598Y-51774059D01*
X75881420Y-51694870D01*
X75881412Y-51694868D01*
X75678469Y-51654500D01*
X75678465Y-51654500D01*
X75471535Y-51654500D01*
X75471530Y-51654500D01*
X75268587Y-51694868D01*
X75268579Y-51694870D01*
X75077403Y-51774058D01*
X74905342Y-51889024D01*
X74759024Y-52035342D01*
X74644058Y-52207403D01*
X74564870Y-52398579D01*
X74564868Y-52398587D01*
X74524500Y-52601530D01*
X74085499Y-52601530D01*
X74045130Y-52398580D01*
X73965941Y-52207402D01*
X73850977Y-52035345D01*
X73850975Y-52035342D01*
X73704657Y-51889024D01*
X73587642Y-51810838D01*
X73532598Y-51774059D01*
X73341420Y-51694870D01*
X73341412Y-51694868D01*
X73138469Y-51654500D01*
X73138465Y-51654500D01*
X72931535Y-51654500D01*
X72931530Y-51654500D01*
X72728587Y-51694868D01*
X72728579Y-51694870D01*
X72537403Y-51774058D01*
X72365342Y-51889024D01*
X72219024Y-52035342D01*
X72104058Y-52207403D01*
X72024870Y-52398579D01*
X72024868Y-52398587D01*
X71984500Y-52601530D01*
X71545499Y-52601530D01*
X71505130Y-52398580D01*
X71425941Y-52207402D01*
X71310977Y-52035345D01*
X71310975Y-52035342D01*
X71164657Y-51889024D01*
X71047642Y-51810838D01*
X70992598Y-51774059D01*
X70801420Y-51694870D01*
X70801412Y-51694868D01*
X70598469Y-51654500D01*
X70598465Y-51654500D01*
X70391535Y-51654500D01*
X70391530Y-51654500D01*
X70188587Y-51694868D01*
X70188579Y-51694870D01*
X69997403Y-51774058D01*
X69825342Y-51889024D01*
X69679024Y-52035342D01*
X69564058Y-52207403D01*
X69484870Y-52398579D01*
X69484868Y-52398587D01*
X69444500Y-52601530D01*
X69005499Y-52601530D01*
X68965130Y-52398580D01*
X68885941Y-52207402D01*
X68770977Y-52035345D01*
X68770975Y-52035342D01*
X68624657Y-51889024D01*
X68507642Y-51810838D01*
X68452598Y-51774059D01*
X68261420Y-51694870D01*
X68261412Y-51694868D01*
X68058469Y-51654500D01*
X68058465Y-51654500D01*
X67851535Y-51654500D01*
X67851530Y-51654500D01*
X67648587Y-51694868D01*
X67648579Y-51694870D01*
X67457403Y-51774058D01*
X67285342Y-51889024D01*
X67139024Y-52035342D01*
X67024058Y-52207403D01*
X66944870Y-52398579D01*
X66944868Y-52398587D01*
X66904500Y-52601530D01*
X66465499Y-52601530D01*
X66425130Y-52398580D01*
X66345941Y-52207402D01*
X66230977Y-52035345D01*
X66230975Y-52035342D01*
X66084657Y-51889024D01*
X65967642Y-51810838D01*
X65912598Y-51774059D01*
X65721420Y-51694870D01*
X65721412Y-51694868D01*
X65518469Y-51654500D01*
X65518465Y-51654500D01*
X65311535Y-51654500D01*
X65311530Y-51654500D01*
X65108587Y-51694868D01*
X65108579Y-51694870D01*
X64917403Y-51774058D01*
X64745342Y-51889024D01*
X64599024Y-52035342D01*
X64484058Y-52207403D01*
X64404870Y-52398579D01*
X64404868Y-52398587D01*
X64364500Y-52601530D01*
X63925499Y-52601530D01*
X63885130Y-52398580D01*
X63805941Y-52207402D01*
X63690977Y-52035345D01*
X63690975Y-52035342D01*
X63544657Y-51889024D01*
X63427642Y-51810838D01*
X63372598Y-51774059D01*
X63181420Y-51694870D01*
X63181412Y-51694868D01*
X62978469Y-51654500D01*
X62978465Y-51654500D01*
X62771535Y-51654500D01*
X62771530Y-51654500D01*
X62568587Y-51694868D01*
X62568579Y-51694870D01*
X62377403Y-51774058D01*
X62205342Y-51889024D01*
X62059024Y-52035342D01*
X61944058Y-52207403D01*
X61864870Y-52398579D01*
X61864868Y-52398587D01*
X61824500Y-52601530D01*
X61385499Y-52601530D01*
X61345130Y-52398580D01*
X61265941Y-52207402D01*
X61150977Y-52035345D01*
X61150975Y-52035342D01*
X61004657Y-51889024D01*
X60887642Y-51810838D01*
X60832598Y-51774059D01*
X60641420Y-51694870D01*
X60641412Y-51694868D01*
X60438469Y-51654500D01*
X60438465Y-51654500D01*
X60231535Y-51654500D01*
X60231530Y-51654500D01*
X60028587Y-51694868D01*
X60028579Y-51694870D01*
X59837403Y-51774058D01*
X59665342Y-51889024D01*
X59519024Y-52035342D01*
X59404058Y-52207403D01*
X59324870Y-52398579D01*
X59324868Y-52398587D01*
X59284500Y-52601530D01*
X58845499Y-52601530D01*
X58805130Y-52398580D01*
X58725941Y-52207402D01*
X58610977Y-52035345D01*
X58610975Y-52035342D01*
X58464657Y-51889024D01*
X58347642Y-51810838D01*
X58292598Y-51774059D01*
X58101420Y-51694870D01*
X58101412Y-51694868D01*
X57898469Y-51654500D01*
X57898465Y-51654500D01*
X57691535Y-51654500D01*
X57691530Y-51654500D01*
X57488587Y-51694868D01*
X57488579Y-51694870D01*
X57297403Y-51774058D01*
X57125342Y-51889024D01*
X56979024Y-52035342D01*
X56864058Y-52207403D01*
X56784870Y-52398579D01*
X56784868Y-52398587D01*
X56744500Y-52601530D01*
X56305499Y-52601530D01*
X56265130Y-52398580D01*
X56185941Y-52207402D01*
X56070977Y-52035345D01*
X56070975Y-52035342D01*
X55924657Y-51889024D01*
X55807642Y-51810838D01*
X55752598Y-51774059D01*
X55561420Y-51694870D01*
X55561412Y-51694868D01*
X55358469Y-51654500D01*
X55358465Y-51654500D01*
X55151535Y-51654500D01*
X55151530Y-51654500D01*
X54948587Y-51694868D01*
X54948579Y-51694870D01*
X54757403Y-51774058D01*
X54585342Y-51889024D01*
X54439024Y-52035342D01*
X54324057Y-52207403D01*
X54255835Y-52372108D01*
X54211994Y-52426511D01*
X54145700Y-52448576D01*
X54078000Y-52431297D01*
X54030390Y-52380159D01*
X54023343Y-52362973D01*
X53966095Y-52186782D01*
X53869624Y-51997449D01*
X53830270Y-51943282D01*
X53830269Y-51943282D01*
X53238787Y-52534765D01*
X53227518Y-52492708D01*
X53155110Y-52367292D01*
X53052708Y-52264890D01*
X52927292Y-52192482D01*
X52885233Y-52181212D01*
X53476716Y-51589728D01*
X53422550Y-51550375D01*
X53233217Y-51453904D01*
X53031129Y-51388242D01*
X52821246Y-51355000D01*
X52608754Y-51355000D01*
X52398872Y-51388242D01*
X52398869Y-51388242D01*
X52196782Y-51453904D01*
X52007439Y-51550380D01*
X51953282Y-51589727D01*
X51953282Y-51589728D01*
X52544766Y-52181212D01*
X52502708Y-52192482D01*
X52377292Y-52264890D01*
X52274890Y-52367292D01*
X52202482Y-52492708D01*
X52191212Y-52534766D01*
X51599728Y-51943282D01*
X51599727Y-51943282D01*
X51560380Y-51997440D01*
X51560378Y-51997443D01*
X51534984Y-52047282D01*
X51487010Y-52098077D01*
X51419189Y-52114872D01*
X51353054Y-52092334D01*
X51309603Y-52037619D01*
X51300500Y-51990986D01*
X51300500Y-49715186D01*
X130949500Y-49715186D01*
X130949500Y-49984813D01*
X130979686Y-50252719D01*
X130979688Y-50252731D01*
X131039684Y-50515594D01*
X131039687Y-50515602D01*
X131128734Y-50770082D01*
X131245714Y-51012994D01*
X131245716Y-51012997D01*
X131389162Y-51241289D01*
X131557266Y-51452085D01*
X131747915Y-51642734D01*
X131958711Y-51810838D01*
X132187003Y-51954284D01*
X132429921Y-52071267D01*
X132621049Y-52138145D01*
X132684397Y-52160312D01*
X132684405Y-52160315D01*
X132684408Y-52160315D01*
X132684409Y-52160316D01*
X132947268Y-52220312D01*
X133215187Y-52250499D01*
X133215188Y-52250500D01*
X133215191Y-52250500D01*
X133484812Y-52250500D01*
X133484812Y-52250499D01*
X133752732Y-52220312D01*
X134015591Y-52160316D01*
X134270079Y-52071267D01*
X134512997Y-51954284D01*
X134741289Y-51810838D01*
X134952085Y-51642734D01*
X135142734Y-51452085D01*
X135310838Y-51241289D01*
X135454284Y-51012997D01*
X135571267Y-50770079D01*
X135660316Y-50515591D01*
X135720312Y-50252732D01*
X135750500Y-49984809D01*
X135750500Y-49715191D01*
X135750499Y-49715186D01*
X139749500Y-49715186D01*
X139749500Y-49984813D01*
X139779686Y-50252719D01*
X139779688Y-50252731D01*
X139839684Y-50515594D01*
X139839687Y-50515602D01*
X139928734Y-50770082D01*
X140045714Y-51012994D01*
X140045716Y-51012997D01*
X140189162Y-51241289D01*
X140357266Y-51452085D01*
X140547915Y-51642734D01*
X140758711Y-51810838D01*
X140987003Y-51954284D01*
X141229921Y-52071267D01*
X141421049Y-52138145D01*
X141484397Y-52160312D01*
X141484405Y-52160315D01*
X141484408Y-52160315D01*
X141484409Y-52160316D01*
X141747268Y-52220312D01*
X142015187Y-52250499D01*
X142015188Y-52250500D01*
X142015191Y-52250500D01*
X142284812Y-52250500D01*
X142284812Y-52250499D01*
X142552732Y-52220312D01*
X142815591Y-52160316D01*
X143070079Y-52071267D01*
X143312997Y-51954284D01*
X143541289Y-51810838D01*
X143752085Y-51642734D01*
X143942734Y-51452085D01*
X144110838Y-51241289D01*
X144254284Y-51012997D01*
X144371267Y-50770079D01*
X144460316Y-50515591D01*
X144520312Y-50252732D01*
X144550500Y-49984809D01*
X144550500Y-49715191D01*
X144550499Y-49715186D01*
X149324500Y-49715186D01*
X149324500Y-49984813D01*
X149354686Y-50252719D01*
X149354688Y-50252731D01*
X149414684Y-50515594D01*
X149414687Y-50515602D01*
X149503734Y-50770082D01*
X149620714Y-51012994D01*
X149620716Y-51012997D01*
X149764162Y-51241289D01*
X149932266Y-51452085D01*
X150122915Y-51642734D01*
X150333711Y-51810838D01*
X150562003Y-51954284D01*
X150804921Y-52071267D01*
X150996049Y-52138145D01*
X151059397Y-52160312D01*
X151059405Y-52160315D01*
X151059408Y-52160315D01*
X151059409Y-52160316D01*
X151322268Y-52220312D01*
X151590187Y-52250499D01*
X151590188Y-52250500D01*
X151590191Y-52250500D01*
X151859812Y-52250500D01*
X151859812Y-52250499D01*
X152127732Y-52220312D01*
X152390591Y-52160316D01*
X152645079Y-52071267D01*
X152887997Y-51954284D01*
X153116289Y-51810838D01*
X153327085Y-51642734D01*
X153517734Y-51452085D01*
X153685838Y-51241289D01*
X153829284Y-51012997D01*
X153946267Y-50770079D01*
X154035316Y-50515591D01*
X154095312Y-50252732D01*
X154125500Y-49984809D01*
X154125500Y-49715191D01*
X154125499Y-49715186D01*
X158124500Y-49715186D01*
X158124500Y-49984813D01*
X158154686Y-50252719D01*
X158154688Y-50252731D01*
X158214684Y-50515594D01*
X158214687Y-50515602D01*
X158303734Y-50770082D01*
X158420714Y-51012994D01*
X158420716Y-51012997D01*
X158564162Y-51241289D01*
X158732266Y-51452085D01*
X158922915Y-51642734D01*
X159133711Y-51810838D01*
X159362003Y-51954284D01*
X159604921Y-52071267D01*
X159796049Y-52138145D01*
X159859397Y-52160312D01*
X159859405Y-52160315D01*
X159859408Y-52160315D01*
X159859409Y-52160316D01*
X160122268Y-52220312D01*
X160390187Y-52250499D01*
X160390188Y-52250500D01*
X160390191Y-52250500D01*
X160659812Y-52250500D01*
X160659812Y-52250499D01*
X160927732Y-52220312D01*
X161190591Y-52160316D01*
X161445079Y-52071267D01*
X161687997Y-51954284D01*
X161916289Y-51810838D01*
X162127085Y-51642734D01*
X162317734Y-51452085D01*
X162485838Y-51241289D01*
X162629284Y-51012997D01*
X162746267Y-50770079D01*
X162835316Y-50515591D01*
X162895312Y-50252732D01*
X162925500Y-49984809D01*
X162925500Y-49715191D01*
X162895312Y-49447268D01*
X162835316Y-49184409D01*
X162746267Y-48929921D01*
X162629284Y-48687003D01*
X162485838Y-48458711D01*
X162317734Y-48247915D01*
X162127085Y-48057266D01*
X161916289Y-47889162D01*
X161687997Y-47745716D01*
X161687994Y-47745714D01*
X161445082Y-47628734D01*
X161190602Y-47539687D01*
X161190594Y-47539684D01*
X160993446Y-47494687D01*
X160927732Y-47479688D01*
X160927728Y-47479687D01*
X160927719Y-47479686D01*
X160659813Y-47449500D01*
X160659809Y-47449500D01*
X160390191Y-47449500D01*
X160390186Y-47449500D01*
X160122280Y-47479686D01*
X160122268Y-47479688D01*
X159859405Y-47539684D01*
X159859397Y-47539687D01*
X159604917Y-47628734D01*
X159362005Y-47745714D01*
X159133712Y-47889161D01*
X158922915Y-48057265D01*
X158732265Y-48247915D01*
X158564161Y-48458712D01*
X158420714Y-48687005D01*
X158303734Y-48929917D01*
X158214687Y-49184397D01*
X158214684Y-49184405D01*
X158154688Y-49447268D01*
X158154686Y-49447280D01*
X158124500Y-49715186D01*
X154125499Y-49715186D01*
X154095312Y-49447268D01*
X154035316Y-49184409D01*
X153946267Y-48929921D01*
X153829284Y-48687003D01*
X153685838Y-48458711D01*
X153517734Y-48247915D01*
X153327085Y-48057266D01*
X153116289Y-47889162D01*
X152887997Y-47745716D01*
X152887994Y-47745714D01*
X152645082Y-47628734D01*
X152390602Y-47539687D01*
X152390594Y-47539684D01*
X152193446Y-47494687D01*
X152127732Y-47479688D01*
X152127728Y-47479687D01*
X152127719Y-47479686D01*
X151859813Y-47449500D01*
X151859809Y-47449500D01*
X151590191Y-47449500D01*
X151590186Y-47449500D01*
X151322280Y-47479686D01*
X151322268Y-47479688D01*
X151059405Y-47539684D01*
X151059397Y-47539687D01*
X150804917Y-47628734D01*
X150562005Y-47745714D01*
X150333712Y-47889161D01*
X150122915Y-48057265D01*
X149932265Y-48247915D01*
X149764161Y-48458712D01*
X149620714Y-48687005D01*
X149503734Y-48929917D01*
X149414687Y-49184397D01*
X149414684Y-49184405D01*
X149354688Y-49447268D01*
X149354686Y-49447280D01*
X149324500Y-49715186D01*
X144550499Y-49715186D01*
X144520312Y-49447268D01*
X144460316Y-49184409D01*
X144371267Y-48929921D01*
X144254284Y-48687003D01*
X144110838Y-48458711D01*
X143942734Y-48247915D01*
X143752085Y-48057266D01*
X143541289Y-47889162D01*
X143312997Y-47745716D01*
X143312994Y-47745714D01*
X143070082Y-47628734D01*
X142815602Y-47539687D01*
X142815594Y-47539684D01*
X142618446Y-47494687D01*
X142552732Y-47479688D01*
X142552728Y-47479687D01*
X142552719Y-47479686D01*
X142284813Y-47449500D01*
X142284809Y-47449500D01*
X142015191Y-47449500D01*
X142015186Y-47449500D01*
X141747280Y-47479686D01*
X141747268Y-47479688D01*
X141484405Y-47539684D01*
X141484397Y-47539687D01*
X141229917Y-47628734D01*
X140987005Y-47745714D01*
X140758712Y-47889161D01*
X140547915Y-48057265D01*
X140357265Y-48247915D01*
X140189161Y-48458712D01*
X140045714Y-48687005D01*
X139928734Y-48929917D01*
X139839687Y-49184397D01*
X139839684Y-49184405D01*
X139779688Y-49447268D01*
X139779686Y-49447280D01*
X139749500Y-49715186D01*
X135750499Y-49715186D01*
X135720312Y-49447268D01*
X135660316Y-49184409D01*
X135571267Y-48929921D01*
X135454284Y-48687003D01*
X135310838Y-48458711D01*
X135142734Y-48247915D01*
X134952085Y-48057266D01*
X134741289Y-47889162D01*
X134512997Y-47745716D01*
X134512994Y-47745714D01*
X134270082Y-47628734D01*
X134015602Y-47539687D01*
X134015594Y-47539684D01*
X133818446Y-47494687D01*
X133752732Y-47479688D01*
X133752728Y-47479687D01*
X133752719Y-47479686D01*
X133484813Y-47449500D01*
X133484809Y-47449500D01*
X133215191Y-47449500D01*
X133215186Y-47449500D01*
X132947280Y-47479686D01*
X132947268Y-47479688D01*
X132684405Y-47539684D01*
X132684397Y-47539687D01*
X132429917Y-47628734D01*
X132187005Y-47745714D01*
X131958712Y-47889161D01*
X131747915Y-48057265D01*
X131557265Y-48247915D01*
X131389161Y-48458712D01*
X131245714Y-48687005D01*
X131128734Y-48929917D01*
X131039687Y-49184397D01*
X131039684Y-49184405D01*
X130979688Y-49447268D01*
X130979686Y-49447280D01*
X130949500Y-49715186D01*
X51300500Y-49715186D01*
X51300500Y-48974014D01*
X51320185Y-48906975D01*
X51372989Y-48861220D01*
X51442147Y-48851276D01*
X51505703Y-48880301D01*
X51534985Y-48917719D01*
X51560375Y-48967550D01*
X51599728Y-49021716D01*
X52232037Y-48389408D01*
X52249075Y-48452993D01*
X52314901Y-48567007D01*
X52407993Y-48660099D01*
X52522007Y-48725925D01*
X52585590Y-48742962D01*
X51953282Y-49375269D01*
X51953282Y-49375270D01*
X52007449Y-49414624D01*
X52196782Y-49511095D01*
X52398870Y-49576757D01*
X52608754Y-49610000D01*
X52821246Y-49610000D01*
X52952325Y-49589239D01*
X53031127Y-49576757D01*
X53031130Y-49576757D01*
X53233217Y-49511095D01*
X53422554Y-49414622D01*
X53476716Y-49375270D01*
X53476717Y-49375270D01*
X52844408Y-48742962D01*
X52907993Y-48725925D01*
X53022007Y-48660099D01*
X53115099Y-48567007D01*
X53180925Y-48452993D01*
X53197962Y-48389409D01*
X53830270Y-49021717D01*
X53830270Y-49021716D01*
X53869622Y-48967554D01*
X53966095Y-48778217D01*
X54023343Y-48602026D01*
X54062780Y-48544351D01*
X54127139Y-48517152D01*
X54195985Y-48529066D01*
X54247461Y-48576310D01*
X54255835Y-48592891D01*
X54324058Y-48757596D01*
X54439024Y-48929657D01*
X54585342Y-49075975D01*
X54585345Y-49075977D01*
X54757402Y-49190941D01*
X54948580Y-49270130D01*
X55093052Y-49298867D01*
X55151530Y-49310499D01*
X55151534Y-49310500D01*
X55151535Y-49310500D01*
X55358466Y-49310500D01*
X55358467Y-49310499D01*
X55561420Y-49270130D01*
X55752598Y-49190941D01*
X55924655Y-49075977D01*
X56070977Y-48929655D01*
X56185941Y-48757598D01*
X56265130Y-48566420D01*
X56305500Y-48363465D01*
X56305500Y-48156535D01*
X56305499Y-48156530D01*
X56744500Y-48156530D01*
X56744500Y-48363469D01*
X56784868Y-48566412D01*
X56784870Y-48566420D01*
X56864058Y-48757596D01*
X56979024Y-48929657D01*
X57125342Y-49075975D01*
X57125345Y-49075977D01*
X57297402Y-49190941D01*
X57488580Y-49270130D01*
X57633052Y-49298867D01*
X57691530Y-49310499D01*
X57691534Y-49310500D01*
X57691535Y-49310500D01*
X57898466Y-49310500D01*
X57898467Y-49310499D01*
X58101420Y-49270130D01*
X58292598Y-49190941D01*
X58464655Y-49075977D01*
X58610977Y-48929655D01*
X58725941Y-48757598D01*
X58805130Y-48566420D01*
X58845500Y-48363465D01*
X58845500Y-48156535D01*
X58845499Y-48156530D01*
X59284500Y-48156530D01*
X59284500Y-48363469D01*
X59324868Y-48566412D01*
X59324870Y-48566420D01*
X59404058Y-48757596D01*
X59519024Y-48929657D01*
X59665342Y-49075975D01*
X59665345Y-49075977D01*
X59837402Y-49190941D01*
X60028580Y-49270130D01*
X60173052Y-49298867D01*
X60231530Y-49310499D01*
X60231534Y-49310500D01*
X60231535Y-49310500D01*
X60438466Y-49310500D01*
X60438467Y-49310499D01*
X60641420Y-49270130D01*
X60832598Y-49190941D01*
X61004655Y-49075977D01*
X61150977Y-48929655D01*
X61265941Y-48757598D01*
X61345130Y-48566420D01*
X61385500Y-48363465D01*
X61385500Y-48156535D01*
X61385499Y-48156530D01*
X61824500Y-48156530D01*
X61824500Y-48363469D01*
X61864868Y-48566412D01*
X61864870Y-48566420D01*
X61944058Y-48757596D01*
X62059024Y-48929657D01*
X62205342Y-49075975D01*
X62205345Y-49075977D01*
X62377402Y-49190941D01*
X62568580Y-49270130D01*
X62713052Y-49298867D01*
X62771530Y-49310499D01*
X62771534Y-49310500D01*
X62771535Y-49310500D01*
X62978466Y-49310500D01*
X62978467Y-49310499D01*
X63181420Y-49270130D01*
X63372598Y-49190941D01*
X63544655Y-49075977D01*
X63690977Y-48929655D01*
X63805941Y-48757598D01*
X63885130Y-48566420D01*
X63925500Y-48363465D01*
X63925500Y-48156535D01*
X63925499Y-48156530D01*
X64364500Y-48156530D01*
X64364500Y-48363469D01*
X64404868Y-48566412D01*
X64404870Y-48566420D01*
X64484058Y-48757596D01*
X64599024Y-48929657D01*
X64745342Y-49075975D01*
X64745345Y-49075977D01*
X64917402Y-49190941D01*
X65108580Y-49270130D01*
X65253052Y-49298867D01*
X65311530Y-49310499D01*
X65311534Y-49310500D01*
X65311535Y-49310500D01*
X65518466Y-49310500D01*
X65518467Y-49310499D01*
X65721420Y-49270130D01*
X65912598Y-49190941D01*
X66084655Y-49075977D01*
X66230977Y-48929655D01*
X66345941Y-48757598D01*
X66425130Y-48566420D01*
X66465500Y-48363465D01*
X66465500Y-48156535D01*
X66465499Y-48156530D01*
X66904500Y-48156530D01*
X66904500Y-48363469D01*
X66944868Y-48566412D01*
X66944870Y-48566420D01*
X67024058Y-48757596D01*
X67139024Y-48929657D01*
X67285342Y-49075975D01*
X67285345Y-49075977D01*
X67457402Y-49190941D01*
X67648580Y-49270130D01*
X67793052Y-49298867D01*
X67851530Y-49310499D01*
X67851534Y-49310500D01*
X67851535Y-49310500D01*
X68058466Y-49310500D01*
X68058467Y-49310499D01*
X68261420Y-49270130D01*
X68452598Y-49190941D01*
X68624655Y-49075977D01*
X68770977Y-48929655D01*
X68885941Y-48757598D01*
X68965130Y-48566420D01*
X69005500Y-48363465D01*
X69005500Y-48156535D01*
X69005499Y-48156530D01*
X69444500Y-48156530D01*
X69444500Y-48363469D01*
X69484868Y-48566412D01*
X69484870Y-48566420D01*
X69564058Y-48757596D01*
X69679024Y-48929657D01*
X69825342Y-49075975D01*
X69825345Y-49075977D01*
X69997402Y-49190941D01*
X70188580Y-49270130D01*
X70333052Y-49298867D01*
X70391530Y-49310499D01*
X70391534Y-49310500D01*
X70391535Y-49310500D01*
X70598466Y-49310500D01*
X70598467Y-49310499D01*
X70801420Y-49270130D01*
X70992598Y-49190941D01*
X71164655Y-49075977D01*
X71310977Y-48929655D01*
X71425941Y-48757598D01*
X71505130Y-48566420D01*
X71545500Y-48363465D01*
X71545500Y-48156535D01*
X71545499Y-48156530D01*
X71984500Y-48156530D01*
X71984500Y-48363469D01*
X72024868Y-48566412D01*
X72024870Y-48566420D01*
X72104058Y-48757596D01*
X72219024Y-48929657D01*
X72365342Y-49075975D01*
X72365345Y-49075977D01*
X72537402Y-49190941D01*
X72728580Y-49270130D01*
X72873052Y-49298867D01*
X72931530Y-49310499D01*
X72931534Y-49310500D01*
X72931535Y-49310500D01*
X73138466Y-49310500D01*
X73138467Y-49310499D01*
X73341420Y-49270130D01*
X73532598Y-49190941D01*
X73704655Y-49075977D01*
X73850977Y-48929655D01*
X73965941Y-48757598D01*
X74045130Y-48566420D01*
X74085500Y-48363465D01*
X74085500Y-48156535D01*
X74085499Y-48156530D01*
X74524500Y-48156530D01*
X74524500Y-48363469D01*
X74564868Y-48566412D01*
X74564870Y-48566420D01*
X74644058Y-48757596D01*
X74759024Y-48929657D01*
X74905342Y-49075975D01*
X74905345Y-49075977D01*
X75077402Y-49190941D01*
X75268580Y-49270130D01*
X75413052Y-49298867D01*
X75471530Y-49310499D01*
X75471534Y-49310500D01*
X75471535Y-49310500D01*
X75678466Y-49310500D01*
X75678467Y-49310499D01*
X75881420Y-49270130D01*
X76072598Y-49190941D01*
X76244655Y-49075977D01*
X76390977Y-48929655D01*
X76505941Y-48757598D01*
X76585130Y-48566420D01*
X76625500Y-48363465D01*
X76625500Y-48156535D01*
X76625499Y-48156530D01*
X77064500Y-48156530D01*
X77064500Y-48363469D01*
X77104868Y-48566412D01*
X77104870Y-48566420D01*
X77184058Y-48757596D01*
X77299024Y-48929657D01*
X77445342Y-49075975D01*
X77445345Y-49075977D01*
X77617402Y-49190941D01*
X77808580Y-49270130D01*
X77953052Y-49298867D01*
X78011530Y-49310499D01*
X78011534Y-49310500D01*
X78011535Y-49310500D01*
X78218466Y-49310500D01*
X78218467Y-49310499D01*
X78421420Y-49270130D01*
X78612598Y-49190941D01*
X78784655Y-49075977D01*
X78930977Y-48929655D01*
X79045941Y-48757598D01*
X79125130Y-48566420D01*
X79165500Y-48363465D01*
X79165500Y-48156535D01*
X79165499Y-48156530D01*
X79604500Y-48156530D01*
X79604500Y-48363469D01*
X79644868Y-48566412D01*
X79644870Y-48566420D01*
X79724058Y-48757596D01*
X79839024Y-48929657D01*
X79985342Y-49075975D01*
X79985345Y-49075977D01*
X80157402Y-49190941D01*
X80348580Y-49270130D01*
X80493052Y-49298867D01*
X80551530Y-49310499D01*
X80551534Y-49310500D01*
X80551535Y-49310500D01*
X80758466Y-49310500D01*
X80758467Y-49310499D01*
X80961420Y-49270130D01*
X81152598Y-49190941D01*
X81324655Y-49075977D01*
X81470977Y-48929655D01*
X81585941Y-48757598D01*
X81665130Y-48566420D01*
X81705500Y-48363465D01*
X81705500Y-48156535D01*
X81705499Y-48156530D01*
X82144500Y-48156530D01*
X82144500Y-48363469D01*
X82184868Y-48566412D01*
X82184870Y-48566420D01*
X82264058Y-48757596D01*
X82379024Y-48929657D01*
X82525342Y-49075975D01*
X82525345Y-49075977D01*
X82697402Y-49190941D01*
X82888580Y-49270130D01*
X83033052Y-49298867D01*
X83091530Y-49310499D01*
X83091534Y-49310500D01*
X83091535Y-49310500D01*
X83298466Y-49310500D01*
X83298467Y-49310499D01*
X83501420Y-49270130D01*
X83692598Y-49190941D01*
X83864655Y-49075977D01*
X84010977Y-48929655D01*
X84125941Y-48757598D01*
X84205130Y-48566420D01*
X84245500Y-48363465D01*
X84245500Y-48156535D01*
X84245499Y-48156530D01*
X84684500Y-48156530D01*
X84684500Y-48363469D01*
X84724868Y-48566412D01*
X84724870Y-48566420D01*
X84804058Y-48757596D01*
X84919024Y-48929657D01*
X85065342Y-49075975D01*
X85065345Y-49075977D01*
X85237402Y-49190941D01*
X85428580Y-49270130D01*
X85573052Y-49298867D01*
X85631530Y-49310499D01*
X85631534Y-49310500D01*
X85631535Y-49310500D01*
X85838466Y-49310500D01*
X85838467Y-49310499D01*
X86041420Y-49270130D01*
X86232598Y-49190941D01*
X86404655Y-49075977D01*
X86550977Y-48929655D01*
X86665941Y-48757598D01*
X86745130Y-48566420D01*
X86785500Y-48363465D01*
X86785500Y-48156535D01*
X86785499Y-48156530D01*
X87224500Y-48156530D01*
X87224500Y-48363469D01*
X87264868Y-48566412D01*
X87264870Y-48566420D01*
X87344058Y-48757596D01*
X87459024Y-48929657D01*
X87605342Y-49075975D01*
X87605345Y-49075977D01*
X87777402Y-49190941D01*
X87968580Y-49270130D01*
X88113052Y-49298867D01*
X88171530Y-49310499D01*
X88171534Y-49310500D01*
X88171535Y-49310500D01*
X88378466Y-49310500D01*
X88378467Y-49310499D01*
X88581420Y-49270130D01*
X88772598Y-49190941D01*
X88944655Y-49075977D01*
X89090977Y-48929655D01*
X89205941Y-48757598D01*
X89285130Y-48566420D01*
X89325500Y-48363465D01*
X89325500Y-48156535D01*
X89325499Y-48156530D01*
X89764500Y-48156530D01*
X89764500Y-48363469D01*
X89804868Y-48566412D01*
X89804870Y-48566420D01*
X89884058Y-48757596D01*
X89999024Y-48929657D01*
X90145342Y-49075975D01*
X90145345Y-49075977D01*
X90317402Y-49190941D01*
X90508580Y-49270130D01*
X90653052Y-49298867D01*
X90711530Y-49310499D01*
X90711534Y-49310500D01*
X90711535Y-49310500D01*
X90918466Y-49310500D01*
X90918467Y-49310499D01*
X91121420Y-49270130D01*
X91312598Y-49190941D01*
X91484655Y-49075977D01*
X91630977Y-48929655D01*
X91745941Y-48757598D01*
X91825130Y-48566420D01*
X91865500Y-48363465D01*
X91865500Y-48156535D01*
X91865499Y-48156530D01*
X92304500Y-48156530D01*
X92304500Y-48363469D01*
X92344868Y-48566412D01*
X92344870Y-48566420D01*
X92424058Y-48757596D01*
X92539024Y-48929657D01*
X92685342Y-49075975D01*
X92685345Y-49075977D01*
X92857402Y-49190941D01*
X93048580Y-49270130D01*
X93193052Y-49298867D01*
X93251530Y-49310499D01*
X93251534Y-49310500D01*
X93251535Y-49310500D01*
X93458466Y-49310500D01*
X93458467Y-49310499D01*
X93661420Y-49270130D01*
X93852598Y-49190941D01*
X94024655Y-49075977D01*
X94170977Y-48929655D01*
X94285941Y-48757598D01*
X94365130Y-48566420D01*
X94405500Y-48363465D01*
X94405500Y-48156535D01*
X94405499Y-48156530D01*
X94844500Y-48156530D01*
X94844500Y-48363469D01*
X94884868Y-48566412D01*
X94884870Y-48566420D01*
X94964058Y-48757596D01*
X95079024Y-48929657D01*
X95225342Y-49075975D01*
X95225345Y-49075977D01*
X95397402Y-49190941D01*
X95588580Y-49270130D01*
X95733052Y-49298867D01*
X95791530Y-49310499D01*
X95791534Y-49310500D01*
X95791535Y-49310500D01*
X95998466Y-49310500D01*
X95998467Y-49310499D01*
X96201420Y-49270130D01*
X96392598Y-49190941D01*
X96564655Y-49075977D01*
X96710977Y-48929655D01*
X96825941Y-48757598D01*
X96905130Y-48566420D01*
X96945500Y-48363465D01*
X96945500Y-48156535D01*
X96945499Y-48156530D01*
X97384500Y-48156530D01*
X97384500Y-48363469D01*
X97424868Y-48566412D01*
X97424870Y-48566420D01*
X97504058Y-48757596D01*
X97619024Y-48929657D01*
X97765342Y-49075975D01*
X97765345Y-49075977D01*
X97937402Y-49190941D01*
X98128580Y-49270130D01*
X98273052Y-49298867D01*
X98331530Y-49310499D01*
X98331534Y-49310500D01*
X98331535Y-49310500D01*
X98538466Y-49310500D01*
X98538467Y-49310499D01*
X98741420Y-49270130D01*
X98932598Y-49190941D01*
X99104655Y-49075977D01*
X99250977Y-48929655D01*
X99365941Y-48757598D01*
X99445130Y-48566420D01*
X99485500Y-48363465D01*
X99485500Y-48156535D01*
X99445130Y-47953580D01*
X99365941Y-47762402D01*
X99250977Y-47590345D01*
X99250975Y-47590342D01*
X99104657Y-47444024D01*
X99024173Y-47390247D01*
X99924500Y-47390247D01*
X99924500Y-49129752D01*
X99936131Y-49188229D01*
X99936132Y-49188230D01*
X99980447Y-49254552D01*
X100046769Y-49298867D01*
X100046770Y-49298868D01*
X100105247Y-49310499D01*
X100105250Y-49310500D01*
X100105252Y-49310500D01*
X101844750Y-49310500D01*
X101844751Y-49310499D01*
X101859568Y-49307552D01*
X101903229Y-49298868D01*
X101903229Y-49298867D01*
X101903231Y-49298867D01*
X101969552Y-49254552D01*
X102013867Y-49188231D01*
X102013867Y-49188229D01*
X102013868Y-49188229D01*
X102025499Y-49129752D01*
X102025500Y-49129750D01*
X102025500Y-47390249D01*
X102025499Y-47390247D01*
X102013868Y-47331770D01*
X102013867Y-47331769D01*
X101969552Y-47265447D01*
X101903230Y-47221132D01*
X101903229Y-47221131D01*
X101844752Y-47209500D01*
X101844748Y-47209500D01*
X100105252Y-47209500D01*
X100105247Y-47209500D01*
X100046770Y-47221131D01*
X100046769Y-47221132D01*
X99980447Y-47265447D01*
X99936132Y-47331769D01*
X99936131Y-47331770D01*
X99924500Y-47390247D01*
X99024173Y-47390247D01*
X98936655Y-47331770D01*
X98932598Y-47329059D01*
X98741420Y-47249870D01*
X98741412Y-47249868D01*
X98538469Y-47209500D01*
X98538465Y-47209500D01*
X98331535Y-47209500D01*
X98331530Y-47209500D01*
X98128587Y-47249868D01*
X98128579Y-47249870D01*
X97937403Y-47329058D01*
X97765342Y-47444024D01*
X97619024Y-47590342D01*
X97504058Y-47762403D01*
X97424870Y-47953579D01*
X97424868Y-47953587D01*
X97384500Y-48156530D01*
X96945499Y-48156530D01*
X96905130Y-47953580D01*
X96825941Y-47762402D01*
X96710977Y-47590345D01*
X96710975Y-47590342D01*
X96564657Y-47444024D01*
X96396655Y-47331770D01*
X96392598Y-47329059D01*
X96201420Y-47249870D01*
X96201412Y-47249868D01*
X95998469Y-47209500D01*
X95998465Y-47209500D01*
X95791535Y-47209500D01*
X95791530Y-47209500D01*
X95588587Y-47249868D01*
X95588579Y-47249870D01*
X95397403Y-47329058D01*
X95225342Y-47444024D01*
X95079024Y-47590342D01*
X94964058Y-47762403D01*
X94884870Y-47953579D01*
X94884868Y-47953587D01*
X94844500Y-48156530D01*
X94405499Y-48156530D01*
X94365130Y-47953580D01*
X94285941Y-47762402D01*
X94170977Y-47590345D01*
X94170975Y-47590342D01*
X94024657Y-47444024D01*
X93856655Y-47331770D01*
X93852598Y-47329059D01*
X93661420Y-47249870D01*
X93661412Y-47249868D01*
X93458469Y-47209500D01*
X93458465Y-47209500D01*
X93251535Y-47209500D01*
X93251530Y-47209500D01*
X93048587Y-47249868D01*
X93048579Y-47249870D01*
X92857403Y-47329058D01*
X92685342Y-47444024D01*
X92539024Y-47590342D01*
X92424058Y-47762403D01*
X92344870Y-47953579D01*
X92344868Y-47953587D01*
X92304500Y-48156530D01*
X91865499Y-48156530D01*
X91825130Y-47953580D01*
X91745941Y-47762402D01*
X91630977Y-47590345D01*
X91630975Y-47590342D01*
X91484657Y-47444024D01*
X91316655Y-47331770D01*
X91312598Y-47329059D01*
X91121420Y-47249870D01*
X91121412Y-47249868D01*
X90918469Y-47209500D01*
X90918465Y-47209500D01*
X90711535Y-47209500D01*
X90711530Y-47209500D01*
X90508587Y-47249868D01*
X90508579Y-47249870D01*
X90317403Y-47329058D01*
X90145342Y-47444024D01*
X89999024Y-47590342D01*
X89884058Y-47762403D01*
X89804870Y-47953579D01*
X89804868Y-47953587D01*
X89764500Y-48156530D01*
X89325499Y-48156530D01*
X89285130Y-47953580D01*
X89205941Y-47762402D01*
X89090977Y-47590345D01*
X89090975Y-47590342D01*
X88944657Y-47444024D01*
X88776655Y-47331770D01*
X88772598Y-47329059D01*
X88581420Y-47249870D01*
X88581412Y-47249868D01*
X88378469Y-47209500D01*
X88378465Y-47209500D01*
X88171535Y-47209500D01*
X88171530Y-47209500D01*
X87968587Y-47249868D01*
X87968579Y-47249870D01*
X87777403Y-47329058D01*
X87605342Y-47444024D01*
X87459024Y-47590342D01*
X87344058Y-47762403D01*
X87264870Y-47953579D01*
X87264868Y-47953587D01*
X87224500Y-48156530D01*
X86785499Y-48156530D01*
X86745130Y-47953580D01*
X86665941Y-47762402D01*
X86550977Y-47590345D01*
X86550975Y-47590342D01*
X86404657Y-47444024D01*
X86236655Y-47331770D01*
X86232598Y-47329059D01*
X86041420Y-47249870D01*
X86041412Y-47249868D01*
X85838469Y-47209500D01*
X85838465Y-47209500D01*
X85631535Y-47209500D01*
X85631530Y-47209500D01*
X85428587Y-47249868D01*
X85428579Y-47249870D01*
X85237403Y-47329058D01*
X85065342Y-47444024D01*
X84919024Y-47590342D01*
X84804058Y-47762403D01*
X84724870Y-47953579D01*
X84724868Y-47953587D01*
X84684500Y-48156530D01*
X84245499Y-48156530D01*
X84205130Y-47953580D01*
X84125941Y-47762402D01*
X84010977Y-47590345D01*
X84010975Y-47590342D01*
X83864657Y-47444024D01*
X83696655Y-47331770D01*
X83692598Y-47329059D01*
X83501420Y-47249870D01*
X83501412Y-47249868D01*
X83298469Y-47209500D01*
X83298465Y-47209500D01*
X83091535Y-47209500D01*
X83091530Y-47209500D01*
X82888587Y-47249868D01*
X82888579Y-47249870D01*
X82697403Y-47329058D01*
X82525342Y-47444024D01*
X82379024Y-47590342D01*
X82264058Y-47762403D01*
X82184870Y-47953579D01*
X82184868Y-47953587D01*
X82144500Y-48156530D01*
X81705499Y-48156530D01*
X81665130Y-47953580D01*
X81585941Y-47762402D01*
X81470977Y-47590345D01*
X81470975Y-47590342D01*
X81324657Y-47444024D01*
X81156655Y-47331770D01*
X81152598Y-47329059D01*
X80961420Y-47249870D01*
X80961412Y-47249868D01*
X80758469Y-47209500D01*
X80758465Y-47209500D01*
X80551535Y-47209500D01*
X80551530Y-47209500D01*
X80348587Y-47249868D01*
X80348579Y-47249870D01*
X80157403Y-47329058D01*
X79985342Y-47444024D01*
X79839024Y-47590342D01*
X79724058Y-47762403D01*
X79644870Y-47953579D01*
X79644868Y-47953587D01*
X79604500Y-48156530D01*
X79165499Y-48156530D01*
X79125130Y-47953580D01*
X79045941Y-47762402D01*
X78930977Y-47590345D01*
X78930975Y-47590342D01*
X78784657Y-47444024D01*
X78616655Y-47331770D01*
X78612598Y-47329059D01*
X78421420Y-47249870D01*
X78421412Y-47249868D01*
X78218469Y-47209500D01*
X78218465Y-47209500D01*
X78011535Y-47209500D01*
X78011530Y-47209500D01*
X77808587Y-47249868D01*
X77808579Y-47249870D01*
X77617403Y-47329058D01*
X77445342Y-47444024D01*
X77299024Y-47590342D01*
X77184058Y-47762403D01*
X77104870Y-47953579D01*
X77104868Y-47953587D01*
X77064500Y-48156530D01*
X76625499Y-48156530D01*
X76585130Y-47953580D01*
X76505941Y-47762402D01*
X76390977Y-47590345D01*
X76390975Y-47590342D01*
X76244657Y-47444024D01*
X76076655Y-47331770D01*
X76072598Y-47329059D01*
X75881420Y-47249870D01*
X75881412Y-47249868D01*
X75678469Y-47209500D01*
X75678465Y-47209500D01*
X75471535Y-47209500D01*
X75471530Y-47209500D01*
X75268587Y-47249868D01*
X75268579Y-47249870D01*
X75077403Y-47329058D01*
X74905342Y-47444024D01*
X74759024Y-47590342D01*
X74644058Y-47762403D01*
X74564870Y-47953579D01*
X74564868Y-47953587D01*
X74524500Y-48156530D01*
X74085499Y-48156530D01*
X74045130Y-47953580D01*
X73965941Y-47762402D01*
X73850977Y-47590345D01*
X73850975Y-47590342D01*
X73704657Y-47444024D01*
X73536655Y-47331770D01*
X73532598Y-47329059D01*
X73341420Y-47249870D01*
X73341412Y-47249868D01*
X73138469Y-47209500D01*
X73138465Y-47209500D01*
X72931535Y-47209500D01*
X72931530Y-47209500D01*
X72728587Y-47249868D01*
X72728579Y-47249870D01*
X72537403Y-47329058D01*
X72365342Y-47444024D01*
X72219024Y-47590342D01*
X72104058Y-47762403D01*
X72024870Y-47953579D01*
X72024868Y-47953587D01*
X71984500Y-48156530D01*
X71545499Y-48156530D01*
X71505130Y-47953580D01*
X71425941Y-47762402D01*
X71310977Y-47590345D01*
X71310975Y-47590342D01*
X71164657Y-47444024D01*
X70996655Y-47331770D01*
X70992598Y-47329059D01*
X70801420Y-47249870D01*
X70801412Y-47249868D01*
X70598469Y-47209500D01*
X70598465Y-47209500D01*
X70391535Y-47209500D01*
X70391530Y-47209500D01*
X70188587Y-47249868D01*
X70188579Y-47249870D01*
X69997403Y-47329058D01*
X69825342Y-47444024D01*
X69679024Y-47590342D01*
X69564058Y-47762403D01*
X69484870Y-47953579D01*
X69484868Y-47953587D01*
X69444500Y-48156530D01*
X69005499Y-48156530D01*
X68965130Y-47953580D01*
X68885941Y-47762402D01*
X68770977Y-47590345D01*
X68770975Y-47590342D01*
X68624657Y-47444024D01*
X68456655Y-47331770D01*
X68452598Y-47329059D01*
X68261420Y-47249870D01*
X68261412Y-47249868D01*
X68058469Y-47209500D01*
X68058465Y-47209500D01*
X67851535Y-47209500D01*
X67851530Y-47209500D01*
X67648587Y-47249868D01*
X67648579Y-47249870D01*
X67457403Y-47329058D01*
X67285342Y-47444024D01*
X67139024Y-47590342D01*
X67024058Y-47762403D01*
X66944870Y-47953579D01*
X66944868Y-47953587D01*
X66904500Y-48156530D01*
X66465499Y-48156530D01*
X66425130Y-47953580D01*
X66345941Y-47762402D01*
X66230977Y-47590345D01*
X66230975Y-47590342D01*
X66084657Y-47444024D01*
X65916655Y-47331770D01*
X65912598Y-47329059D01*
X65721420Y-47249870D01*
X65721412Y-47249868D01*
X65518469Y-47209500D01*
X65518465Y-47209500D01*
X65311535Y-47209500D01*
X65311530Y-47209500D01*
X65108587Y-47249868D01*
X65108579Y-47249870D01*
X64917403Y-47329058D01*
X64745342Y-47444024D01*
X64599024Y-47590342D01*
X64484058Y-47762403D01*
X64404870Y-47953579D01*
X64404868Y-47953587D01*
X64364500Y-48156530D01*
X63925499Y-48156530D01*
X63885130Y-47953580D01*
X63805941Y-47762402D01*
X63690977Y-47590345D01*
X63690975Y-47590342D01*
X63544657Y-47444024D01*
X63376655Y-47331770D01*
X63372598Y-47329059D01*
X63181420Y-47249870D01*
X63181412Y-47249868D01*
X62978469Y-47209500D01*
X62978465Y-47209500D01*
X62771535Y-47209500D01*
X62771530Y-47209500D01*
X62568587Y-47249868D01*
X62568579Y-47249870D01*
X62377403Y-47329058D01*
X62205342Y-47444024D01*
X62059024Y-47590342D01*
X61944058Y-47762403D01*
X61864870Y-47953579D01*
X61864868Y-47953587D01*
X61824500Y-48156530D01*
X61385499Y-48156530D01*
X61345130Y-47953580D01*
X61265941Y-47762402D01*
X61150977Y-47590345D01*
X61150975Y-47590342D01*
X61004657Y-47444024D01*
X60836655Y-47331770D01*
X60832598Y-47329059D01*
X60641420Y-47249870D01*
X60641412Y-47249868D01*
X60438469Y-47209500D01*
X60438465Y-47209500D01*
X60231535Y-47209500D01*
X60231530Y-47209500D01*
X60028587Y-47249868D01*
X60028579Y-47249870D01*
X59837403Y-47329058D01*
X59665342Y-47444024D01*
X59519024Y-47590342D01*
X59404058Y-47762403D01*
X59324870Y-47953579D01*
X59324868Y-47953587D01*
X59284500Y-48156530D01*
X58845499Y-48156530D01*
X58805130Y-47953580D01*
X58725941Y-47762402D01*
X58610977Y-47590345D01*
X58610975Y-47590342D01*
X58464657Y-47444024D01*
X58296655Y-47331770D01*
X58292598Y-47329059D01*
X58101420Y-47249870D01*
X58101412Y-47249868D01*
X57898469Y-47209500D01*
X57898465Y-47209500D01*
X57691535Y-47209500D01*
X57691530Y-47209500D01*
X57488587Y-47249868D01*
X57488579Y-47249870D01*
X57297403Y-47329058D01*
X57125342Y-47444024D01*
X56979024Y-47590342D01*
X56864058Y-47762403D01*
X56784870Y-47953579D01*
X56784868Y-47953587D01*
X56744500Y-48156530D01*
X56305499Y-48156530D01*
X56265130Y-47953580D01*
X56185941Y-47762402D01*
X56070977Y-47590345D01*
X56070975Y-47590342D01*
X55924657Y-47444024D01*
X55756655Y-47331770D01*
X55752598Y-47329059D01*
X55561420Y-47249870D01*
X55561412Y-47249868D01*
X55358469Y-47209500D01*
X55358465Y-47209500D01*
X55151535Y-47209500D01*
X55151530Y-47209500D01*
X54948587Y-47249868D01*
X54948579Y-47249870D01*
X54757403Y-47329058D01*
X54585342Y-47444024D01*
X54439024Y-47590342D01*
X54324057Y-47762403D01*
X54255835Y-47927108D01*
X54211994Y-47981511D01*
X54145700Y-48003576D01*
X54078000Y-47986297D01*
X54030390Y-47935159D01*
X54023343Y-47917973D01*
X53966095Y-47741782D01*
X53869624Y-47552449D01*
X53830270Y-47498282D01*
X53830269Y-47498282D01*
X53197962Y-48130590D01*
X53180925Y-48067007D01*
X53115099Y-47952993D01*
X53022007Y-47859901D01*
X52907993Y-47794075D01*
X52844409Y-47777037D01*
X53476716Y-47144728D01*
X53422550Y-47105375D01*
X53233217Y-47008904D01*
X53031129Y-46943242D01*
X52821246Y-46910000D01*
X52608754Y-46910000D01*
X52398872Y-46943242D01*
X52398869Y-46943242D01*
X52196782Y-47008904D01*
X52007439Y-47105380D01*
X51953282Y-47144727D01*
X51953282Y-47144728D01*
X52585591Y-47777037D01*
X52522007Y-47794075D01*
X52407993Y-47859901D01*
X52314901Y-47952993D01*
X52249075Y-48067007D01*
X52232037Y-48130591D01*
X51599728Y-47498282D01*
X51599727Y-47498282D01*
X51560380Y-47552440D01*
X51560378Y-47552443D01*
X51534984Y-47602282D01*
X51487010Y-47653077D01*
X51419189Y-47669872D01*
X51353054Y-47647334D01*
X51309603Y-47592619D01*
X51300500Y-47545986D01*
X51300500Y-42586737D01*
X51320185Y-42519698D01*
X51372989Y-42473943D01*
X51442147Y-42463999D01*
X51505703Y-42493024D01*
X51542431Y-42548419D01*
X51585904Y-42682217D01*
X51682375Y-42871550D01*
X51721728Y-42925716D01*
X52354037Y-42293408D01*
X52371075Y-42356993D01*
X52436901Y-42471007D01*
X52529993Y-42564099D01*
X52644007Y-42629925D01*
X52707590Y-42646962D01*
X52075282Y-43279269D01*
X52075282Y-43279270D01*
X52129449Y-43318624D01*
X52318782Y-43415095D01*
X52520870Y-43480757D01*
X52730754Y-43514000D01*
X52943246Y-43514000D01*
X53153127Y-43480757D01*
X53153130Y-43480757D01*
X53355217Y-43415095D01*
X53544554Y-43318622D01*
X53598716Y-43279270D01*
X53598717Y-43279270D01*
X52966408Y-42646962D01*
X53029993Y-42629925D01*
X53144007Y-42564099D01*
X53237099Y-42471007D01*
X53302925Y-42356993D01*
X53319962Y-42293409D01*
X53952270Y-42925717D01*
X53952270Y-42925716D01*
X53991622Y-42871554D01*
X54090306Y-42677879D01*
X54091321Y-42678396D01*
X54131779Y-42628192D01*
X54198073Y-42606127D01*
X54265772Y-42623406D01*
X54313383Y-42674542D01*
X54326500Y-42730048D01*
X54326500Y-43033752D01*
X54338131Y-43092229D01*
X54338132Y-43092230D01*
X54382447Y-43158552D01*
X54448769Y-43202867D01*
X54448770Y-43202868D01*
X54507247Y-43214499D01*
X54507250Y-43214500D01*
X54507252Y-43214500D01*
X56246750Y-43214500D01*
X56246751Y-43214499D01*
X56261568Y-43211552D01*
X56305229Y-43202868D01*
X56305229Y-43202867D01*
X56305231Y-43202867D01*
X56371552Y-43158552D01*
X56415867Y-43092231D01*
X56415867Y-43092229D01*
X56415868Y-43092229D01*
X56427499Y-43033752D01*
X56427500Y-43033750D01*
X56427500Y-41294249D01*
X56427499Y-41294247D01*
X56415868Y-41235770D01*
X56415867Y-41235769D01*
X56371552Y-41169447D01*
X56305230Y-41125132D01*
X56305229Y-41125131D01*
X56246752Y-41113500D01*
X56246748Y-41113500D01*
X54507252Y-41113500D01*
X54507247Y-41113500D01*
X54448770Y-41125131D01*
X54448769Y-41125132D01*
X54382447Y-41169447D01*
X54338132Y-41235769D01*
X54338131Y-41235770D01*
X54326500Y-41294247D01*
X54326500Y-41597951D01*
X54306815Y-41664990D01*
X54254011Y-41710745D01*
X54184853Y-41720689D01*
X54121297Y-41691664D01*
X54091061Y-41649736D01*
X54090306Y-41650121D01*
X53991624Y-41456449D01*
X53952270Y-41402282D01*
X53952269Y-41402282D01*
X53319962Y-42034590D01*
X53302925Y-41971007D01*
X53237099Y-41856993D01*
X53144007Y-41763901D01*
X53029993Y-41698075D01*
X52966409Y-41681037D01*
X53598716Y-41048728D01*
X53544550Y-41009375D01*
X53355217Y-40912904D01*
X53153129Y-40847242D01*
X52943246Y-40814000D01*
X52730754Y-40814000D01*
X52520872Y-40847242D01*
X52520869Y-40847242D01*
X52318782Y-40912904D01*
X52129439Y-41009380D01*
X52075282Y-41048727D01*
X52075282Y-41048728D01*
X52707591Y-41681037D01*
X52644007Y-41698075D01*
X52529993Y-41763901D01*
X52436901Y-41856993D01*
X52371075Y-41971007D01*
X52354037Y-42034591D01*
X51721728Y-41402282D01*
X51721727Y-41402282D01*
X51682380Y-41456439D01*
X51585904Y-41645783D01*
X51542431Y-41779580D01*
X51502994Y-41837256D01*
X51438635Y-41864454D01*
X51369789Y-41852539D01*
X51318313Y-41805295D01*
X51300500Y-41741262D01*
X51300500Y-40629500D01*
X51320185Y-40562461D01*
X51372989Y-40516706D01*
X51424500Y-40505500D01*
X163205500Y-40505500D01*
X163272539Y-40525185D01*
G37*
%TD.AperFunction*%
%TD*%
M02*
