M48
; DRILL file KiCad 10.0.5 date 2026-09-15T14:19:57
; FORMAT={-:-/ absolute / metric / decimal}
; #@! TF.CreationDate,2026-09-15T14:19:57-06:00
; #@! TF.GenerationSoftware,Kicad,Pcbnew,10.0.5
; #@! TF.FileFunction,Plated,1,2,PTH
FMAT,2
METRIC
; #@! TA.AperFunction,Plated,PTH,ViaDrill
T1C0.300
; #@! TA.AperFunction,Plated,PTH,ComponentDrill
T2C0.800
; #@! TA.AperFunction,Plated,PTH,ComponentDrill
T3C1.000
; #@! TA.AperFunction,Plated,PTH,ComponentDrill
T4C1.100
; #@! TA.AperFunction,Plated,PTH,ComponentDrill
T5C1.500
; #@! TA.AperFunction,Plated,PTH,ComponentDrill
T6C3.000
%
G90
G05
T1
X61.214Y-40.894
X61.722Y-43.434
X63.5Y-45.212
X80.518Y-98.806
X89.662Y-75.692
X91.948Y-75.692
X93.472Y-77.47
X93.98Y-85.09
X101.6Y-90.17
X103.505Y-88.265
X105.918Y-75.438
X106.934Y-52.324
X106.934Y-60.706
X109.22Y-80.01
X112.014Y-81.28
X112.014Y-95.758
X116.84Y-93.98
X117.856Y-84.582
X119.888Y-75.438
X124.46Y-95.25
X127.0Y-95.25
X138.43Y-99.568
X140.97Y-92.71
X141.478Y-58.674
X154.94Y-88.9
X159.766Y-58.674
T2
X120.203Y-81.28
X122.203Y-81.28
X130.681Y-96.52
X132.332Y-85.725
X134.181Y-96.52
X135.832Y-85.725
T3
X52.715Y-48.26
X52.715Y-71.755
X52.837Y-42.164
X55.255Y-48.26
X55.255Y-71.755
X55.377Y-42.164
X57.795Y-48.26
X57.795Y-71.755
X60.335Y-48.26
X60.335Y-71.755
X62.875Y-48.26
X62.875Y-71.755
X65.415Y-48.26
X65.415Y-71.755
X67.955Y-48.26
X67.955Y-71.755
X70.495Y-48.26
X70.495Y-71.755
X73.035Y-48.26
X73.035Y-71.755
X75.575Y-48.26
X75.575Y-71.755
X78.115Y-48.26
X78.115Y-71.755
X78.994Y-75.565
X80.655Y-48.26
X80.655Y-71.755
X81.32Y-92.918
X81.534Y-75.565
X83.195Y-48.26
X83.195Y-71.755
X83.82Y-92.918
X84.074Y-75.565
X85.735Y-48.26
X85.735Y-71.755
X86.32Y-92.918
X86.614Y-75.565
X88.275Y-48.26
X88.275Y-71.755
X90.815Y-48.26
X90.815Y-71.755
X93.355Y-48.26
X93.355Y-71.755
X95.895Y-48.26
X95.895Y-71.755
X98.435Y-48.26
X98.435Y-71.755
X100.975Y-48.26
X100.975Y-71.755
X135.25Y-56.85
X137.75Y-56.85
X140.25Y-56.85
X153.625Y-56.85
X156.125Y-56.85
X158.625Y-56.85
T4
X52.715Y-52.705
X52.715Y-67.945
X55.255Y-52.705
X55.255Y-67.945
X57.795Y-52.705
X57.795Y-67.945
X60.335Y-52.705
X60.335Y-67.945
X62.875Y-52.705
X62.875Y-67.945
X65.415Y-52.705
X65.415Y-67.945
X67.955Y-52.705
X67.955Y-67.945
X70.495Y-52.705
X70.495Y-67.945
X73.035Y-52.705
X73.035Y-67.945
X75.575Y-52.705
X75.575Y-67.945
X78.115Y-52.705
X78.115Y-67.945
X80.655Y-52.705
X80.655Y-67.945
X83.195Y-52.705
X83.195Y-67.945
X85.735Y-52.705
X85.735Y-67.945
X88.275Y-52.705
X88.275Y-67.945
X90.815Y-52.705
X90.815Y-67.945
X93.355Y-52.705
X93.355Y-67.945
X95.895Y-52.705
X95.895Y-67.945
X98.435Y-52.705
X98.435Y-67.945
X100.975Y-52.705
X100.975Y-67.945
T5
X55.626Y-83.255
X55.626Y-94.685
X68.326Y-83.255
X68.326Y-94.685
X146.532Y-67.26
X146.532Y-78.69
X159.232Y-67.26
X159.232Y-78.69
T6
X79.42Y-85.918
X88.22Y-85.918
X133.35Y-49.85
X142.15Y-49.85
X151.725Y-49.85
X160.525Y-49.85
T3
G00X150.114Y-95.29
M15
G01X150.114Y-96.29
M16
G05
G00X153.814Y-97.29
M15
G01X153.814Y-98.29
M16
G05
G00X155.614Y-95.29
M15
G01X155.614Y-96.29
M16
G05
G00X159.314Y-97.29
M15
G01X159.314Y-98.29
M16
G05
G00X161.714Y-95.29
M15
G01X161.714Y-96.29
M16
G05
M30
