%TF.GenerationSoftware,KiCad,Pcbnew,10.0.5*%
%TF.CreationDate,2026-09-15T14:19:57-06:00*%
%TF.ProjectId,seed3-carrier,73656564-332d-4636-9172-726965722e6b,rev?*%
%TF.SameCoordinates,Original*%
%TF.FileFunction,Soldermask,Top*%
%TF.FilePolarity,Negative*%
%FSLAX46Y46*%
G04 Gerber Fmt 4.6, Leading zero omitted, Abs format (unit mm)*
G04 Created by KiCad (PCBNEW 10.0.5) date 2026-09-15 14:19:57*
%MOMM*%
%LPD*%
G01*
G04 APERTURE LIST*
G04 Aperture macros list*
%AMRoundRect*
0 Rectangle with rounded corners*
0 $1 Rounding radius*
0 $2 $3 $4 $5 $6 $7 $8 $9 X,Y pos of 4 corners*
0 Add a 4 corners polygon primitive as box body*
4,1,4,$2,$3,$4,$5,$6,$7,$8,$9,$2,$3,0*
0 Add four circle primitives for the rounded corners*
1,1,$1+$1,$2,$3*
1,1,$1+$1,$4,$5*
1,1,$1+$1,$6,$7*
1,1,$1+$1,$8,$9*
0 Add four rect primitives between the rounded corners*
20,1,$1+$1,$2,$3,$4,$5,0*
20,1,$1+$1,$4,$5,$6,$7,0*
20,1,$1+$1,$6,$7,$8,$9,0*
20,1,$1+$1,$8,$9,$2,$3,0*%
G04 Aperture macros list end*
%ADD10C,3.000000*%
%ADD11C,2.000000*%
%ADD12RoundRect,0.250000X0.625000X-0.400000X0.625000X0.400000X-0.625000X0.400000X-0.625000X-0.400000X0*%
%ADD13C,1.800000*%
%ADD14C,4.400000*%
%ADD15RoundRect,0.250000X0.412500X0.650000X-0.412500X0.650000X-0.412500X-0.650000X0.412500X-0.650000X0*%
%ADD16RoundRect,0.250000X0.650000X-0.412500X0.650000X0.412500X-0.650000X0.412500X-0.650000X-0.412500X0*%
%ADD17RoundRect,0.250000X-0.412500X-0.650000X0.412500X-0.650000X0.412500X0.650000X-0.412500X0.650000X0*%
%ADD18RoundRect,0.150000X-0.825000X-0.150000X0.825000X-0.150000X0.825000X0.150000X-0.825000X0.150000X0*%
%ADD19R,1.700000X1.700000*%
%ADD20C,1.700000*%
%ADD21RoundRect,0.250000X1.100000X-0.412500X1.100000X0.412500X-1.100000X0.412500X-1.100000X-0.412500X0*%
%ADD22RoundRect,0.250000X-0.400000X-0.625000X0.400000X-0.625000X0.400000X0.625000X-0.400000X0.625000X0*%
%ADD23O,1.800000X2.800000*%
%ADD24RoundRect,0.250000X-0.650000X0.412500X-0.650000X-0.412500X0.650000X-0.412500X0.650000X0.412500X0*%
%ADD25RoundRect,0.250000X-0.625000X0.400000X-0.625000X-0.400000X0.625000X-0.400000X0.625000X0.400000X0*%
%ADD26RoundRect,0.250000X-0.550000X-0.550000X0.550000X-0.550000X0.550000X0.550000X-0.550000X0.550000X0*%
%ADD27C,1.600000*%
%ADD28RoundRect,0.150000X-0.587500X-0.150000X0.587500X-0.150000X0.587500X0.150000X-0.587500X0.150000X0*%
%ADD29RoundRect,0.250000X-0.412500X-1.100000X0.412500X-1.100000X0.412500X1.100000X-0.412500X1.100000X0*%
G04 APERTURE END LIST*
D10*
%TO.C,J1*%
X65176000Y-92555000D03*
D11*
X58826000Y-94685000D03*
X58826000Y-83255000D03*
D10*
X55626000Y-94685000D03*
X55626000Y-83255000D03*
X68326000Y-94685000D03*
X68326000Y-83255000D03*
%TD*%
D12*
%TO.C,R4*%
X154940000Y-87275000D03*
X154940000Y-84175000D03*
%TD*%
%TO.C,R1*%
X92202000Y-89942000D03*
X92202000Y-86842000D03*
%TD*%
D13*
%TO.C,RV1*%
X86320000Y-92918000D03*
X83820000Y-92918000D03*
X81320000Y-92918000D03*
D14*
X79420000Y-85918000D03*
X88220000Y-85918000D03*
%TD*%
D15*
%TO.C,C17*%
X120942500Y-86360000D03*
X117817500Y-86360000D03*
%TD*%
D12*
%TO.C,R5*%
X95250000Y-90196000D03*
X95250000Y-87096000D03*
%TD*%
D16*
%TO.C,C2*%
X106045000Y-80302500D03*
X106045000Y-77177500D03*
%TD*%
D17*
%TO.C,C3*%
X83527500Y-97028000D03*
X86652500Y-97028000D03*
%TD*%
D18*
%TO.C,U2*%
X116865000Y-88900000D03*
X116865000Y-90170000D03*
X116865000Y-91440000D03*
X116865000Y-92710000D03*
X121815000Y-92710000D03*
X121815000Y-91440000D03*
X121815000Y-90170000D03*
X121815000Y-88900000D03*
%TD*%
D19*
%TO.C,J6*%
X100975000Y-71755000D03*
D20*
X98435000Y-71755000D03*
X95895000Y-71755000D03*
X93355000Y-71755000D03*
X90815000Y-71755000D03*
X88275000Y-71755000D03*
X85735000Y-71755000D03*
X83195000Y-71755000D03*
X80655000Y-71755000D03*
X78115000Y-71755000D03*
X75575000Y-71755000D03*
X73035000Y-71755000D03*
X70495000Y-71755000D03*
X67955000Y-71755000D03*
X65415000Y-71755000D03*
X62875000Y-71755000D03*
X60335000Y-71755000D03*
X57795000Y-71755000D03*
X55255000Y-71755000D03*
X52715000Y-71755000D03*
%TD*%
D12*
%TO.C,R11*%
X112665000Y-89260000D03*
X112665000Y-86160000D03*
%TD*%
D21*
%TO.C,C12*%
X108855000Y-95257500D03*
X108855000Y-92132500D03*
%TD*%
D11*
%TO.C,TP5*%
X117855000Y-69370000D03*
%TD*%
D18*
%TO.C,U1*%
X94045000Y-80010000D03*
X94045000Y-81280000D03*
X94045000Y-82550000D03*
X94045000Y-83820000D03*
X98995000Y-83820000D03*
X98995000Y-82550000D03*
X98995000Y-81280000D03*
X98995000Y-80010000D03*
%TD*%
D13*
%TO.C,RV3*%
X158625000Y-56850000D03*
X156125000Y-56850000D03*
X153625000Y-56850000D03*
D14*
X151725000Y-49850000D03*
X160525000Y-49850000D03*
%TD*%
D22*
%TO.C,R10*%
X122815000Y-97505000D03*
X125915000Y-97505000D03*
%TD*%
D23*
%TO.C,J5*%
X153814000Y-97790000D03*
X155614000Y-95790000D03*
X161714000Y-95790000D03*
X159314000Y-97790000D03*
X150114000Y-95790000D03*
%TD*%
D24*
%TO.C,C16*%
X113935000Y-92647500D03*
X113935000Y-95772500D03*
%TD*%
D15*
%TO.C,C9*%
X61760500Y-45212000D03*
X58635500Y-45212000D03*
%TD*%
D10*
%TO.C,J2*%
X149682349Y-69390000D03*
D11*
X156032349Y-67260000D03*
X156032349Y-78690000D03*
D10*
X159232349Y-67260000D03*
X159232349Y-78690000D03*
X146532349Y-67260000D03*
X146532349Y-78690000D03*
%TD*%
D24*
%TO.C,C10*%
X105156000Y-57619500D03*
X105156000Y-60744500D03*
%TD*%
D12*
%TO.C,R2*%
X102235000Y-80290000D03*
X102235000Y-77190000D03*
%TD*%
D25*
%TO.C,R13*%
X140335000Y-96520000D03*
X140335000Y-99620000D03*
%TD*%
%TO.C,R8*%
X113030000Y-66395000D03*
X113030000Y-69495000D03*
%TD*%
D12*
%TO.C,R9*%
X108220000Y-89760000D03*
X108220000Y-86660000D03*
%TD*%
%TO.C,R12*%
X124730000Y-93340000D03*
X124730000Y-90240000D03*
%TD*%
D25*
%TO.C,R15*%
X144145000Y-96520000D03*
X144145000Y-99620000D03*
%TD*%
D19*
%TO.C,J7*%
X100975000Y-48260000D03*
D20*
X98435000Y-48260000D03*
X95895000Y-48260000D03*
X93355000Y-48260000D03*
X90815000Y-48260000D03*
X88275000Y-48260000D03*
X85735000Y-48260000D03*
X83195000Y-48260000D03*
X80655000Y-48260000D03*
X78115000Y-48260000D03*
X75575000Y-48260000D03*
X73035000Y-48260000D03*
X70495000Y-48260000D03*
X67955000Y-48260000D03*
X65415000Y-48260000D03*
X62875000Y-48260000D03*
X60335000Y-48260000D03*
X57795000Y-48260000D03*
X55255000Y-48260000D03*
X52715000Y-48260000D03*
%TD*%
D26*
%TO.C,C14*%
X130681349Y-96520000D03*
D27*
X134181349Y-96520000D03*
%TD*%
D28*
%TO.C,Q1*%
X58752500Y-41214000D03*
X58752500Y-43114000D03*
X60627500Y-42164000D03*
%TD*%
D26*
%TO.C,C18*%
X120202888Y-81280000D03*
D27*
X122202888Y-81280000D03*
%TD*%
D19*
%TO.C,J3*%
X55377000Y-42164000D03*
D20*
X52837000Y-42164000D03*
%TD*%
D25*
%TO.C,R16*%
X146050000Y-88620000D03*
X146050000Y-91720000D03*
%TD*%
D17*
%TO.C,C1*%
X77431500Y-97028000D03*
X80556500Y-97028000D03*
%TD*%
D12*
%TO.C,R6*%
X99060000Y-89815000D03*
X99060000Y-86715000D03*
%TD*%
D17*
%TO.C,C8*%
X94957500Y-77470000D03*
X98082500Y-77470000D03*
%TD*%
D19*
%TO.C,A1*%
X52715000Y-67945000D03*
D20*
X55255000Y-67945000D03*
X57795000Y-67945000D03*
X60335000Y-67945000D03*
X62875000Y-67945000D03*
X65415000Y-67945000D03*
X67955000Y-67945000D03*
X70495000Y-67945000D03*
X73035000Y-67945000D03*
X75575000Y-67945000D03*
X78115000Y-67945000D03*
X80655000Y-67945000D03*
X83195000Y-67945000D03*
X85735000Y-67945000D03*
X88275000Y-67945000D03*
X90815000Y-67945000D03*
X93355000Y-67945000D03*
X95895000Y-67945000D03*
X98435000Y-67945000D03*
X100975000Y-67945000D03*
X100975000Y-52705000D03*
X98435000Y-52705000D03*
X95895000Y-52705000D03*
X93355000Y-52705000D03*
X90815000Y-52705000D03*
X88275000Y-52705000D03*
X85735000Y-52705000D03*
X83195000Y-52705000D03*
X80655000Y-52705000D03*
X78115000Y-52705000D03*
X75575000Y-52705000D03*
X73035000Y-52705000D03*
X70495000Y-52705000D03*
X67955000Y-52705000D03*
X65415000Y-52705000D03*
X62875000Y-52705000D03*
X60335000Y-52705000D03*
X57795000Y-52705000D03*
X55255000Y-52705000D03*
X52715000Y-52705000D03*
%TD*%
D16*
%TO.C,C11*%
X105156000Y-55410500D03*
X105156000Y-52285500D03*
%TD*%
D25*
%TO.C,R3*%
X151130000Y-84175000D03*
X151130000Y-87275000D03*
%TD*%
D19*
%TO.C,J4*%
X78994000Y-75565000D03*
D20*
X81534000Y-75565000D03*
X84074000Y-75565000D03*
X86614000Y-75565000D03*
%TD*%
D16*
%TO.C,C5*%
X102235000Y-86017500D03*
X102235000Y-82892500D03*
%TD*%
D25*
%TO.C,R7*%
X113030000Y-72345000D03*
X113030000Y-75445000D03*
%TD*%
D13*
%TO.C,RV2*%
X140250000Y-56850000D03*
X137750000Y-56850000D03*
X135250000Y-56850000D03*
D14*
X133350000Y-49850000D03*
X142150000Y-49850000D03*
%TD*%
D29*
%TO.C,C13*%
X117302500Y-97505000D03*
X120427500Y-97505000D03*
%TD*%
D11*
%TO.C,TP9*%
X125365000Y-86710000D03*
%TD*%
D25*
%TO.C,R14*%
X140970000Y-87985000D03*
X140970000Y-91085000D03*
%TD*%
D21*
%TO.C,C7*%
X117530000Y-75457500D03*
X117530000Y-72332500D03*
%TD*%
D26*
%TO.C,C15*%
X132332349Y-85725000D03*
D27*
X135832349Y-85725000D03*
%TD*%
M02*
