%TF.GenerationSoftware,KiCad,Pcbnew,10.0.5*%
%TF.CreationDate,2026-09-15T14:19:57-06:00*%
%TF.ProjectId,seed3-carrier,73656564-332d-4636-9172-726965722e6b,rev?*%
%TF.SameCoordinates,Original*%
%TF.FileFunction,Soldermask,Bot*%
%TF.FilePolarity,Negative*%
%FSLAX46Y46*%
G04 Gerber Fmt 4.6, Leading zero omitted, Abs format (unit mm)*
G04 Created by KiCad (PCBNEW 10.0.5) date 2026-09-15 14:19:57*
%MOMM*%
%LPD*%
G01*
G04 APERTURE LIST*
G04 Aperture macros list*
%AMRoundRect*
0 Rectangle with rounded corners*
0 $1 Rounding radius*
0 $2 $3 $4 $5 $6 $7 $8 $9 X,Y pos of 4 corners*
0 Add a 4 corners polygon primitive as box body*
4,1,4,$2,$3,$4,$5,$6,$7,$8,$9,$2,$3,0*
0 Add four circle primitives for the rounded corners*
1,1,$1+$1,$2,$3*
1,1,$1+$1,$4,$5*
1,1,$1+$1,$6,$7*
1,1,$1+$1,$8,$9*
0 Add four rect primitives between the rounded corners*
20,1,$1+$1,$2,$3,$4,$5,0*
20,1,$1+$1,$4,$5,$6,$7,0*
20,1,$1+$1,$6,$7,$8,$9,0*
20,1,$1+$1,$8,$9,$2,$3,0*%
G04 Aperture macros list end*
%ADD10C,3.000000*%
%ADD11C,2.000000*%
%ADD12C,1.800000*%
%ADD13C,4.400000*%
%ADD14R,1.700000X1.700000*%
%ADD15C,1.700000*%
%ADD16O,1.800000X2.800000*%
%ADD17RoundRect,0.250000X-0.550000X-0.550000X0.550000X-0.550000X0.550000X0.550000X-0.550000X0.550000X0*%
%ADD18C,1.600000*%
G04 APERTURE END LIST*
D10*
%TO.C,J1*%
X65176000Y-92555000D03*
D11*
X58826000Y-94685000D03*
X58826000Y-83255000D03*
D10*
X55626000Y-94685000D03*
X55626000Y-83255000D03*
X68326000Y-94685000D03*
X68326000Y-83255000D03*
%TD*%
D12*
%TO.C,RV1*%
X86320000Y-92918000D03*
X83820000Y-92918000D03*
X81320000Y-92918000D03*
D13*
X79420000Y-85918000D03*
X88220000Y-85918000D03*
%TD*%
D14*
%TO.C,J6*%
X100975000Y-71755000D03*
D15*
X98435000Y-71755000D03*
X95895000Y-71755000D03*
X93355000Y-71755000D03*
X90815000Y-71755000D03*
X88275000Y-71755000D03*
X85735000Y-71755000D03*
X83195000Y-71755000D03*
X80655000Y-71755000D03*
X78115000Y-71755000D03*
X75575000Y-71755000D03*
X73035000Y-71755000D03*
X70495000Y-71755000D03*
X67955000Y-71755000D03*
X65415000Y-71755000D03*
X62875000Y-71755000D03*
X60335000Y-71755000D03*
X57795000Y-71755000D03*
X55255000Y-71755000D03*
X52715000Y-71755000D03*
%TD*%
D12*
%TO.C,RV3*%
X158625000Y-56850000D03*
X156125000Y-56850000D03*
X153625000Y-56850000D03*
D13*
X151725000Y-49850000D03*
X160525000Y-49850000D03*
%TD*%
D16*
%TO.C,J5*%
X153814000Y-97790000D03*
X155614000Y-95790000D03*
X161714000Y-95790000D03*
X159314000Y-97790000D03*
X150114000Y-95790000D03*
%TD*%
D10*
%TO.C,J2*%
X149682349Y-69390000D03*
D11*
X156032349Y-67260000D03*
X156032349Y-78690000D03*
D10*
X159232349Y-67260000D03*
X159232349Y-78690000D03*
X146532349Y-67260000D03*
X146532349Y-78690000D03*
%TD*%
D14*
%TO.C,J7*%
X100975000Y-48260000D03*
D15*
X98435000Y-48260000D03*
X95895000Y-48260000D03*
X93355000Y-48260000D03*
X90815000Y-48260000D03*
X88275000Y-48260000D03*
X85735000Y-48260000D03*
X83195000Y-48260000D03*
X80655000Y-48260000D03*
X78115000Y-48260000D03*
X75575000Y-48260000D03*
X73035000Y-48260000D03*
X70495000Y-48260000D03*
X67955000Y-48260000D03*
X65415000Y-48260000D03*
X62875000Y-48260000D03*
X60335000Y-48260000D03*
X57795000Y-48260000D03*
X55255000Y-48260000D03*
X52715000Y-48260000D03*
%TD*%
D17*
%TO.C,C14*%
X130681349Y-96520000D03*
D18*
X134181349Y-96520000D03*
%TD*%
D17*
%TO.C,C18*%
X120202888Y-81280000D03*
D18*
X122202888Y-81280000D03*
%TD*%
D14*
%TO.C,J3*%
X55377000Y-42164000D03*
D15*
X52837000Y-42164000D03*
%TD*%
D14*
%TO.C,A1*%
X52715000Y-67945000D03*
D15*
X55255000Y-67945000D03*
X57795000Y-67945000D03*
X60335000Y-67945000D03*
X62875000Y-67945000D03*
X65415000Y-67945000D03*
X67955000Y-67945000D03*
X70495000Y-67945000D03*
X73035000Y-67945000D03*
X75575000Y-67945000D03*
X78115000Y-67945000D03*
X80655000Y-67945000D03*
X83195000Y-67945000D03*
X85735000Y-67945000D03*
X88275000Y-67945000D03*
X90815000Y-67945000D03*
X93355000Y-67945000D03*
X95895000Y-67945000D03*
X98435000Y-67945000D03*
X100975000Y-67945000D03*
X100975000Y-52705000D03*
X98435000Y-52705000D03*
X95895000Y-52705000D03*
X93355000Y-52705000D03*
X90815000Y-52705000D03*
X88275000Y-52705000D03*
X85735000Y-52705000D03*
X83195000Y-52705000D03*
X80655000Y-52705000D03*
X78115000Y-52705000D03*
X75575000Y-52705000D03*
X73035000Y-52705000D03*
X70495000Y-52705000D03*
X67955000Y-52705000D03*
X65415000Y-52705000D03*
X62875000Y-52705000D03*
X60335000Y-52705000D03*
X57795000Y-52705000D03*
X55255000Y-52705000D03*
X52715000Y-52705000D03*
%TD*%
D14*
%TO.C,J4*%
X78994000Y-75565000D03*
D15*
X81534000Y-75565000D03*
X84074000Y-75565000D03*
X86614000Y-75565000D03*
%TD*%
D12*
%TO.C,RV2*%
X140250000Y-56850000D03*
X137750000Y-56850000D03*
X135250000Y-56850000D03*
D13*
X133350000Y-49850000D03*
X142150000Y-49850000D03*
%TD*%
D17*
%TO.C,C15*%
X132332349Y-85725000D03*
D18*
X135832349Y-85725000D03*
%TD*%
M02*
