%TF.GenerationSoftware,KiCad,Pcbnew,10.0.5*%
%TF.CreationDate,2026-09-15T15:09:19-06:00*%
%TF.ProjectId,seed3-carrier,73656564-332d-4636-9172-726965722e6b,rev?*%
%TF.SameCoordinates,Original*%
%TF.FileFunction,Legend,Top*%
%TF.FilePolarity,Positive*%
%FSLAX46Y46*%
G04 Gerber Fmt 4.6, Leading zero omitted, Abs format (unit mm)*
G04 Created by KiCad (PCBNEW 10.0.5) date 2026-09-15 15:09:19*
%MOMM*%
%LPD*%
G01*
G04 APERTURE LIST*
G04 Aperture macros list*
%AMRoundRect*
0 Rectangle with rounded corners*
0 $1 Rounding radius*
0 $2 $3 $4 $5 $6 $7 $8 $9 X,Y pos of 4 corners*
0 Add a 4 corners polygon primitive as box body*
4,1,4,$2,$3,$4,$5,$6,$7,$8,$9,$2,$3,0*
0 Add four circle primitives for the rounded corners*
1,1,$1+$1,$2,$3*
1,1,$1+$1,$4,$5*
1,1,$1+$1,$6,$7*
1,1,$1+$1,$8,$9*
0 Add four rect primitives between the rounded corners*
20,1,$1+$1,$2,$3,$4,$5,0*
20,1,$1+$1,$4,$5,$6,$7,0*
20,1,$1+$1,$6,$7,$8,$9,0*
20,1,$1+$1,$8,$9,$2,$3,0*%
G04 Aperture macros list end*
%ADD10C,0.150000*%
%ADD11C,0.120000*%
%ADD12C,3.000000*%
%ADD13C,2.000000*%
%ADD14RoundRect,0.250000X0.625000X-0.400000X0.625000X0.400000X-0.625000X0.400000X-0.625000X-0.400000X0*%
%ADD15C,1.800000*%
%ADD16C,4.400000*%
%ADD17RoundRect,0.250000X0.412500X0.650000X-0.412500X0.650000X-0.412500X-0.650000X0.412500X-0.650000X0*%
%ADD18RoundRect,0.250000X0.650000X-0.412500X0.650000X0.412500X-0.650000X0.412500X-0.650000X-0.412500X0*%
%ADD19RoundRect,0.250000X-0.412500X-0.650000X0.412500X-0.650000X0.412500X0.650000X-0.412500X0.650000X0*%
%ADD20RoundRect,0.150000X-0.825000X-0.150000X0.825000X-0.150000X0.825000X0.150000X-0.825000X0.150000X0*%
%ADD21R,1.700000X1.700000*%
%ADD22C,1.700000*%
%ADD23RoundRect,0.250000X-0.412500X-1.100000X0.412500X-1.100000X0.412500X1.100000X-0.412500X1.100000X0*%
%ADD24RoundRect,0.250000X-0.400000X-0.625000X0.400000X-0.625000X0.400000X0.625000X-0.400000X0.625000X0*%
%ADD25O,1.800000X2.800000*%
%ADD26RoundRect,0.250000X-0.650000X0.412500X-0.650000X-0.412500X0.650000X-0.412500X0.650000X0.412500X0*%
%ADD27RoundRect,0.250000X-0.625000X0.400000X-0.625000X-0.400000X0.625000X-0.400000X0.625000X0.400000X0*%
%ADD28RoundRect,0.250000X-0.550000X-0.550000X0.550000X-0.550000X0.550000X0.550000X-0.550000X0.550000X0*%
%ADD29C,1.600000*%
%ADD30RoundRect,0.150000X-0.587500X-0.150000X0.587500X-0.150000X0.587500X0.150000X-0.587500X0.150000X0*%
%ADD31RoundRect,0.250000X1.100000X-0.412500X1.100000X0.412500X-1.100000X0.412500X-1.100000X-0.412500X0*%
G04 APERTURE END LIST*
D10*
X51660588Y-44383438D02*
X51565350Y-44335819D01*
X51565350Y-44335819D02*
X51422493Y-44335819D01*
X51422493Y-44335819D02*
X51279636Y-44383438D01*
X51279636Y-44383438D02*
X51184398Y-44478676D01*
X51184398Y-44478676D02*
X51136779Y-44573914D01*
X51136779Y-44573914D02*
X51089160Y-44764390D01*
X51089160Y-44764390D02*
X51089160Y-44907247D01*
X51089160Y-44907247D02*
X51136779Y-45097723D01*
X51136779Y-45097723D02*
X51184398Y-45192961D01*
X51184398Y-45192961D02*
X51279636Y-45288200D01*
X51279636Y-45288200D02*
X51422493Y-45335819D01*
X51422493Y-45335819D02*
X51517731Y-45335819D01*
X51517731Y-45335819D02*
X51660588Y-45288200D01*
X51660588Y-45288200D02*
X51708207Y-45240580D01*
X51708207Y-45240580D02*
X51708207Y-44907247D01*
X51708207Y-44907247D02*
X51517731Y-44907247D01*
X52136779Y-45335819D02*
X52136779Y-44335819D01*
X52136779Y-44335819D02*
X52708207Y-45335819D01*
X52708207Y-45335819D02*
X52708207Y-44335819D01*
X53184398Y-45335819D02*
X53184398Y-44335819D01*
X53184398Y-44335819D02*
X53422493Y-44335819D01*
X53422493Y-44335819D02*
X53565350Y-44383438D01*
X53565350Y-44383438D02*
X53660588Y-44478676D01*
X53660588Y-44478676D02*
X53708207Y-44573914D01*
X53708207Y-44573914D02*
X53755826Y-44764390D01*
X53755826Y-44764390D02*
X53755826Y-44907247D01*
X53755826Y-44907247D02*
X53708207Y-45097723D01*
X53708207Y-45097723D02*
X53660588Y-45192961D01*
X53660588Y-45192961D02*
X53565350Y-45288200D01*
X53565350Y-45288200D02*
X53422493Y-45335819D01*
X53422493Y-45335819D02*
X53184398Y-45335819D01*
X56438969Y-44335819D02*
X55962779Y-44335819D01*
X55962779Y-44335819D02*
X55915160Y-44812009D01*
X55915160Y-44812009D02*
X55962779Y-44764390D01*
X55962779Y-44764390D02*
X56058017Y-44716771D01*
X56058017Y-44716771D02*
X56296112Y-44716771D01*
X56296112Y-44716771D02*
X56391350Y-44764390D01*
X56391350Y-44764390D02*
X56438969Y-44812009D01*
X56438969Y-44812009D02*
X56486588Y-44907247D01*
X56486588Y-44907247D02*
X56486588Y-45145342D01*
X56486588Y-45145342D02*
X56438969Y-45240580D01*
X56438969Y-45240580D02*
X56391350Y-45288200D01*
X56391350Y-45288200D02*
X56296112Y-45335819D01*
X56296112Y-45335819D02*
X56058017Y-45335819D01*
X56058017Y-45335819D02*
X55962779Y-45288200D01*
X55962779Y-45288200D02*
X55915160Y-45240580D01*
X56772303Y-44335819D02*
X57105636Y-45335819D01*
X57105636Y-45335819D02*
X57438969Y-44335819D01*
X67900684Y-41703264D02*
X67138779Y-41988978D01*
X67138779Y-41988978D02*
X67900684Y-42274692D01*
X68376874Y-41988978D02*
X69138779Y-41988978D01*
X69614969Y-41988978D02*
X70376874Y-41988978D01*
X72091159Y-41369931D02*
X71614969Y-41369931D01*
X71614969Y-41369931D02*
X71567350Y-41846121D01*
X71567350Y-41846121D02*
X71614969Y-41798502D01*
X71614969Y-41798502D02*
X71710207Y-41750883D01*
X71710207Y-41750883D02*
X71948302Y-41750883D01*
X71948302Y-41750883D02*
X72043540Y-41798502D01*
X72043540Y-41798502D02*
X72091159Y-41846121D01*
X72091159Y-41846121D02*
X72138778Y-41941359D01*
X72138778Y-41941359D02*
X72138778Y-42179454D01*
X72138778Y-42179454D02*
X72091159Y-42274692D01*
X72091159Y-42274692D02*
X72043540Y-42322312D01*
X72043540Y-42322312D02*
X71948302Y-42369931D01*
X71948302Y-42369931D02*
X71710207Y-42369931D01*
X71710207Y-42369931D02*
X71614969Y-42322312D01*
X71614969Y-42322312D02*
X71567350Y-42274692D01*
X72424493Y-41369931D02*
X72757826Y-42369931D01*
X72757826Y-42369931D02*
X73091159Y-41369931D01*
X74186398Y-42369931D02*
X74186398Y-41369931D01*
X74662588Y-42369931D02*
X74662588Y-41369931D01*
X74662588Y-41369931D02*
X75234016Y-42369931D01*
X75234016Y-42369931D02*
X75234016Y-41369931D01*
X75710207Y-42369931D02*
X75710207Y-41369931D01*
X75710207Y-41369931D02*
X76091159Y-41369931D01*
X76091159Y-41369931D02*
X76186397Y-41417550D01*
X76186397Y-41417550D02*
X76234016Y-41465169D01*
X76234016Y-41465169D02*
X76281635Y-41560407D01*
X76281635Y-41560407D02*
X76281635Y-41703264D01*
X76281635Y-41703264D02*
X76234016Y-41798502D01*
X76234016Y-41798502D02*
X76186397Y-41846121D01*
X76186397Y-41846121D02*
X76091159Y-41893740D01*
X76091159Y-41893740D02*
X75710207Y-41893740D01*
X76710207Y-41369931D02*
X76710207Y-42179454D01*
X76710207Y-42179454D02*
X76757826Y-42274692D01*
X76757826Y-42274692D02*
X76805445Y-42322312D01*
X76805445Y-42322312D02*
X76900683Y-42369931D01*
X76900683Y-42369931D02*
X77091159Y-42369931D01*
X77091159Y-42369931D02*
X77186397Y-42322312D01*
X77186397Y-42322312D02*
X77234016Y-42274692D01*
X77234016Y-42274692D02*
X77281635Y-42179454D01*
X77281635Y-42179454D02*
X77281635Y-41369931D01*
X77614969Y-41369931D02*
X78186397Y-41369931D01*
X77900683Y-42369931D02*
X77900683Y-41369931D01*
X79281636Y-42274692D02*
X79329255Y-42322312D01*
X79329255Y-42322312D02*
X79281636Y-42369931D01*
X79281636Y-42369931D02*
X79234017Y-42322312D01*
X79234017Y-42322312D02*
X79281636Y-42274692D01*
X79281636Y-42274692D02*
X79281636Y-42369931D01*
X79281636Y-41750883D02*
X79329255Y-41798502D01*
X79329255Y-41798502D02*
X79281636Y-41846121D01*
X79281636Y-41846121D02*
X79234017Y-41798502D01*
X79234017Y-41798502D02*
X79281636Y-41750883D01*
X79281636Y-41750883D02*
X79281636Y-41846121D01*
X79757826Y-42369931D02*
X79757826Y-41369931D01*
X79757826Y-41369931D02*
X79995921Y-41369931D01*
X79995921Y-41369931D02*
X80138778Y-41417550D01*
X80138778Y-41417550D02*
X80234016Y-41512788D01*
X80234016Y-41512788D02*
X80281635Y-41608026D01*
X80281635Y-41608026D02*
X80329254Y-41798502D01*
X80329254Y-41798502D02*
X80329254Y-41941359D01*
X80329254Y-41941359D02*
X80281635Y-42131835D01*
X80281635Y-42131835D02*
X80234016Y-42227073D01*
X80234016Y-42227073D02*
X80138778Y-42322312D01*
X80138778Y-42322312D02*
X79995921Y-42369931D01*
X79995921Y-42369931D02*
X79757826Y-42369931D01*
X67138779Y-43313208D02*
X67138779Y-44313208D01*
X67138779Y-43360827D02*
X67234017Y-43313208D01*
X67234017Y-43313208D02*
X67424493Y-43313208D01*
X67424493Y-43313208D02*
X67519731Y-43360827D01*
X67519731Y-43360827D02*
X67567350Y-43408446D01*
X67567350Y-43408446D02*
X67614969Y-43503684D01*
X67614969Y-43503684D02*
X67614969Y-43789398D01*
X67614969Y-43789398D02*
X67567350Y-43884636D01*
X67567350Y-43884636D02*
X67519731Y-43932256D01*
X67519731Y-43932256D02*
X67424493Y-43979875D01*
X67424493Y-43979875D02*
X67234017Y-43979875D01*
X67234017Y-43979875D02*
X67138779Y-43932256D01*
X68186398Y-43979875D02*
X68091160Y-43932256D01*
X68091160Y-43932256D02*
X68043541Y-43837017D01*
X68043541Y-43837017D02*
X68043541Y-42979875D01*
X68948303Y-43932256D02*
X68853065Y-43979875D01*
X68853065Y-43979875D02*
X68662589Y-43979875D01*
X68662589Y-43979875D02*
X68567351Y-43932256D01*
X68567351Y-43932256D02*
X68519732Y-43837017D01*
X68519732Y-43837017D02*
X68519732Y-43456065D01*
X68519732Y-43456065D02*
X68567351Y-43360827D01*
X68567351Y-43360827D02*
X68662589Y-43313208D01*
X68662589Y-43313208D02*
X68853065Y-43313208D01*
X68853065Y-43313208D02*
X68948303Y-43360827D01*
X68948303Y-43360827D02*
X68995922Y-43456065D01*
X68995922Y-43456065D02*
X68995922Y-43551303D01*
X68995922Y-43551303D02*
X68519732Y-43646541D01*
X69853065Y-43979875D02*
X69853065Y-43456065D01*
X69853065Y-43456065D02*
X69805446Y-43360827D01*
X69805446Y-43360827D02*
X69710208Y-43313208D01*
X69710208Y-43313208D02*
X69519732Y-43313208D01*
X69519732Y-43313208D02*
X69424494Y-43360827D01*
X69853065Y-43932256D02*
X69757827Y-43979875D01*
X69757827Y-43979875D02*
X69519732Y-43979875D01*
X69519732Y-43979875D02*
X69424494Y-43932256D01*
X69424494Y-43932256D02*
X69376875Y-43837017D01*
X69376875Y-43837017D02*
X69376875Y-43741779D01*
X69376875Y-43741779D02*
X69424494Y-43646541D01*
X69424494Y-43646541D02*
X69519732Y-43598922D01*
X69519732Y-43598922D02*
X69757827Y-43598922D01*
X69757827Y-43598922D02*
X69853065Y-43551303D01*
X70281637Y-43932256D02*
X70376875Y-43979875D01*
X70376875Y-43979875D02*
X70567351Y-43979875D01*
X70567351Y-43979875D02*
X70662589Y-43932256D01*
X70662589Y-43932256D02*
X70710208Y-43837017D01*
X70710208Y-43837017D02*
X70710208Y-43789398D01*
X70710208Y-43789398D02*
X70662589Y-43694160D01*
X70662589Y-43694160D02*
X70567351Y-43646541D01*
X70567351Y-43646541D02*
X70424494Y-43646541D01*
X70424494Y-43646541D02*
X70329256Y-43598922D01*
X70329256Y-43598922D02*
X70281637Y-43503684D01*
X70281637Y-43503684D02*
X70281637Y-43456065D01*
X70281637Y-43456065D02*
X70329256Y-43360827D01*
X70329256Y-43360827D02*
X70424494Y-43313208D01*
X70424494Y-43313208D02*
X70567351Y-43313208D01*
X70567351Y-43313208D02*
X70662589Y-43360827D01*
X71519732Y-43932256D02*
X71424494Y-43979875D01*
X71424494Y-43979875D02*
X71234018Y-43979875D01*
X71234018Y-43979875D02*
X71138780Y-43932256D01*
X71138780Y-43932256D02*
X71091161Y-43837017D01*
X71091161Y-43837017D02*
X71091161Y-43456065D01*
X71091161Y-43456065D02*
X71138780Y-43360827D01*
X71138780Y-43360827D02*
X71234018Y-43313208D01*
X71234018Y-43313208D02*
X71424494Y-43313208D01*
X71424494Y-43313208D02*
X71519732Y-43360827D01*
X71519732Y-43360827D02*
X71567351Y-43456065D01*
X71567351Y-43456065D02*
X71567351Y-43551303D01*
X71567351Y-43551303D02*
X71091161Y-43646541D01*
X73186399Y-43979875D02*
X73186399Y-42979875D01*
X73186399Y-43932256D02*
X73091161Y-43979875D01*
X73091161Y-43979875D02*
X72900685Y-43979875D01*
X72900685Y-43979875D02*
X72805447Y-43932256D01*
X72805447Y-43932256D02*
X72757828Y-43884636D01*
X72757828Y-43884636D02*
X72710209Y-43789398D01*
X72710209Y-43789398D02*
X72710209Y-43503684D01*
X72710209Y-43503684D02*
X72757828Y-43408446D01*
X72757828Y-43408446D02*
X72805447Y-43360827D01*
X72805447Y-43360827D02*
X72900685Y-43313208D01*
X72900685Y-43313208D02*
X73091161Y-43313208D01*
X73091161Y-43313208D02*
X73186399Y-43360827D01*
X73805447Y-43979875D02*
X73710209Y-43932256D01*
X73710209Y-43932256D02*
X73662590Y-43884636D01*
X73662590Y-43884636D02*
X73614971Y-43789398D01*
X73614971Y-43789398D02*
X73614971Y-43503684D01*
X73614971Y-43503684D02*
X73662590Y-43408446D01*
X73662590Y-43408446D02*
X73710209Y-43360827D01*
X73710209Y-43360827D02*
X73805447Y-43313208D01*
X73805447Y-43313208D02*
X73948304Y-43313208D01*
X73948304Y-43313208D02*
X74043542Y-43360827D01*
X74043542Y-43360827D02*
X74091161Y-43408446D01*
X74091161Y-43408446D02*
X74138780Y-43503684D01*
X74138780Y-43503684D02*
X74138780Y-43789398D01*
X74138780Y-43789398D02*
X74091161Y-43884636D01*
X74091161Y-43884636D02*
X74043542Y-43932256D01*
X74043542Y-43932256D02*
X73948304Y-43979875D01*
X73948304Y-43979875D02*
X73805447Y-43979875D01*
X74567352Y-43313208D02*
X74567352Y-43979875D01*
X74567352Y-43408446D02*
X74614971Y-43360827D01*
X74614971Y-43360827D02*
X74710209Y-43313208D01*
X74710209Y-43313208D02*
X74853066Y-43313208D01*
X74853066Y-43313208D02*
X74948304Y-43360827D01*
X74948304Y-43360827D02*
X74995923Y-43456065D01*
X74995923Y-43456065D02*
X74995923Y-43979875D01*
X75329257Y-43313208D02*
X75710209Y-43313208D01*
X75472114Y-42979875D02*
X75472114Y-43837017D01*
X75472114Y-43837017D02*
X75519733Y-43932256D01*
X75519733Y-43932256D02*
X75614971Y-43979875D01*
X75614971Y-43979875D02*
X75710209Y-43979875D01*
X76805448Y-43313208D02*
X76805448Y-44313208D01*
X76805448Y-43360827D02*
X76900686Y-43313208D01*
X76900686Y-43313208D02*
X77091162Y-43313208D01*
X77091162Y-43313208D02*
X77186400Y-43360827D01*
X77186400Y-43360827D02*
X77234019Y-43408446D01*
X77234019Y-43408446D02*
X77281638Y-43503684D01*
X77281638Y-43503684D02*
X77281638Y-43789398D01*
X77281638Y-43789398D02*
X77234019Y-43884636D01*
X77234019Y-43884636D02*
X77186400Y-43932256D01*
X77186400Y-43932256D02*
X77091162Y-43979875D01*
X77091162Y-43979875D02*
X76900686Y-43979875D01*
X76900686Y-43979875D02*
X76805448Y-43932256D01*
X77853067Y-43979875D02*
X77757829Y-43932256D01*
X77757829Y-43932256D02*
X77710210Y-43837017D01*
X77710210Y-43837017D02*
X77710210Y-42979875D01*
X78662591Y-43313208D02*
X78662591Y-43979875D01*
X78234020Y-43313208D02*
X78234020Y-43837017D01*
X78234020Y-43837017D02*
X78281639Y-43932256D01*
X78281639Y-43932256D02*
X78376877Y-43979875D01*
X78376877Y-43979875D02*
X78519734Y-43979875D01*
X78519734Y-43979875D02*
X78614972Y-43932256D01*
X78614972Y-43932256D02*
X78662591Y-43884636D01*
X79567353Y-43313208D02*
X79567353Y-44122732D01*
X79567353Y-44122732D02*
X79519734Y-44217970D01*
X79519734Y-44217970D02*
X79472115Y-44265589D01*
X79472115Y-44265589D02*
X79376877Y-44313208D01*
X79376877Y-44313208D02*
X79234020Y-44313208D01*
X79234020Y-44313208D02*
X79138782Y-44265589D01*
X79567353Y-43932256D02*
X79472115Y-43979875D01*
X79472115Y-43979875D02*
X79281639Y-43979875D01*
X79281639Y-43979875D02*
X79186401Y-43932256D01*
X79186401Y-43932256D02*
X79138782Y-43884636D01*
X79138782Y-43884636D02*
X79091163Y-43789398D01*
X79091163Y-43789398D02*
X79091163Y-43503684D01*
X79091163Y-43503684D02*
X79138782Y-43408446D01*
X79138782Y-43408446D02*
X79186401Y-43360827D01*
X79186401Y-43360827D02*
X79281639Y-43313208D01*
X79281639Y-43313208D02*
X79472115Y-43313208D01*
X79472115Y-43313208D02*
X79567353Y-43360827D01*
X80805449Y-43979875D02*
X80805449Y-43313208D01*
X80805449Y-42979875D02*
X80757830Y-43027494D01*
X80757830Y-43027494D02*
X80805449Y-43075113D01*
X80805449Y-43075113D02*
X80853068Y-43027494D01*
X80853068Y-43027494D02*
X80805449Y-42979875D01*
X80805449Y-42979875D02*
X80805449Y-43075113D01*
X81138782Y-43313208D02*
X81519734Y-43313208D01*
X81281639Y-42979875D02*
X81281639Y-43837017D01*
X81281639Y-43837017D02*
X81329258Y-43932256D01*
X81329258Y-43932256D02*
X81424496Y-43979875D01*
X81424496Y-43979875D02*
X81519734Y-43979875D01*
X67138779Y-45589819D02*
X67138779Y-44923152D01*
X67138779Y-44589819D02*
X67091160Y-44637438D01*
X67091160Y-44637438D02*
X67138779Y-44685057D01*
X67138779Y-44685057D02*
X67186398Y-44637438D01*
X67186398Y-44637438D02*
X67138779Y-44589819D01*
X67138779Y-44589819D02*
X67138779Y-44685057D01*
X67614969Y-44923152D02*
X67614969Y-45589819D01*
X67614969Y-45018390D02*
X67662588Y-44970771D01*
X67662588Y-44970771D02*
X67757826Y-44923152D01*
X67757826Y-44923152D02*
X67900683Y-44923152D01*
X67900683Y-44923152D02*
X67995921Y-44970771D01*
X67995921Y-44970771D02*
X68043540Y-45066009D01*
X68043540Y-45066009D02*
X68043540Y-45589819D01*
X69281636Y-45589819D02*
X69281636Y-44589819D01*
X69281636Y-44970771D02*
X69376874Y-44923152D01*
X69376874Y-44923152D02*
X69567350Y-44923152D01*
X69567350Y-44923152D02*
X69662588Y-44970771D01*
X69662588Y-44970771D02*
X69710207Y-45018390D01*
X69710207Y-45018390D02*
X69757826Y-45113628D01*
X69757826Y-45113628D02*
X69757826Y-45399342D01*
X69757826Y-45399342D02*
X69710207Y-45494580D01*
X69710207Y-45494580D02*
X69662588Y-45542200D01*
X69662588Y-45542200D02*
X69567350Y-45589819D01*
X69567350Y-45589819D02*
X69376874Y-45589819D01*
X69376874Y-45589819D02*
X69281636Y-45542200D01*
X70614969Y-45589819D02*
X70614969Y-45066009D01*
X70614969Y-45066009D02*
X70567350Y-44970771D01*
X70567350Y-44970771D02*
X70472112Y-44923152D01*
X70472112Y-44923152D02*
X70281636Y-44923152D01*
X70281636Y-44923152D02*
X70186398Y-44970771D01*
X70614969Y-45542200D02*
X70519731Y-45589819D01*
X70519731Y-45589819D02*
X70281636Y-45589819D01*
X70281636Y-45589819D02*
X70186398Y-45542200D01*
X70186398Y-45542200D02*
X70138779Y-45446961D01*
X70138779Y-45446961D02*
X70138779Y-45351723D01*
X70138779Y-45351723D02*
X70186398Y-45256485D01*
X70186398Y-45256485D02*
X70281636Y-45208866D01*
X70281636Y-45208866D02*
X70519731Y-45208866D01*
X70519731Y-45208866D02*
X70614969Y-45161247D01*
X71519731Y-45542200D02*
X71424493Y-45589819D01*
X71424493Y-45589819D02*
X71234017Y-45589819D01*
X71234017Y-45589819D02*
X71138779Y-45542200D01*
X71138779Y-45542200D02*
X71091160Y-45494580D01*
X71091160Y-45494580D02*
X71043541Y-45399342D01*
X71043541Y-45399342D02*
X71043541Y-45113628D01*
X71043541Y-45113628D02*
X71091160Y-45018390D01*
X71091160Y-45018390D02*
X71138779Y-44970771D01*
X71138779Y-44970771D02*
X71234017Y-44923152D01*
X71234017Y-44923152D02*
X71424493Y-44923152D01*
X71424493Y-44923152D02*
X71519731Y-44970771D01*
X71948303Y-45589819D02*
X71948303Y-44589819D01*
X72043541Y-45208866D02*
X72329255Y-45589819D01*
X72329255Y-44923152D02*
X71948303Y-45304104D01*
X72662589Y-44923152D02*
X72853065Y-45589819D01*
X72853065Y-45589819D02*
X73043541Y-45113628D01*
X73043541Y-45113628D02*
X73234017Y-45589819D01*
X73234017Y-45589819D02*
X73424493Y-44923152D01*
X74234017Y-45589819D02*
X74234017Y-45066009D01*
X74234017Y-45066009D02*
X74186398Y-44970771D01*
X74186398Y-44970771D02*
X74091160Y-44923152D01*
X74091160Y-44923152D02*
X73900684Y-44923152D01*
X73900684Y-44923152D02*
X73805446Y-44970771D01*
X74234017Y-45542200D02*
X74138779Y-45589819D01*
X74138779Y-45589819D02*
X73900684Y-45589819D01*
X73900684Y-45589819D02*
X73805446Y-45542200D01*
X73805446Y-45542200D02*
X73757827Y-45446961D01*
X73757827Y-45446961D02*
X73757827Y-45351723D01*
X73757827Y-45351723D02*
X73805446Y-45256485D01*
X73805446Y-45256485D02*
X73900684Y-45208866D01*
X73900684Y-45208866D02*
X74138779Y-45208866D01*
X74138779Y-45208866D02*
X74234017Y-45161247D01*
X74710208Y-45589819D02*
X74710208Y-44923152D01*
X74710208Y-45113628D02*
X74757827Y-45018390D01*
X74757827Y-45018390D02*
X74805446Y-44970771D01*
X74805446Y-44970771D02*
X74900684Y-44923152D01*
X74900684Y-44923152D02*
X74995922Y-44923152D01*
X75757827Y-45589819D02*
X75757827Y-44589819D01*
X75757827Y-45542200D02*
X75662589Y-45589819D01*
X75662589Y-45589819D02*
X75472113Y-45589819D01*
X75472113Y-45589819D02*
X75376875Y-45542200D01*
X75376875Y-45542200D02*
X75329256Y-45494580D01*
X75329256Y-45494580D02*
X75281637Y-45399342D01*
X75281637Y-45399342D02*
X75281637Y-45113628D01*
X75281637Y-45113628D02*
X75329256Y-45018390D01*
X75329256Y-45018390D02*
X75376875Y-44970771D01*
X75376875Y-44970771D02*
X75472113Y-44923152D01*
X75472113Y-44923152D02*
X75662589Y-44923152D01*
X75662589Y-44923152D02*
X75757827Y-44970771D01*
X76186399Y-45542200D02*
X76281637Y-45589819D01*
X76281637Y-45589819D02*
X76472113Y-45589819D01*
X76472113Y-45589819D02*
X76567351Y-45542200D01*
X76567351Y-45542200D02*
X76614970Y-45446961D01*
X76614970Y-45446961D02*
X76614970Y-45399342D01*
X76614970Y-45399342D02*
X76567351Y-45304104D01*
X76567351Y-45304104D02*
X76472113Y-45256485D01*
X76472113Y-45256485D02*
X76329256Y-45256485D01*
X76329256Y-45256485D02*
X76234018Y-45208866D01*
X76234018Y-45208866D02*
X76186399Y-45113628D01*
X76186399Y-45113628D02*
X76186399Y-45066009D01*
X76186399Y-45066009D02*
X76234018Y-44970771D01*
X76234018Y-44970771D02*
X76329256Y-44923152D01*
X76329256Y-44923152D02*
X76472113Y-44923152D01*
X76472113Y-44923152D02*
X76567351Y-44970771D01*
X77822588Y-77657438D02*
X77727350Y-77609819D01*
X77727350Y-77609819D02*
X77584493Y-77609819D01*
X77584493Y-77609819D02*
X77441636Y-77657438D01*
X77441636Y-77657438D02*
X77346398Y-77752676D01*
X77346398Y-77752676D02*
X77298779Y-77847914D01*
X77298779Y-77847914D02*
X77251160Y-78038390D01*
X77251160Y-78038390D02*
X77251160Y-78181247D01*
X77251160Y-78181247D02*
X77298779Y-78371723D01*
X77298779Y-78371723D02*
X77346398Y-78466961D01*
X77346398Y-78466961D02*
X77441636Y-78562200D01*
X77441636Y-78562200D02*
X77584493Y-78609819D01*
X77584493Y-78609819D02*
X77679731Y-78609819D01*
X77679731Y-78609819D02*
X77822588Y-78562200D01*
X77822588Y-78562200D02*
X77870207Y-78514580D01*
X77870207Y-78514580D02*
X77870207Y-78181247D01*
X77870207Y-78181247D02*
X77679731Y-78181247D01*
X78298779Y-78609819D02*
X78298779Y-77609819D01*
X78298779Y-77609819D02*
X78870207Y-78609819D01*
X78870207Y-78609819D02*
X78870207Y-77609819D01*
X79346398Y-78609819D02*
X79346398Y-77609819D01*
X79346398Y-77609819D02*
X79584493Y-77609819D01*
X79584493Y-77609819D02*
X79727350Y-77657438D01*
X79727350Y-77657438D02*
X79822588Y-77752676D01*
X79822588Y-77752676D02*
X79870207Y-77847914D01*
X79870207Y-77847914D02*
X79917826Y-78038390D01*
X79917826Y-78038390D02*
X79917826Y-78181247D01*
X79917826Y-78181247D02*
X79870207Y-78371723D01*
X79870207Y-78371723D02*
X79822588Y-78466961D01*
X79822588Y-78466961D02*
X79727350Y-78562200D01*
X79727350Y-78562200D02*
X79584493Y-78609819D01*
X79584493Y-78609819D02*
X79346398Y-78609819D01*
X78568779Y-97659819D02*
X78568779Y-96659819D01*
X79044969Y-97659819D02*
X79044969Y-96659819D01*
X79044969Y-96659819D02*
X79616397Y-97659819D01*
X79616397Y-97659819D02*
X79616397Y-96659819D01*
X80092588Y-97659819D02*
X80092588Y-96659819D01*
X80092588Y-96659819D02*
X80473540Y-96659819D01*
X80473540Y-96659819D02*
X80568778Y-96707438D01*
X80568778Y-96707438D02*
X80616397Y-96755057D01*
X80616397Y-96755057D02*
X80664016Y-96850295D01*
X80664016Y-96850295D02*
X80664016Y-96993152D01*
X80664016Y-96993152D02*
X80616397Y-97088390D01*
X80616397Y-97088390D02*
X80568778Y-97136009D01*
X80568778Y-97136009D02*
X80473540Y-97183628D01*
X80473540Y-97183628D02*
X80092588Y-97183628D01*
X81092588Y-96659819D02*
X81092588Y-97469342D01*
X81092588Y-97469342D02*
X81140207Y-97564580D01*
X81140207Y-97564580D02*
X81187826Y-97612200D01*
X81187826Y-97612200D02*
X81283064Y-97659819D01*
X81283064Y-97659819D02*
X81473540Y-97659819D01*
X81473540Y-97659819D02*
X81568778Y-97612200D01*
X81568778Y-97612200D02*
X81616397Y-97564580D01*
X81616397Y-97564580D02*
X81664016Y-97469342D01*
X81664016Y-97469342D02*
X81664016Y-96659819D01*
X81997350Y-96659819D02*
X82568778Y-96659819D01*
X82283064Y-97659819D02*
X82283064Y-96659819D01*
X83521160Y-96659819D02*
X84092588Y-96659819D01*
X83806874Y-97659819D02*
X83806874Y-96659819D01*
X84997350Y-97659819D02*
X84664017Y-97183628D01*
X84425922Y-97659819D02*
X84425922Y-96659819D01*
X84425922Y-96659819D02*
X84806874Y-96659819D01*
X84806874Y-96659819D02*
X84902112Y-96707438D01*
X84902112Y-96707438D02*
X84949731Y-96755057D01*
X84949731Y-96755057D02*
X84997350Y-96850295D01*
X84997350Y-96850295D02*
X84997350Y-96993152D01*
X84997350Y-96993152D02*
X84949731Y-97088390D01*
X84949731Y-97088390D02*
X84902112Y-97136009D01*
X84902112Y-97136009D02*
X84806874Y-97183628D01*
X84806874Y-97183628D02*
X84425922Y-97183628D01*
X85425922Y-97659819D02*
X85425922Y-96659819D01*
X85902112Y-97659819D02*
X85902112Y-96659819D01*
X85902112Y-96659819D02*
X86235445Y-97374104D01*
X86235445Y-97374104D02*
X86568778Y-96659819D01*
X86568778Y-96659819D02*
X86568778Y-97659819D01*
X86395160Y-42322312D02*
X86490398Y-42369931D01*
X86490398Y-42369931D02*
X86680874Y-42369931D01*
X86680874Y-42369931D02*
X86776112Y-42322312D01*
X86776112Y-42322312D02*
X86823731Y-42227073D01*
X86823731Y-42227073D02*
X86823731Y-42179454D01*
X86823731Y-42179454D02*
X86776112Y-42084216D01*
X86776112Y-42084216D02*
X86680874Y-42036597D01*
X86680874Y-42036597D02*
X86538017Y-42036597D01*
X86538017Y-42036597D02*
X86442779Y-41988978D01*
X86442779Y-41988978D02*
X86395160Y-41893740D01*
X86395160Y-41893740D02*
X86395160Y-41846121D01*
X86395160Y-41846121D02*
X86442779Y-41750883D01*
X86442779Y-41750883D02*
X86538017Y-41703264D01*
X86538017Y-41703264D02*
X86680874Y-41703264D01*
X86680874Y-41703264D02*
X86776112Y-41750883D01*
X87633255Y-42322312D02*
X87538017Y-42369931D01*
X87538017Y-42369931D02*
X87347541Y-42369931D01*
X87347541Y-42369931D02*
X87252303Y-42322312D01*
X87252303Y-42322312D02*
X87204684Y-42227073D01*
X87204684Y-42227073D02*
X87204684Y-41846121D01*
X87204684Y-41846121D02*
X87252303Y-41750883D01*
X87252303Y-41750883D02*
X87347541Y-41703264D01*
X87347541Y-41703264D02*
X87538017Y-41703264D01*
X87538017Y-41703264D02*
X87633255Y-41750883D01*
X87633255Y-41750883D02*
X87680874Y-41846121D01*
X87680874Y-41846121D02*
X87680874Y-41941359D01*
X87680874Y-41941359D02*
X87204684Y-42036597D01*
X88490398Y-42322312D02*
X88395160Y-42369931D01*
X88395160Y-42369931D02*
X88204684Y-42369931D01*
X88204684Y-42369931D02*
X88109446Y-42322312D01*
X88109446Y-42322312D02*
X88061827Y-42227073D01*
X88061827Y-42227073D02*
X88061827Y-41846121D01*
X88061827Y-41846121D02*
X88109446Y-41750883D01*
X88109446Y-41750883D02*
X88204684Y-41703264D01*
X88204684Y-41703264D02*
X88395160Y-41703264D01*
X88395160Y-41703264D02*
X88490398Y-41750883D01*
X88490398Y-41750883D02*
X88538017Y-41846121D01*
X88538017Y-41846121D02*
X88538017Y-41941359D01*
X88538017Y-41941359D02*
X88061827Y-42036597D01*
X89395160Y-42369931D02*
X89395160Y-41369931D01*
X89395160Y-42322312D02*
X89299922Y-42369931D01*
X89299922Y-42369931D02*
X89109446Y-42369931D01*
X89109446Y-42369931D02*
X89014208Y-42322312D01*
X89014208Y-42322312D02*
X88966589Y-42274692D01*
X88966589Y-42274692D02*
X88918970Y-42179454D01*
X88918970Y-42179454D02*
X88918970Y-41893740D01*
X88918970Y-41893740D02*
X88966589Y-41798502D01*
X88966589Y-41798502D02*
X89014208Y-41750883D01*
X89014208Y-41750883D02*
X89109446Y-41703264D01*
X89109446Y-41703264D02*
X89299922Y-41703264D01*
X89299922Y-41703264D02*
X89395160Y-41750883D01*
X89776113Y-41369931D02*
X90395160Y-41369931D01*
X90395160Y-41369931D02*
X90061827Y-41750883D01*
X90061827Y-41750883D02*
X90204684Y-41750883D01*
X90204684Y-41750883D02*
X90299922Y-41798502D01*
X90299922Y-41798502D02*
X90347541Y-41846121D01*
X90347541Y-41846121D02*
X90395160Y-41941359D01*
X90395160Y-41941359D02*
X90395160Y-42179454D01*
X90395160Y-42179454D02*
X90347541Y-42274692D01*
X90347541Y-42274692D02*
X90299922Y-42322312D01*
X90299922Y-42322312D02*
X90204684Y-42369931D01*
X90204684Y-42369931D02*
X89918970Y-42369931D01*
X89918970Y-42369931D02*
X89823732Y-42322312D01*
X89823732Y-42322312D02*
X89776113Y-42274692D01*
X90823732Y-41988978D02*
X91585637Y-41988978D01*
X92490398Y-42322312D02*
X92395160Y-42369931D01*
X92395160Y-42369931D02*
X92204684Y-42369931D01*
X92204684Y-42369931D02*
X92109446Y-42322312D01*
X92109446Y-42322312D02*
X92061827Y-42274692D01*
X92061827Y-42274692D02*
X92014208Y-42179454D01*
X92014208Y-42179454D02*
X92014208Y-41893740D01*
X92014208Y-41893740D02*
X92061827Y-41798502D01*
X92061827Y-41798502D02*
X92109446Y-41750883D01*
X92109446Y-41750883D02*
X92204684Y-41703264D01*
X92204684Y-41703264D02*
X92395160Y-41703264D01*
X92395160Y-41703264D02*
X92490398Y-41750883D01*
X93347541Y-42369931D02*
X93347541Y-41846121D01*
X93347541Y-41846121D02*
X93299922Y-41750883D01*
X93299922Y-41750883D02*
X93204684Y-41703264D01*
X93204684Y-41703264D02*
X93014208Y-41703264D01*
X93014208Y-41703264D02*
X92918970Y-41750883D01*
X93347541Y-42322312D02*
X93252303Y-42369931D01*
X93252303Y-42369931D02*
X93014208Y-42369931D01*
X93014208Y-42369931D02*
X92918970Y-42322312D01*
X92918970Y-42322312D02*
X92871351Y-42227073D01*
X92871351Y-42227073D02*
X92871351Y-42131835D01*
X92871351Y-42131835D02*
X92918970Y-42036597D01*
X92918970Y-42036597D02*
X93014208Y-41988978D01*
X93014208Y-41988978D02*
X93252303Y-41988978D01*
X93252303Y-41988978D02*
X93347541Y-41941359D01*
X93823732Y-42369931D02*
X93823732Y-41703264D01*
X93823732Y-41893740D02*
X93871351Y-41798502D01*
X93871351Y-41798502D02*
X93918970Y-41750883D01*
X93918970Y-41750883D02*
X94014208Y-41703264D01*
X94014208Y-41703264D02*
X94109446Y-41703264D01*
X94442780Y-42369931D02*
X94442780Y-41703264D01*
X94442780Y-41893740D02*
X94490399Y-41798502D01*
X94490399Y-41798502D02*
X94538018Y-41750883D01*
X94538018Y-41750883D02*
X94633256Y-41703264D01*
X94633256Y-41703264D02*
X94728494Y-41703264D01*
X95061828Y-42369931D02*
X95061828Y-41703264D01*
X95061828Y-41369931D02*
X95014209Y-41417550D01*
X95014209Y-41417550D02*
X95061828Y-41465169D01*
X95061828Y-41465169D02*
X95109447Y-41417550D01*
X95109447Y-41417550D02*
X95061828Y-41369931D01*
X95061828Y-41369931D02*
X95061828Y-41465169D01*
X95918970Y-42322312D02*
X95823732Y-42369931D01*
X95823732Y-42369931D02*
X95633256Y-42369931D01*
X95633256Y-42369931D02*
X95538018Y-42322312D01*
X95538018Y-42322312D02*
X95490399Y-42227073D01*
X95490399Y-42227073D02*
X95490399Y-41846121D01*
X95490399Y-41846121D02*
X95538018Y-41750883D01*
X95538018Y-41750883D02*
X95633256Y-41703264D01*
X95633256Y-41703264D02*
X95823732Y-41703264D01*
X95823732Y-41703264D02*
X95918970Y-41750883D01*
X95918970Y-41750883D02*
X95966589Y-41846121D01*
X95966589Y-41846121D02*
X95966589Y-41941359D01*
X95966589Y-41941359D02*
X95490399Y-42036597D01*
X96395161Y-42369931D02*
X96395161Y-41703264D01*
X96395161Y-41893740D02*
X96442780Y-41798502D01*
X96442780Y-41798502D02*
X96490399Y-41750883D01*
X96490399Y-41750883D02*
X96585637Y-41703264D01*
X96585637Y-41703264D02*
X96680875Y-41703264D01*
X98347542Y-42369931D02*
X98014209Y-41893740D01*
X97776114Y-42369931D02*
X97776114Y-41369931D01*
X97776114Y-41369931D02*
X98157066Y-41369931D01*
X98157066Y-41369931D02*
X98252304Y-41417550D01*
X98252304Y-41417550D02*
X98299923Y-41465169D01*
X98299923Y-41465169D02*
X98347542Y-41560407D01*
X98347542Y-41560407D02*
X98347542Y-41703264D01*
X98347542Y-41703264D02*
X98299923Y-41798502D01*
X98299923Y-41798502D02*
X98252304Y-41846121D01*
X98252304Y-41846121D02*
X98157066Y-41893740D01*
X98157066Y-41893740D02*
X97776114Y-41893740D01*
X99157066Y-42322312D02*
X99061828Y-42369931D01*
X99061828Y-42369931D02*
X98871352Y-42369931D01*
X98871352Y-42369931D02*
X98776114Y-42322312D01*
X98776114Y-42322312D02*
X98728495Y-42227073D01*
X98728495Y-42227073D02*
X98728495Y-41846121D01*
X98728495Y-41846121D02*
X98776114Y-41750883D01*
X98776114Y-41750883D02*
X98871352Y-41703264D01*
X98871352Y-41703264D02*
X99061828Y-41703264D01*
X99061828Y-41703264D02*
X99157066Y-41750883D01*
X99157066Y-41750883D02*
X99204685Y-41846121D01*
X99204685Y-41846121D02*
X99204685Y-41941359D01*
X99204685Y-41941359D02*
X98728495Y-42036597D01*
X99538019Y-41703264D02*
X99776114Y-42369931D01*
X99776114Y-42369931D02*
X100014209Y-41703264D01*
X100395162Y-42274692D02*
X100442781Y-42322312D01*
X100442781Y-42322312D02*
X100395162Y-42369931D01*
X100395162Y-42369931D02*
X100347543Y-42322312D01*
X100347543Y-42322312D02*
X100395162Y-42274692D01*
X100395162Y-42274692D02*
X100395162Y-42369931D01*
X102157066Y-42369931D02*
X101585638Y-42369931D01*
X101871352Y-42369931D02*
X101871352Y-41369931D01*
X101871352Y-41369931D02*
X101776114Y-41512788D01*
X101776114Y-41512788D02*
X101680876Y-41608026D01*
X101680876Y-41608026D02*
X101585638Y-41655645D01*
X86442779Y-43979875D02*
X86442779Y-42979875D01*
X86442779Y-42979875D02*
X86680874Y-42979875D01*
X86680874Y-42979875D02*
X86823731Y-43027494D01*
X86823731Y-43027494D02*
X86918969Y-43122732D01*
X86918969Y-43122732D02*
X86966588Y-43217970D01*
X86966588Y-43217970D02*
X87014207Y-43408446D01*
X87014207Y-43408446D02*
X87014207Y-43551303D01*
X87014207Y-43551303D02*
X86966588Y-43741779D01*
X86966588Y-43741779D02*
X86918969Y-43837017D01*
X86918969Y-43837017D02*
X86823731Y-43932256D01*
X86823731Y-43932256D02*
X86680874Y-43979875D01*
X86680874Y-43979875D02*
X86442779Y-43979875D01*
X87823731Y-43932256D02*
X87728493Y-43979875D01*
X87728493Y-43979875D02*
X87538017Y-43979875D01*
X87538017Y-43979875D02*
X87442779Y-43932256D01*
X87442779Y-43932256D02*
X87395160Y-43837017D01*
X87395160Y-43837017D02*
X87395160Y-43456065D01*
X87395160Y-43456065D02*
X87442779Y-43360827D01*
X87442779Y-43360827D02*
X87538017Y-43313208D01*
X87538017Y-43313208D02*
X87728493Y-43313208D01*
X87728493Y-43313208D02*
X87823731Y-43360827D01*
X87823731Y-43360827D02*
X87871350Y-43456065D01*
X87871350Y-43456065D02*
X87871350Y-43551303D01*
X87871350Y-43551303D02*
X87395160Y-43646541D01*
X88252303Y-43932256D02*
X88347541Y-43979875D01*
X88347541Y-43979875D02*
X88538017Y-43979875D01*
X88538017Y-43979875D02*
X88633255Y-43932256D01*
X88633255Y-43932256D02*
X88680874Y-43837017D01*
X88680874Y-43837017D02*
X88680874Y-43789398D01*
X88680874Y-43789398D02*
X88633255Y-43694160D01*
X88633255Y-43694160D02*
X88538017Y-43646541D01*
X88538017Y-43646541D02*
X88395160Y-43646541D01*
X88395160Y-43646541D02*
X88299922Y-43598922D01*
X88299922Y-43598922D02*
X88252303Y-43503684D01*
X88252303Y-43503684D02*
X88252303Y-43456065D01*
X88252303Y-43456065D02*
X88299922Y-43360827D01*
X88299922Y-43360827D02*
X88395160Y-43313208D01*
X88395160Y-43313208D02*
X88538017Y-43313208D01*
X88538017Y-43313208D02*
X88633255Y-43360827D01*
X89109446Y-43979875D02*
X89109446Y-43313208D01*
X89109446Y-42979875D02*
X89061827Y-43027494D01*
X89061827Y-43027494D02*
X89109446Y-43075113D01*
X89109446Y-43075113D02*
X89157065Y-43027494D01*
X89157065Y-43027494D02*
X89109446Y-42979875D01*
X89109446Y-42979875D02*
X89109446Y-43075113D01*
X90014207Y-43313208D02*
X90014207Y-44122732D01*
X90014207Y-44122732D02*
X89966588Y-44217970D01*
X89966588Y-44217970D02*
X89918969Y-44265589D01*
X89918969Y-44265589D02*
X89823731Y-44313208D01*
X89823731Y-44313208D02*
X89680874Y-44313208D01*
X89680874Y-44313208D02*
X89585636Y-44265589D01*
X90014207Y-43932256D02*
X89918969Y-43979875D01*
X89918969Y-43979875D02*
X89728493Y-43979875D01*
X89728493Y-43979875D02*
X89633255Y-43932256D01*
X89633255Y-43932256D02*
X89585636Y-43884636D01*
X89585636Y-43884636D02*
X89538017Y-43789398D01*
X89538017Y-43789398D02*
X89538017Y-43503684D01*
X89538017Y-43503684D02*
X89585636Y-43408446D01*
X89585636Y-43408446D02*
X89633255Y-43360827D01*
X89633255Y-43360827D02*
X89728493Y-43313208D01*
X89728493Y-43313208D02*
X89918969Y-43313208D01*
X89918969Y-43313208D02*
X90014207Y-43360827D01*
X90490398Y-43313208D02*
X90490398Y-43979875D01*
X90490398Y-43408446D02*
X90538017Y-43360827D01*
X90538017Y-43360827D02*
X90633255Y-43313208D01*
X90633255Y-43313208D02*
X90776112Y-43313208D01*
X90776112Y-43313208D02*
X90871350Y-43360827D01*
X90871350Y-43360827D02*
X90918969Y-43456065D01*
X90918969Y-43456065D02*
X90918969Y-43979875D01*
X91776112Y-43932256D02*
X91680874Y-43979875D01*
X91680874Y-43979875D02*
X91490398Y-43979875D01*
X91490398Y-43979875D02*
X91395160Y-43932256D01*
X91395160Y-43932256D02*
X91347541Y-43837017D01*
X91347541Y-43837017D02*
X91347541Y-43456065D01*
X91347541Y-43456065D02*
X91395160Y-43360827D01*
X91395160Y-43360827D02*
X91490398Y-43313208D01*
X91490398Y-43313208D02*
X91680874Y-43313208D01*
X91680874Y-43313208D02*
X91776112Y-43360827D01*
X91776112Y-43360827D02*
X91823731Y-43456065D01*
X91823731Y-43456065D02*
X91823731Y-43551303D01*
X91823731Y-43551303D02*
X91347541Y-43646541D01*
X92680874Y-43979875D02*
X92680874Y-42979875D01*
X92680874Y-43932256D02*
X92585636Y-43979875D01*
X92585636Y-43979875D02*
X92395160Y-43979875D01*
X92395160Y-43979875D02*
X92299922Y-43932256D01*
X92299922Y-43932256D02*
X92252303Y-43884636D01*
X92252303Y-43884636D02*
X92204684Y-43789398D01*
X92204684Y-43789398D02*
X92204684Y-43503684D01*
X92204684Y-43503684D02*
X92252303Y-43408446D01*
X92252303Y-43408446D02*
X92299922Y-43360827D01*
X92299922Y-43360827D02*
X92395160Y-43313208D01*
X92395160Y-43313208D02*
X92585636Y-43313208D01*
X92585636Y-43313208D02*
X92680874Y-43360827D01*
X93918970Y-43979875D02*
X93918970Y-42979875D01*
X93918970Y-43360827D02*
X94014208Y-43313208D01*
X94014208Y-43313208D02*
X94204684Y-43313208D01*
X94204684Y-43313208D02*
X94299922Y-43360827D01*
X94299922Y-43360827D02*
X94347541Y-43408446D01*
X94347541Y-43408446D02*
X94395160Y-43503684D01*
X94395160Y-43503684D02*
X94395160Y-43789398D01*
X94395160Y-43789398D02*
X94347541Y-43884636D01*
X94347541Y-43884636D02*
X94299922Y-43932256D01*
X94299922Y-43932256D02*
X94204684Y-43979875D01*
X94204684Y-43979875D02*
X94014208Y-43979875D01*
X94014208Y-43979875D02*
X93918970Y-43932256D01*
X94728494Y-43313208D02*
X94966589Y-43979875D01*
X95204684Y-43313208D02*
X94966589Y-43979875D01*
X94966589Y-43979875D02*
X94871351Y-44217970D01*
X94871351Y-44217970D02*
X94823732Y-44265589D01*
X94823732Y-44265589D02*
X94728494Y-44313208D01*
X96918970Y-43979875D02*
X96585637Y-43503684D01*
X96347542Y-43979875D02*
X96347542Y-42979875D01*
X96347542Y-42979875D02*
X96728494Y-42979875D01*
X96728494Y-42979875D02*
X96823732Y-43027494D01*
X96823732Y-43027494D02*
X96871351Y-43075113D01*
X96871351Y-43075113D02*
X96918970Y-43170351D01*
X96918970Y-43170351D02*
X96918970Y-43313208D01*
X96918970Y-43313208D02*
X96871351Y-43408446D01*
X96871351Y-43408446D02*
X96823732Y-43456065D01*
X96823732Y-43456065D02*
X96728494Y-43503684D01*
X96728494Y-43503684D02*
X96347542Y-43503684D01*
X97490399Y-43979875D02*
X97395161Y-43932256D01*
X97395161Y-43932256D02*
X97347542Y-43884636D01*
X97347542Y-43884636D02*
X97299923Y-43789398D01*
X97299923Y-43789398D02*
X97299923Y-43503684D01*
X97299923Y-43503684D02*
X97347542Y-43408446D01*
X97347542Y-43408446D02*
X97395161Y-43360827D01*
X97395161Y-43360827D02*
X97490399Y-43313208D01*
X97490399Y-43313208D02*
X97633256Y-43313208D01*
X97633256Y-43313208D02*
X97728494Y-43360827D01*
X97728494Y-43360827D02*
X97776113Y-43408446D01*
X97776113Y-43408446D02*
X97823732Y-43503684D01*
X97823732Y-43503684D02*
X97823732Y-43789398D01*
X97823732Y-43789398D02*
X97776113Y-43884636D01*
X97776113Y-43884636D02*
X97728494Y-43932256D01*
X97728494Y-43932256D02*
X97633256Y-43979875D01*
X97633256Y-43979875D02*
X97490399Y-43979875D01*
X98680875Y-43932256D02*
X98585637Y-43979875D01*
X98585637Y-43979875D02*
X98395161Y-43979875D01*
X98395161Y-43979875D02*
X98299923Y-43932256D01*
X98299923Y-43932256D02*
X98252304Y-43884636D01*
X98252304Y-43884636D02*
X98204685Y-43789398D01*
X98204685Y-43789398D02*
X98204685Y-43503684D01*
X98204685Y-43503684D02*
X98252304Y-43408446D01*
X98252304Y-43408446D02*
X98299923Y-43360827D01*
X98299923Y-43360827D02*
X98395161Y-43313208D01*
X98395161Y-43313208D02*
X98585637Y-43313208D01*
X98585637Y-43313208D02*
X98680875Y-43360827D01*
X99538018Y-43932256D02*
X99442780Y-43979875D01*
X99442780Y-43979875D02*
X99252304Y-43979875D01*
X99252304Y-43979875D02*
X99157066Y-43932256D01*
X99157066Y-43932256D02*
X99109447Y-43884636D01*
X99109447Y-43884636D02*
X99061828Y-43789398D01*
X99061828Y-43789398D02*
X99061828Y-43503684D01*
X99061828Y-43503684D02*
X99109447Y-43408446D01*
X99109447Y-43408446D02*
X99157066Y-43360827D01*
X99157066Y-43360827D02*
X99252304Y-43313208D01*
X99252304Y-43313208D02*
X99442780Y-43313208D01*
X99442780Y-43313208D02*
X99538018Y-43360827D01*
X100109447Y-43979875D02*
X100014209Y-43932256D01*
X100014209Y-43932256D02*
X99966590Y-43884636D01*
X99966590Y-43884636D02*
X99918971Y-43789398D01*
X99918971Y-43789398D02*
X99918971Y-43503684D01*
X99918971Y-43503684D02*
X99966590Y-43408446D01*
X99966590Y-43408446D02*
X100014209Y-43360827D01*
X100014209Y-43360827D02*
X100109447Y-43313208D01*
X100109447Y-43313208D02*
X100252304Y-43313208D01*
X100252304Y-43313208D02*
X100347542Y-43360827D01*
X100347542Y-43360827D02*
X100395161Y-43408446D01*
X100395161Y-43408446D02*
X100442780Y-43503684D01*
X100442780Y-43503684D02*
X100442780Y-43789398D01*
X100442780Y-43789398D02*
X100395161Y-43884636D01*
X100395161Y-43884636D02*
X100347542Y-43932256D01*
X100347542Y-43932256D02*
X100252304Y-43979875D01*
X100252304Y-43979875D02*
X100109447Y-43979875D01*
X101585638Y-43694160D02*
X102061828Y-43694160D01*
X101490400Y-43979875D02*
X101823733Y-42979875D01*
X101823733Y-42979875D02*
X102157066Y-43979875D01*
X102490400Y-43313208D02*
X102490400Y-43979875D01*
X102490400Y-43408446D02*
X102538019Y-43360827D01*
X102538019Y-43360827D02*
X102633257Y-43313208D01*
X102633257Y-43313208D02*
X102776114Y-43313208D01*
X102776114Y-43313208D02*
X102871352Y-43360827D01*
X102871352Y-43360827D02*
X102918971Y-43456065D01*
X102918971Y-43456065D02*
X102918971Y-43979875D01*
X103252305Y-43313208D02*
X103633257Y-43313208D01*
X103395162Y-42979875D02*
X103395162Y-43837017D01*
X103395162Y-43837017D02*
X103442781Y-43932256D01*
X103442781Y-43932256D02*
X103538019Y-43979875D01*
X103538019Y-43979875D02*
X103633257Y-43979875D01*
X104109448Y-43979875D02*
X104014210Y-43932256D01*
X104014210Y-43932256D02*
X103966591Y-43884636D01*
X103966591Y-43884636D02*
X103918972Y-43789398D01*
X103918972Y-43789398D02*
X103918972Y-43503684D01*
X103918972Y-43503684D02*
X103966591Y-43408446D01*
X103966591Y-43408446D02*
X104014210Y-43360827D01*
X104014210Y-43360827D02*
X104109448Y-43313208D01*
X104109448Y-43313208D02*
X104252305Y-43313208D01*
X104252305Y-43313208D02*
X104347543Y-43360827D01*
X104347543Y-43360827D02*
X104395162Y-43408446D01*
X104395162Y-43408446D02*
X104442781Y-43503684D01*
X104442781Y-43503684D02*
X104442781Y-43789398D01*
X104442781Y-43789398D02*
X104395162Y-43884636D01*
X104395162Y-43884636D02*
X104347543Y-43932256D01*
X104347543Y-43932256D02*
X104252305Y-43979875D01*
X104252305Y-43979875D02*
X104109448Y-43979875D01*
X104871353Y-43313208D02*
X104871353Y-43979875D01*
X104871353Y-43408446D02*
X104918972Y-43360827D01*
X104918972Y-43360827D02*
X105014210Y-43313208D01*
X105014210Y-43313208D02*
X105157067Y-43313208D01*
X105157067Y-43313208D02*
X105252305Y-43360827D01*
X105252305Y-43360827D02*
X105299924Y-43456065D01*
X105299924Y-43456065D02*
X105299924Y-43979875D01*
X105776115Y-43979875D02*
X105776115Y-43313208D01*
X105776115Y-42979875D02*
X105728496Y-43027494D01*
X105728496Y-43027494D02*
X105776115Y-43075113D01*
X105776115Y-43075113D02*
X105823734Y-43027494D01*
X105823734Y-43027494D02*
X105776115Y-42979875D01*
X105776115Y-42979875D02*
X105776115Y-43075113D01*
X106395162Y-43979875D02*
X106299924Y-43932256D01*
X106299924Y-43932256D02*
X106252305Y-43884636D01*
X106252305Y-43884636D02*
X106204686Y-43789398D01*
X106204686Y-43789398D02*
X106204686Y-43503684D01*
X106204686Y-43503684D02*
X106252305Y-43408446D01*
X106252305Y-43408446D02*
X106299924Y-43360827D01*
X106299924Y-43360827D02*
X106395162Y-43313208D01*
X106395162Y-43313208D02*
X106538019Y-43313208D01*
X106538019Y-43313208D02*
X106633257Y-43360827D01*
X106633257Y-43360827D02*
X106680876Y-43408446D01*
X106680876Y-43408446D02*
X106728495Y-43503684D01*
X106728495Y-43503684D02*
X106728495Y-43789398D01*
X106728495Y-43789398D02*
X106680876Y-43884636D01*
X106680876Y-43884636D02*
X106633257Y-43932256D01*
X106633257Y-43932256D02*
X106538019Y-43979875D01*
X106538019Y-43979875D02*
X106395162Y-43979875D01*
X107585638Y-43313208D02*
X107585638Y-43979875D01*
X107157067Y-43313208D02*
X107157067Y-43837017D01*
X107157067Y-43837017D02*
X107204686Y-43932256D01*
X107204686Y-43932256D02*
X107299924Y-43979875D01*
X107299924Y-43979875D02*
X107442781Y-43979875D01*
X107442781Y-43979875D02*
X107538019Y-43932256D01*
X107538019Y-43932256D02*
X107585638Y-43884636D01*
X109252305Y-43979875D02*
X109252305Y-43456065D01*
X109252305Y-43456065D02*
X109204686Y-43360827D01*
X109204686Y-43360827D02*
X109109448Y-43313208D01*
X109109448Y-43313208D02*
X108918972Y-43313208D01*
X108918972Y-43313208D02*
X108823734Y-43360827D01*
X109252305Y-43932256D02*
X109157067Y-43979875D01*
X109157067Y-43979875D02*
X108918972Y-43979875D01*
X108918972Y-43979875D02*
X108823734Y-43932256D01*
X108823734Y-43932256D02*
X108776115Y-43837017D01*
X108776115Y-43837017D02*
X108776115Y-43741779D01*
X108776115Y-43741779D02*
X108823734Y-43646541D01*
X108823734Y-43646541D02*
X108918972Y-43598922D01*
X108918972Y-43598922D02*
X109157067Y-43598922D01*
X109157067Y-43598922D02*
X109252305Y-43551303D01*
X109728496Y-43313208D02*
X109728496Y-43979875D01*
X109728496Y-43408446D02*
X109776115Y-43360827D01*
X109776115Y-43360827D02*
X109871353Y-43313208D01*
X109871353Y-43313208D02*
X110014210Y-43313208D01*
X110014210Y-43313208D02*
X110109448Y-43360827D01*
X110109448Y-43360827D02*
X110157067Y-43456065D01*
X110157067Y-43456065D02*
X110157067Y-43979875D01*
X111061829Y-43979875D02*
X111061829Y-42979875D01*
X111061829Y-43932256D02*
X110966591Y-43979875D01*
X110966591Y-43979875D02*
X110776115Y-43979875D01*
X110776115Y-43979875D02*
X110680877Y-43932256D01*
X110680877Y-43932256D02*
X110633258Y-43884636D01*
X110633258Y-43884636D02*
X110585639Y-43789398D01*
X110585639Y-43789398D02*
X110585639Y-43503684D01*
X110585639Y-43503684D02*
X110633258Y-43408446D01*
X110633258Y-43408446D02*
X110680877Y-43360827D01*
X110680877Y-43360827D02*
X110776115Y-43313208D01*
X110776115Y-43313208D02*
X110966591Y-43313208D01*
X110966591Y-43313208D02*
X111061829Y-43360827D01*
X112299925Y-43979875D02*
X112299925Y-42979875D01*
X112299925Y-42979875D02*
X112538020Y-42979875D01*
X112538020Y-42979875D02*
X112680877Y-43027494D01*
X112680877Y-43027494D02*
X112776115Y-43122732D01*
X112776115Y-43122732D02*
X112823734Y-43217970D01*
X112823734Y-43217970D02*
X112871353Y-43408446D01*
X112871353Y-43408446D02*
X112871353Y-43551303D01*
X112871353Y-43551303D02*
X112823734Y-43741779D01*
X112823734Y-43741779D02*
X112776115Y-43837017D01*
X112776115Y-43837017D02*
X112680877Y-43932256D01*
X112680877Y-43932256D02*
X112538020Y-43979875D01*
X112538020Y-43979875D02*
X112299925Y-43979875D01*
X113728496Y-43979875D02*
X113728496Y-43456065D01*
X113728496Y-43456065D02*
X113680877Y-43360827D01*
X113680877Y-43360827D02*
X113585639Y-43313208D01*
X113585639Y-43313208D02*
X113395163Y-43313208D01*
X113395163Y-43313208D02*
X113299925Y-43360827D01*
X113728496Y-43932256D02*
X113633258Y-43979875D01*
X113633258Y-43979875D02*
X113395163Y-43979875D01*
X113395163Y-43979875D02*
X113299925Y-43932256D01*
X113299925Y-43932256D02*
X113252306Y-43837017D01*
X113252306Y-43837017D02*
X113252306Y-43741779D01*
X113252306Y-43741779D02*
X113299925Y-43646541D01*
X113299925Y-43646541D02*
X113395163Y-43598922D01*
X113395163Y-43598922D02*
X113633258Y-43598922D01*
X113633258Y-43598922D02*
X113728496Y-43551303D01*
X114204687Y-43313208D02*
X114204687Y-43979875D01*
X114204687Y-43408446D02*
X114252306Y-43360827D01*
X114252306Y-43360827D02*
X114347544Y-43313208D01*
X114347544Y-43313208D02*
X114490401Y-43313208D01*
X114490401Y-43313208D02*
X114585639Y-43360827D01*
X114585639Y-43360827D02*
X114633258Y-43456065D01*
X114633258Y-43456065D02*
X114633258Y-43979875D01*
X115109449Y-43313208D02*
X115109449Y-43979875D01*
X115109449Y-43408446D02*
X115157068Y-43360827D01*
X115157068Y-43360827D02*
X115252306Y-43313208D01*
X115252306Y-43313208D02*
X115395163Y-43313208D01*
X115395163Y-43313208D02*
X115490401Y-43360827D01*
X115490401Y-43360827D02*
X115538020Y-43456065D01*
X115538020Y-43456065D02*
X115538020Y-43979875D01*
X115918973Y-43313208D02*
X116157068Y-43979875D01*
X116395163Y-43313208D02*
X116157068Y-43979875D01*
X116157068Y-43979875D02*
X116061830Y-44217970D01*
X116061830Y-44217970D02*
X116014211Y-44265589D01*
X116014211Y-44265589D02*
X115918973Y-44313208D01*
X117538021Y-43979875D02*
X117538021Y-42979875D01*
X117538021Y-42979875D02*
X117776116Y-42979875D01*
X117776116Y-42979875D02*
X117918973Y-43027494D01*
X117918973Y-43027494D02*
X118014211Y-43122732D01*
X118014211Y-43122732D02*
X118061830Y-43217970D01*
X118061830Y-43217970D02*
X118109449Y-43408446D01*
X118109449Y-43408446D02*
X118109449Y-43551303D01*
X118109449Y-43551303D02*
X118061830Y-43741779D01*
X118061830Y-43741779D02*
X118014211Y-43837017D01*
X118014211Y-43837017D02*
X117918973Y-43932256D01*
X117918973Y-43932256D02*
X117776116Y-43979875D01*
X117776116Y-43979875D02*
X117538021Y-43979875D01*
X118538021Y-43979875D02*
X118538021Y-43313208D01*
X118538021Y-42979875D02*
X118490402Y-43027494D01*
X118490402Y-43027494D02*
X118538021Y-43075113D01*
X118538021Y-43075113D02*
X118585640Y-43027494D01*
X118585640Y-43027494D02*
X118538021Y-42979875D01*
X118538021Y-42979875D02*
X118538021Y-43075113D01*
X119442782Y-43979875D02*
X119442782Y-43456065D01*
X119442782Y-43456065D02*
X119395163Y-43360827D01*
X119395163Y-43360827D02*
X119299925Y-43313208D01*
X119299925Y-43313208D02*
X119109449Y-43313208D01*
X119109449Y-43313208D02*
X119014211Y-43360827D01*
X119442782Y-43932256D02*
X119347544Y-43979875D01*
X119347544Y-43979875D02*
X119109449Y-43979875D01*
X119109449Y-43979875D02*
X119014211Y-43932256D01*
X119014211Y-43932256D02*
X118966592Y-43837017D01*
X118966592Y-43837017D02*
X118966592Y-43741779D01*
X118966592Y-43741779D02*
X119014211Y-43646541D01*
X119014211Y-43646541D02*
X119109449Y-43598922D01*
X119109449Y-43598922D02*
X119347544Y-43598922D01*
X119347544Y-43598922D02*
X119442782Y-43551303D01*
X119823735Y-43313208D02*
X120347544Y-43313208D01*
X120347544Y-43313208D02*
X119823735Y-43979875D01*
X119823735Y-43979875D02*
X120347544Y-43979875D01*
X122061830Y-43979875D02*
X121728497Y-43503684D01*
X121490402Y-43979875D02*
X121490402Y-42979875D01*
X121490402Y-42979875D02*
X121871354Y-42979875D01*
X121871354Y-42979875D02*
X121966592Y-43027494D01*
X121966592Y-43027494D02*
X122014211Y-43075113D01*
X122014211Y-43075113D02*
X122061830Y-43170351D01*
X122061830Y-43170351D02*
X122061830Y-43313208D01*
X122061830Y-43313208D02*
X122014211Y-43408446D01*
X122014211Y-43408446D02*
X121966592Y-43456065D01*
X121966592Y-43456065D02*
X121871354Y-43503684D01*
X121871354Y-43503684D02*
X121490402Y-43503684D01*
X122871354Y-43932256D02*
X122776116Y-43979875D01*
X122776116Y-43979875D02*
X122585640Y-43979875D01*
X122585640Y-43979875D02*
X122490402Y-43932256D01*
X122490402Y-43932256D02*
X122442783Y-43837017D01*
X122442783Y-43837017D02*
X122442783Y-43456065D01*
X122442783Y-43456065D02*
X122490402Y-43360827D01*
X122490402Y-43360827D02*
X122585640Y-43313208D01*
X122585640Y-43313208D02*
X122776116Y-43313208D01*
X122776116Y-43313208D02*
X122871354Y-43360827D01*
X122871354Y-43360827D02*
X122918973Y-43456065D01*
X122918973Y-43456065D02*
X122918973Y-43551303D01*
X122918973Y-43551303D02*
X122442783Y-43646541D01*
X123252307Y-43313208D02*
X123490402Y-43979875D01*
X123728497Y-43313208D02*
X123490402Y-43979875D01*
X123490402Y-43979875D02*
X123395164Y-44217970D01*
X123395164Y-44217970D02*
X123347545Y-44265589D01*
X123347545Y-44265589D02*
X123252307Y-44313208D01*
X124490402Y-43932256D02*
X124395164Y-43979875D01*
X124395164Y-43979875D02*
X124204688Y-43979875D01*
X124204688Y-43979875D02*
X124109450Y-43932256D01*
X124109450Y-43932256D02*
X124061831Y-43837017D01*
X124061831Y-43837017D02*
X124061831Y-43456065D01*
X124061831Y-43456065D02*
X124109450Y-43360827D01*
X124109450Y-43360827D02*
X124204688Y-43313208D01*
X124204688Y-43313208D02*
X124395164Y-43313208D01*
X124395164Y-43313208D02*
X124490402Y-43360827D01*
X124490402Y-43360827D02*
X124538021Y-43456065D01*
X124538021Y-43456065D02*
X124538021Y-43551303D01*
X124538021Y-43551303D02*
X124061831Y-43646541D01*
X124918974Y-43932256D02*
X125014212Y-43979875D01*
X125014212Y-43979875D02*
X125204688Y-43979875D01*
X125204688Y-43979875D02*
X125299926Y-43932256D01*
X125299926Y-43932256D02*
X125347545Y-43837017D01*
X125347545Y-43837017D02*
X125347545Y-43789398D01*
X125347545Y-43789398D02*
X125299926Y-43694160D01*
X125299926Y-43694160D02*
X125204688Y-43646541D01*
X125204688Y-43646541D02*
X125061831Y-43646541D01*
X125061831Y-43646541D02*
X124966593Y-43598922D01*
X124966593Y-43598922D02*
X124918974Y-43503684D01*
X124918974Y-43503684D02*
X124918974Y-43456065D01*
X124918974Y-43456065D02*
X124966593Y-43360827D01*
X124966593Y-43360827D02*
X125061831Y-43313208D01*
X125061831Y-43313208D02*
X125204688Y-43313208D01*
X125204688Y-43313208D02*
X125299926Y-43360827D01*
X86395160Y-45542200D02*
X86538017Y-45589819D01*
X86538017Y-45589819D02*
X86776112Y-45589819D01*
X86776112Y-45589819D02*
X86871350Y-45542200D01*
X86871350Y-45542200D02*
X86918969Y-45494580D01*
X86918969Y-45494580D02*
X86966588Y-45399342D01*
X86966588Y-45399342D02*
X86966588Y-45304104D01*
X86966588Y-45304104D02*
X86918969Y-45208866D01*
X86918969Y-45208866D02*
X86871350Y-45161247D01*
X86871350Y-45161247D02*
X86776112Y-45113628D01*
X86776112Y-45113628D02*
X86585636Y-45066009D01*
X86585636Y-45066009D02*
X86490398Y-45018390D01*
X86490398Y-45018390D02*
X86442779Y-44970771D01*
X86442779Y-44970771D02*
X86395160Y-44875533D01*
X86395160Y-44875533D02*
X86395160Y-44780295D01*
X86395160Y-44780295D02*
X86442779Y-44685057D01*
X86442779Y-44685057D02*
X86490398Y-44637438D01*
X86490398Y-44637438D02*
X86585636Y-44589819D01*
X86585636Y-44589819D02*
X86823731Y-44589819D01*
X86823731Y-44589819D02*
X86966588Y-44637438D01*
X87776112Y-45542200D02*
X87680874Y-45589819D01*
X87680874Y-45589819D02*
X87490398Y-45589819D01*
X87490398Y-45589819D02*
X87395160Y-45542200D01*
X87395160Y-45542200D02*
X87347541Y-45446961D01*
X87347541Y-45446961D02*
X87347541Y-45066009D01*
X87347541Y-45066009D02*
X87395160Y-44970771D01*
X87395160Y-44970771D02*
X87490398Y-44923152D01*
X87490398Y-44923152D02*
X87680874Y-44923152D01*
X87680874Y-44923152D02*
X87776112Y-44970771D01*
X87776112Y-44970771D02*
X87823731Y-45066009D01*
X87823731Y-45066009D02*
X87823731Y-45161247D01*
X87823731Y-45161247D02*
X87347541Y-45256485D01*
X88252303Y-44923152D02*
X88252303Y-45923152D01*
X88252303Y-44970771D02*
X88347541Y-44923152D01*
X88347541Y-44923152D02*
X88538017Y-44923152D01*
X88538017Y-44923152D02*
X88633255Y-44970771D01*
X88633255Y-44970771D02*
X88680874Y-45018390D01*
X88680874Y-45018390D02*
X88728493Y-45113628D01*
X88728493Y-45113628D02*
X88728493Y-45399342D01*
X88728493Y-45399342D02*
X88680874Y-45494580D01*
X88680874Y-45494580D02*
X88633255Y-45542200D01*
X88633255Y-45542200D02*
X88538017Y-45589819D01*
X88538017Y-45589819D02*
X88347541Y-45589819D01*
X88347541Y-45589819D02*
X88252303Y-45542200D01*
X89871351Y-44685057D02*
X89918970Y-44637438D01*
X89918970Y-44637438D02*
X90014208Y-44589819D01*
X90014208Y-44589819D02*
X90252303Y-44589819D01*
X90252303Y-44589819D02*
X90347541Y-44637438D01*
X90347541Y-44637438D02*
X90395160Y-44685057D01*
X90395160Y-44685057D02*
X90442779Y-44780295D01*
X90442779Y-44780295D02*
X90442779Y-44875533D01*
X90442779Y-44875533D02*
X90395160Y-45018390D01*
X90395160Y-45018390D02*
X89823732Y-45589819D01*
X89823732Y-45589819D02*
X90442779Y-45589819D01*
X91061827Y-44589819D02*
X91157065Y-44589819D01*
X91157065Y-44589819D02*
X91252303Y-44637438D01*
X91252303Y-44637438D02*
X91299922Y-44685057D01*
X91299922Y-44685057D02*
X91347541Y-44780295D01*
X91347541Y-44780295D02*
X91395160Y-44970771D01*
X91395160Y-44970771D02*
X91395160Y-45208866D01*
X91395160Y-45208866D02*
X91347541Y-45399342D01*
X91347541Y-45399342D02*
X91299922Y-45494580D01*
X91299922Y-45494580D02*
X91252303Y-45542200D01*
X91252303Y-45542200D02*
X91157065Y-45589819D01*
X91157065Y-45589819D02*
X91061827Y-45589819D01*
X91061827Y-45589819D02*
X90966589Y-45542200D01*
X90966589Y-45542200D02*
X90918970Y-45494580D01*
X90918970Y-45494580D02*
X90871351Y-45399342D01*
X90871351Y-45399342D02*
X90823732Y-45208866D01*
X90823732Y-45208866D02*
X90823732Y-44970771D01*
X90823732Y-44970771D02*
X90871351Y-44780295D01*
X90871351Y-44780295D02*
X90918970Y-44685057D01*
X90918970Y-44685057D02*
X90966589Y-44637438D01*
X90966589Y-44637438D02*
X91061827Y-44589819D01*
X91776113Y-44685057D02*
X91823732Y-44637438D01*
X91823732Y-44637438D02*
X91918970Y-44589819D01*
X91918970Y-44589819D02*
X92157065Y-44589819D01*
X92157065Y-44589819D02*
X92252303Y-44637438D01*
X92252303Y-44637438D02*
X92299922Y-44685057D01*
X92299922Y-44685057D02*
X92347541Y-44780295D01*
X92347541Y-44780295D02*
X92347541Y-44875533D01*
X92347541Y-44875533D02*
X92299922Y-45018390D01*
X92299922Y-45018390D02*
X91728494Y-45589819D01*
X91728494Y-45589819D02*
X92347541Y-45589819D01*
X93204684Y-44589819D02*
X93014208Y-44589819D01*
X93014208Y-44589819D02*
X92918970Y-44637438D01*
X92918970Y-44637438D02*
X92871351Y-44685057D01*
X92871351Y-44685057D02*
X92776113Y-44827914D01*
X92776113Y-44827914D02*
X92728494Y-45018390D01*
X92728494Y-45018390D02*
X92728494Y-45399342D01*
X92728494Y-45399342D02*
X92776113Y-45494580D01*
X92776113Y-45494580D02*
X92823732Y-45542200D01*
X92823732Y-45542200D02*
X92918970Y-45589819D01*
X92918970Y-45589819D02*
X93109446Y-45589819D01*
X93109446Y-45589819D02*
X93204684Y-45542200D01*
X93204684Y-45542200D02*
X93252303Y-45494580D01*
X93252303Y-45494580D02*
X93299922Y-45399342D01*
X93299922Y-45399342D02*
X93299922Y-45161247D01*
X93299922Y-45161247D02*
X93252303Y-45066009D01*
X93252303Y-45066009D02*
X93204684Y-45018390D01*
X93204684Y-45018390D02*
X93109446Y-44970771D01*
X93109446Y-44970771D02*
X92918970Y-44970771D01*
X92918970Y-44970771D02*
X92823732Y-45018390D01*
X92823732Y-45018390D02*
X92776113Y-45066009D01*
X92776113Y-45066009D02*
X92728494Y-45161247D01*
X116779922Y-45351819D02*
X117113255Y-46351819D01*
X117113255Y-46351819D02*
X117446588Y-45351819D01*
X117970398Y-45351819D02*
X118160874Y-45351819D01*
X118160874Y-45351819D02*
X118256112Y-45399438D01*
X118256112Y-45399438D02*
X118351350Y-45494676D01*
X118351350Y-45494676D02*
X118398969Y-45685152D01*
X118398969Y-45685152D02*
X118398969Y-46018485D01*
X118398969Y-46018485D02*
X118351350Y-46208961D01*
X118351350Y-46208961D02*
X118256112Y-46304200D01*
X118256112Y-46304200D02*
X118160874Y-46351819D01*
X118160874Y-46351819D02*
X117970398Y-46351819D01*
X117970398Y-46351819D02*
X117875160Y-46304200D01*
X117875160Y-46304200D02*
X117779922Y-46208961D01*
X117779922Y-46208961D02*
X117732303Y-46018485D01*
X117732303Y-46018485D02*
X117732303Y-45685152D01*
X117732303Y-45685152D02*
X117779922Y-45494676D01*
X117779922Y-45494676D02*
X117875160Y-45399438D01*
X117875160Y-45399438D02*
X117970398Y-45351819D01*
X119303731Y-46351819D02*
X118827541Y-46351819D01*
X118827541Y-46351819D02*
X118827541Y-45351819D01*
X119637065Y-45351819D02*
X119637065Y-46161342D01*
X119637065Y-46161342D02*
X119684684Y-46256580D01*
X119684684Y-46256580D02*
X119732303Y-46304200D01*
X119732303Y-46304200D02*
X119827541Y-46351819D01*
X119827541Y-46351819D02*
X120018017Y-46351819D01*
X120018017Y-46351819D02*
X120113255Y-46304200D01*
X120113255Y-46304200D02*
X120160874Y-46256580D01*
X120160874Y-46256580D02*
X120208493Y-46161342D01*
X120208493Y-46161342D02*
X120208493Y-45351819D01*
X120684684Y-46351819D02*
X120684684Y-45351819D01*
X120684684Y-45351819D02*
X121018017Y-46066104D01*
X121018017Y-46066104D02*
X121351350Y-45351819D01*
X121351350Y-45351819D02*
X121351350Y-46351819D01*
X121827541Y-45828009D02*
X122160874Y-45828009D01*
X122303731Y-46351819D02*
X121827541Y-46351819D01*
X121827541Y-46351819D02*
X121827541Y-45351819D01*
X121827541Y-45351819D02*
X122303731Y-45351819D01*
X136083922Y-45351819D02*
X136655350Y-45351819D01*
X136369636Y-46351819D02*
X136369636Y-45351819D01*
X137179160Y-45351819D02*
X137369636Y-45351819D01*
X137369636Y-45351819D02*
X137464874Y-45399438D01*
X137464874Y-45399438D02*
X137560112Y-45494676D01*
X137560112Y-45494676D02*
X137607731Y-45685152D01*
X137607731Y-45685152D02*
X137607731Y-46018485D01*
X137607731Y-46018485D02*
X137560112Y-46208961D01*
X137560112Y-46208961D02*
X137464874Y-46304200D01*
X137464874Y-46304200D02*
X137369636Y-46351819D01*
X137369636Y-46351819D02*
X137179160Y-46351819D01*
X137179160Y-46351819D02*
X137083922Y-46304200D01*
X137083922Y-46304200D02*
X136988684Y-46208961D01*
X136988684Y-46208961D02*
X136941065Y-46018485D01*
X136941065Y-46018485D02*
X136941065Y-45685152D01*
X136941065Y-45685152D02*
X136988684Y-45494676D01*
X136988684Y-45494676D02*
X137083922Y-45399438D01*
X137083922Y-45399438D02*
X137179160Y-45351819D01*
X138036303Y-46351819D02*
X138036303Y-45351819D01*
X138036303Y-45351819D02*
X138607731Y-46351819D01*
X138607731Y-46351819D02*
X138607731Y-45351819D01*
X139083922Y-45828009D02*
X139417255Y-45828009D01*
X139560112Y-46351819D02*
X139083922Y-46351819D01*
X139083922Y-46351819D02*
X139083922Y-45351819D01*
X139083922Y-45351819D02*
X139560112Y-45351819D01*
X82156180Y-77663922D02*
X82156180Y-78235350D01*
X81156180Y-77949636D02*
X82156180Y-77949636D01*
X82156180Y-78473446D02*
X81156180Y-79140112D01*
X82156180Y-79140112D02*
X81156180Y-78473446D01*
X83696180Y-78378207D02*
X84172371Y-78044874D01*
X83696180Y-77806779D02*
X84696180Y-77806779D01*
X84696180Y-77806779D02*
X84696180Y-78187731D01*
X84696180Y-78187731D02*
X84648561Y-78282969D01*
X84648561Y-78282969D02*
X84600942Y-78330588D01*
X84600942Y-78330588D02*
X84505704Y-78378207D01*
X84505704Y-78378207D02*
X84362847Y-78378207D01*
X84362847Y-78378207D02*
X84267609Y-78330588D01*
X84267609Y-78330588D02*
X84219990Y-78282969D01*
X84219990Y-78282969D02*
X84172371Y-78187731D01*
X84172371Y-78187731D02*
X84172371Y-77806779D01*
X84696180Y-78711541D02*
X83696180Y-79378207D01*
X84696180Y-79378207D02*
X83696180Y-78711541D01*
X87236180Y-78282969D02*
X87236180Y-77806779D01*
X87236180Y-77806779D02*
X86759990Y-77759160D01*
X86759990Y-77759160D02*
X86807609Y-77806779D01*
X86807609Y-77806779D02*
X86855228Y-77902017D01*
X86855228Y-77902017D02*
X86855228Y-78140112D01*
X86855228Y-78140112D02*
X86807609Y-78235350D01*
X86807609Y-78235350D02*
X86759990Y-78282969D01*
X86759990Y-78282969D02*
X86664752Y-78330588D01*
X86664752Y-78330588D02*
X86426657Y-78330588D01*
X86426657Y-78330588D02*
X86331419Y-78282969D01*
X86331419Y-78282969D02*
X86283800Y-78235350D01*
X86283800Y-78235350D02*
X86236180Y-78140112D01*
X86236180Y-78140112D02*
X86236180Y-77902017D01*
X86236180Y-77902017D02*
X86283800Y-77806779D01*
X86283800Y-77806779D02*
X86331419Y-77759160D01*
X87236180Y-78616303D02*
X86236180Y-78949636D01*
X86236180Y-78949636D02*
X87236180Y-79282969D01*
X61642666Y-97639819D02*
X61642666Y-98354104D01*
X61642666Y-98354104D02*
X61595047Y-98496961D01*
X61595047Y-98496961D02*
X61499809Y-98592200D01*
X61499809Y-98592200D02*
X61356952Y-98639819D01*
X61356952Y-98639819D02*
X61261714Y-98639819D01*
X62642666Y-98639819D02*
X62071238Y-98639819D01*
X62356952Y-98639819D02*
X62356952Y-97639819D01*
X62356952Y-97639819D02*
X62261714Y-97782676D01*
X62261714Y-97782676D02*
X62166476Y-97877914D01*
X62166476Y-97877914D02*
X62071238Y-97925533D01*
X130629819Y-81980666D02*
X130153628Y-82313999D01*
X130629819Y-82552094D02*
X129629819Y-82552094D01*
X129629819Y-82552094D02*
X129629819Y-82171142D01*
X129629819Y-82171142D02*
X129677438Y-82075904D01*
X129677438Y-82075904D02*
X129725057Y-82028285D01*
X129725057Y-82028285D02*
X129820295Y-81980666D01*
X129820295Y-81980666D02*
X129963152Y-81980666D01*
X129963152Y-81980666D02*
X130058390Y-82028285D01*
X130058390Y-82028285D02*
X130106009Y-82075904D01*
X130106009Y-82075904D02*
X130153628Y-82171142D01*
X130153628Y-82171142D02*
X130153628Y-82552094D01*
X129963152Y-81123523D02*
X130629819Y-81123523D01*
X129582200Y-81361618D02*
X130296485Y-81599713D01*
X130296485Y-81599713D02*
X130296485Y-80980666D01*
X92656819Y-92368666D02*
X92180628Y-92701999D01*
X92656819Y-92940094D02*
X91656819Y-92940094D01*
X91656819Y-92940094D02*
X91656819Y-92559142D01*
X91656819Y-92559142D02*
X91704438Y-92463904D01*
X91704438Y-92463904D02*
X91752057Y-92416285D01*
X91752057Y-92416285D02*
X91847295Y-92368666D01*
X91847295Y-92368666D02*
X91990152Y-92368666D01*
X91990152Y-92368666D02*
X92085390Y-92416285D01*
X92085390Y-92416285D02*
X92133009Y-92463904D01*
X92133009Y-92463904D02*
X92180628Y-92559142D01*
X92180628Y-92559142D02*
X92180628Y-92940094D01*
X92656819Y-91416285D02*
X92656819Y-91987713D01*
X92656819Y-91701999D02*
X91656819Y-91701999D01*
X91656819Y-91701999D02*
X91799676Y-91797237D01*
X91799676Y-91797237D02*
X91894914Y-91892475D01*
X91894914Y-91892475D02*
X91942533Y-91987713D01*
X79160761Y-95958819D02*
X78827428Y-95482628D01*
X78589333Y-95958819D02*
X78589333Y-94958819D01*
X78589333Y-94958819D02*
X78970285Y-94958819D01*
X78970285Y-94958819D02*
X79065523Y-95006438D01*
X79065523Y-95006438D02*
X79113142Y-95054057D01*
X79113142Y-95054057D02*
X79160761Y-95149295D01*
X79160761Y-95149295D02*
X79160761Y-95292152D01*
X79160761Y-95292152D02*
X79113142Y-95387390D01*
X79113142Y-95387390D02*
X79065523Y-95435009D01*
X79065523Y-95435009D02*
X78970285Y-95482628D01*
X78970285Y-95482628D02*
X78589333Y-95482628D01*
X79446476Y-94958819D02*
X79779809Y-95958819D01*
X79779809Y-95958819D02*
X80113142Y-94958819D01*
X80970285Y-95958819D02*
X80398857Y-95958819D01*
X80684571Y-95958819D02*
X80684571Y-94958819D01*
X80684571Y-94958819D02*
X80589333Y-95101676D01*
X80589333Y-95101676D02*
X80494095Y-95196914D01*
X80494095Y-95196914D02*
X80398857Y-95244533D01*
X106402142Y-89205580D02*
X106354523Y-89253200D01*
X106354523Y-89253200D02*
X106211666Y-89300819D01*
X106211666Y-89300819D02*
X106116428Y-89300819D01*
X106116428Y-89300819D02*
X105973571Y-89253200D01*
X105973571Y-89253200D02*
X105878333Y-89157961D01*
X105878333Y-89157961D02*
X105830714Y-89062723D01*
X105830714Y-89062723D02*
X105783095Y-88872247D01*
X105783095Y-88872247D02*
X105783095Y-88729390D01*
X105783095Y-88729390D02*
X105830714Y-88538914D01*
X105830714Y-88538914D02*
X105878333Y-88443676D01*
X105878333Y-88443676D02*
X105973571Y-88348438D01*
X105973571Y-88348438D02*
X106116428Y-88300819D01*
X106116428Y-88300819D02*
X106211666Y-88300819D01*
X106211666Y-88300819D02*
X106354523Y-88348438D01*
X106354523Y-88348438D02*
X106402142Y-88396057D01*
X107354523Y-89300819D02*
X106783095Y-89300819D01*
X107068809Y-89300819D02*
X107068809Y-88300819D01*
X107068809Y-88300819D02*
X106973571Y-88443676D01*
X106973571Y-88443676D02*
X106878333Y-88538914D01*
X106878333Y-88538914D02*
X106783095Y-88586533D01*
X107687857Y-88300819D02*
X108354523Y-88300819D01*
X108354523Y-88300819D02*
X107925952Y-89300819D01*
X95704819Y-92368666D02*
X95228628Y-92701999D01*
X95704819Y-92940094D02*
X94704819Y-92940094D01*
X94704819Y-92940094D02*
X94704819Y-92559142D01*
X94704819Y-92559142D02*
X94752438Y-92463904D01*
X94752438Y-92463904D02*
X94800057Y-92416285D01*
X94800057Y-92416285D02*
X94895295Y-92368666D01*
X94895295Y-92368666D02*
X95038152Y-92368666D01*
X95038152Y-92368666D02*
X95133390Y-92416285D01*
X95133390Y-92416285D02*
X95181009Y-92463904D01*
X95181009Y-92463904D02*
X95228628Y-92559142D01*
X95228628Y-92559142D02*
X95228628Y-92940094D01*
X94704819Y-91463904D02*
X94704819Y-91940094D01*
X94704819Y-91940094D02*
X95181009Y-91987713D01*
X95181009Y-91987713D02*
X95133390Y-91940094D01*
X95133390Y-91940094D02*
X95085771Y-91844856D01*
X95085771Y-91844856D02*
X95085771Y-91606761D01*
X95085771Y-91606761D02*
X95133390Y-91511523D01*
X95133390Y-91511523D02*
X95181009Y-91463904D01*
X95181009Y-91463904D02*
X95276247Y-91416285D01*
X95276247Y-91416285D02*
X95514342Y-91416285D01*
X95514342Y-91416285D02*
X95609580Y-91463904D01*
X95609580Y-91463904D02*
X95657200Y-91511523D01*
X95657200Y-91511523D02*
X95704819Y-91606761D01*
X95704819Y-91606761D02*
X95704819Y-91844856D01*
X95704819Y-91844856D02*
X95657200Y-91940094D01*
X95657200Y-91940094D02*
X95609580Y-91987713D01*
X108309580Y-80684666D02*
X108357200Y-80732285D01*
X108357200Y-80732285D02*
X108404819Y-80875142D01*
X108404819Y-80875142D02*
X108404819Y-80970380D01*
X108404819Y-80970380D02*
X108357200Y-81113237D01*
X108357200Y-81113237D02*
X108261961Y-81208475D01*
X108261961Y-81208475D02*
X108166723Y-81256094D01*
X108166723Y-81256094D02*
X107976247Y-81303713D01*
X107976247Y-81303713D02*
X107833390Y-81303713D01*
X107833390Y-81303713D02*
X107642914Y-81256094D01*
X107642914Y-81256094D02*
X107547676Y-81208475D01*
X107547676Y-81208475D02*
X107452438Y-81113237D01*
X107452438Y-81113237D02*
X107404819Y-80970380D01*
X107404819Y-80970380D02*
X107404819Y-80875142D01*
X107404819Y-80875142D02*
X107452438Y-80732285D01*
X107452438Y-80732285D02*
X107500057Y-80684666D01*
X107500057Y-80303713D02*
X107452438Y-80256094D01*
X107452438Y-80256094D02*
X107404819Y-80160856D01*
X107404819Y-80160856D02*
X107404819Y-79922761D01*
X107404819Y-79922761D02*
X107452438Y-79827523D01*
X107452438Y-79827523D02*
X107500057Y-79779904D01*
X107500057Y-79779904D02*
X107595295Y-79732285D01*
X107595295Y-79732285D02*
X107690533Y-79732285D01*
X107690533Y-79732285D02*
X107833390Y-79779904D01*
X107833390Y-79779904D02*
X108404819Y-80351332D01*
X108404819Y-80351332D02*
X108404819Y-79732285D01*
X73747333Y-101451580D02*
X73699714Y-101499200D01*
X73699714Y-101499200D02*
X73556857Y-101546819D01*
X73556857Y-101546819D02*
X73461619Y-101546819D01*
X73461619Y-101546819D02*
X73318762Y-101499200D01*
X73318762Y-101499200D02*
X73223524Y-101403961D01*
X73223524Y-101403961D02*
X73175905Y-101308723D01*
X73175905Y-101308723D02*
X73128286Y-101118247D01*
X73128286Y-101118247D02*
X73128286Y-100975390D01*
X73128286Y-100975390D02*
X73175905Y-100784914D01*
X73175905Y-100784914D02*
X73223524Y-100689676D01*
X73223524Y-100689676D02*
X73318762Y-100594438D01*
X73318762Y-100594438D02*
X73461619Y-100546819D01*
X73461619Y-100546819D02*
X73556857Y-100546819D01*
X73556857Y-100546819D02*
X73699714Y-100594438D01*
X73699714Y-100594438D02*
X73747333Y-100642057D01*
X74080667Y-100546819D02*
X74699714Y-100546819D01*
X74699714Y-100546819D02*
X74366381Y-100927771D01*
X74366381Y-100927771D02*
X74509238Y-100927771D01*
X74509238Y-100927771D02*
X74604476Y-100975390D01*
X74604476Y-100975390D02*
X74652095Y-101023009D01*
X74652095Y-101023009D02*
X74699714Y-101118247D01*
X74699714Y-101118247D02*
X74699714Y-101356342D01*
X74699714Y-101356342D02*
X74652095Y-101451580D01*
X74652095Y-101451580D02*
X74604476Y-101499200D01*
X74604476Y-101499200D02*
X74509238Y-101546819D01*
X74509238Y-101546819D02*
X74223524Y-101546819D01*
X74223524Y-101546819D02*
X74128286Y-101499200D01*
X74128286Y-101499200D02*
X74080667Y-101451580D01*
X109839095Y-98333819D02*
X109839095Y-99143342D01*
X109839095Y-99143342D02*
X109886714Y-99238580D01*
X109886714Y-99238580D02*
X109934333Y-99286200D01*
X109934333Y-99286200D02*
X110029571Y-99333819D01*
X110029571Y-99333819D02*
X110220047Y-99333819D01*
X110220047Y-99333819D02*
X110315285Y-99286200D01*
X110315285Y-99286200D02*
X110362904Y-99238580D01*
X110362904Y-99238580D02*
X110410523Y-99143342D01*
X110410523Y-99143342D02*
X110410523Y-98333819D01*
X110839095Y-98429057D02*
X110886714Y-98381438D01*
X110886714Y-98381438D02*
X110981952Y-98333819D01*
X110981952Y-98333819D02*
X111220047Y-98333819D01*
X111220047Y-98333819D02*
X111315285Y-98381438D01*
X111315285Y-98381438D02*
X111362904Y-98429057D01*
X111362904Y-98429057D02*
X111410523Y-98524295D01*
X111410523Y-98524295D02*
X111410523Y-98619533D01*
X111410523Y-98619533D02*
X111362904Y-98762390D01*
X111362904Y-98762390D02*
X110791476Y-99333819D01*
X110791476Y-99333819D02*
X111410523Y-99333819D01*
X103199819Y-72088333D02*
X103914104Y-72088333D01*
X103914104Y-72088333D02*
X104056961Y-72135952D01*
X104056961Y-72135952D02*
X104152200Y-72231190D01*
X104152200Y-72231190D02*
X104199819Y-72374047D01*
X104199819Y-72374047D02*
X104199819Y-72469285D01*
X103199819Y-71183571D02*
X103199819Y-71374047D01*
X103199819Y-71374047D02*
X103247438Y-71469285D01*
X103247438Y-71469285D02*
X103295057Y-71516904D01*
X103295057Y-71516904D02*
X103437914Y-71612142D01*
X103437914Y-71612142D02*
X103628390Y-71659761D01*
X103628390Y-71659761D02*
X104009342Y-71659761D01*
X104009342Y-71659761D02*
X104104580Y-71612142D01*
X104104580Y-71612142D02*
X104152200Y-71564523D01*
X104152200Y-71564523D02*
X104199819Y-71469285D01*
X104199819Y-71469285D02*
X104199819Y-71278809D01*
X104199819Y-71278809D02*
X104152200Y-71183571D01*
X104152200Y-71183571D02*
X104104580Y-71135952D01*
X104104580Y-71135952D02*
X104009342Y-71088333D01*
X104009342Y-71088333D02*
X103771247Y-71088333D01*
X103771247Y-71088333D02*
X103676009Y-71135952D01*
X103676009Y-71135952D02*
X103628390Y-71183571D01*
X103628390Y-71183571D02*
X103580771Y-71278809D01*
X103580771Y-71278809D02*
X103580771Y-71469285D01*
X103580771Y-71469285D02*
X103628390Y-71564523D01*
X103628390Y-71564523D02*
X103676009Y-71612142D01*
X103676009Y-71612142D02*
X103771247Y-71659761D01*
X102435819Y-92582857D02*
X101959628Y-92916190D01*
X102435819Y-93154285D02*
X101435819Y-93154285D01*
X101435819Y-93154285D02*
X101435819Y-92773333D01*
X101435819Y-92773333D02*
X101483438Y-92678095D01*
X101483438Y-92678095D02*
X101531057Y-92630476D01*
X101531057Y-92630476D02*
X101626295Y-92582857D01*
X101626295Y-92582857D02*
X101769152Y-92582857D01*
X101769152Y-92582857D02*
X101864390Y-92630476D01*
X101864390Y-92630476D02*
X101912009Y-92678095D01*
X101912009Y-92678095D02*
X101959628Y-92773333D01*
X101959628Y-92773333D02*
X101959628Y-93154285D01*
X102435819Y-91630476D02*
X102435819Y-92201904D01*
X102435819Y-91916190D02*
X101435819Y-91916190D01*
X101435819Y-91916190D02*
X101578676Y-92011428D01*
X101578676Y-92011428D02*
X101673914Y-92106666D01*
X101673914Y-92106666D02*
X101721533Y-92201904D01*
X102435819Y-90678095D02*
X102435819Y-91249523D01*
X102435819Y-90963809D02*
X101435819Y-90963809D01*
X101435819Y-90963809D02*
X101578676Y-91059047D01*
X101578676Y-91059047D02*
X101673914Y-91154285D01*
X101673914Y-91154285D02*
X101721533Y-91249523D01*
X98925142Y-100943580D02*
X98877523Y-100991200D01*
X98877523Y-100991200D02*
X98734666Y-101038819D01*
X98734666Y-101038819D02*
X98639428Y-101038819D01*
X98639428Y-101038819D02*
X98496571Y-100991200D01*
X98496571Y-100991200D02*
X98401333Y-100895961D01*
X98401333Y-100895961D02*
X98353714Y-100800723D01*
X98353714Y-100800723D02*
X98306095Y-100610247D01*
X98306095Y-100610247D02*
X98306095Y-100467390D01*
X98306095Y-100467390D02*
X98353714Y-100276914D01*
X98353714Y-100276914D02*
X98401333Y-100181676D01*
X98401333Y-100181676D02*
X98496571Y-100086438D01*
X98496571Y-100086438D02*
X98639428Y-100038819D01*
X98639428Y-100038819D02*
X98734666Y-100038819D01*
X98734666Y-100038819D02*
X98877523Y-100086438D01*
X98877523Y-100086438D02*
X98925142Y-100134057D01*
X99877523Y-101038819D02*
X99306095Y-101038819D01*
X99591809Y-101038819D02*
X99591809Y-100038819D01*
X99591809Y-100038819D02*
X99496571Y-100181676D01*
X99496571Y-100181676D02*
X99401333Y-100276914D01*
X99401333Y-100276914D02*
X99306095Y-100324533D01*
X100258476Y-100134057D02*
X100306095Y-100086438D01*
X100306095Y-100086438D02*
X100401333Y-100038819D01*
X100401333Y-100038819D02*
X100639428Y-100038819D01*
X100639428Y-100038819D02*
X100734666Y-100086438D01*
X100734666Y-100086438D02*
X100782285Y-100134057D01*
X100782285Y-100134057D02*
X100829904Y-100229295D01*
X100829904Y-100229295D02*
X100829904Y-100324533D01*
X100829904Y-100324533D02*
X100782285Y-100467390D01*
X100782285Y-100467390D02*
X100210857Y-101038819D01*
X100210857Y-101038819D02*
X100829904Y-101038819D01*
X115070095Y-64478819D02*
X115641523Y-64478819D01*
X115355809Y-65478819D02*
X115355809Y-64478819D01*
X115974857Y-65478819D02*
X115974857Y-64478819D01*
X115974857Y-64478819D02*
X116355809Y-64478819D01*
X116355809Y-64478819D02*
X116451047Y-64526438D01*
X116451047Y-64526438D02*
X116498666Y-64574057D01*
X116498666Y-64574057D02*
X116546285Y-64669295D01*
X116546285Y-64669295D02*
X116546285Y-64812152D01*
X116546285Y-64812152D02*
X116498666Y-64907390D01*
X116498666Y-64907390D02*
X116451047Y-64955009D01*
X116451047Y-64955009D02*
X116355809Y-65002628D01*
X116355809Y-65002628D02*
X115974857Y-65002628D01*
X117451047Y-64478819D02*
X116974857Y-64478819D01*
X116974857Y-64478819D02*
X116927238Y-64955009D01*
X116927238Y-64955009D02*
X116974857Y-64907390D01*
X116974857Y-64907390D02*
X117070095Y-64859771D01*
X117070095Y-64859771D02*
X117308190Y-64859771D01*
X117308190Y-64859771D02*
X117403428Y-64907390D01*
X117403428Y-64907390D02*
X117451047Y-64955009D01*
X117451047Y-64955009D02*
X117498666Y-65050247D01*
X117498666Y-65050247D02*
X117498666Y-65288342D01*
X117498666Y-65288342D02*
X117451047Y-65383580D01*
X117451047Y-65383580D02*
X117403428Y-65431200D01*
X117403428Y-65431200D02*
X117308190Y-65478819D01*
X117308190Y-65478819D02*
X117070095Y-65478819D01*
X117070095Y-65478819D02*
X116974857Y-65431200D01*
X116974857Y-65431200D02*
X116927238Y-65383580D01*
X114879809Y-66256819D02*
X115451237Y-66256819D01*
X115165523Y-67256819D02*
X115165523Y-66256819D01*
X115784571Y-67256819D02*
X115784571Y-66256819D01*
X115784571Y-66256819D02*
X116165523Y-66256819D01*
X116165523Y-66256819D02*
X116260761Y-66304438D01*
X116260761Y-66304438D02*
X116308380Y-66352057D01*
X116308380Y-66352057D02*
X116355999Y-66447295D01*
X116355999Y-66447295D02*
X116355999Y-66590152D01*
X116355999Y-66590152D02*
X116308380Y-66685390D01*
X116308380Y-66685390D02*
X116260761Y-66733009D01*
X116260761Y-66733009D02*
X116165523Y-66780628D01*
X116165523Y-66780628D02*
X115784571Y-66780628D01*
X116546476Y-67352057D02*
X117308380Y-67352057D01*
X117403619Y-66256819D02*
X117736952Y-67256819D01*
X117736952Y-67256819D02*
X118070285Y-66256819D01*
X118975047Y-67256819D02*
X118641714Y-66780628D01*
X118403619Y-67256819D02*
X118403619Y-66256819D01*
X118403619Y-66256819D02*
X118784571Y-66256819D01*
X118784571Y-66256819D02*
X118879809Y-66304438D01*
X118879809Y-66304438D02*
X118927428Y-66352057D01*
X118927428Y-66352057D02*
X118975047Y-66447295D01*
X118975047Y-66447295D02*
X118975047Y-66590152D01*
X118975047Y-66590152D02*
X118927428Y-66685390D01*
X118927428Y-66685390D02*
X118879809Y-66733009D01*
X118879809Y-66733009D02*
X118784571Y-66780628D01*
X118784571Y-66780628D02*
X118403619Y-66780628D01*
X119403619Y-66733009D02*
X119736952Y-66733009D01*
X119879809Y-67256819D02*
X119403619Y-67256819D01*
X119403619Y-67256819D02*
X119403619Y-66256819D01*
X119403619Y-66256819D02*
X119879809Y-66256819D01*
X120641714Y-66733009D02*
X120308381Y-66733009D01*
X120308381Y-67256819D02*
X120308381Y-66256819D01*
X120308381Y-66256819D02*
X120784571Y-66256819D01*
X95758095Y-84798819D02*
X95758095Y-85608342D01*
X95758095Y-85608342D02*
X95805714Y-85703580D01*
X95805714Y-85703580D02*
X95853333Y-85751200D01*
X95853333Y-85751200D02*
X95948571Y-85798819D01*
X95948571Y-85798819D02*
X96139047Y-85798819D01*
X96139047Y-85798819D02*
X96234285Y-85751200D01*
X96234285Y-85751200D02*
X96281904Y-85703580D01*
X96281904Y-85703580D02*
X96329523Y-85608342D01*
X96329523Y-85608342D02*
X96329523Y-84798819D01*
X97329523Y-85798819D02*
X96758095Y-85798819D01*
X97043809Y-85798819D02*
X97043809Y-84798819D01*
X97043809Y-84798819D02*
X96948571Y-84941676D01*
X96948571Y-84941676D02*
X96853333Y-85036914D01*
X96853333Y-85036914D02*
X96758095Y-85084533D01*
X130780819Y-54697238D02*
X130304628Y-55030571D01*
X130780819Y-55268666D02*
X129780819Y-55268666D01*
X129780819Y-55268666D02*
X129780819Y-54887714D01*
X129780819Y-54887714D02*
X129828438Y-54792476D01*
X129828438Y-54792476D02*
X129876057Y-54744857D01*
X129876057Y-54744857D02*
X129971295Y-54697238D01*
X129971295Y-54697238D02*
X130114152Y-54697238D01*
X130114152Y-54697238D02*
X130209390Y-54744857D01*
X130209390Y-54744857D02*
X130257009Y-54792476D01*
X130257009Y-54792476D02*
X130304628Y-54887714D01*
X130304628Y-54887714D02*
X130304628Y-55268666D01*
X129780819Y-54411523D02*
X130780819Y-54078190D01*
X130780819Y-54078190D02*
X129780819Y-53744857D01*
X129780819Y-53506761D02*
X129780819Y-52887714D01*
X129780819Y-52887714D02*
X130161771Y-53221047D01*
X130161771Y-53221047D02*
X130161771Y-53078190D01*
X130161771Y-53078190D02*
X130209390Y-52982952D01*
X130209390Y-52982952D02*
X130257009Y-52935333D01*
X130257009Y-52935333D02*
X130352247Y-52887714D01*
X130352247Y-52887714D02*
X130590342Y-52887714D01*
X130590342Y-52887714D02*
X130685580Y-52935333D01*
X130685580Y-52935333D02*
X130733200Y-52982952D01*
X130733200Y-52982952D02*
X130780819Y-53078190D01*
X130780819Y-53078190D02*
X130780819Y-53363904D01*
X130780819Y-53363904D02*
X130733200Y-53459142D01*
X130733200Y-53459142D02*
X130685580Y-53506761D01*
X115308142Y-104193819D02*
X114974809Y-103717628D01*
X114736714Y-104193819D02*
X114736714Y-103193819D01*
X114736714Y-103193819D02*
X115117666Y-103193819D01*
X115117666Y-103193819D02*
X115212904Y-103241438D01*
X115212904Y-103241438D02*
X115260523Y-103289057D01*
X115260523Y-103289057D02*
X115308142Y-103384295D01*
X115308142Y-103384295D02*
X115308142Y-103527152D01*
X115308142Y-103527152D02*
X115260523Y-103622390D01*
X115260523Y-103622390D02*
X115212904Y-103670009D01*
X115212904Y-103670009D02*
X115117666Y-103717628D01*
X115117666Y-103717628D02*
X114736714Y-103717628D01*
X116260523Y-104193819D02*
X115689095Y-104193819D01*
X115974809Y-104193819D02*
X115974809Y-103193819D01*
X115974809Y-103193819D02*
X115879571Y-103336676D01*
X115879571Y-103336676D02*
X115784333Y-103431914D01*
X115784333Y-103431914D02*
X115689095Y-103479533D01*
X116879571Y-103193819D02*
X116974809Y-103193819D01*
X116974809Y-103193819D02*
X117070047Y-103241438D01*
X117070047Y-103241438D02*
X117117666Y-103289057D01*
X117117666Y-103289057D02*
X117165285Y-103384295D01*
X117165285Y-103384295D02*
X117212904Y-103574771D01*
X117212904Y-103574771D02*
X117212904Y-103812866D01*
X117212904Y-103812866D02*
X117165285Y-104003342D01*
X117165285Y-104003342D02*
X117117666Y-104098580D01*
X117117666Y-104098580D02*
X117070047Y-104146200D01*
X117070047Y-104146200D02*
X116974809Y-104193819D01*
X116974809Y-104193819D02*
X116879571Y-104193819D01*
X116879571Y-104193819D02*
X116784333Y-104146200D01*
X116784333Y-104146200D02*
X116736714Y-104098580D01*
X116736714Y-104098580D02*
X116689095Y-104003342D01*
X116689095Y-104003342D02*
X116641476Y-103812866D01*
X116641476Y-103812866D02*
X116641476Y-103574771D01*
X116641476Y-103574771D02*
X116689095Y-103384295D01*
X116689095Y-103384295D02*
X116736714Y-103289057D01*
X116736714Y-103289057D02*
X116784333Y-103241438D01*
X116784333Y-103241438D02*
X116879571Y-103193819D01*
X143811666Y-80448819D02*
X143811666Y-81163104D01*
X143811666Y-81163104D02*
X143764047Y-81305961D01*
X143764047Y-81305961D02*
X143668809Y-81401200D01*
X143668809Y-81401200D02*
X143525952Y-81448819D01*
X143525952Y-81448819D02*
X143430714Y-81448819D01*
X144764047Y-80448819D02*
X144287857Y-80448819D01*
X144287857Y-80448819D02*
X144240238Y-80925009D01*
X144240238Y-80925009D02*
X144287857Y-80877390D01*
X144287857Y-80877390D02*
X144383095Y-80829771D01*
X144383095Y-80829771D02*
X144621190Y-80829771D01*
X144621190Y-80829771D02*
X144716428Y-80877390D01*
X144716428Y-80877390D02*
X144764047Y-80925009D01*
X144764047Y-80925009D02*
X144811666Y-81020247D01*
X144811666Y-81020247D02*
X144811666Y-81258342D01*
X144811666Y-81258342D02*
X144764047Y-81353580D01*
X144764047Y-81353580D02*
X144716428Y-81401200D01*
X144716428Y-81401200D02*
X144621190Y-81448819D01*
X144621190Y-81448819D02*
X144383095Y-81448819D01*
X144383095Y-81448819D02*
X144287857Y-81401200D01*
X144287857Y-81401200D02*
X144240238Y-81353580D01*
X103515580Y-98632857D02*
X103563200Y-98680476D01*
X103563200Y-98680476D02*
X103610819Y-98823333D01*
X103610819Y-98823333D02*
X103610819Y-98918571D01*
X103610819Y-98918571D02*
X103563200Y-99061428D01*
X103563200Y-99061428D02*
X103467961Y-99156666D01*
X103467961Y-99156666D02*
X103372723Y-99204285D01*
X103372723Y-99204285D02*
X103182247Y-99251904D01*
X103182247Y-99251904D02*
X103039390Y-99251904D01*
X103039390Y-99251904D02*
X102848914Y-99204285D01*
X102848914Y-99204285D02*
X102753676Y-99156666D01*
X102753676Y-99156666D02*
X102658438Y-99061428D01*
X102658438Y-99061428D02*
X102610819Y-98918571D01*
X102610819Y-98918571D02*
X102610819Y-98823333D01*
X102610819Y-98823333D02*
X102658438Y-98680476D01*
X102658438Y-98680476D02*
X102706057Y-98632857D01*
X103610819Y-97680476D02*
X103610819Y-98251904D01*
X103610819Y-97966190D02*
X102610819Y-97966190D01*
X102610819Y-97966190D02*
X102753676Y-98061428D01*
X102753676Y-98061428D02*
X102848914Y-98156666D01*
X102848914Y-98156666D02*
X102896533Y-98251904D01*
X102610819Y-96823333D02*
X102610819Y-97013809D01*
X102610819Y-97013809D02*
X102658438Y-97109047D01*
X102658438Y-97109047D02*
X102706057Y-97156666D01*
X102706057Y-97156666D02*
X102848914Y-97251904D01*
X102848914Y-97251904D02*
X103039390Y-97299523D01*
X103039390Y-97299523D02*
X103420342Y-97299523D01*
X103420342Y-97299523D02*
X103515580Y-97251904D01*
X103515580Y-97251904D02*
X103563200Y-97204285D01*
X103563200Y-97204285D02*
X103610819Y-97109047D01*
X103610819Y-97109047D02*
X103610819Y-96918571D01*
X103610819Y-96918571D02*
X103563200Y-96823333D01*
X103563200Y-96823333D02*
X103515580Y-96775714D01*
X103515580Y-96775714D02*
X103420342Y-96728095D01*
X103420342Y-96728095D02*
X103182247Y-96728095D01*
X103182247Y-96728095D02*
X103087009Y-96775714D01*
X103087009Y-96775714D02*
X103039390Y-96823333D01*
X103039390Y-96823333D02*
X102991771Y-96918571D01*
X102991771Y-96918571D02*
X102991771Y-97109047D01*
X102991771Y-97109047D02*
X103039390Y-97204285D01*
X103039390Y-97204285D02*
X103087009Y-97251904D01*
X103087009Y-97251904D02*
X103182247Y-97299523D01*
X64603333Y-46079580D02*
X64555714Y-46127200D01*
X64555714Y-46127200D02*
X64412857Y-46174819D01*
X64412857Y-46174819D02*
X64317619Y-46174819D01*
X64317619Y-46174819D02*
X64174762Y-46127200D01*
X64174762Y-46127200D02*
X64079524Y-46031961D01*
X64079524Y-46031961D02*
X64031905Y-45936723D01*
X64031905Y-45936723D02*
X63984286Y-45746247D01*
X63984286Y-45746247D02*
X63984286Y-45603390D01*
X63984286Y-45603390D02*
X64031905Y-45412914D01*
X64031905Y-45412914D02*
X64079524Y-45317676D01*
X64079524Y-45317676D02*
X64174762Y-45222438D01*
X64174762Y-45222438D02*
X64317619Y-45174819D01*
X64317619Y-45174819D02*
X64412857Y-45174819D01*
X64412857Y-45174819D02*
X64555714Y-45222438D01*
X64555714Y-45222438D02*
X64603333Y-45270057D01*
X65079524Y-46174819D02*
X65270000Y-46174819D01*
X65270000Y-46174819D02*
X65365238Y-46127200D01*
X65365238Y-46127200D02*
X65412857Y-46079580D01*
X65412857Y-46079580D02*
X65508095Y-45936723D01*
X65508095Y-45936723D02*
X65555714Y-45746247D01*
X65555714Y-45746247D02*
X65555714Y-45365295D01*
X65555714Y-45365295D02*
X65508095Y-45270057D01*
X65508095Y-45270057D02*
X65460476Y-45222438D01*
X65460476Y-45222438D02*
X65365238Y-45174819D01*
X65365238Y-45174819D02*
X65174762Y-45174819D01*
X65174762Y-45174819D02*
X65079524Y-45222438D01*
X65079524Y-45222438D02*
X65031905Y-45270057D01*
X65031905Y-45270057D02*
X64984286Y-45365295D01*
X64984286Y-45365295D02*
X64984286Y-45603390D01*
X64984286Y-45603390D02*
X65031905Y-45698628D01*
X65031905Y-45698628D02*
X65079524Y-45746247D01*
X65079524Y-45746247D02*
X65174762Y-45793866D01*
X65174762Y-45793866D02*
X65365238Y-45793866D01*
X65365238Y-45793866D02*
X65460476Y-45746247D01*
X65460476Y-45746247D02*
X65508095Y-45698628D01*
X65508095Y-45698628D02*
X65555714Y-45603390D01*
X147240666Y-60414819D02*
X147240666Y-61129104D01*
X147240666Y-61129104D02*
X147193047Y-61271961D01*
X147193047Y-61271961D02*
X147097809Y-61367200D01*
X147097809Y-61367200D02*
X146954952Y-61414819D01*
X146954952Y-61414819D02*
X146859714Y-61414819D01*
X147669238Y-60510057D02*
X147716857Y-60462438D01*
X147716857Y-60462438D02*
X147812095Y-60414819D01*
X147812095Y-60414819D02*
X148050190Y-60414819D01*
X148050190Y-60414819D02*
X148145428Y-60462438D01*
X148145428Y-60462438D02*
X148193047Y-60510057D01*
X148193047Y-60510057D02*
X148240666Y-60605295D01*
X148240666Y-60605295D02*
X148240666Y-60700533D01*
X148240666Y-60700533D02*
X148193047Y-60843390D01*
X148193047Y-60843390D02*
X147621619Y-61414819D01*
X147621619Y-61414819D02*
X148240666Y-61414819D01*
X108309580Y-59824857D02*
X108357200Y-59872476D01*
X108357200Y-59872476D02*
X108404819Y-60015333D01*
X108404819Y-60015333D02*
X108404819Y-60110571D01*
X108404819Y-60110571D02*
X108357200Y-60253428D01*
X108357200Y-60253428D02*
X108261961Y-60348666D01*
X108261961Y-60348666D02*
X108166723Y-60396285D01*
X108166723Y-60396285D02*
X107976247Y-60443904D01*
X107976247Y-60443904D02*
X107833390Y-60443904D01*
X107833390Y-60443904D02*
X107642914Y-60396285D01*
X107642914Y-60396285D02*
X107547676Y-60348666D01*
X107547676Y-60348666D02*
X107452438Y-60253428D01*
X107452438Y-60253428D02*
X107404819Y-60110571D01*
X107404819Y-60110571D02*
X107404819Y-60015333D01*
X107404819Y-60015333D02*
X107452438Y-59872476D01*
X107452438Y-59872476D02*
X107500057Y-59824857D01*
X108404819Y-58872476D02*
X108404819Y-59443904D01*
X108404819Y-59158190D02*
X107404819Y-59158190D01*
X107404819Y-59158190D02*
X107547676Y-59253428D01*
X107547676Y-59253428D02*
X107642914Y-59348666D01*
X107642914Y-59348666D02*
X107690533Y-59443904D01*
X107404819Y-58253428D02*
X107404819Y-58158190D01*
X107404819Y-58158190D02*
X107452438Y-58062952D01*
X107452438Y-58062952D02*
X107500057Y-58015333D01*
X107500057Y-58015333D02*
X107595295Y-57967714D01*
X107595295Y-57967714D02*
X107785771Y-57920095D01*
X107785771Y-57920095D02*
X108023866Y-57920095D01*
X108023866Y-57920095D02*
X108214342Y-57967714D01*
X108214342Y-57967714D02*
X108309580Y-58015333D01*
X108309580Y-58015333D02*
X108357200Y-58062952D01*
X108357200Y-58062952D02*
X108404819Y-58158190D01*
X108404819Y-58158190D02*
X108404819Y-58253428D01*
X108404819Y-58253428D02*
X108357200Y-58348666D01*
X108357200Y-58348666D02*
X108309580Y-58396285D01*
X108309580Y-58396285D02*
X108214342Y-58443904D01*
X108214342Y-58443904D02*
X108023866Y-58491523D01*
X108023866Y-58491523D02*
X107785771Y-58491523D01*
X107785771Y-58491523D02*
X107595295Y-58443904D01*
X107595295Y-58443904D02*
X107500057Y-58396285D01*
X107500057Y-58396285D02*
X107452438Y-58348666D01*
X107452438Y-58348666D02*
X107404819Y-58253428D01*
X102816819Y-75350666D02*
X102340628Y-75683999D01*
X102816819Y-75922094D02*
X101816819Y-75922094D01*
X101816819Y-75922094D02*
X101816819Y-75541142D01*
X101816819Y-75541142D02*
X101864438Y-75445904D01*
X101864438Y-75445904D02*
X101912057Y-75398285D01*
X101912057Y-75398285D02*
X102007295Y-75350666D01*
X102007295Y-75350666D02*
X102150152Y-75350666D01*
X102150152Y-75350666D02*
X102245390Y-75398285D01*
X102245390Y-75398285D02*
X102293009Y-75445904D01*
X102293009Y-75445904D02*
X102340628Y-75541142D01*
X102340628Y-75541142D02*
X102340628Y-75922094D01*
X101912057Y-74969713D02*
X101864438Y-74922094D01*
X101864438Y-74922094D02*
X101816819Y-74826856D01*
X101816819Y-74826856D02*
X101816819Y-74588761D01*
X101816819Y-74588761D02*
X101864438Y-74493523D01*
X101864438Y-74493523D02*
X101912057Y-74445904D01*
X101912057Y-74445904D02*
X102007295Y-74398285D01*
X102007295Y-74398285D02*
X102102533Y-74398285D01*
X102102533Y-74398285D02*
X102245390Y-74445904D01*
X102245390Y-74445904D02*
X102816819Y-75017332D01*
X102816819Y-75017332D02*
X102816819Y-74398285D01*
X129434819Y-101226857D02*
X128958628Y-101560190D01*
X129434819Y-101798285D02*
X128434819Y-101798285D01*
X128434819Y-101798285D02*
X128434819Y-101417333D01*
X128434819Y-101417333D02*
X128482438Y-101322095D01*
X128482438Y-101322095D02*
X128530057Y-101274476D01*
X128530057Y-101274476D02*
X128625295Y-101226857D01*
X128625295Y-101226857D02*
X128768152Y-101226857D01*
X128768152Y-101226857D02*
X128863390Y-101274476D01*
X128863390Y-101274476D02*
X128911009Y-101322095D01*
X128911009Y-101322095D02*
X128958628Y-101417333D01*
X128958628Y-101417333D02*
X128958628Y-101798285D01*
X129434819Y-100274476D02*
X129434819Y-100845904D01*
X129434819Y-100560190D02*
X128434819Y-100560190D01*
X128434819Y-100560190D02*
X128577676Y-100655428D01*
X128577676Y-100655428D02*
X128672914Y-100750666D01*
X128672914Y-100750666D02*
X128720533Y-100845904D01*
X128434819Y-99941142D02*
X128434819Y-99322095D01*
X128434819Y-99322095D02*
X128815771Y-99655428D01*
X128815771Y-99655428D02*
X128815771Y-99512571D01*
X128815771Y-99512571D02*
X128863390Y-99417333D01*
X128863390Y-99417333D02*
X128911009Y-99369714D01*
X128911009Y-99369714D02*
X129006247Y-99322095D01*
X129006247Y-99322095D02*
X129244342Y-99322095D01*
X129244342Y-99322095D02*
X129339580Y-99369714D01*
X129339580Y-99369714D02*
X129387200Y-99417333D01*
X129387200Y-99417333D02*
X129434819Y-99512571D01*
X129434819Y-99512571D02*
X129434819Y-99798285D01*
X129434819Y-99798285D02*
X129387200Y-99893523D01*
X129387200Y-99893523D02*
X129339580Y-99941142D01*
X111452819Y-68238666D02*
X110976628Y-68571999D01*
X111452819Y-68810094D02*
X110452819Y-68810094D01*
X110452819Y-68810094D02*
X110452819Y-68429142D01*
X110452819Y-68429142D02*
X110500438Y-68333904D01*
X110500438Y-68333904D02*
X110548057Y-68286285D01*
X110548057Y-68286285D02*
X110643295Y-68238666D01*
X110643295Y-68238666D02*
X110786152Y-68238666D01*
X110786152Y-68238666D02*
X110881390Y-68286285D01*
X110881390Y-68286285D02*
X110929009Y-68333904D01*
X110929009Y-68333904D02*
X110976628Y-68429142D01*
X110976628Y-68429142D02*
X110976628Y-68810094D01*
X110881390Y-67667237D02*
X110833771Y-67762475D01*
X110833771Y-67762475D02*
X110786152Y-67810094D01*
X110786152Y-67810094D02*
X110690914Y-67857713D01*
X110690914Y-67857713D02*
X110643295Y-67857713D01*
X110643295Y-67857713D02*
X110548057Y-67810094D01*
X110548057Y-67810094D02*
X110500438Y-67762475D01*
X110500438Y-67762475D02*
X110452819Y-67667237D01*
X110452819Y-67667237D02*
X110452819Y-67476761D01*
X110452819Y-67476761D02*
X110500438Y-67381523D01*
X110500438Y-67381523D02*
X110548057Y-67333904D01*
X110548057Y-67333904D02*
X110643295Y-67286285D01*
X110643295Y-67286285D02*
X110690914Y-67286285D01*
X110690914Y-67286285D02*
X110786152Y-67333904D01*
X110786152Y-67333904D02*
X110833771Y-67381523D01*
X110833771Y-67381523D02*
X110881390Y-67476761D01*
X110881390Y-67476761D02*
X110881390Y-67667237D01*
X110881390Y-67667237D02*
X110929009Y-67762475D01*
X110929009Y-67762475D02*
X110976628Y-67810094D01*
X110976628Y-67810094D02*
X111071866Y-67857713D01*
X111071866Y-67857713D02*
X111262342Y-67857713D01*
X111262342Y-67857713D02*
X111357580Y-67810094D01*
X111357580Y-67810094D02*
X111405200Y-67762475D01*
X111405200Y-67762475D02*
X111452819Y-67667237D01*
X111452819Y-67667237D02*
X111452819Y-67476761D01*
X111452819Y-67476761D02*
X111405200Y-67381523D01*
X111405200Y-67381523D02*
X111357580Y-67333904D01*
X111357580Y-67333904D02*
X111262342Y-67286285D01*
X111262342Y-67286285D02*
X111071866Y-67286285D01*
X111071866Y-67286285D02*
X110976628Y-67333904D01*
X110976628Y-67333904D02*
X110929009Y-67381523D01*
X110929009Y-67381523D02*
X110881390Y-67476761D01*
X95337333Y-95704819D02*
X95004000Y-95228628D01*
X94765905Y-95704819D02*
X94765905Y-94704819D01*
X94765905Y-94704819D02*
X95146857Y-94704819D01*
X95146857Y-94704819D02*
X95242095Y-94752438D01*
X95242095Y-94752438D02*
X95289714Y-94800057D01*
X95289714Y-94800057D02*
X95337333Y-94895295D01*
X95337333Y-94895295D02*
X95337333Y-95038152D01*
X95337333Y-95038152D02*
X95289714Y-95133390D01*
X95289714Y-95133390D02*
X95242095Y-95181009D01*
X95242095Y-95181009D02*
X95146857Y-95228628D01*
X95146857Y-95228628D02*
X94765905Y-95228628D01*
X95813524Y-95704819D02*
X96004000Y-95704819D01*
X96004000Y-95704819D02*
X96099238Y-95657200D01*
X96099238Y-95657200D02*
X96146857Y-95609580D01*
X96146857Y-95609580D02*
X96242095Y-95466723D01*
X96242095Y-95466723D02*
X96289714Y-95276247D01*
X96289714Y-95276247D02*
X96289714Y-94895295D01*
X96289714Y-94895295D02*
X96242095Y-94800057D01*
X96242095Y-94800057D02*
X96194476Y-94752438D01*
X96194476Y-94752438D02*
X96099238Y-94704819D01*
X96099238Y-94704819D02*
X95908762Y-94704819D01*
X95908762Y-94704819D02*
X95813524Y-94752438D01*
X95813524Y-94752438D02*
X95765905Y-94800057D01*
X95765905Y-94800057D02*
X95718286Y-94895295D01*
X95718286Y-94895295D02*
X95718286Y-95133390D01*
X95718286Y-95133390D02*
X95765905Y-95228628D01*
X95765905Y-95228628D02*
X95813524Y-95276247D01*
X95813524Y-95276247D02*
X95908762Y-95323866D01*
X95908762Y-95323866D02*
X96099238Y-95323866D01*
X96099238Y-95323866D02*
X96194476Y-95276247D01*
X96194476Y-95276247D02*
X96242095Y-95228628D01*
X96242095Y-95228628D02*
X96289714Y-95133390D01*
X118580819Y-97046857D02*
X118104628Y-97380190D01*
X118580819Y-97618285D02*
X117580819Y-97618285D01*
X117580819Y-97618285D02*
X117580819Y-97237333D01*
X117580819Y-97237333D02*
X117628438Y-97142095D01*
X117628438Y-97142095D02*
X117676057Y-97094476D01*
X117676057Y-97094476D02*
X117771295Y-97046857D01*
X117771295Y-97046857D02*
X117914152Y-97046857D01*
X117914152Y-97046857D02*
X118009390Y-97094476D01*
X118009390Y-97094476D02*
X118057009Y-97142095D01*
X118057009Y-97142095D02*
X118104628Y-97237333D01*
X118104628Y-97237333D02*
X118104628Y-97618285D01*
X118580819Y-96094476D02*
X118580819Y-96665904D01*
X118580819Y-96380190D02*
X117580819Y-96380190D01*
X117580819Y-96380190D02*
X117723676Y-96475428D01*
X117723676Y-96475428D02*
X117818914Y-96570666D01*
X117818914Y-96570666D02*
X117866533Y-96665904D01*
X117676057Y-95713523D02*
X117628438Y-95665904D01*
X117628438Y-95665904D02*
X117580819Y-95570666D01*
X117580819Y-95570666D02*
X117580819Y-95332571D01*
X117580819Y-95332571D02*
X117628438Y-95237333D01*
X117628438Y-95237333D02*
X117676057Y-95189714D01*
X117676057Y-95189714D02*
X117771295Y-95142095D01*
X117771295Y-95142095D02*
X117866533Y-95142095D01*
X117866533Y-95142095D02*
X118009390Y-95189714D01*
X118009390Y-95189714D02*
X118580819Y-95761142D01*
X118580819Y-95761142D02*
X118580819Y-95142095D01*
X133498819Y-101226857D02*
X133022628Y-101560190D01*
X133498819Y-101798285D02*
X132498819Y-101798285D01*
X132498819Y-101798285D02*
X132498819Y-101417333D01*
X132498819Y-101417333D02*
X132546438Y-101322095D01*
X132546438Y-101322095D02*
X132594057Y-101274476D01*
X132594057Y-101274476D02*
X132689295Y-101226857D01*
X132689295Y-101226857D02*
X132832152Y-101226857D01*
X132832152Y-101226857D02*
X132927390Y-101274476D01*
X132927390Y-101274476D02*
X132975009Y-101322095D01*
X132975009Y-101322095D02*
X133022628Y-101417333D01*
X133022628Y-101417333D02*
X133022628Y-101798285D01*
X133498819Y-100274476D02*
X133498819Y-100845904D01*
X133498819Y-100560190D02*
X132498819Y-100560190D01*
X132498819Y-100560190D02*
X132641676Y-100655428D01*
X132641676Y-100655428D02*
X132736914Y-100750666D01*
X132736914Y-100750666D02*
X132784533Y-100845904D01*
X132498819Y-99369714D02*
X132498819Y-99845904D01*
X132498819Y-99845904D02*
X132975009Y-99893523D01*
X132975009Y-99893523D02*
X132927390Y-99845904D01*
X132927390Y-99845904D02*
X132879771Y-99750666D01*
X132879771Y-99750666D02*
X132879771Y-99512571D01*
X132879771Y-99512571D02*
X132927390Y-99417333D01*
X132927390Y-99417333D02*
X132975009Y-99369714D01*
X132975009Y-99369714D02*
X133070247Y-99322095D01*
X133070247Y-99322095D02*
X133308342Y-99322095D01*
X133308342Y-99322095D02*
X133403580Y-99369714D01*
X133403580Y-99369714D02*
X133451200Y-99417333D01*
X133451200Y-99417333D02*
X133498819Y-99512571D01*
X133498819Y-99512571D02*
X133498819Y-99750666D01*
X133498819Y-99750666D02*
X133451200Y-99845904D01*
X133451200Y-99845904D02*
X133403580Y-99893523D01*
X103199819Y-48593333D02*
X103914104Y-48593333D01*
X103914104Y-48593333D02*
X104056961Y-48640952D01*
X104056961Y-48640952D02*
X104152200Y-48736190D01*
X104152200Y-48736190D02*
X104199819Y-48879047D01*
X104199819Y-48879047D02*
X104199819Y-48974285D01*
X103199819Y-48212380D02*
X103199819Y-47545714D01*
X103199819Y-47545714D02*
X104199819Y-47974285D01*
X123009491Y-95893580D02*
X122961872Y-95941200D01*
X122961872Y-95941200D02*
X122819015Y-95988819D01*
X122819015Y-95988819D02*
X122723777Y-95988819D01*
X122723777Y-95988819D02*
X122580920Y-95941200D01*
X122580920Y-95941200D02*
X122485682Y-95845961D01*
X122485682Y-95845961D02*
X122438063Y-95750723D01*
X122438063Y-95750723D02*
X122390444Y-95560247D01*
X122390444Y-95560247D02*
X122390444Y-95417390D01*
X122390444Y-95417390D02*
X122438063Y-95226914D01*
X122438063Y-95226914D02*
X122485682Y-95131676D01*
X122485682Y-95131676D02*
X122580920Y-95036438D01*
X122580920Y-95036438D02*
X122723777Y-94988819D01*
X122723777Y-94988819D02*
X122819015Y-94988819D01*
X122819015Y-94988819D02*
X122961872Y-95036438D01*
X122961872Y-95036438D02*
X123009491Y-95084057D01*
X123961872Y-95988819D02*
X123390444Y-95988819D01*
X123676158Y-95988819D02*
X123676158Y-94988819D01*
X123676158Y-94988819D02*
X123580920Y-95131676D01*
X123580920Y-95131676D02*
X123485682Y-95226914D01*
X123485682Y-95226914D02*
X123390444Y-95274533D01*
X124819015Y-95322152D02*
X124819015Y-95988819D01*
X124580920Y-94941200D02*
X124342825Y-95655485D01*
X124342825Y-95655485D02*
X124961872Y-95655485D01*
X62896761Y-42714057D02*
X62801523Y-42666438D01*
X62801523Y-42666438D02*
X62706285Y-42571200D01*
X62706285Y-42571200D02*
X62563428Y-42428342D01*
X62563428Y-42428342D02*
X62468190Y-42380723D01*
X62468190Y-42380723D02*
X62372952Y-42380723D01*
X62420571Y-42618819D02*
X62325333Y-42571200D01*
X62325333Y-42571200D02*
X62230095Y-42475961D01*
X62230095Y-42475961D02*
X62182476Y-42285485D01*
X62182476Y-42285485D02*
X62182476Y-41952152D01*
X62182476Y-41952152D02*
X62230095Y-41761676D01*
X62230095Y-41761676D02*
X62325333Y-41666438D01*
X62325333Y-41666438D02*
X62420571Y-41618819D01*
X62420571Y-41618819D02*
X62611047Y-41618819D01*
X62611047Y-41618819D02*
X62706285Y-41666438D01*
X62706285Y-41666438D02*
X62801523Y-41761676D01*
X62801523Y-41761676D02*
X62849142Y-41952152D01*
X62849142Y-41952152D02*
X62849142Y-42285485D01*
X62849142Y-42285485D02*
X62801523Y-42475961D01*
X62801523Y-42475961D02*
X62706285Y-42571200D01*
X62706285Y-42571200D02*
X62611047Y-42618819D01*
X62611047Y-42618819D02*
X62420571Y-42618819D01*
X63801523Y-42618819D02*
X63230095Y-42618819D01*
X63515809Y-42618819D02*
X63515809Y-41618819D01*
X63515809Y-41618819D02*
X63420571Y-41761676D01*
X63420571Y-41761676D02*
X63325333Y-41856914D01*
X63325333Y-41856914D02*
X63230095Y-41904533D01*
X113657142Y-82401580D02*
X113609523Y-82449200D01*
X113609523Y-82449200D02*
X113466666Y-82496819D01*
X113466666Y-82496819D02*
X113371428Y-82496819D01*
X113371428Y-82496819D02*
X113228571Y-82449200D01*
X113228571Y-82449200D02*
X113133333Y-82353961D01*
X113133333Y-82353961D02*
X113085714Y-82258723D01*
X113085714Y-82258723D02*
X113038095Y-82068247D01*
X113038095Y-82068247D02*
X113038095Y-81925390D01*
X113038095Y-81925390D02*
X113085714Y-81734914D01*
X113085714Y-81734914D02*
X113133333Y-81639676D01*
X113133333Y-81639676D02*
X113228571Y-81544438D01*
X113228571Y-81544438D02*
X113371428Y-81496819D01*
X113371428Y-81496819D02*
X113466666Y-81496819D01*
X113466666Y-81496819D02*
X113609523Y-81544438D01*
X113609523Y-81544438D02*
X113657142Y-81592057D01*
X114609523Y-82496819D02*
X114038095Y-82496819D01*
X114323809Y-82496819D02*
X114323809Y-81496819D01*
X114323809Y-81496819D02*
X114228571Y-81639676D01*
X114228571Y-81639676D02*
X114133333Y-81734914D01*
X114133333Y-81734914D02*
X114038095Y-81782533D01*
X115180952Y-81925390D02*
X115085714Y-81877771D01*
X115085714Y-81877771D02*
X115038095Y-81830152D01*
X115038095Y-81830152D02*
X114990476Y-81734914D01*
X114990476Y-81734914D02*
X114990476Y-81687295D01*
X114990476Y-81687295D02*
X115038095Y-81592057D01*
X115038095Y-81592057D02*
X115085714Y-81544438D01*
X115085714Y-81544438D02*
X115180952Y-81496819D01*
X115180952Y-81496819D02*
X115371428Y-81496819D01*
X115371428Y-81496819D02*
X115466666Y-81544438D01*
X115466666Y-81544438D02*
X115514285Y-81592057D01*
X115514285Y-81592057D02*
X115561904Y-81687295D01*
X115561904Y-81687295D02*
X115561904Y-81734914D01*
X115561904Y-81734914D02*
X115514285Y-81830152D01*
X115514285Y-81830152D02*
X115466666Y-81877771D01*
X115466666Y-81877771D02*
X115371428Y-81925390D01*
X115371428Y-81925390D02*
X115180952Y-81925390D01*
X115180952Y-81925390D02*
X115085714Y-81973009D01*
X115085714Y-81973009D02*
X115038095Y-82020628D01*
X115038095Y-82020628D02*
X114990476Y-82115866D01*
X114990476Y-82115866D02*
X114990476Y-82306342D01*
X114990476Y-82306342D02*
X115038095Y-82401580D01*
X115038095Y-82401580D02*
X115085714Y-82449200D01*
X115085714Y-82449200D02*
X115180952Y-82496819D01*
X115180952Y-82496819D02*
X115371428Y-82496819D01*
X115371428Y-82496819D02*
X115466666Y-82449200D01*
X115466666Y-82449200D02*
X115514285Y-82401580D01*
X115514285Y-82401580D02*
X115561904Y-82306342D01*
X115561904Y-82306342D02*
X115561904Y-82115866D01*
X115561904Y-82115866D02*
X115514285Y-82020628D01*
X115514285Y-82020628D02*
X115466666Y-81973009D01*
X115466666Y-81973009D02*
X115371428Y-81925390D01*
X54276666Y-45174819D02*
X54276666Y-45889104D01*
X54276666Y-45889104D02*
X54229047Y-46031961D01*
X54229047Y-46031961D02*
X54133809Y-46127200D01*
X54133809Y-46127200D02*
X53990952Y-46174819D01*
X53990952Y-46174819D02*
X53895714Y-46174819D01*
X54657619Y-45174819D02*
X55276666Y-45174819D01*
X55276666Y-45174819D02*
X54943333Y-45555771D01*
X54943333Y-45555771D02*
X55086190Y-45555771D01*
X55086190Y-45555771D02*
X55181428Y-45603390D01*
X55181428Y-45603390D02*
X55229047Y-45651009D01*
X55229047Y-45651009D02*
X55276666Y-45746247D01*
X55276666Y-45746247D02*
X55276666Y-45984342D01*
X55276666Y-45984342D02*
X55229047Y-46079580D01*
X55229047Y-46079580D02*
X55181428Y-46127200D01*
X55181428Y-46127200D02*
X55086190Y-46174819D01*
X55086190Y-46174819D02*
X54800476Y-46174819D01*
X54800476Y-46174819D02*
X54705238Y-46127200D01*
X54705238Y-46127200D02*
X54657619Y-46079580D01*
X131899819Y-95332857D02*
X131423628Y-95666190D01*
X131899819Y-95904285D02*
X130899819Y-95904285D01*
X130899819Y-95904285D02*
X130899819Y-95523333D01*
X130899819Y-95523333D02*
X130947438Y-95428095D01*
X130947438Y-95428095D02*
X130995057Y-95380476D01*
X130995057Y-95380476D02*
X131090295Y-95332857D01*
X131090295Y-95332857D02*
X131233152Y-95332857D01*
X131233152Y-95332857D02*
X131328390Y-95380476D01*
X131328390Y-95380476D02*
X131376009Y-95428095D01*
X131376009Y-95428095D02*
X131423628Y-95523333D01*
X131423628Y-95523333D02*
X131423628Y-95904285D01*
X131899819Y-94380476D02*
X131899819Y-94951904D01*
X131899819Y-94666190D02*
X130899819Y-94666190D01*
X130899819Y-94666190D02*
X131042676Y-94761428D01*
X131042676Y-94761428D02*
X131137914Y-94856666D01*
X131137914Y-94856666D02*
X131185533Y-94951904D01*
X130899819Y-93523333D02*
X130899819Y-93713809D01*
X130899819Y-93713809D02*
X130947438Y-93809047D01*
X130947438Y-93809047D02*
X130995057Y-93856666D01*
X130995057Y-93856666D02*
X131137914Y-93951904D01*
X131137914Y-93951904D02*
X131328390Y-93999523D01*
X131328390Y-93999523D02*
X131709342Y-93999523D01*
X131709342Y-93999523D02*
X131804580Y-93951904D01*
X131804580Y-93951904D02*
X131852200Y-93904285D01*
X131852200Y-93904285D02*
X131899819Y-93809047D01*
X131899819Y-93809047D02*
X131899819Y-93618571D01*
X131899819Y-93618571D02*
X131852200Y-93523333D01*
X131852200Y-93523333D02*
X131804580Y-93475714D01*
X131804580Y-93475714D02*
X131709342Y-93428095D01*
X131709342Y-93428095D02*
X131471247Y-93428095D01*
X131471247Y-93428095D02*
X131376009Y-93475714D01*
X131376009Y-93475714D02*
X131328390Y-93523333D01*
X131328390Y-93523333D02*
X131280771Y-93618571D01*
X131280771Y-93618571D02*
X131280771Y-93809047D01*
X131280771Y-93809047D02*
X131328390Y-93904285D01*
X131328390Y-93904285D02*
X131376009Y-93951904D01*
X131376009Y-93951904D02*
X131471247Y-93999523D01*
X68159333Y-101451580D02*
X68111714Y-101499200D01*
X68111714Y-101499200D02*
X67968857Y-101546819D01*
X67968857Y-101546819D02*
X67873619Y-101546819D01*
X67873619Y-101546819D02*
X67730762Y-101499200D01*
X67730762Y-101499200D02*
X67635524Y-101403961D01*
X67635524Y-101403961D02*
X67587905Y-101308723D01*
X67587905Y-101308723D02*
X67540286Y-101118247D01*
X67540286Y-101118247D02*
X67540286Y-100975390D01*
X67540286Y-100975390D02*
X67587905Y-100784914D01*
X67587905Y-100784914D02*
X67635524Y-100689676D01*
X67635524Y-100689676D02*
X67730762Y-100594438D01*
X67730762Y-100594438D02*
X67873619Y-100546819D01*
X67873619Y-100546819D02*
X67968857Y-100546819D01*
X67968857Y-100546819D02*
X68111714Y-100594438D01*
X68111714Y-100594438D02*
X68159333Y-100642057D01*
X69111714Y-101546819D02*
X68540286Y-101546819D01*
X68826000Y-101546819D02*
X68826000Y-100546819D01*
X68826000Y-100546819D02*
X68730762Y-100689676D01*
X68730762Y-100689676D02*
X68635524Y-100784914D01*
X68635524Y-100784914D02*
X68540286Y-100832533D01*
X99514819Y-92114666D02*
X99038628Y-92447999D01*
X99514819Y-92686094D02*
X98514819Y-92686094D01*
X98514819Y-92686094D02*
X98514819Y-92305142D01*
X98514819Y-92305142D02*
X98562438Y-92209904D01*
X98562438Y-92209904D02*
X98610057Y-92162285D01*
X98610057Y-92162285D02*
X98705295Y-92114666D01*
X98705295Y-92114666D02*
X98848152Y-92114666D01*
X98848152Y-92114666D02*
X98943390Y-92162285D01*
X98943390Y-92162285D02*
X98991009Y-92209904D01*
X98991009Y-92209904D02*
X99038628Y-92305142D01*
X99038628Y-92305142D02*
X99038628Y-92686094D01*
X98514819Y-91257523D02*
X98514819Y-91447999D01*
X98514819Y-91447999D02*
X98562438Y-91543237D01*
X98562438Y-91543237D02*
X98610057Y-91590856D01*
X98610057Y-91590856D02*
X98752914Y-91686094D01*
X98752914Y-91686094D02*
X98943390Y-91733713D01*
X98943390Y-91733713D02*
X99324342Y-91733713D01*
X99324342Y-91733713D02*
X99419580Y-91686094D01*
X99419580Y-91686094D02*
X99467200Y-91638475D01*
X99467200Y-91638475D02*
X99514819Y-91543237D01*
X99514819Y-91543237D02*
X99514819Y-91352761D01*
X99514819Y-91352761D02*
X99467200Y-91257523D01*
X99467200Y-91257523D02*
X99419580Y-91209904D01*
X99419580Y-91209904D02*
X99324342Y-91162285D01*
X99324342Y-91162285D02*
X99086247Y-91162285D01*
X99086247Y-91162285D02*
X98991009Y-91209904D01*
X98991009Y-91209904D02*
X98943390Y-91257523D01*
X98943390Y-91257523D02*
X98895771Y-91352761D01*
X98895771Y-91352761D02*
X98895771Y-91543237D01*
X98895771Y-91543237D02*
X98943390Y-91638475D01*
X98943390Y-91638475D02*
X98991009Y-91686094D01*
X98991009Y-91686094D02*
X99086247Y-91733713D01*
X96353333Y-75543580D02*
X96305714Y-75591200D01*
X96305714Y-75591200D02*
X96162857Y-75638819D01*
X96162857Y-75638819D02*
X96067619Y-75638819D01*
X96067619Y-75638819D02*
X95924762Y-75591200D01*
X95924762Y-75591200D02*
X95829524Y-75495961D01*
X95829524Y-75495961D02*
X95781905Y-75400723D01*
X95781905Y-75400723D02*
X95734286Y-75210247D01*
X95734286Y-75210247D02*
X95734286Y-75067390D01*
X95734286Y-75067390D02*
X95781905Y-74876914D01*
X95781905Y-74876914D02*
X95829524Y-74781676D01*
X95829524Y-74781676D02*
X95924762Y-74686438D01*
X95924762Y-74686438D02*
X96067619Y-74638819D01*
X96067619Y-74638819D02*
X96162857Y-74638819D01*
X96162857Y-74638819D02*
X96305714Y-74686438D01*
X96305714Y-74686438D02*
X96353333Y-74734057D01*
X96924762Y-75067390D02*
X96829524Y-75019771D01*
X96829524Y-75019771D02*
X96781905Y-74972152D01*
X96781905Y-74972152D02*
X96734286Y-74876914D01*
X96734286Y-74876914D02*
X96734286Y-74829295D01*
X96734286Y-74829295D02*
X96781905Y-74734057D01*
X96781905Y-74734057D02*
X96829524Y-74686438D01*
X96829524Y-74686438D02*
X96924762Y-74638819D01*
X96924762Y-74638819D02*
X97115238Y-74638819D01*
X97115238Y-74638819D02*
X97210476Y-74686438D01*
X97210476Y-74686438D02*
X97258095Y-74734057D01*
X97258095Y-74734057D02*
X97305714Y-74829295D01*
X97305714Y-74829295D02*
X97305714Y-74876914D01*
X97305714Y-74876914D02*
X97258095Y-74972152D01*
X97258095Y-74972152D02*
X97210476Y-75019771D01*
X97210476Y-75019771D02*
X97115238Y-75067390D01*
X97115238Y-75067390D02*
X96924762Y-75067390D01*
X96924762Y-75067390D02*
X96829524Y-75115009D01*
X96829524Y-75115009D02*
X96781905Y-75162628D01*
X96781905Y-75162628D02*
X96734286Y-75257866D01*
X96734286Y-75257866D02*
X96734286Y-75448342D01*
X96734286Y-75448342D02*
X96781905Y-75543580D01*
X96781905Y-75543580D02*
X96829524Y-75591200D01*
X96829524Y-75591200D02*
X96924762Y-75638819D01*
X96924762Y-75638819D02*
X97115238Y-75638819D01*
X97115238Y-75638819D02*
X97210476Y-75591200D01*
X97210476Y-75591200D02*
X97258095Y-75543580D01*
X97258095Y-75543580D02*
X97305714Y-75448342D01*
X97305714Y-75448342D02*
X97305714Y-75257866D01*
X97305714Y-75257866D02*
X97258095Y-75162628D01*
X97258095Y-75162628D02*
X97210476Y-75115009D01*
X97210476Y-75115009D02*
X97115238Y-75067390D01*
X49284104Y-61039285D02*
X49284104Y-60563095D01*
X49569819Y-61134523D02*
X48569819Y-60801190D01*
X48569819Y-60801190D02*
X49569819Y-60467857D01*
X49569819Y-59610714D02*
X49569819Y-60182142D01*
X49569819Y-59896428D02*
X48569819Y-59896428D01*
X48569819Y-59896428D02*
X48712676Y-59991666D01*
X48712676Y-59991666D02*
X48807914Y-60086904D01*
X48807914Y-60086904D02*
X48855533Y-60182142D01*
X108309580Y-54490857D02*
X108357200Y-54538476D01*
X108357200Y-54538476D02*
X108404819Y-54681333D01*
X108404819Y-54681333D02*
X108404819Y-54776571D01*
X108404819Y-54776571D02*
X108357200Y-54919428D01*
X108357200Y-54919428D02*
X108261961Y-55014666D01*
X108261961Y-55014666D02*
X108166723Y-55062285D01*
X108166723Y-55062285D02*
X107976247Y-55109904D01*
X107976247Y-55109904D02*
X107833390Y-55109904D01*
X107833390Y-55109904D02*
X107642914Y-55062285D01*
X107642914Y-55062285D02*
X107547676Y-55014666D01*
X107547676Y-55014666D02*
X107452438Y-54919428D01*
X107452438Y-54919428D02*
X107404819Y-54776571D01*
X107404819Y-54776571D02*
X107404819Y-54681333D01*
X107404819Y-54681333D02*
X107452438Y-54538476D01*
X107452438Y-54538476D02*
X107500057Y-54490857D01*
X108404819Y-53538476D02*
X108404819Y-54109904D01*
X108404819Y-53824190D02*
X107404819Y-53824190D01*
X107404819Y-53824190D02*
X107547676Y-53919428D01*
X107547676Y-53919428D02*
X107642914Y-54014666D01*
X107642914Y-54014666D02*
X107690533Y-54109904D01*
X108404819Y-52586095D02*
X108404819Y-53157523D01*
X108404819Y-52871809D02*
X107404819Y-52871809D01*
X107404819Y-52871809D02*
X107547676Y-52967047D01*
X107547676Y-52967047D02*
X107642914Y-53062285D01*
X107642914Y-53062285D02*
X107690533Y-53157523D01*
X126744819Y-81980666D02*
X126268628Y-82313999D01*
X126744819Y-82552094D02*
X125744819Y-82552094D01*
X125744819Y-82552094D02*
X125744819Y-82171142D01*
X125744819Y-82171142D02*
X125792438Y-82075904D01*
X125792438Y-82075904D02*
X125840057Y-82028285D01*
X125840057Y-82028285D02*
X125935295Y-81980666D01*
X125935295Y-81980666D02*
X126078152Y-81980666D01*
X126078152Y-81980666D02*
X126173390Y-82028285D01*
X126173390Y-82028285D02*
X126221009Y-82075904D01*
X126221009Y-82075904D02*
X126268628Y-82171142D01*
X126268628Y-82171142D02*
X126268628Y-82552094D01*
X125744819Y-81647332D02*
X125744819Y-81028285D01*
X125744819Y-81028285D02*
X126125771Y-81361618D01*
X126125771Y-81361618D02*
X126125771Y-81218761D01*
X126125771Y-81218761D02*
X126173390Y-81123523D01*
X126173390Y-81123523D02*
X126221009Y-81075904D01*
X126221009Y-81075904D02*
X126316247Y-81028285D01*
X126316247Y-81028285D02*
X126554342Y-81028285D01*
X126554342Y-81028285D02*
X126649580Y-81075904D01*
X126649580Y-81075904D02*
X126697200Y-81123523D01*
X126697200Y-81123523D02*
X126744819Y-81218761D01*
X126744819Y-81218761D02*
X126744819Y-81504475D01*
X126744819Y-81504475D02*
X126697200Y-81599713D01*
X126697200Y-81599713D02*
X126649580Y-81647332D01*
X88608819Y-75898333D02*
X89323104Y-75898333D01*
X89323104Y-75898333D02*
X89465961Y-75945952D01*
X89465961Y-75945952D02*
X89561200Y-76041190D01*
X89561200Y-76041190D02*
X89608819Y-76184047D01*
X89608819Y-76184047D02*
X89608819Y-76279285D01*
X88942152Y-74993571D02*
X89608819Y-74993571D01*
X88561200Y-75231666D02*
X89275485Y-75469761D01*
X89275485Y-75469761D02*
X89275485Y-74850714D01*
X66421619Y-76019819D02*
X66421619Y-75019819D01*
X66421619Y-75019819D02*
X66659714Y-75019819D01*
X66659714Y-75019819D02*
X66802571Y-75067438D01*
X66802571Y-75067438D02*
X66897809Y-75162676D01*
X66897809Y-75162676D02*
X66945428Y-75257914D01*
X66945428Y-75257914D02*
X66993047Y-75448390D01*
X66993047Y-75448390D02*
X66993047Y-75591247D01*
X66993047Y-75591247D02*
X66945428Y-75781723D01*
X66945428Y-75781723D02*
X66897809Y-75876961D01*
X66897809Y-75876961D02*
X66802571Y-75972200D01*
X66802571Y-75972200D02*
X66659714Y-76019819D01*
X66659714Y-76019819D02*
X66421619Y-76019819D01*
X67421619Y-76019819D02*
X67421619Y-75019819D01*
X67850190Y-75972200D02*
X67993047Y-76019819D01*
X67993047Y-76019819D02*
X68231142Y-76019819D01*
X68231142Y-76019819D02*
X68326380Y-75972200D01*
X68326380Y-75972200D02*
X68373999Y-75924580D01*
X68373999Y-75924580D02*
X68421618Y-75829342D01*
X68421618Y-75829342D02*
X68421618Y-75734104D01*
X68421618Y-75734104D02*
X68373999Y-75638866D01*
X68373999Y-75638866D02*
X68326380Y-75591247D01*
X68326380Y-75591247D02*
X68231142Y-75543628D01*
X68231142Y-75543628D02*
X68040666Y-75496009D01*
X68040666Y-75496009D02*
X67945428Y-75448390D01*
X67945428Y-75448390D02*
X67897809Y-75400771D01*
X67897809Y-75400771D02*
X67850190Y-75305533D01*
X67850190Y-75305533D02*
X67850190Y-75210295D01*
X67850190Y-75210295D02*
X67897809Y-75115057D01*
X67897809Y-75115057D02*
X67945428Y-75067438D01*
X67945428Y-75067438D02*
X68040666Y-75019819D01*
X68040666Y-75019819D02*
X68278761Y-75019819D01*
X68278761Y-75019819D02*
X68421618Y-75067438D01*
X68850190Y-76019819D02*
X68850190Y-75019819D01*
X68850190Y-75019819D02*
X69231142Y-75019819D01*
X69231142Y-75019819D02*
X69326380Y-75067438D01*
X69326380Y-75067438D02*
X69373999Y-75115057D01*
X69373999Y-75115057D02*
X69421618Y-75210295D01*
X69421618Y-75210295D02*
X69421618Y-75353152D01*
X69421618Y-75353152D02*
X69373999Y-75448390D01*
X69373999Y-75448390D02*
X69326380Y-75496009D01*
X69326380Y-75496009D02*
X69231142Y-75543628D01*
X69231142Y-75543628D02*
X68850190Y-75543628D01*
X70326380Y-76019819D02*
X69850190Y-76019819D01*
X69850190Y-76019819D02*
X69850190Y-75019819D01*
X70612095Y-75734104D02*
X71088285Y-75734104D01*
X70516857Y-76019819D02*
X70850190Y-75019819D01*
X70850190Y-75019819D02*
X71183523Y-76019819D01*
X71707333Y-75543628D02*
X71707333Y-76019819D01*
X71374000Y-75019819D02*
X71707333Y-75543628D01*
X71707333Y-75543628D02*
X72040666Y-75019819D01*
X72135905Y-76115057D02*
X72897809Y-76115057D01*
X73135905Y-75019819D02*
X73135905Y-75829342D01*
X73135905Y-75829342D02*
X73183524Y-75924580D01*
X73183524Y-75924580D02*
X73231143Y-75972200D01*
X73231143Y-75972200D02*
X73326381Y-76019819D01*
X73326381Y-76019819D02*
X73516857Y-76019819D01*
X73516857Y-76019819D02*
X73612095Y-75972200D01*
X73612095Y-75972200D02*
X73659714Y-75924580D01*
X73659714Y-75924580D02*
X73707333Y-75829342D01*
X73707333Y-75829342D02*
X73707333Y-75019819D01*
X74135905Y-75734104D02*
X74612095Y-75734104D01*
X74040667Y-76019819D02*
X74374000Y-75019819D01*
X74374000Y-75019819D02*
X74707333Y-76019819D01*
X75612095Y-76019819D02*
X75278762Y-75543628D01*
X75040667Y-76019819D02*
X75040667Y-75019819D01*
X75040667Y-75019819D02*
X75421619Y-75019819D01*
X75421619Y-75019819D02*
X75516857Y-75067438D01*
X75516857Y-75067438D02*
X75564476Y-75115057D01*
X75564476Y-75115057D02*
X75612095Y-75210295D01*
X75612095Y-75210295D02*
X75612095Y-75353152D01*
X75612095Y-75353152D02*
X75564476Y-75448390D01*
X75564476Y-75448390D02*
X75516857Y-75496009D01*
X75516857Y-75496009D02*
X75421619Y-75543628D01*
X75421619Y-75543628D02*
X75040667Y-75543628D01*
X75897810Y-75019819D02*
X76469238Y-75019819D01*
X76183524Y-76019819D02*
X76183524Y-75019819D01*
X104499580Y-84621666D02*
X104547200Y-84669285D01*
X104547200Y-84669285D02*
X104594819Y-84812142D01*
X104594819Y-84812142D02*
X104594819Y-84907380D01*
X104594819Y-84907380D02*
X104547200Y-85050237D01*
X104547200Y-85050237D02*
X104451961Y-85145475D01*
X104451961Y-85145475D02*
X104356723Y-85193094D01*
X104356723Y-85193094D02*
X104166247Y-85240713D01*
X104166247Y-85240713D02*
X104023390Y-85240713D01*
X104023390Y-85240713D02*
X103832914Y-85193094D01*
X103832914Y-85193094D02*
X103737676Y-85145475D01*
X103737676Y-85145475D02*
X103642438Y-85050237D01*
X103642438Y-85050237D02*
X103594819Y-84907380D01*
X103594819Y-84907380D02*
X103594819Y-84812142D01*
X103594819Y-84812142D02*
X103642438Y-84669285D01*
X103642438Y-84669285D02*
X103690057Y-84621666D01*
X103594819Y-83716904D02*
X103594819Y-84193094D01*
X103594819Y-84193094D02*
X104071009Y-84240713D01*
X104071009Y-84240713D02*
X104023390Y-84193094D01*
X104023390Y-84193094D02*
X103975771Y-84097856D01*
X103975771Y-84097856D02*
X103975771Y-83859761D01*
X103975771Y-83859761D02*
X104023390Y-83764523D01*
X104023390Y-83764523D02*
X104071009Y-83716904D01*
X104071009Y-83716904D02*
X104166247Y-83669285D01*
X104166247Y-83669285D02*
X104404342Y-83669285D01*
X104404342Y-83669285D02*
X104499580Y-83716904D01*
X104499580Y-83716904D02*
X104547200Y-83764523D01*
X104547200Y-83764523D02*
X104594819Y-83859761D01*
X104594819Y-83859761D02*
X104594819Y-84097856D01*
X104594819Y-84097856D02*
X104547200Y-84193094D01*
X104547200Y-84193094D02*
X104499580Y-84240713D01*
X111452819Y-73826666D02*
X110976628Y-74159999D01*
X111452819Y-74398094D02*
X110452819Y-74398094D01*
X110452819Y-74398094D02*
X110452819Y-74017142D01*
X110452819Y-74017142D02*
X110500438Y-73921904D01*
X110500438Y-73921904D02*
X110548057Y-73874285D01*
X110548057Y-73874285D02*
X110643295Y-73826666D01*
X110643295Y-73826666D02*
X110786152Y-73826666D01*
X110786152Y-73826666D02*
X110881390Y-73874285D01*
X110881390Y-73874285D02*
X110929009Y-73921904D01*
X110929009Y-73921904D02*
X110976628Y-74017142D01*
X110976628Y-74017142D02*
X110976628Y-74398094D01*
X110452819Y-73493332D02*
X110452819Y-72826666D01*
X110452819Y-72826666D02*
X111452819Y-73255237D01*
X112405819Y-54697238D02*
X111929628Y-55030571D01*
X112405819Y-55268666D02*
X111405819Y-55268666D01*
X111405819Y-55268666D02*
X111405819Y-54887714D01*
X111405819Y-54887714D02*
X111453438Y-54792476D01*
X111453438Y-54792476D02*
X111501057Y-54744857D01*
X111501057Y-54744857D02*
X111596295Y-54697238D01*
X111596295Y-54697238D02*
X111739152Y-54697238D01*
X111739152Y-54697238D02*
X111834390Y-54744857D01*
X111834390Y-54744857D02*
X111882009Y-54792476D01*
X111882009Y-54792476D02*
X111929628Y-54887714D01*
X111929628Y-54887714D02*
X111929628Y-55268666D01*
X111405819Y-54411523D02*
X112405819Y-54078190D01*
X112405819Y-54078190D02*
X111405819Y-53744857D01*
X111501057Y-53459142D02*
X111453438Y-53411523D01*
X111453438Y-53411523D02*
X111405819Y-53316285D01*
X111405819Y-53316285D02*
X111405819Y-53078190D01*
X111405819Y-53078190D02*
X111453438Y-52982952D01*
X111453438Y-52982952D02*
X111501057Y-52935333D01*
X111501057Y-52935333D02*
X111596295Y-52887714D01*
X111596295Y-52887714D02*
X111691533Y-52887714D01*
X111691533Y-52887714D02*
X111834390Y-52935333D01*
X111834390Y-52935333D02*
X112405819Y-53506761D01*
X112405819Y-53506761D02*
X112405819Y-52887714D01*
X109443142Y-104733580D02*
X109395523Y-104781200D01*
X109395523Y-104781200D02*
X109252666Y-104828819D01*
X109252666Y-104828819D02*
X109157428Y-104828819D01*
X109157428Y-104828819D02*
X109014571Y-104781200D01*
X109014571Y-104781200D02*
X108919333Y-104685961D01*
X108919333Y-104685961D02*
X108871714Y-104590723D01*
X108871714Y-104590723D02*
X108824095Y-104400247D01*
X108824095Y-104400247D02*
X108824095Y-104257390D01*
X108824095Y-104257390D02*
X108871714Y-104066914D01*
X108871714Y-104066914D02*
X108919333Y-103971676D01*
X108919333Y-103971676D02*
X109014571Y-103876438D01*
X109014571Y-103876438D02*
X109157428Y-103828819D01*
X109157428Y-103828819D02*
X109252666Y-103828819D01*
X109252666Y-103828819D02*
X109395523Y-103876438D01*
X109395523Y-103876438D02*
X109443142Y-103924057D01*
X110395523Y-104828819D02*
X109824095Y-104828819D01*
X110109809Y-104828819D02*
X110109809Y-103828819D01*
X110109809Y-103828819D02*
X110014571Y-103971676D01*
X110014571Y-103971676D02*
X109919333Y-104066914D01*
X109919333Y-104066914D02*
X109824095Y-104114533D01*
X110728857Y-103828819D02*
X111347904Y-103828819D01*
X111347904Y-103828819D02*
X111014571Y-104209771D01*
X111014571Y-104209771D02*
X111157428Y-104209771D01*
X111157428Y-104209771D02*
X111252666Y-104257390D01*
X111252666Y-104257390D02*
X111300285Y-104305009D01*
X111300285Y-104305009D02*
X111347904Y-104400247D01*
X111347904Y-104400247D02*
X111347904Y-104638342D01*
X111347904Y-104638342D02*
X111300285Y-104733580D01*
X111300285Y-104733580D02*
X111252666Y-104781200D01*
X111252666Y-104781200D02*
X111157428Y-104828819D01*
X111157428Y-104828819D02*
X110871714Y-104828819D01*
X110871714Y-104828819D02*
X110776476Y-104781200D01*
X110776476Y-104781200D02*
X110728857Y-104733580D01*
X115324095Y-88430819D02*
X115895523Y-88430819D01*
X115609809Y-89430819D02*
X115609809Y-88430819D01*
X116228857Y-89430819D02*
X116228857Y-88430819D01*
X116228857Y-88430819D02*
X116609809Y-88430819D01*
X116609809Y-88430819D02*
X116705047Y-88478438D01*
X116705047Y-88478438D02*
X116752666Y-88526057D01*
X116752666Y-88526057D02*
X116800285Y-88621295D01*
X116800285Y-88621295D02*
X116800285Y-88764152D01*
X116800285Y-88764152D02*
X116752666Y-88859390D01*
X116752666Y-88859390D02*
X116705047Y-88907009D01*
X116705047Y-88907009D02*
X116609809Y-88954628D01*
X116609809Y-88954628D02*
X116228857Y-88954628D01*
X117276476Y-89430819D02*
X117466952Y-89430819D01*
X117466952Y-89430819D02*
X117562190Y-89383200D01*
X117562190Y-89383200D02*
X117609809Y-89335580D01*
X117609809Y-89335580D02*
X117705047Y-89192723D01*
X117705047Y-89192723D02*
X117752666Y-89002247D01*
X117752666Y-89002247D02*
X117752666Y-88621295D01*
X117752666Y-88621295D02*
X117705047Y-88526057D01*
X117705047Y-88526057D02*
X117657428Y-88478438D01*
X117657428Y-88478438D02*
X117562190Y-88430819D01*
X117562190Y-88430819D02*
X117371714Y-88430819D01*
X117371714Y-88430819D02*
X117276476Y-88478438D01*
X117276476Y-88478438D02*
X117228857Y-88526057D01*
X117228857Y-88526057D02*
X117181238Y-88621295D01*
X117181238Y-88621295D02*
X117181238Y-88859390D01*
X117181238Y-88859390D02*
X117228857Y-88954628D01*
X117228857Y-88954628D02*
X117276476Y-89002247D01*
X117276476Y-89002247D02*
X117371714Y-89049866D01*
X117371714Y-89049866D02*
X117562190Y-89049866D01*
X117562190Y-89049866D02*
X117657428Y-89002247D01*
X117657428Y-89002247D02*
X117705047Y-88954628D01*
X117705047Y-88954628D02*
X117752666Y-88859390D01*
X127581819Y-95332857D02*
X127105628Y-95666190D01*
X127581819Y-95904285D02*
X126581819Y-95904285D01*
X126581819Y-95904285D02*
X126581819Y-95523333D01*
X126581819Y-95523333D02*
X126629438Y-95428095D01*
X126629438Y-95428095D02*
X126677057Y-95380476D01*
X126677057Y-95380476D02*
X126772295Y-95332857D01*
X126772295Y-95332857D02*
X126915152Y-95332857D01*
X126915152Y-95332857D02*
X127010390Y-95380476D01*
X127010390Y-95380476D02*
X127058009Y-95428095D01*
X127058009Y-95428095D02*
X127105628Y-95523333D01*
X127105628Y-95523333D02*
X127105628Y-95904285D01*
X127581819Y-94380476D02*
X127581819Y-94951904D01*
X127581819Y-94666190D02*
X126581819Y-94666190D01*
X126581819Y-94666190D02*
X126724676Y-94761428D01*
X126724676Y-94761428D02*
X126819914Y-94856666D01*
X126819914Y-94856666D02*
X126867533Y-94951904D01*
X126915152Y-93523333D02*
X127581819Y-93523333D01*
X126534200Y-93761428D02*
X127248485Y-93999523D01*
X127248485Y-93999523D02*
X127248485Y-93380476D01*
X120501580Y-73826666D02*
X120549200Y-73874285D01*
X120549200Y-73874285D02*
X120596819Y-74017142D01*
X120596819Y-74017142D02*
X120596819Y-74112380D01*
X120596819Y-74112380D02*
X120549200Y-74255237D01*
X120549200Y-74255237D02*
X120453961Y-74350475D01*
X120453961Y-74350475D02*
X120358723Y-74398094D01*
X120358723Y-74398094D02*
X120168247Y-74445713D01*
X120168247Y-74445713D02*
X120025390Y-74445713D01*
X120025390Y-74445713D02*
X119834914Y-74398094D01*
X119834914Y-74398094D02*
X119739676Y-74350475D01*
X119739676Y-74350475D02*
X119644438Y-74255237D01*
X119644438Y-74255237D02*
X119596819Y-74112380D01*
X119596819Y-74112380D02*
X119596819Y-74017142D01*
X119596819Y-74017142D02*
X119644438Y-73874285D01*
X119644438Y-73874285D02*
X119692057Y-73826666D01*
X119596819Y-73493332D02*
X119596819Y-72826666D01*
X119596819Y-72826666D02*
X120596819Y-73255237D01*
X117483142Y-86138580D02*
X117435523Y-86186200D01*
X117435523Y-86186200D02*
X117292666Y-86233819D01*
X117292666Y-86233819D02*
X117197428Y-86233819D01*
X117197428Y-86233819D02*
X117054571Y-86186200D01*
X117054571Y-86186200D02*
X116959333Y-86090961D01*
X116959333Y-86090961D02*
X116911714Y-85995723D01*
X116911714Y-85995723D02*
X116864095Y-85805247D01*
X116864095Y-85805247D02*
X116864095Y-85662390D01*
X116864095Y-85662390D02*
X116911714Y-85471914D01*
X116911714Y-85471914D02*
X116959333Y-85376676D01*
X116959333Y-85376676D02*
X117054571Y-85281438D01*
X117054571Y-85281438D02*
X117197428Y-85233819D01*
X117197428Y-85233819D02*
X117292666Y-85233819D01*
X117292666Y-85233819D02*
X117435523Y-85281438D01*
X117435523Y-85281438D02*
X117483142Y-85329057D01*
X118435523Y-86233819D02*
X117864095Y-86233819D01*
X118149809Y-86233819D02*
X118149809Y-85233819D01*
X118149809Y-85233819D02*
X118054571Y-85376676D01*
X118054571Y-85376676D02*
X117959333Y-85471914D01*
X117959333Y-85471914D02*
X117864095Y-85519533D01*
X119340285Y-85233819D02*
X118864095Y-85233819D01*
X118864095Y-85233819D02*
X118816476Y-85710009D01*
X118816476Y-85710009D02*
X118864095Y-85662390D01*
X118864095Y-85662390D02*
X118959333Y-85614771D01*
X118959333Y-85614771D02*
X119197428Y-85614771D01*
X119197428Y-85614771D02*
X119292666Y-85662390D01*
X119292666Y-85662390D02*
X119340285Y-85710009D01*
X119340285Y-85710009D02*
X119387904Y-85805247D01*
X119387904Y-85805247D02*
X119387904Y-86043342D01*
X119387904Y-86043342D02*
X119340285Y-86138580D01*
X119340285Y-86138580D02*
X119292666Y-86186200D01*
X119292666Y-86186200D02*
X119197428Y-86233819D01*
X119197428Y-86233819D02*
X118959333Y-86233819D01*
X118959333Y-86233819D02*
X118864095Y-86186200D01*
X118864095Y-86186200D02*
X118816476Y-86138580D01*
%TO.C,J1*%
D11*
X42356000Y-81835000D02*
X42356000Y-93075000D01*
X42356000Y-81835000D02*
X51256000Y-81835000D01*
X42356000Y-93075000D02*
X51256000Y-93075000D01*
X51256000Y-96895000D02*
X51256000Y-80905000D01*
X75796000Y-80905000D02*
X51256000Y-80905000D01*
X75796000Y-80905000D02*
X75796000Y-96895000D01*
X75796000Y-96895000D02*
X51256000Y-96895000D01*
%TO.C,R4*%
X127360000Y-82541064D02*
X127360000Y-81086936D01*
X129180000Y-82541064D02*
X129180000Y-81086936D01*
%TO.C,R1*%
X91292000Y-89119064D02*
X91292000Y-87664936D01*
X93112000Y-89119064D02*
X93112000Y-87664936D01*
%TO.C,RV1*%
X78860000Y-79808000D02*
X88780000Y-79808000D01*
X78860000Y-83553000D02*
X78860000Y-79808000D01*
X78860000Y-92028000D02*
X78860000Y-88283000D01*
X80624000Y-92028000D02*
X78860000Y-92028000D01*
X83124000Y-92028000D02*
X82016000Y-92028000D01*
X85624000Y-92028000D02*
X84516000Y-92028000D01*
X88780000Y-79808000D02*
X88780000Y-83553000D01*
X88780000Y-88283000D02*
X88780000Y-92028000D01*
X88780000Y-92028000D02*
X87016000Y-92028000D01*
%TO.C,C17*%
X111312252Y-89714000D02*
X109889748Y-89714000D01*
X111312252Y-91534000D02*
X109889748Y-91534000D01*
%TO.C,R5*%
X94340000Y-89373064D02*
X94340000Y-87918936D01*
X96160000Y-89373064D02*
X96160000Y-87918936D01*
%TO.C,C2*%
X105135000Y-79451252D02*
X105135000Y-78028748D01*
X106955000Y-79451252D02*
X106955000Y-78028748D01*
%TO.C,C3*%
X73456748Y-98150000D02*
X74879252Y-98150000D01*
X73456748Y-99970000D02*
X74879252Y-99970000D01*
%TO.C,U2*%
X108501000Y-92509000D02*
X112621000Y-92509000D01*
X108501000Y-92604000D02*
X108501000Y-92509000D01*
X108501000Y-97629000D02*
X108501000Y-97534000D01*
X112621000Y-92509000D02*
X112621000Y-92604000D01*
X112621000Y-97534000D02*
X112621000Y-97629000D01*
X112621000Y-97629000D02*
X108501000Y-97629000D01*
X107961000Y-92599000D02*
X107721000Y-92269000D01*
X108201000Y-92269000D01*
X107961000Y-92599000D01*
G36*
X107961000Y-92599000D02*
G01*
X107721000Y-92269000D01*
X108201000Y-92269000D01*
X107961000Y-92599000D01*
G37*
%TO.C,J6*%
X51385000Y-70425000D02*
X51385000Y-73085000D01*
X99705000Y-70425000D02*
X51385000Y-70425000D01*
X99705000Y-70425000D02*
X99705000Y-73085000D01*
X99705000Y-73085000D02*
X51385000Y-73085000D01*
X102305000Y-71755000D02*
X102305000Y-73085000D01*
X102305000Y-73085000D02*
X100975000Y-73085000D01*
%TO.C,R11*%
X102976000Y-92701064D02*
X102976000Y-91246936D01*
X104796000Y-92701064D02*
X104796000Y-91246936D01*
%TO.C,C12*%
X98602748Y-96684000D02*
X100025252Y-96684000D01*
X98602748Y-99404000D02*
X100025252Y-99404000D01*
%TO.C,TP5*%
X119055000Y-69370000D02*
G75*
G02*
X116655000Y-69370000I-1200000J0D01*
G01*
X116655000Y-69370000D02*
G75*
G02*
X119055000Y-69370000I1200000J0D01*
G01*
%TO.C,U1*%
X94460000Y-79355000D02*
X98580000Y-79355000D01*
X94460000Y-79450000D02*
X94460000Y-79355000D01*
X94460000Y-84475000D02*
X94460000Y-84380000D01*
X98580000Y-79355000D02*
X98580000Y-79450000D01*
X98580000Y-84380000D02*
X98580000Y-84475000D01*
X98580000Y-84475000D02*
X94460000Y-84475000D01*
X93920000Y-79445000D02*
X93680000Y-79115000D01*
X94160000Y-79115000D01*
X93920000Y-79445000D01*
G36*
X93920000Y-79445000D02*
G01*
X93680000Y-79115000D01*
X94160000Y-79115000D01*
X93920000Y-79445000D01*
G37*
%TO.C,RV3*%
X133216000Y-47042000D02*
X143136000Y-47042000D01*
X133216000Y-50787000D02*
X133216000Y-47042000D01*
X133216000Y-59262000D02*
X133216000Y-55517000D01*
X134980000Y-59262000D02*
X133216000Y-59262000D01*
X137480000Y-59262000D02*
X136372000Y-59262000D01*
X139980000Y-59262000D02*
X138872000Y-59262000D01*
X143136000Y-47042000D02*
X143136000Y-50787000D01*
X143136000Y-55517000D02*
X143136000Y-59262000D01*
X143136000Y-59262000D02*
X141372000Y-59262000D01*
%TO.C,R10*%
X114858936Y-100859000D02*
X116313064Y-100859000D01*
X114858936Y-102679000D02*
X116313064Y-102679000D01*
%TO.C,J5*%
X132030000Y-82494000D02*
X146270000Y-82494000D01*
X132030000Y-90934000D02*
X132030000Y-82494000D01*
X146270000Y-82494000D02*
X146270000Y-84394000D01*
X146270000Y-84394000D02*
X150270000Y-84394000D01*
X146270000Y-90634000D02*
X146270000Y-90934000D01*
X146270000Y-90934000D02*
X132030000Y-90934000D01*
X150270000Y-84394000D02*
X150270000Y-90634000D01*
X150270000Y-90634000D02*
X146270000Y-90634000D01*
%TO.C,C16*%
X104246000Y-97762748D02*
X104246000Y-99185252D01*
X106066000Y-97762748D02*
X106066000Y-99185252D01*
%TO.C,C9*%
X60909252Y-44302000D02*
X59486748Y-44302000D01*
X60909252Y-46122000D02*
X59486748Y-46122000D01*
%TO.C,J2*%
X121816000Y-62306000D02*
X146356000Y-62306000D01*
X121816000Y-78296000D02*
X121816000Y-62306000D01*
X121816000Y-78296000D02*
X146356000Y-78296000D01*
X146356000Y-62306000D02*
X146356000Y-78296000D01*
X155256000Y-66126000D02*
X146356000Y-66126000D01*
X155256000Y-77366000D02*
X146356000Y-77366000D01*
X155256000Y-77366000D02*
X155256000Y-66126000D01*
%TO.C,C10*%
X104246000Y-58470748D02*
X104246000Y-59893252D01*
X106066000Y-58470748D02*
X106066000Y-59893252D01*
%TO.C,R2*%
X101325000Y-79467064D02*
X101325000Y-78012936D01*
X103145000Y-79467064D02*
X103145000Y-78012936D01*
%TO.C,R13*%
X129900000Y-101311064D02*
X129900000Y-99856936D01*
X131720000Y-101311064D02*
X131720000Y-99856936D01*
%TO.C,R8*%
X112120000Y-67217936D02*
X112120000Y-68672064D01*
X113940000Y-67217936D02*
X113940000Y-68672064D01*
%TO.C,R9*%
X98586936Y-94086000D02*
X100041064Y-94086000D01*
X98586936Y-95906000D02*
X100041064Y-95906000D01*
%TO.C,R12*%
X115041000Y-96781064D02*
X115041000Y-95326936D01*
X116861000Y-96781064D02*
X116861000Y-95326936D01*
%TO.C,R15*%
X133964000Y-101311064D02*
X133964000Y-99856936D01*
X135784000Y-101311064D02*
X135784000Y-99856936D01*
%TO.C,J7*%
X51385000Y-46930000D02*
X51385000Y-49590000D01*
X99705000Y-46930000D02*
X51385000Y-46930000D01*
X99705000Y-46930000D02*
X99705000Y-49590000D01*
X99705000Y-49590000D02*
X51385000Y-49590000D01*
X102305000Y-48260000D02*
X102305000Y-49590000D01*
X102305000Y-49590000D02*
X100975000Y-49590000D01*
%TO.C,C14*%
X119242651Y-98469000D02*
X120042651Y-98469000D01*
X119642651Y-98069000D02*
X119642651Y-98869000D01*
X123652349Y-96704000D02*
X123652349Y-104864000D01*
X123692349Y-96704000D02*
X123692349Y-104864000D01*
X123732349Y-96705000D02*
X123732349Y-104863000D01*
X123772349Y-96706000D02*
X123772349Y-104862000D01*
X123812349Y-96707000D02*
X123812349Y-104861000D01*
X123852349Y-96709000D02*
X123852349Y-104859000D01*
X123892349Y-96711000D02*
X123892349Y-104857000D01*
X123932349Y-96714000D02*
X123932349Y-104854000D01*
X123972349Y-96716000D02*
X123972349Y-104852000D01*
X124012349Y-96720000D02*
X124012349Y-104848000D01*
X124052349Y-96723000D02*
X124052349Y-104845000D01*
X124092349Y-96728000D02*
X124092349Y-104840000D01*
X124132349Y-96732000D02*
X124132349Y-104836000D01*
X124172349Y-96737000D02*
X124172349Y-104831000D01*
X124212349Y-96742000D02*
X124212349Y-104826000D01*
X124252349Y-96748000D02*
X124252349Y-104820000D01*
X124292349Y-96754000D02*
X124292349Y-104814000D01*
X124332349Y-96761000D02*
X124332349Y-104807000D01*
X124372349Y-96767000D02*
X124372349Y-99744000D01*
X124372349Y-101824000D02*
X124372349Y-104801000D01*
X124412349Y-96775000D02*
X124412349Y-99744000D01*
X124412349Y-101824000D02*
X124412349Y-104793000D01*
X124452349Y-96782000D02*
X124452349Y-99744000D01*
X124452349Y-101824000D02*
X124452349Y-104786000D01*
X124492349Y-96791000D02*
X124492349Y-99744000D01*
X124492349Y-101824000D02*
X124492349Y-104777000D01*
X124532349Y-96799000D02*
X124532349Y-99744000D01*
X124532349Y-101824000D02*
X124532349Y-104769000D01*
X124572349Y-96808000D02*
X124572349Y-99744000D01*
X124572349Y-101824000D02*
X124572349Y-104760000D01*
X124612349Y-96817000D02*
X124612349Y-99744000D01*
X124612349Y-101824000D02*
X124612349Y-104751000D01*
X124652349Y-96827000D02*
X124652349Y-99744000D01*
X124652349Y-101824000D02*
X124652349Y-104741000D01*
X124692349Y-96837000D02*
X124692349Y-99744000D01*
X124692349Y-101824000D02*
X124692349Y-104731000D01*
X124732349Y-96848000D02*
X124732349Y-99744000D01*
X124732349Y-101824000D02*
X124732349Y-104720000D01*
X124772349Y-96859000D02*
X124772349Y-99744000D01*
X124772349Y-101824000D02*
X124772349Y-104709000D01*
X124812349Y-96871000D02*
X124812349Y-99744000D01*
X124812349Y-101824000D02*
X124812349Y-104697000D01*
X124852349Y-96883000D02*
X124852349Y-99744000D01*
X124852349Y-101824000D02*
X124852349Y-104685000D01*
X124892349Y-96895000D02*
X124892349Y-99744000D01*
X124892349Y-101824000D02*
X124892349Y-104673000D01*
X124932349Y-96908000D02*
X124932349Y-99744000D01*
X124932349Y-101824000D02*
X124932349Y-104660000D01*
X124972349Y-96921000D02*
X124972349Y-99744000D01*
X124972349Y-101824000D02*
X124972349Y-104647000D01*
X125012349Y-96935000D02*
X125012349Y-99744000D01*
X125012349Y-101824000D02*
X125012349Y-104633000D01*
X125052349Y-96949000D02*
X125052349Y-99744000D01*
X125052349Y-101824000D02*
X125052349Y-104619000D01*
X125092349Y-96964000D02*
X125092349Y-99744000D01*
X125092349Y-101824000D02*
X125092349Y-104604000D01*
X125132349Y-96979000D02*
X125132349Y-99744000D01*
X125132349Y-101824000D02*
X125132349Y-104589000D01*
X125172349Y-96995000D02*
X125172349Y-99744000D01*
X125172349Y-101824000D02*
X125172349Y-104573000D01*
X125212349Y-97011000D02*
X125212349Y-99744000D01*
X125212349Y-101824000D02*
X125212349Y-104557000D01*
X125252349Y-97027000D02*
X125252349Y-99744000D01*
X125252349Y-101824000D02*
X125252349Y-104541000D01*
X125292349Y-97044000D02*
X125292349Y-99744000D01*
X125292349Y-101824000D02*
X125292349Y-104524000D01*
X125332349Y-97062000D02*
X125332349Y-99744000D01*
X125332349Y-101824000D02*
X125332349Y-104506000D01*
X125372349Y-97080000D02*
X125372349Y-99744000D01*
X125372349Y-101824000D02*
X125372349Y-104488000D01*
X125412349Y-97099000D02*
X125412349Y-99744000D01*
X125412349Y-101824000D02*
X125412349Y-104469000D01*
X125452349Y-97118000D02*
X125452349Y-99744000D01*
X125452349Y-101824000D02*
X125452349Y-104450000D01*
X125492349Y-97138000D02*
X125492349Y-99744000D01*
X125492349Y-101824000D02*
X125492349Y-104430000D01*
X125532349Y-97158000D02*
X125532349Y-99744000D01*
X125532349Y-101824000D02*
X125532349Y-104410000D01*
X125572349Y-97179000D02*
X125572349Y-99744000D01*
X125572349Y-101824000D02*
X125572349Y-104389000D01*
X125612349Y-97200000D02*
X125612349Y-99744000D01*
X125612349Y-101824000D02*
X125612349Y-104368000D01*
X125652349Y-97222000D02*
X125652349Y-99744000D01*
X125652349Y-101824000D02*
X125652349Y-104346000D01*
X125692349Y-97245000D02*
X125692349Y-99744000D01*
X125692349Y-101824000D02*
X125692349Y-104323000D01*
X125732349Y-97268000D02*
X125732349Y-99744000D01*
X125732349Y-101824000D02*
X125732349Y-104300000D01*
X125772349Y-97291000D02*
X125772349Y-99744000D01*
X125772349Y-101824000D02*
X125772349Y-104277000D01*
X125812349Y-97316000D02*
X125812349Y-99744000D01*
X125812349Y-101824000D02*
X125812349Y-104252000D01*
X125852349Y-97341000D02*
X125852349Y-99744000D01*
X125852349Y-101824000D02*
X125852349Y-104227000D01*
X125892349Y-97366000D02*
X125892349Y-99744000D01*
X125892349Y-101824000D02*
X125892349Y-104202000D01*
X125932349Y-97392000D02*
X125932349Y-99744000D01*
X125932349Y-101824000D02*
X125932349Y-104176000D01*
X125972349Y-97419000D02*
X125972349Y-99744000D01*
X125972349Y-101824000D02*
X125972349Y-104149000D01*
X126012349Y-97447000D02*
X126012349Y-99744000D01*
X126012349Y-101824000D02*
X126012349Y-104121000D01*
X126052349Y-97475000D02*
X126052349Y-99744000D01*
X126052349Y-101824000D02*
X126052349Y-104093000D01*
X126092349Y-97504000D02*
X126092349Y-99744000D01*
X126092349Y-101824000D02*
X126092349Y-104064000D01*
X126132349Y-97534000D02*
X126132349Y-99744000D01*
X126132349Y-101824000D02*
X126132349Y-104034000D01*
X126172349Y-97565000D02*
X126172349Y-99744000D01*
X126172349Y-101824000D02*
X126172349Y-104003000D01*
X126212349Y-97596000D02*
X126212349Y-99744000D01*
X126212349Y-101824000D02*
X126212349Y-103972000D01*
X126252349Y-97628000D02*
X126252349Y-99744000D01*
X126252349Y-101824000D02*
X126252349Y-103940000D01*
X126292349Y-97661000D02*
X126292349Y-99744000D01*
X126292349Y-101824000D02*
X126292349Y-103907000D01*
X126332349Y-97695000D02*
X126332349Y-99744000D01*
X126332349Y-101824000D02*
X126332349Y-103873000D01*
X126372349Y-97729000D02*
X126372349Y-99744000D01*
X126372349Y-101824000D02*
X126372349Y-103839000D01*
X126412349Y-97765000D02*
X126412349Y-99744000D01*
X126412349Y-101824000D02*
X126412349Y-103803000D01*
X126452349Y-97802000D02*
X126452349Y-103766000D01*
X126492349Y-97839000D02*
X126492349Y-103729000D01*
X126532349Y-97878000D02*
X126532349Y-103690000D01*
X126572349Y-97917000D02*
X126572349Y-103651000D01*
X126612349Y-97958000D02*
X126612349Y-103610000D01*
X126652349Y-98000000D02*
X126652349Y-103568000D01*
X126692349Y-98043000D02*
X126692349Y-103525000D01*
X126732349Y-98088000D02*
X126732349Y-103480000D01*
X126772349Y-98133000D02*
X126772349Y-103435000D01*
X126812349Y-98180000D02*
X126812349Y-103388000D01*
X126852349Y-98229000D02*
X126852349Y-103339000D01*
X126892349Y-98279000D02*
X126892349Y-103289000D01*
X126932349Y-98331000D02*
X126932349Y-103237000D01*
X126972349Y-98384000D02*
X126972349Y-103184000D01*
X127012349Y-98440000D02*
X127012349Y-103128000D01*
X127052349Y-98497000D02*
X127052349Y-103071000D01*
X127092349Y-98557000D02*
X127092349Y-103011000D01*
X127132349Y-98619000D02*
X127132349Y-102949000D01*
X127172349Y-98683000D02*
X127172349Y-102885000D01*
X127212349Y-98750000D02*
X127212349Y-102818000D01*
X127252349Y-98820000D02*
X127252349Y-102748000D01*
X127292349Y-98894000D02*
X127292349Y-102674000D01*
X127332349Y-98971000D02*
X127332349Y-102597000D01*
X127372349Y-99053000D02*
X127372349Y-102515000D01*
X127412349Y-99140000D02*
X127412349Y-102428000D01*
X127452349Y-99232000D02*
X127452349Y-102336000D01*
X127492349Y-99331000D02*
X127492349Y-102237000D01*
X127532349Y-99438000D02*
X127532349Y-102130000D01*
X127572349Y-99556000D02*
X127572349Y-102012000D01*
X127612349Y-99687000D02*
X127612349Y-101881000D01*
X127652349Y-99837000D02*
X127652349Y-101731000D01*
X127692349Y-100016000D02*
X127692349Y-101552000D01*
X127732349Y-100251000D02*
X127732349Y-101317000D01*
X127772349Y-100784000D02*
G75*
G02*
X119532349Y-100784000I-4120000J0D01*
G01*
X119532349Y-100784000D02*
G75*
G02*
X127772349Y-100784000I4120000J0D01*
G01*
%TO.C,Q1*%
X58930000Y-40604000D02*
X60450000Y-40604000D01*
X58930000Y-40654000D02*
X58930000Y-40604000D01*
X58930000Y-42554000D02*
X58930000Y-41774000D01*
X58930000Y-43724000D02*
X58930000Y-43674000D01*
X60450000Y-40604000D02*
X60450000Y-41604000D01*
X60450000Y-42724000D02*
X60450000Y-43724000D01*
X60450000Y-43724000D02*
X58930000Y-43724000D01*
X58390000Y-41784000D02*
X58630000Y-42114000D01*
X58150000Y-42114000D01*
X58390000Y-41784000D01*
G36*
X58630000Y-42114000D02*
G01*
X58150000Y-42114000D01*
X58390000Y-41784000D01*
X58630000Y-42114000D01*
G37*
%TO.C,C18*%
X109619113Y-84069000D02*
X110119113Y-84069000D01*
X109869113Y-83819000D02*
X109869113Y-84319000D01*
X112423888Y-82964000D02*
X112423888Y-84504000D01*
X112423888Y-86584000D02*
X112423888Y-88124000D01*
X112463888Y-82964000D02*
X112463888Y-84504000D01*
X112463888Y-86584000D02*
X112463888Y-88124000D01*
X112503888Y-82965000D02*
X112503888Y-84504000D01*
X112503888Y-86584000D02*
X112503888Y-88123000D01*
X112543888Y-82967000D02*
X112543888Y-84504000D01*
X112543888Y-86584000D02*
X112543888Y-88121000D01*
X112583888Y-82969000D02*
X112583888Y-84504000D01*
X112583888Y-86584000D02*
X112583888Y-88119000D01*
X112623888Y-82972000D02*
X112623888Y-84504000D01*
X112623888Y-86584000D02*
X112623888Y-88116000D01*
X112663888Y-82975000D02*
X112663888Y-84504000D01*
X112663888Y-86584000D02*
X112663888Y-88113000D01*
X112703888Y-82979000D02*
X112703888Y-84504000D01*
X112703888Y-86584000D02*
X112703888Y-88109000D01*
X112743888Y-82984000D02*
X112743888Y-84504000D01*
X112743888Y-86584000D02*
X112743888Y-88104000D01*
X112783888Y-82989000D02*
X112783888Y-84504000D01*
X112783888Y-86584000D02*
X112783888Y-88099000D01*
X112823888Y-82995000D02*
X112823888Y-84504000D01*
X112823888Y-86584000D02*
X112823888Y-88093000D01*
X112863888Y-83001000D02*
X112863888Y-84504000D01*
X112863888Y-86584000D02*
X112863888Y-88087000D01*
X112903888Y-83008000D02*
X112903888Y-84504000D01*
X112903888Y-86584000D02*
X112903888Y-88080000D01*
X112943888Y-83016000D02*
X112943888Y-84504000D01*
X112943888Y-86584000D02*
X112943888Y-88072000D01*
X112983888Y-83025000D02*
X112983888Y-84504000D01*
X112983888Y-86584000D02*
X112983888Y-88063000D01*
X113023888Y-83034000D02*
X113023888Y-84504000D01*
X113023888Y-86584000D02*
X113023888Y-88054000D01*
X113063888Y-83043000D02*
X113063888Y-84504000D01*
X113063888Y-86584000D02*
X113063888Y-88045000D01*
X113103888Y-83054000D02*
X113103888Y-84504000D01*
X113103888Y-86584000D02*
X113103888Y-88034000D01*
X113143888Y-83065000D02*
X113143888Y-84504000D01*
X113143888Y-86584000D02*
X113143888Y-88023000D01*
X113183888Y-83077000D02*
X113183888Y-84504000D01*
X113183888Y-86584000D02*
X113183888Y-88011000D01*
X113223888Y-83089000D02*
X113223888Y-84504000D01*
X113223888Y-86584000D02*
X113223888Y-87999000D01*
X113263888Y-83102000D02*
X113263888Y-84504000D01*
X113263888Y-86584000D02*
X113263888Y-87986000D01*
X113303888Y-83116000D02*
X113303888Y-84504000D01*
X113303888Y-86584000D02*
X113303888Y-87972000D01*
X113343888Y-83131000D02*
X113343888Y-84504000D01*
X113343888Y-86584000D02*
X113343888Y-87957000D01*
X113383888Y-83146000D02*
X113383888Y-84504000D01*
X113383888Y-86584000D02*
X113383888Y-87942000D01*
X113423888Y-83162000D02*
X113423888Y-84504000D01*
X113423888Y-86584000D02*
X113423888Y-87926000D01*
X113463888Y-83179000D02*
X113463888Y-84504000D01*
X113463888Y-86584000D02*
X113463888Y-87909000D01*
X113503888Y-83197000D02*
X113503888Y-84504000D01*
X113503888Y-86584000D02*
X113503888Y-87891000D01*
X113543888Y-83215000D02*
X113543888Y-84504000D01*
X113543888Y-86584000D02*
X113543888Y-87873000D01*
X113583888Y-83235000D02*
X113583888Y-84504000D01*
X113583888Y-86584000D02*
X113583888Y-87853000D01*
X113623888Y-83255000D02*
X113623888Y-84504000D01*
X113623888Y-86584000D02*
X113623888Y-87833000D01*
X113663888Y-83276000D02*
X113663888Y-84504000D01*
X113663888Y-86584000D02*
X113663888Y-87812000D01*
X113703888Y-83298000D02*
X113703888Y-84504000D01*
X113703888Y-86584000D02*
X113703888Y-87790000D01*
X113743888Y-83321000D02*
X113743888Y-84504000D01*
X113743888Y-86584000D02*
X113743888Y-87767000D01*
X113783888Y-83345000D02*
X113783888Y-84504000D01*
X113783888Y-86584000D02*
X113783888Y-87743000D01*
X113823888Y-83369000D02*
X113823888Y-84504000D01*
X113823888Y-86584000D02*
X113823888Y-87719000D01*
X113863888Y-83395000D02*
X113863888Y-84504000D01*
X113863888Y-86584000D02*
X113863888Y-87693000D01*
X113903888Y-83422000D02*
X113903888Y-84504000D01*
X113903888Y-86584000D02*
X113903888Y-87666000D01*
X113943888Y-83450000D02*
X113943888Y-84504000D01*
X113943888Y-86584000D02*
X113943888Y-87638000D01*
X113983888Y-83479000D02*
X113983888Y-84504000D01*
X113983888Y-86584000D02*
X113983888Y-87609000D01*
X114023888Y-83509000D02*
X114023888Y-84504000D01*
X114023888Y-86584000D02*
X114023888Y-87579000D01*
X114063888Y-83541000D02*
X114063888Y-84504000D01*
X114063888Y-86584000D02*
X114063888Y-87547000D01*
X114103888Y-83574000D02*
X114103888Y-84504000D01*
X114103888Y-86584000D02*
X114103888Y-87514000D01*
X114143888Y-83608000D02*
X114143888Y-84504000D01*
X114143888Y-86584000D02*
X114143888Y-87480000D01*
X114183888Y-83643000D02*
X114183888Y-84504000D01*
X114183888Y-86584000D02*
X114183888Y-87445000D01*
X114223888Y-83680000D02*
X114223888Y-84504000D01*
X114223888Y-86584000D02*
X114223888Y-87408000D01*
X114263888Y-83719000D02*
X114263888Y-84504000D01*
X114263888Y-86584000D02*
X114263888Y-87369000D01*
X114303888Y-83759000D02*
X114303888Y-84504000D01*
X114303888Y-86584000D02*
X114303888Y-87329000D01*
X114343888Y-83801000D02*
X114343888Y-84504000D01*
X114343888Y-86584000D02*
X114343888Y-87287000D01*
X114383888Y-83845000D02*
X114383888Y-84504000D01*
X114383888Y-86584000D02*
X114383888Y-87243000D01*
X114423888Y-83892000D02*
X114423888Y-84504000D01*
X114423888Y-86584000D02*
X114423888Y-87196000D01*
X114463888Y-83940000D02*
X114463888Y-87148000D01*
X114503888Y-83991000D02*
X114503888Y-87097000D01*
X114543888Y-84045000D02*
X114543888Y-87043000D01*
X114583888Y-84101000D02*
X114583888Y-86987000D01*
X114623888Y-84161000D02*
X114623888Y-86927000D01*
X114663888Y-84225000D02*
X114663888Y-86863000D01*
X114703888Y-84293000D02*
X114703888Y-86795000D01*
X114743888Y-84367000D02*
X114743888Y-86721000D01*
X114783888Y-84446000D02*
X114783888Y-86642000D01*
X114823888Y-84533000D02*
X114823888Y-86555000D01*
X114863888Y-84630000D02*
X114863888Y-86458000D01*
X114903888Y-84739000D02*
X114903888Y-86349000D01*
X114943888Y-84867000D02*
X114943888Y-86221000D01*
X114983888Y-85027000D02*
X114983888Y-86061000D01*
X115023888Y-85261000D02*
X115023888Y-85827000D01*
X115043888Y-85544000D02*
G75*
G02*
X109803888Y-85544000I-2620000J0D01*
G01*
X109803888Y-85544000D02*
G75*
G02*
X115043888Y-85544000I2620000J0D01*
G01*
%TO.C,J3*%
X51457000Y-40784000D02*
X51457000Y-43544000D01*
X54107000Y-40784000D02*
X51457000Y-40784000D01*
X54107000Y-40784000D02*
X54107000Y-43544000D01*
X54107000Y-43544000D02*
X51457000Y-43544000D01*
X55377000Y-40784000D02*
X56757000Y-40784000D01*
X56757000Y-40784000D02*
X56757000Y-42164000D01*
%TO.C,R16*%
X132440000Y-94242936D02*
X132440000Y-95697064D01*
X134260000Y-94242936D02*
X134260000Y-95697064D01*
%TO.C,C1*%
X67614748Y-98150000D02*
X69037252Y-98150000D01*
X67614748Y-99970000D02*
X69037252Y-99970000D01*
%TO.C,R6*%
X98150000Y-88992064D02*
X98150000Y-87537936D01*
X99970000Y-88992064D02*
X99970000Y-87537936D01*
%TO.C,C8*%
X95808748Y-76560000D02*
X97231252Y-76560000D01*
X95808748Y-78380000D02*
X97231252Y-78380000D01*
%TO.C,A1*%
X50115000Y-56325000D02*
X51315000Y-56325000D01*
X50115000Y-64325000D02*
X50115000Y-56325000D01*
X51015000Y-67225000D02*
X51015000Y-69525000D01*
X51015000Y-69525000D02*
X53415000Y-69525000D01*
X51315000Y-51425000D02*
X102315000Y-51425000D01*
X51315000Y-53945000D02*
X102315000Y-53945000D01*
X51315000Y-64325000D02*
X50115000Y-64325000D01*
X51315000Y-66745000D02*
X102315000Y-66745000D01*
X51315000Y-69225000D02*
X51315000Y-51425000D01*
X102315000Y-51425000D02*
X102315000Y-69225000D01*
X102315000Y-69225000D02*
X51315000Y-69225000D01*
%TO.C,C11*%
X104246000Y-54559252D02*
X104246000Y-53136748D01*
X106066000Y-54559252D02*
X106066000Y-53136748D01*
%TO.C,R3*%
X123550000Y-81086936D02*
X123550000Y-82541064D01*
X125370000Y-81086936D02*
X125370000Y-82541064D01*
%TO.C,J4*%
X77614000Y-76945000D02*
X77614000Y-75565000D01*
X78994000Y-76945000D02*
X77614000Y-76945000D01*
X80264000Y-74185000D02*
X87994000Y-74185000D01*
X80264000Y-76945000D02*
X80264000Y-74185000D01*
X80264000Y-76945000D02*
X87994000Y-76945000D01*
X87994000Y-76945000D02*
X87994000Y-74185000D01*
%TO.C,C5*%
X101325000Y-85166252D02*
X101325000Y-83743748D01*
X103145000Y-85166252D02*
X103145000Y-83743748D01*
%TO.C,R7*%
X112120000Y-73167936D02*
X112120000Y-74622064D01*
X113940000Y-73167936D02*
X113940000Y-74622064D01*
%TO.C,RV2*%
X114841000Y-47042000D02*
X124761000Y-47042000D01*
X114841000Y-50787000D02*
X114841000Y-47042000D01*
X114841000Y-59262000D02*
X114841000Y-55517000D01*
X116605000Y-59262000D02*
X114841000Y-59262000D01*
X119105000Y-59262000D02*
X117997000Y-59262000D01*
X121605000Y-59262000D02*
X120497000Y-59262000D01*
X124761000Y-47042000D02*
X124761000Y-50787000D01*
X124761000Y-55517000D02*
X124761000Y-59262000D01*
X124761000Y-59262000D02*
X122997000Y-59262000D01*
%TO.C,C13*%
X109374748Y-100409000D02*
X110797252Y-100409000D01*
X109374748Y-103129000D02*
X110797252Y-103129000D01*
%TO.C,TP9*%
X117786000Y-90974000D02*
G75*
G02*
X115386000Y-90974000I-1200000J0D01*
G01*
X115386000Y-90974000D02*
G75*
G02*
X117786000Y-90974000I1200000J0D01*
G01*
%TO.C,R14*%
X128122000Y-94242936D02*
X128122000Y-95697064D01*
X129942000Y-94242936D02*
X129942000Y-95697064D01*
%TO.C,C7*%
X116170000Y-74606252D02*
X116170000Y-73183748D01*
X118890000Y-74606252D02*
X118890000Y-73183748D01*
%TO.C,C15*%
X118623651Y-87855000D02*
X119423651Y-87855000D01*
X119023651Y-87455000D02*
X119023651Y-88255000D01*
X123033349Y-86090000D02*
X123033349Y-94250000D01*
X123073349Y-86090000D02*
X123073349Y-94250000D01*
X123113349Y-86091000D02*
X123113349Y-94249000D01*
X123153349Y-86092000D02*
X123153349Y-94248000D01*
X123193349Y-86093000D02*
X123193349Y-94247000D01*
X123233349Y-86095000D02*
X123233349Y-94245000D01*
X123273349Y-86097000D02*
X123273349Y-94243000D01*
X123313349Y-86100000D02*
X123313349Y-94240000D01*
X123353349Y-86102000D02*
X123353349Y-94238000D01*
X123393349Y-86106000D02*
X123393349Y-94234000D01*
X123433349Y-86109000D02*
X123433349Y-94231000D01*
X123473349Y-86114000D02*
X123473349Y-94226000D01*
X123513349Y-86118000D02*
X123513349Y-94222000D01*
X123553349Y-86123000D02*
X123553349Y-94217000D01*
X123593349Y-86128000D02*
X123593349Y-94212000D01*
X123633349Y-86134000D02*
X123633349Y-94206000D01*
X123673349Y-86140000D02*
X123673349Y-94200000D01*
X123713349Y-86147000D02*
X123713349Y-94193000D01*
X123753349Y-86153000D02*
X123753349Y-89130000D01*
X123753349Y-91210000D02*
X123753349Y-94187000D01*
X123793349Y-86161000D02*
X123793349Y-89130000D01*
X123793349Y-91210000D02*
X123793349Y-94179000D01*
X123833349Y-86168000D02*
X123833349Y-89130000D01*
X123833349Y-91210000D02*
X123833349Y-94172000D01*
X123873349Y-86177000D02*
X123873349Y-89130000D01*
X123873349Y-91210000D02*
X123873349Y-94163000D01*
X123913349Y-86185000D02*
X123913349Y-89130000D01*
X123913349Y-91210000D02*
X123913349Y-94155000D01*
X123953349Y-86194000D02*
X123953349Y-89130000D01*
X123953349Y-91210000D02*
X123953349Y-94146000D01*
X123993349Y-86203000D02*
X123993349Y-89130000D01*
X123993349Y-91210000D02*
X123993349Y-94137000D01*
X124033349Y-86213000D02*
X124033349Y-89130000D01*
X124033349Y-91210000D02*
X124033349Y-94127000D01*
X124073349Y-86223000D02*
X124073349Y-89130000D01*
X124073349Y-91210000D02*
X124073349Y-94117000D01*
X124113349Y-86234000D02*
X124113349Y-89130000D01*
X124113349Y-91210000D02*
X124113349Y-94106000D01*
X124153349Y-86245000D02*
X124153349Y-89130000D01*
X124153349Y-91210000D02*
X124153349Y-94095000D01*
X124193349Y-86257000D02*
X124193349Y-89130000D01*
X124193349Y-91210000D02*
X124193349Y-94083000D01*
X124233349Y-86269000D02*
X124233349Y-89130000D01*
X124233349Y-91210000D02*
X124233349Y-94071000D01*
X124273349Y-86281000D02*
X124273349Y-89130000D01*
X124273349Y-91210000D02*
X124273349Y-94059000D01*
X124313349Y-86294000D02*
X124313349Y-89130000D01*
X124313349Y-91210000D02*
X124313349Y-94046000D01*
X124353349Y-86307000D02*
X124353349Y-89130000D01*
X124353349Y-91210000D02*
X124353349Y-94033000D01*
X124393349Y-86321000D02*
X124393349Y-89130000D01*
X124393349Y-91210000D02*
X124393349Y-94019000D01*
X124433349Y-86335000D02*
X124433349Y-89130000D01*
X124433349Y-91210000D02*
X124433349Y-94005000D01*
X124473349Y-86350000D02*
X124473349Y-89130000D01*
X124473349Y-91210000D02*
X124473349Y-93990000D01*
X124513349Y-86365000D02*
X124513349Y-89130000D01*
X124513349Y-91210000D02*
X124513349Y-93975000D01*
X124553349Y-86381000D02*
X124553349Y-89130000D01*
X124553349Y-91210000D02*
X124553349Y-93959000D01*
X124593349Y-86397000D02*
X124593349Y-89130000D01*
X124593349Y-91210000D02*
X124593349Y-93943000D01*
X124633349Y-86413000D02*
X124633349Y-89130000D01*
X124633349Y-91210000D02*
X124633349Y-93927000D01*
X124673349Y-86430000D02*
X124673349Y-89130000D01*
X124673349Y-91210000D02*
X124673349Y-93910000D01*
X124713349Y-86448000D02*
X124713349Y-89130000D01*
X124713349Y-91210000D02*
X124713349Y-93892000D01*
X124753349Y-86466000D02*
X124753349Y-89130000D01*
X124753349Y-91210000D02*
X124753349Y-93874000D01*
X124793349Y-86485000D02*
X124793349Y-89130000D01*
X124793349Y-91210000D02*
X124793349Y-93855000D01*
X124833349Y-86504000D02*
X124833349Y-89130000D01*
X124833349Y-91210000D02*
X124833349Y-93836000D01*
X124873349Y-86524000D02*
X124873349Y-89130000D01*
X124873349Y-91210000D02*
X124873349Y-93816000D01*
X124913349Y-86544000D02*
X124913349Y-89130000D01*
X124913349Y-91210000D02*
X124913349Y-93796000D01*
X124953349Y-86565000D02*
X124953349Y-89130000D01*
X124953349Y-91210000D02*
X124953349Y-93775000D01*
X124993349Y-86586000D02*
X124993349Y-89130000D01*
X124993349Y-91210000D02*
X124993349Y-93754000D01*
X125033349Y-86608000D02*
X125033349Y-89130000D01*
X125033349Y-91210000D02*
X125033349Y-93732000D01*
X125073349Y-86631000D02*
X125073349Y-89130000D01*
X125073349Y-91210000D02*
X125073349Y-93709000D01*
X125113349Y-86654000D02*
X125113349Y-89130000D01*
X125113349Y-91210000D02*
X125113349Y-93686000D01*
X125153349Y-86677000D02*
X125153349Y-89130000D01*
X125153349Y-91210000D02*
X125153349Y-93663000D01*
X125193349Y-86702000D02*
X125193349Y-89130000D01*
X125193349Y-91210000D02*
X125193349Y-93638000D01*
X125233349Y-86727000D02*
X125233349Y-89130000D01*
X125233349Y-91210000D02*
X125233349Y-93613000D01*
X125273349Y-86752000D02*
X125273349Y-89130000D01*
X125273349Y-91210000D02*
X125273349Y-93588000D01*
X125313349Y-86778000D02*
X125313349Y-89130000D01*
X125313349Y-91210000D02*
X125313349Y-93562000D01*
X125353349Y-86805000D02*
X125353349Y-89130000D01*
X125353349Y-91210000D02*
X125353349Y-93535000D01*
X125393349Y-86833000D02*
X125393349Y-89130000D01*
X125393349Y-91210000D02*
X125393349Y-93507000D01*
X125433349Y-86861000D02*
X125433349Y-89130000D01*
X125433349Y-91210000D02*
X125433349Y-93479000D01*
X125473349Y-86890000D02*
X125473349Y-89130000D01*
X125473349Y-91210000D02*
X125473349Y-93450000D01*
X125513349Y-86920000D02*
X125513349Y-89130000D01*
X125513349Y-91210000D02*
X125513349Y-93420000D01*
X125553349Y-86951000D02*
X125553349Y-89130000D01*
X125553349Y-91210000D02*
X125553349Y-93389000D01*
X125593349Y-86982000D02*
X125593349Y-89130000D01*
X125593349Y-91210000D02*
X125593349Y-93358000D01*
X125633349Y-87014000D02*
X125633349Y-89130000D01*
X125633349Y-91210000D02*
X125633349Y-93326000D01*
X125673349Y-87047000D02*
X125673349Y-89130000D01*
X125673349Y-91210000D02*
X125673349Y-93293000D01*
X125713349Y-87081000D02*
X125713349Y-89130000D01*
X125713349Y-91210000D02*
X125713349Y-93259000D01*
X125753349Y-87115000D02*
X125753349Y-89130000D01*
X125753349Y-91210000D02*
X125753349Y-93225000D01*
X125793349Y-87151000D02*
X125793349Y-89130000D01*
X125793349Y-91210000D02*
X125793349Y-93189000D01*
X125833349Y-87188000D02*
X125833349Y-93152000D01*
X125873349Y-87225000D02*
X125873349Y-93115000D01*
X125913349Y-87264000D02*
X125913349Y-93076000D01*
X125953349Y-87303000D02*
X125953349Y-93037000D01*
X125993349Y-87344000D02*
X125993349Y-92996000D01*
X126033349Y-87386000D02*
X126033349Y-92954000D01*
X126073349Y-87429000D02*
X126073349Y-92911000D01*
X126113349Y-87474000D02*
X126113349Y-92866000D01*
X126153349Y-87519000D02*
X126153349Y-92821000D01*
X126193349Y-87566000D02*
X126193349Y-92774000D01*
X126233349Y-87615000D02*
X126233349Y-92725000D01*
X126273349Y-87665000D02*
X126273349Y-92675000D01*
X126313349Y-87717000D02*
X126313349Y-92623000D01*
X126353349Y-87770000D02*
X126353349Y-92570000D01*
X126393349Y-87826000D02*
X126393349Y-92514000D01*
X126433349Y-87883000D02*
X126433349Y-92457000D01*
X126473349Y-87943000D02*
X126473349Y-92397000D01*
X126513349Y-88005000D02*
X126513349Y-92335000D01*
X126553349Y-88069000D02*
X126553349Y-92271000D01*
X126593349Y-88136000D02*
X126593349Y-92204000D01*
X126633349Y-88206000D02*
X126633349Y-92134000D01*
X126673349Y-88280000D02*
X126673349Y-92060000D01*
X126713349Y-88357000D02*
X126713349Y-91983000D01*
X126753349Y-88439000D02*
X126753349Y-91901000D01*
X126793349Y-88526000D02*
X126793349Y-91814000D01*
X126833349Y-88618000D02*
X126833349Y-91722000D01*
X126873349Y-88717000D02*
X126873349Y-91623000D01*
X126913349Y-88824000D02*
X126913349Y-91516000D01*
X126953349Y-88942000D02*
X126953349Y-91398000D01*
X126993349Y-89073000D02*
X126993349Y-91267000D01*
X127033349Y-89223000D02*
X127033349Y-91117000D01*
X127073349Y-89402000D02*
X127073349Y-90938000D01*
X127113349Y-89637000D02*
X127113349Y-90703000D01*
X127153349Y-90170000D02*
G75*
G02*
X118913349Y-90170000I-4120000J0D01*
G01*
X118913349Y-90170000D02*
G75*
G02*
X127153349Y-90170000I4120000J0D01*
G01*
%TD*%
%LPC*%
D12*
%TO.C,J1*%
X65176000Y-92555000D03*
D13*
X58826000Y-94685000D03*
X58826000Y-83255000D03*
D12*
X55626000Y-94685000D03*
X55626000Y-83255000D03*
X68326000Y-94685000D03*
X68326000Y-83255000D03*
%TD*%
D14*
%TO.C,R4*%
X128270000Y-83364000D03*
X128270000Y-80264000D03*
%TD*%
%TO.C,R1*%
X92202000Y-89942000D03*
X92202000Y-86842000D03*
%TD*%
D15*
%TO.C,RV1*%
X86320000Y-92918000D03*
X83820000Y-92918000D03*
X81320000Y-92918000D03*
D16*
X79420000Y-85918000D03*
X88220000Y-85918000D03*
%TD*%
D17*
%TO.C,C17*%
X112163500Y-90624000D03*
X109038500Y-90624000D03*
%TD*%
D14*
%TO.C,R5*%
X95250000Y-90196000D03*
X95250000Y-87096000D03*
%TD*%
D18*
%TO.C,C2*%
X106045000Y-80302500D03*
X106045000Y-77177500D03*
%TD*%
D19*
%TO.C,C3*%
X72605500Y-99060000D03*
X75730500Y-99060000D03*
%TD*%
D20*
%TO.C,U2*%
X108086000Y-93164000D03*
X108086000Y-94434000D03*
X108086000Y-95704000D03*
X108086000Y-96974000D03*
X113036000Y-96974000D03*
X113036000Y-95704000D03*
X113036000Y-94434000D03*
X113036000Y-93164000D03*
%TD*%
D21*
%TO.C,J6*%
X100975000Y-71755000D03*
D22*
X98435000Y-71755000D03*
X95895000Y-71755000D03*
X93355000Y-71755000D03*
X90815000Y-71755000D03*
X88275000Y-71755000D03*
X85735000Y-71755000D03*
X83195000Y-71755000D03*
X80655000Y-71755000D03*
X78115000Y-71755000D03*
X75575000Y-71755000D03*
X73035000Y-71755000D03*
X70495000Y-71755000D03*
X67955000Y-71755000D03*
X65415000Y-71755000D03*
X62875000Y-71755000D03*
X60335000Y-71755000D03*
X57795000Y-71755000D03*
X55255000Y-71755000D03*
X52715000Y-71755000D03*
%TD*%
D14*
%TO.C,R11*%
X103886000Y-93524000D03*
X103886000Y-90424000D03*
%TD*%
D23*
%TO.C,C12*%
X97751500Y-98044000D03*
X100876500Y-98044000D03*
%TD*%
D13*
%TO.C,TP5*%
X117855000Y-69370000D03*
%TD*%
D20*
%TO.C,U1*%
X94045000Y-80010000D03*
X94045000Y-81280000D03*
X94045000Y-82550000D03*
X94045000Y-83820000D03*
X98995000Y-83820000D03*
X98995000Y-82550000D03*
X98995000Y-81280000D03*
X98995000Y-80010000D03*
%TD*%
D15*
%TO.C,RV3*%
X140676000Y-60152000D03*
X138176000Y-60152000D03*
X135676000Y-60152000D03*
D16*
X133776000Y-53152000D03*
X142576000Y-53152000D03*
%TD*%
D24*
%TO.C,R10*%
X114036000Y-101769000D03*
X117136000Y-101769000D03*
%TD*%
D25*
%TO.C,J5*%
X137050000Y-88614000D03*
X138850000Y-86614000D03*
X144950000Y-86614000D03*
X142550000Y-88614000D03*
X133350000Y-86614000D03*
%TD*%
D26*
%TO.C,C16*%
X105156000Y-96911500D03*
X105156000Y-100036500D03*
%TD*%
D17*
%TO.C,C9*%
X61760500Y-45212000D03*
X58635500Y-45212000D03*
%TD*%
D12*
%TO.C,J2*%
X132436000Y-66646000D03*
D13*
X138786000Y-64516000D03*
X138786000Y-75946000D03*
D12*
X141986000Y-64516000D03*
X141986000Y-75946000D03*
X129286000Y-64516000D03*
X129286000Y-75946000D03*
%TD*%
D26*
%TO.C,C10*%
X105156000Y-57619500D03*
X105156000Y-60744500D03*
%TD*%
D14*
%TO.C,R2*%
X102235000Y-80290000D03*
X102235000Y-77190000D03*
%TD*%
%TO.C,R13*%
X130810000Y-102134000D03*
X130810000Y-99034000D03*
%TD*%
D27*
%TO.C,R8*%
X113030000Y-66395000D03*
X113030000Y-69495000D03*
%TD*%
D24*
%TO.C,R9*%
X97764000Y-94996000D03*
X100864000Y-94996000D03*
%TD*%
D14*
%TO.C,R12*%
X115951000Y-97604000D03*
X115951000Y-94504000D03*
%TD*%
%TO.C,R15*%
X134874000Y-102134000D03*
X134874000Y-99034000D03*
%TD*%
D21*
%TO.C,J7*%
X100975000Y-48260000D03*
D22*
X98435000Y-48260000D03*
X95895000Y-48260000D03*
X93355000Y-48260000D03*
X90815000Y-48260000D03*
X88275000Y-48260000D03*
X85735000Y-48260000D03*
X83195000Y-48260000D03*
X80655000Y-48260000D03*
X78115000Y-48260000D03*
X75575000Y-48260000D03*
X73035000Y-48260000D03*
X70495000Y-48260000D03*
X67955000Y-48260000D03*
X65415000Y-48260000D03*
X62875000Y-48260000D03*
X60335000Y-48260000D03*
X57795000Y-48260000D03*
X55255000Y-48260000D03*
X52715000Y-48260000D03*
%TD*%
D28*
%TO.C,C14*%
X121902349Y-100784000D03*
D29*
X125402349Y-100784000D03*
%TD*%
D30*
%TO.C,Q1*%
X58752500Y-41214000D03*
X58752500Y-43114000D03*
X60627500Y-42164000D03*
%TD*%
D28*
%TO.C,C18*%
X111423888Y-85544000D03*
D29*
X113423888Y-85544000D03*
%TD*%
D21*
%TO.C,J3*%
X55377000Y-42164000D03*
D22*
X52837000Y-42164000D03*
%TD*%
D27*
%TO.C,R16*%
X133350000Y-93420000D03*
X133350000Y-96520000D03*
%TD*%
D19*
%TO.C,C1*%
X66763500Y-99060000D03*
X69888500Y-99060000D03*
%TD*%
D14*
%TO.C,R6*%
X99060000Y-89815000D03*
X99060000Y-86715000D03*
%TD*%
D19*
%TO.C,C8*%
X94957500Y-77470000D03*
X98082500Y-77470000D03*
%TD*%
D21*
%TO.C,A1*%
X52715000Y-67945000D03*
D22*
X55255000Y-67945000D03*
X57795000Y-67945000D03*
X60335000Y-67945000D03*
X62875000Y-67945000D03*
X65415000Y-67945000D03*
X67955000Y-67945000D03*
X70495000Y-67945000D03*
X73035000Y-67945000D03*
X75575000Y-67945000D03*
X78115000Y-67945000D03*
X80655000Y-67945000D03*
X83195000Y-67945000D03*
X85735000Y-67945000D03*
X88275000Y-67945000D03*
X90815000Y-67945000D03*
X93355000Y-67945000D03*
X95895000Y-67945000D03*
X98435000Y-67945000D03*
X100975000Y-67945000D03*
X100975000Y-52705000D03*
X98435000Y-52705000D03*
X95895000Y-52705000D03*
X93355000Y-52705000D03*
X90815000Y-52705000D03*
X88275000Y-52705000D03*
X85735000Y-52705000D03*
X83195000Y-52705000D03*
X80655000Y-52705000D03*
X78115000Y-52705000D03*
X75575000Y-52705000D03*
X73035000Y-52705000D03*
X70495000Y-52705000D03*
X67955000Y-52705000D03*
X65415000Y-52705000D03*
X62875000Y-52705000D03*
X60335000Y-52705000D03*
X57795000Y-52705000D03*
X55255000Y-52705000D03*
X52715000Y-52705000D03*
%TD*%
D18*
%TO.C,C11*%
X105156000Y-55410500D03*
X105156000Y-52285500D03*
%TD*%
D27*
%TO.C,R3*%
X124460000Y-80264000D03*
X124460000Y-83364000D03*
%TD*%
D21*
%TO.C,J4*%
X78994000Y-75565000D03*
D22*
X81534000Y-75565000D03*
X84074000Y-75565000D03*
X86614000Y-75565000D03*
%TD*%
D18*
%TO.C,C5*%
X102235000Y-86017500D03*
X102235000Y-82892500D03*
%TD*%
D27*
%TO.C,R7*%
X113030000Y-72345000D03*
X113030000Y-75445000D03*
%TD*%
D15*
%TO.C,RV2*%
X122301000Y-60152000D03*
X119801000Y-60152000D03*
X117301000Y-60152000D03*
D16*
X115401000Y-53152000D03*
X124201000Y-53152000D03*
%TD*%
D23*
%TO.C,C13*%
X108523500Y-101769000D03*
X111648500Y-101769000D03*
%TD*%
D13*
%TO.C,TP9*%
X116586000Y-90974000D03*
%TD*%
D27*
%TO.C,R14*%
X129032000Y-93420000D03*
X129032000Y-96520000D03*
%TD*%
D31*
%TO.C,C7*%
X117530000Y-75457500D03*
X117530000Y-72332500D03*
%TD*%
D28*
%TO.C,C15*%
X121283349Y-90170000D03*
D29*
X124783349Y-90170000D03*
%TD*%
%LPD*%
M02*
