M48
; DRILL file KiCad 10.0.5 date 2026-09-15T15:09:19
; FORMAT={-:-/ absolute / metric / decimal}
; #@! TF.CreationDate,2026-09-15T15:09:19-06:00
; #@! TF.GenerationSoftware,Kicad,Pcbnew,10.0.5
; #@! TF.FileFunction,Plated,1,2,PTH
FMAT,2
METRIC
; #@! TA.AperFunction,Plated,PTH,ViaDrill
T1C0.300
; #@! TA.AperFunction,Plated,PTH,ComponentDrill
T2C0.800
; #@! TA.AperFunction,Plated,PTH,ComponentDrill
T3C1.000
; #@! TA.AperFunction,Plated,PTH,ComponentDrill
T4C1.100
; #@! TA.AperFunction,Plated,PTH,ComponentDrill
T5C1.500
; #@! TA.AperFunction,Plated,PTH,ComponentDrill
T6C3.000
%
G90
G05
T1
X61.214Y-40.894
X61.722Y-43.434
X63.5Y-45.212
X69.85Y-100.838
X89.662Y-75.692
X91.948Y-75.692
X93.472Y-77.47
X93.98Y-85.09
X100.33Y-90.17
X103.235Y-100.022
X103.505Y-88.265
X105.918Y-75.438
X106.934Y-52.324
X106.934Y-60.706
X108.061Y-98.244
X109.077Y-88.846
X109.22Y-80.01
X111.76Y-81.28
X115.681Y-99.514
X118.221Y-99.514
X119.888Y-75.438
X128.27Y-84.989
X130.54Y-96.956
X132.842Y-98.806
T2
X111.424Y-85.544
X113.424Y-85.544
X121.283Y-90.17
X121.902Y-100.784
X124.783Y-90.17
X125.402Y-100.784
T3
X52.715Y-48.26
X52.715Y-71.755
X52.837Y-42.164
X55.255Y-48.26
X55.255Y-71.755
X55.377Y-42.164
X57.795Y-48.26
X57.795Y-71.755
X60.335Y-48.26
X60.335Y-71.755
X62.875Y-48.26
X62.875Y-71.755
X65.415Y-48.26
X65.415Y-71.755
X67.955Y-48.26
X67.955Y-71.755
X70.495Y-48.26
X70.495Y-71.755
X73.035Y-48.26
X73.035Y-71.755
X75.575Y-48.26
X75.575Y-71.755
X78.115Y-48.26
X78.115Y-71.755
X78.994Y-75.565
X80.655Y-48.26
X80.655Y-71.755
X81.32Y-92.918
X81.534Y-75.565
X83.195Y-48.26
X83.195Y-71.755
X83.82Y-92.918
X84.074Y-75.565
X85.735Y-48.26
X85.735Y-71.755
X86.32Y-92.918
X86.614Y-75.565
X88.275Y-48.26
X88.275Y-71.755
X90.815Y-48.26
X90.815Y-71.755
X93.355Y-48.26
X93.355Y-71.755
X95.895Y-48.26
X95.895Y-71.755
X98.435Y-48.26
X98.435Y-71.755
X100.975Y-48.26
X100.975Y-71.755
X117.301Y-60.152
X119.801Y-60.152
X122.301Y-60.152
X135.676Y-60.152
X138.176Y-60.152
X140.676Y-60.152
T4
X52.715Y-52.705
X52.715Y-67.945
X55.255Y-52.705
X55.255Y-67.945
X57.795Y-52.705
X57.795Y-67.945
X60.335Y-52.705
X60.335Y-67.945
X62.875Y-52.705
X62.875Y-67.945
X65.415Y-52.705
X65.415Y-67.945
X67.955Y-52.705
X67.955Y-67.945
X70.495Y-52.705
X70.495Y-67.945
X73.035Y-52.705
X73.035Y-67.945
X75.575Y-52.705
X75.575Y-67.945
X78.115Y-52.705
X78.115Y-67.945
X80.655Y-52.705
X80.655Y-67.945
X83.195Y-52.705
X83.195Y-67.945
X85.735Y-52.705
X85.735Y-67.945
X88.275Y-52.705
X88.275Y-67.945
X90.815Y-52.705
X90.815Y-67.945
X93.355Y-52.705
X93.355Y-67.945
X95.895Y-52.705
X95.895Y-67.945
X98.435Y-52.705
X98.435Y-67.945
X100.975Y-52.705
X100.975Y-67.945
T5
X55.626Y-83.255
X55.626Y-94.685
X68.326Y-83.255
X68.326Y-94.685
X129.286Y-64.516
X129.286Y-75.946
X141.986Y-64.516
X141.986Y-75.946
T6
X79.42Y-85.918
X88.22Y-85.918
X115.401Y-53.152
X124.201Y-53.152
X133.776Y-53.152
X142.576Y-53.152
T3
G00X133.35Y-86.114
M15
G01X133.35Y-87.114
M16
G05
G00X137.05Y-88.114
M15
G01X137.05Y-89.114
M16
G05
G00X138.85Y-86.114
M15
G01X138.85Y-87.114
M16
G05
G00X142.55Y-88.114
M15
G01X142.55Y-89.114
M16
G05
G00X144.95Y-86.114
M15
G01X144.95Y-87.114
M16
G05
M30
