%TF.GenerationSoftware,KiCad,Pcbnew,10.0.5*%
%TF.CreationDate,2026-09-15T15:09:19-06:00*%
%TF.ProjectId,seed3-carrier,73656564-332d-4636-9172-726965722e6b,rev?*%
%TF.SameCoordinates,Original*%
%TF.FileFunction,Copper,L2,Bot*%
%TF.FilePolarity,Positive*%
%FSLAX46Y46*%
G04 Gerber Fmt 4.6, Leading zero omitted, Abs format (unit mm)*
G04 Created by KiCad (PCBNEW 10.0.5) date 2026-09-15 15:09:19*
%MOMM*%
%LPD*%
G01*
G04 APERTURE LIST*
G04 Aperture macros list*
%AMRoundRect*
0 Rectangle with rounded corners*
0 $1 Rounding radius*
0 $2 $3 $4 $5 $6 $7 $8 $9 X,Y pos of 4 corners*
0 Add a 4 corners polygon primitive as box body*
4,1,4,$2,$3,$4,$5,$6,$7,$8,$9,$2,$3,0*
0 Add four circle primitives for the rounded corners*
1,1,$1+$1,$2,$3*
1,1,$1+$1,$4,$5*
1,1,$1+$1,$6,$7*
1,1,$1+$1,$8,$9*
0 Add four rect primitives between the rounded corners*
20,1,$1+$1,$2,$3,$4,$5,0*
20,1,$1+$1,$4,$5,$6,$7,0*
20,1,$1+$1,$6,$7,$8,$9,0*
20,1,$1+$1,$8,$9,$2,$3,0*%
G04 Aperture macros list end*
%TA.AperFunction,ComponentPad*%
%ADD10C,3.000000*%
%TD*%
%TA.AperFunction,ComponentPad*%
%ADD11C,1.800000*%
%TD*%
%TA.AperFunction,ComponentPad*%
%ADD12C,4.400000*%
%TD*%
%TA.AperFunction,ComponentPad*%
%ADD13R,1.700000X1.700000*%
%TD*%
%TA.AperFunction,ComponentPad*%
%ADD14C,1.700000*%
%TD*%
%TA.AperFunction,ComponentPad*%
%ADD15O,1.800000X2.800000*%
%TD*%
%TA.AperFunction,ComponentPad*%
%ADD16RoundRect,0.250000X-0.550000X-0.550000X0.550000X-0.550000X0.550000X0.550000X-0.550000X0.550000X0*%
%TD*%
%TA.AperFunction,ComponentPad*%
%ADD17C,1.600000*%
%TD*%
%TA.AperFunction,ViaPad*%
%ADD18C,0.600000*%
%TD*%
%TA.AperFunction,Conductor*%
%ADD19C,0.300000*%
%TD*%
G04 APERTURE END LIST*
D10*
%TO.P,J1,S*%
%TO.N,GND*%
X55626000Y-94685000D03*
%TO.P,J1,SN*%
%TO.N,unconnected-(J1-PadSN)*%
X55626000Y-83255000D03*
%TO.P,J1,T*%
%TO.N,Net-(C1-Pad1)*%
X68326000Y-94685000D03*
%TO.P,J1,TN*%
%TO.N,GND*%
X68326000Y-83255000D03*
%TD*%
D11*
%TO.P,RV1,1,1_1*%
%TO.N,/VREF*%
X86320000Y-92918000D03*
%TO.P,RV1,2,2_2*%
%TO.N,Net-(R1-Pad1)*%
X83820000Y-92918000D03*
%TO.P,RV1,3,3_3*%
%TO.N,Net-(C3-Pad2)*%
X81320000Y-92918000D03*
D12*
%TO.P,RV1,MP*%
%TO.N,N/C*%
X79420000Y-85918000D03*
X88220000Y-85918000D03*
%TD*%
D13*
%TO.P,J6,1,Pin_1_1*%
%TO.N,GND*%
X100975000Y-71755000D03*
D14*
%TO.P,J6,2,Pin_2_2*%
%TO.N,/AUDIO_OUT_2*%
X98435000Y-71755000D03*
%TO.P,J6,3,Pin_3_3*%
%TO.N,/AUDIO_OUT_1*%
X95895000Y-71755000D03*
%TO.P,J6,4,Pin_4_4*%
%TO.N,/AUDIO_IN_2*%
X93355000Y-71755000D03*
%TO.P,J6,5,Pin_5_5*%
%TO.N,/AUDIO_IN_1*%
X90815000Y-71755000D03*
%TO.P,J6,6,Pin_6_6*%
%TO.N,/DISPLAY_UART_RX*%
X88275000Y-71755000D03*
%TO.P,J6,7,Pin_7_7*%
%TO.N,/DISPLAY_UART_TX*%
X85735000Y-71755000D03*
%TO.P,J6,8,Pin_8_8*%
%TO.N,/D12*%
X83195000Y-71755000D03*
%TO.P,J6,9,Pin_9_9*%
%TO.N,/D11*%
X80655000Y-71755000D03*
%TO.P,J6,10,Pin_10_10*%
%TO.N,/D10*%
X78115000Y-71755000D03*
%TO.P,J6,11,Pin_11_11*%
%TO.N,/D9*%
X75575000Y-71755000D03*
%TO.P,J6,12,Pin_12_12*%
%TO.N,/D8*%
X73035000Y-71755000D03*
%TO.P,J6,13,Pin_13_13*%
%TO.N,/D7*%
X70495000Y-71755000D03*
%TO.P,J6,14,Pin_14_14*%
%TO.N,/D6*%
X67955000Y-71755000D03*
%TO.P,J6,15,Pin_15_15*%
%TO.N,/D5*%
X65415000Y-71755000D03*
%TO.P,J6,16,Pin_16_16*%
%TO.N,/D4*%
X62875000Y-71755000D03*
%TO.P,J6,17,Pin_17_17*%
%TO.N,/D3*%
X60335000Y-71755000D03*
%TO.P,J6,18,Pin_18_18*%
%TO.N,/D2*%
X57795000Y-71755000D03*
%TO.P,J6,19,Pin_19_19*%
%TO.N,/D1*%
X55255000Y-71755000D03*
%TO.P,J6,20,Pin_20_20*%
%TO.N,/D0*%
X52715000Y-71755000D03*
%TD*%
D11*
%TO.P,RV3,1,1_1*%
%TO.N,GND*%
X140676000Y-60152000D03*
%TO.P,RV3,2,2_2*%
%TO.N,/TONE_POT*%
X138176000Y-60152000D03*
%TO.P,RV3,3,3_3*%
%TO.N,/3V3_A*%
X135676000Y-60152000D03*
D12*
%TO.P,RV3,MP*%
%TO.N,N/C*%
X133776000Y-53152000D03*
X142576000Y-53152000D03*
%TD*%
D15*
%TO.P,J5,R*%
%TO.N,/HP_R*%
X137050000Y-88614000D03*
%TO.P,J5,RN*%
%TO.N,unconnected-(J5-PadRN)*%
X138850000Y-86614000D03*
%TO.P,J5,S*%
%TO.N,GND*%
X144950000Y-86614000D03*
%TO.P,J5,T*%
%TO.N,/HP_L*%
X142550000Y-88614000D03*
%TO.P,J5,TN*%
%TO.N,/LINE_SEND*%
X133350000Y-86614000D03*
%TD*%
D10*
%TO.P,J2,S*%
%TO.N,GND*%
X141986000Y-64516000D03*
%TO.P,J2,SN*%
%TO.N,N/C*%
X141986000Y-75946000D03*
%TO.P,J2,T*%
%TO.N,Net-(J2-PadT)*%
X129286000Y-64516000D03*
%TO.P,J2,TN*%
%TO.N,N/C*%
X129286000Y-75946000D03*
%TD*%
D13*
%TO.P,J7,1,Pin_1_1*%
%TO.N,/3V3_A*%
X100975000Y-48260000D03*
D14*
%TO.P,J7,2,Pin_2_2*%
%TO.N,/VOLUME_POT*%
X98435000Y-48260000D03*
%TO.P,J7,3,Pin_3_3*%
%TO.N,/TONE_POT*%
X95895000Y-48260000D03*
%TO.P,J7,4,Pin_4_4*%
%TO.N,/A2*%
X93355000Y-48260000D03*
%TO.P,J7,5,Pin_5_5*%
%TO.N,/A3*%
X90815000Y-48260000D03*
%TO.P,J7,6,Pin_6_6*%
%TO.N,/A4*%
X88275000Y-48260000D03*
%TO.P,J7,7,Pin_7_7*%
%TO.N,/A5*%
X85735000Y-48260000D03*
%TO.P,J7,8,Pin_8_8*%
%TO.N,/A6*%
X83195000Y-48260000D03*
%TO.P,J7,9,Pin_9_9*%
%TO.N,/A7*%
X80655000Y-48260000D03*
%TO.P,J7,10,Pin_10_10*%
%TO.N,/A8*%
X78115000Y-48260000D03*
%TO.P,J7,11,Pin_11_11*%
%TO.N,/A9*%
X75575000Y-48260000D03*
%TO.P,J7,12,Pin_12_12*%
%TO.N,/A10*%
X73035000Y-48260000D03*
%TO.P,J7,13,Pin_13_13*%
%TO.N,/D26*%
X70495000Y-48260000D03*
%TO.P,J7,14,Pin_14_14*%
%TO.N,/D27*%
X67955000Y-48260000D03*
%TO.P,J7,15,Pin_15_15*%
%TO.N,/A11*%
X65415000Y-48260000D03*
%TO.P,J7,16,Pin_16_16*%
%TO.N,/USB_D-*%
X62875000Y-48260000D03*
%TO.P,J7,17,Pin_17_17*%
%TO.N,/USB_D+*%
X60335000Y-48260000D03*
%TO.P,J7,18,Pin_18_18*%
%TO.N,/3V3_D*%
X57795000Y-48260000D03*
%TO.P,J7,19,Pin_19_19*%
%TO.N,+5V*%
X55255000Y-48260000D03*
%TO.P,J7,20,Pin_20_20*%
%TO.N,GND*%
X52715000Y-48260000D03*
%TD*%
D16*
%TO.P,C14,1*%
%TO.N,Net-(U2-VOUT1)*%
X121902349Y-100784000D03*
D17*
%TO.P,C14,2*%
%TO.N,Net-(C14-Pad2)*%
X125402349Y-100784000D03*
%TD*%
D16*
%TO.P,C18,1*%
%TO.N,+5V*%
X111423888Y-85544000D03*
D17*
%TO.P,C18,2*%
%TO.N,GND*%
X113423888Y-85544000D03*
%TD*%
D13*
%TO.P,J3,1,Pin_1_1*%
%TO.N,Net-(J3-Pin_1)*%
X55377000Y-42164000D03*
D14*
%TO.P,J3,2,Pin_2_2*%
%TO.N,GND*%
X52837000Y-42164000D03*
%TD*%
D13*
%TO.P,A1,1,USB_ID_1*%
%TO.N,/D0*%
X52715000Y-67945000D03*
D14*
%TO.P,A1,2,SD_DATA_3_2*%
%TO.N,/D1*%
X55255000Y-67945000D03*
%TO.P,A1,3,SD_DATA_2_3*%
%TO.N,/D2*%
X57795000Y-67945000D03*
%TO.P,A1,4,SD_DATA_1_4*%
%TO.N,/D3*%
X60335000Y-67945000D03*
%TO.P,A1,5,SD_DATA_0_5*%
%TO.N,/D4*%
X62875000Y-67945000D03*
%TO.P,A1,6,SD_CMD_6*%
%TO.N,/D5*%
X65415000Y-67945000D03*
%TO.P,A1,7,SD_CLK_7*%
%TO.N,/D6*%
X67955000Y-67945000D03*
%TO.P,A1,8,SPI1_CS_8*%
%TO.N,/D7*%
X70495000Y-67945000D03*
%TO.P,A1,9,SPI1_SCK_9*%
%TO.N,/D8*%
X73035000Y-67945000D03*
%TO.P,A1,10,SPI1_POCI_10*%
%TO.N,/D9*%
X75575000Y-67945000D03*
%TO.P,A1,11,SPI1_PICO_11*%
%TO.N,/D10*%
X78115000Y-67945000D03*
%TO.P,A1,12,I2C1_SCL_12*%
%TO.N,/D11*%
X80655000Y-67945000D03*
%TO.P,A1,13,I2C1_SDA_13*%
%TO.N,/D12*%
X83195000Y-67945000D03*
%TO.P,A1,14,USART1_TX_14*%
%TO.N,/DISPLAY_UART_TX*%
X85735000Y-67945000D03*
%TO.P,A1,15,USART1_RX_15*%
%TO.N,/DISPLAY_UART_RX*%
X88275000Y-67945000D03*
%TO.P,A1,16,AUDIO_IN_1_16*%
%TO.N,/AUDIO_IN_1*%
X90815000Y-67945000D03*
%TO.P,A1,17,AUDIO_IN_2_17*%
%TO.N,/AUDIO_IN_2*%
X93355000Y-67945000D03*
%TO.P,A1,18,AUDIO_OUT_1_18*%
%TO.N,/AUDIO_OUT_1*%
X95895000Y-67945000D03*
%TO.P,A1,19,AUDIO_OUT_2_19*%
%TO.N,/AUDIO_OUT_2*%
X98435000Y-67945000D03*
%TO.P,A1,20,AGND_20*%
%TO.N,GND*%
X100975000Y-67945000D03*
%TO.P,A1,21,3V3_A_21*%
%TO.N,/3V3_A*%
X100975000Y-52705000D03*
%TO.P,A1,22,ADC_0_22*%
%TO.N,/VOLUME_POT*%
X98435000Y-52705000D03*
%TO.P,A1,23,ADC_1_23*%
%TO.N,/TONE_POT*%
X95895000Y-52705000D03*
%TO.P,A1,24,ADC_2_24*%
%TO.N,/A2*%
X93355000Y-52705000D03*
%TO.P,A1,25,ADC_3_25*%
%TO.N,/A3*%
X90815000Y-52705000D03*
%TO.P,A1,26,ADC_4_26*%
%TO.N,/A4*%
X88275000Y-52705000D03*
%TO.P,A1,27,ADC_5_27*%
%TO.N,/A5*%
X85735000Y-52705000D03*
%TO.P,A1,28,ADC_6_28*%
%TO.N,/A6*%
X83195000Y-52705000D03*
%TO.P,A1,29,DAC_OUT2_29*%
%TO.N,/A7*%
X80655000Y-52705000D03*
%TO.P,A1,30,DAC_OUT1_30*%
%TO.N,/A8*%
X78115000Y-52705000D03*
%TO.P,A1,31,SAI2_MCLK_31*%
%TO.N,/A9*%
X75575000Y-52705000D03*
%TO.P,A1,32,SAI2_SD_B_32*%
%TO.N,/A10*%
X73035000Y-52705000D03*
%TO.P,A1,33,SAI2_SD_A_33*%
%TO.N,/D26*%
X70495000Y-52705000D03*
%TO.P,A1,34,SAI2_FS_34*%
%TO.N,/D27*%
X67955000Y-52705000D03*
%TO.P,A1,35,SAI2_SCK_35*%
%TO.N,/A11*%
X65415000Y-52705000D03*
%TO.P,A1,36,USB_D_-_36*%
%TO.N,/USB_D-*%
X62875000Y-52705000D03*
%TO.P,A1,37,USB_D_+_37*%
%TO.N,/USB_D+*%
X60335000Y-52705000D03*
%TO.P,A1,38,3V3_D_38*%
%TO.N,/3V3_D*%
X57795000Y-52705000D03*
%TO.P,A1,39,VIN_39*%
%TO.N,+5V*%
X55255000Y-52705000D03*
%TO.P,A1,40,DGND_40*%
%TO.N,GND*%
X52715000Y-52705000D03*
%TD*%
D13*
%TO.P,J4,1,Pin_1_1*%
%TO.N,GND*%
X78994000Y-75565000D03*
D14*
%TO.P,J4,2,Pin_2_2*%
%TO.N,/DISPLAY_UART_TX*%
X81534000Y-75565000D03*
%TO.P,J4,3,Pin_3_3*%
%TO.N,/DISPLAY_UART_RX*%
X84074000Y-75565000D03*
%TO.P,J4,4,Pin_4_4*%
%TO.N,+5V*%
X86614000Y-75565000D03*
%TD*%
D11*
%TO.P,RV2,1,1_1*%
%TO.N,GND*%
X122301000Y-60152000D03*
%TO.P,RV2,2,2_2*%
%TO.N,/VOLUME_POT*%
X119801000Y-60152000D03*
%TO.P,RV2,3,3_3*%
%TO.N,/3V3_A*%
X117301000Y-60152000D03*
D12*
%TO.P,RV2,MP*%
%TO.N,N/C*%
X115401000Y-53152000D03*
X124201000Y-53152000D03*
%TD*%
D16*
%TO.P,C15,1*%
%TO.N,Net-(U2-VOUT2)*%
X121283349Y-90170000D03*
D17*
%TO.P,C15,2*%
%TO.N,Net-(C15-Pad2)*%
X124783349Y-90170000D03*
%TD*%
D18*
%TO.N,GND*%
X130540000Y-96956000D03*
X61722000Y-43434000D03*
X106934000Y-52324000D03*
X93472000Y-77470000D03*
X109077000Y-88846000D03*
X63500000Y-45212000D03*
X69850000Y-100838000D03*
X93980000Y-85090000D03*
X119888000Y-75438000D03*
X128270000Y-84989000D03*
X105918000Y-75438000D03*
X108061000Y-98244000D03*
X132842000Y-98806000D03*
X61214000Y-40894000D03*
X103235000Y-100022000D03*
X106934000Y-60706000D03*
%TO.N,/VREF*%
X100330000Y-90170000D03*
X103505000Y-88265000D03*
%TO.N,+5V*%
X89662000Y-75692000D03*
X109220000Y-80010000D03*
X91948000Y-75692000D03*
X111760000Y-81280000D03*
%TO.N,Net-(U2-VOUT1)*%
X115681000Y-99514000D03*
X118221000Y-99514000D03*
%TD*%
%TO.N,/VREF*%
D19*
X103505000Y-88265000D02*
X101600000Y-90170000D01*
X101600000Y-90170000D02*
X100330000Y-90170000D01*
%TO.N,+5V*%
X111760000Y-81280000D02*
X110490000Y-81280000D01*
X89662000Y-75692000D02*
X91948000Y-75692000D01*
X110490000Y-81280000D02*
X109220000Y-80010000D01*
%TO.N,Net-(U2-VOUT1)*%
X115681000Y-99514000D02*
X118221000Y-99514000D01*
%TD*%
%TA.AperFunction,Conductor*%
%TO.N,GND*%
G36*
X146000539Y-40525185D02*
G01*
X146046294Y-40577989D01*
X146057500Y-40629500D01*
X146057500Y-84944787D01*
X146037815Y-85011826D01*
X145985011Y-85057581D01*
X145915853Y-85067525D01*
X145860615Y-85045105D01*
X145683763Y-84916615D01*
X145487410Y-84816567D01*
X145277836Y-84748473D01*
X145200000Y-84736144D01*
X145200000Y-85680988D01*
X145142993Y-85648075D01*
X145015826Y-85614000D01*
X144884174Y-85614000D01*
X144757007Y-85648075D01*
X144700000Y-85680988D01*
X144700000Y-84736144D01*
X144622164Y-84748473D01*
X144622161Y-84748473D01*
X144412589Y-84816567D01*
X144216239Y-84916613D01*
X144037958Y-85046142D01*
X143882142Y-85201958D01*
X143752613Y-85380239D01*
X143652567Y-85576589D01*
X143584473Y-85786164D01*
X143550000Y-86003818D01*
X143550000Y-86364000D01*
X144450000Y-86364000D01*
X144450000Y-86864000D01*
X143550000Y-86864000D01*
X143550000Y-87224179D01*
X143553057Y-87243485D01*
X143544100Y-87312778D01*
X143499102Y-87366229D01*
X143432350Y-87386866D01*
X143365037Y-87368139D01*
X143342902Y-87350560D01*
X143266930Y-87274588D01*
X143266928Y-87274586D01*
X143126788Y-87172768D01*
X142972445Y-87094127D01*
X142807701Y-87040598D01*
X142807699Y-87040597D01*
X142807698Y-87040597D01*
X142676271Y-87019781D01*
X142636611Y-87013500D01*
X142463389Y-87013500D01*
X142423728Y-87019781D01*
X142292302Y-87040597D01*
X142127552Y-87094128D01*
X141973211Y-87172768D01*
X141902451Y-87224179D01*
X141833072Y-87274586D01*
X141833070Y-87274588D01*
X141833069Y-87274588D01*
X141710588Y-87397069D01*
X141710588Y-87397070D01*
X141710586Y-87397072D01*
X141693196Y-87421007D01*
X141608768Y-87537211D01*
X141530128Y-87691552D01*
X141476597Y-87856302D01*
X141473028Y-87878838D01*
X141449500Y-88027389D01*
X141449500Y-89200611D01*
X141476598Y-89371701D01*
X141530127Y-89536445D01*
X141608768Y-89690788D01*
X141710586Y-89830928D01*
X141833072Y-89953414D01*
X141973212Y-90055232D01*
X142127555Y-90133873D01*
X142292299Y-90187402D01*
X142463389Y-90214500D01*
X142463390Y-90214500D01*
X142636610Y-90214500D01*
X142636611Y-90214500D01*
X142807701Y-90187402D01*
X142972445Y-90133873D01*
X143126788Y-90055232D01*
X143266928Y-89953414D01*
X143389414Y-89830928D01*
X143491232Y-89690788D01*
X143569873Y-89536445D01*
X143623402Y-89371701D01*
X143650500Y-89200611D01*
X143650500Y-88088846D01*
X143670185Y-88021807D01*
X143722989Y-87976052D01*
X143792147Y-87966108D01*
X143855703Y-87995133D01*
X143874819Y-88015961D01*
X143882143Y-88026042D01*
X144037958Y-88181857D01*
X144216239Y-88311386D01*
X144412589Y-88411432D01*
X144622163Y-88479526D01*
X144699999Y-88491854D01*
X144700000Y-88491854D01*
X144700000Y-87547012D01*
X144757007Y-87579925D01*
X144884174Y-87614000D01*
X145015826Y-87614000D01*
X145142993Y-87579925D01*
X145200000Y-87547012D01*
X145200000Y-88491854D01*
X145277834Y-88479526D01*
X145277837Y-88479526D01*
X145487410Y-88411432D01*
X145683760Y-88311386D01*
X145860614Y-88182894D01*
X145926421Y-88159414D01*
X145994474Y-88175239D01*
X146043169Y-88225345D01*
X146057500Y-88283212D01*
X146057500Y-105547500D01*
X146037815Y-105614539D01*
X145985011Y-105660294D01*
X145933500Y-105671500D01*
X51424500Y-105671500D01*
X51357461Y-105651815D01*
X51311706Y-105599011D01*
X51300500Y-105547500D01*
X51300500Y-100179730D01*
X120901849Y-100179730D01*
X120901849Y-101388269D01*
X120904702Y-101418699D01*
X120904702Y-101418701D01*
X120949555Y-101546880D01*
X120949556Y-101546882D01*
X121030199Y-101656150D01*
X121139467Y-101736793D01*
X121165925Y-101746051D01*
X121267648Y-101781646D01*
X121298079Y-101784500D01*
X121298083Y-101784500D01*
X122506619Y-101784500D01*
X122537048Y-101781646D01*
X122537050Y-101781646D01*
X122601139Y-101759219D01*
X122665231Y-101736793D01*
X122774499Y-101656150D01*
X122855142Y-101546882D01*
X122877568Y-101482790D01*
X122899995Y-101418701D01*
X122899995Y-101418699D01*
X122902849Y-101388269D01*
X122902849Y-100882543D01*
X124401848Y-100882543D01*
X124440296Y-101075829D01*
X124440299Y-101075839D01*
X124515713Y-101257907D01*
X124515720Y-101257920D01*
X124625209Y-101421781D01*
X124625212Y-101421785D01*
X124764563Y-101561136D01*
X124764567Y-101561139D01*
X124928428Y-101670628D01*
X124928441Y-101670635D01*
X125088163Y-101736793D01*
X125110514Y-101746051D01*
X125110518Y-101746051D01*
X125110519Y-101746052D01*
X125303805Y-101784500D01*
X125303808Y-101784500D01*
X125500892Y-101784500D01*
X125630931Y-101758632D01*
X125694184Y-101746051D01*
X125876263Y-101670632D01*
X126040131Y-101561139D01*
X126179488Y-101421782D01*
X126288981Y-101257914D01*
X126364400Y-101075835D01*
X126402849Y-100882541D01*
X126402849Y-100685459D01*
X126402849Y-100685456D01*
X126364401Y-100492170D01*
X126364400Y-100492169D01*
X126364400Y-100492165D01*
X126364398Y-100492160D01*
X126288984Y-100310092D01*
X126288977Y-100310079D01*
X126179488Y-100146218D01*
X126179485Y-100146214D01*
X126040134Y-100006863D01*
X126040130Y-100006860D01*
X125876269Y-99897371D01*
X125876256Y-99897364D01*
X125694188Y-99821950D01*
X125694178Y-99821947D01*
X125500892Y-99783500D01*
X125500890Y-99783500D01*
X125303808Y-99783500D01*
X125303806Y-99783500D01*
X125110519Y-99821947D01*
X125110509Y-99821950D01*
X124928441Y-99897364D01*
X124928428Y-99897371D01*
X124764567Y-100006860D01*
X124764563Y-100006863D01*
X124625212Y-100146214D01*
X124625209Y-100146218D01*
X124515720Y-100310079D01*
X124515713Y-100310092D01*
X124440299Y-100492160D01*
X124440296Y-100492170D01*
X124401849Y-100685456D01*
X124401849Y-100685459D01*
X124401849Y-100882541D01*
X124401849Y-100882543D01*
X124401848Y-100882543D01*
X122902849Y-100882543D01*
X122902849Y-100179730D01*
X122899995Y-100149300D01*
X122899995Y-100149298D01*
X122855142Y-100021119D01*
X122855141Y-100021117D01*
X122774499Y-99911850D01*
X122665231Y-99831207D01*
X122665229Y-99831206D01*
X122537049Y-99786353D01*
X122506619Y-99783500D01*
X122506615Y-99783500D01*
X121298083Y-99783500D01*
X121298079Y-99783500D01*
X121267649Y-99786353D01*
X121267647Y-99786353D01*
X121139468Y-99831206D01*
X121139466Y-99831207D01*
X121030199Y-99911850D01*
X120949556Y-100021117D01*
X120949555Y-100021119D01*
X120904702Y-100149298D01*
X120904702Y-100149300D01*
X120901849Y-100179730D01*
X51300500Y-100179730D01*
X51300500Y-99448108D01*
X115180500Y-99448108D01*
X115180500Y-99579891D01*
X115214608Y-99707187D01*
X115247554Y-99764250D01*
X115280500Y-99821314D01*
X115373686Y-99914500D01*
X115487814Y-99980392D01*
X115615108Y-100014500D01*
X115615110Y-100014500D01*
X115746890Y-100014500D01*
X115746892Y-100014500D01*
X115874186Y-99980392D01*
X115988314Y-99914500D01*
X116001995Y-99900819D01*
X116063318Y-99867334D01*
X116089676Y-99864500D01*
X117812324Y-99864500D01*
X117879363Y-99884185D01*
X117900005Y-99900819D01*
X117913686Y-99914500D01*
X118027814Y-99980392D01*
X118155108Y-100014500D01*
X118155110Y-100014500D01*
X118286890Y-100014500D01*
X118286892Y-100014500D01*
X118414186Y-99980392D01*
X118528314Y-99914500D01*
X118621500Y-99821314D01*
X118687392Y-99707186D01*
X118721500Y-99579892D01*
X118721500Y-99448108D01*
X118687392Y-99320814D01*
X118621500Y-99206686D01*
X118528314Y-99113500D01*
X118471250Y-99080554D01*
X118414187Y-99047608D01*
X118350539Y-99030554D01*
X118286892Y-99013500D01*
X118155108Y-99013500D01*
X118027812Y-99047608D01*
X117913686Y-99113500D01*
X117913683Y-99113502D01*
X117900005Y-99127181D01*
X117838682Y-99160666D01*
X117812324Y-99163500D01*
X116089676Y-99163500D01*
X116022637Y-99143815D01*
X116001995Y-99127181D01*
X115988316Y-99113502D01*
X115988314Y-99113500D01*
X115931250Y-99080554D01*
X115874187Y-99047608D01*
X115810539Y-99030554D01*
X115746892Y-99013500D01*
X115615108Y-99013500D01*
X115487812Y-99047608D01*
X115373686Y-99113500D01*
X115373683Y-99113502D01*
X115280502Y-99206683D01*
X115280500Y-99206686D01*
X115214608Y-99320812D01*
X115180500Y-99448108D01*
X51300500Y-99448108D01*
X51300500Y-94553905D01*
X53626000Y-94553905D01*
X53626000Y-94816094D01*
X53660220Y-95076009D01*
X53660222Y-95076020D01*
X53728075Y-95329255D01*
X53828404Y-95571471D01*
X53828409Y-95571482D01*
X53959488Y-95798516D01*
X53959494Y-95798524D01*
X54046080Y-95911365D01*
X54948421Y-95009024D01*
X54961359Y-95040258D01*
X55043437Y-95163097D01*
X55147903Y-95267563D01*
X55270742Y-95349641D01*
X55301974Y-95362577D01*
X54399633Y-96264917D01*
X54399633Y-96264918D01*
X54512475Y-96351505D01*
X54512483Y-96351511D01*
X54739517Y-96482590D01*
X54739528Y-96482595D01*
X54981744Y-96582924D01*
X55234979Y-96650777D01*
X55234990Y-96650779D01*
X55494905Y-96684999D01*
X55494920Y-96685000D01*
X55757080Y-96685000D01*
X55757094Y-96684999D01*
X56017009Y-96650779D01*
X56017020Y-96650777D01*
X56270255Y-96582924D01*
X56512471Y-96482595D01*
X56512482Y-96482590D01*
X56739516Y-96351511D01*
X56739534Y-96351499D01*
X56852365Y-96264919D01*
X56852365Y-96264917D01*
X55950025Y-95362578D01*
X55981258Y-95349641D01*
X56104097Y-95267563D01*
X56208563Y-95163097D01*
X56290641Y-95040258D01*
X56303577Y-95009025D01*
X57205917Y-95911365D01*
X57205919Y-95911365D01*
X57292499Y-95798534D01*
X57292511Y-95798516D01*
X57423590Y-95571482D01*
X57423598Y-95571466D01*
X57522722Y-95332158D01*
X57566563Y-95277754D01*
X57632857Y-95255689D01*
X57700556Y-95272968D01*
X57747767Y-95323314D01*
X57756474Y-95340402D01*
X57756476Y-95340405D01*
X57872172Y-95499646D01*
X58011354Y-95638828D01*
X58170595Y-95754524D01*
X58253455Y-95796743D01*
X58345970Y-95843882D01*
X58345972Y-95843882D01*
X58345975Y-95843884D01*
X58446317Y-95876487D01*
X58533173Y-95904709D01*
X58727578Y-95935500D01*
X58727583Y-95935500D01*
X58924422Y-95935500D01*
X59118826Y-95904709D01*
X59306025Y-95843884D01*
X59481405Y-95754524D01*
X59640646Y-95638828D01*
X59779828Y-95499646D01*
X59895524Y-95340405D01*
X59984884Y-95165025D01*
X60045709Y-94977826D01*
X60071325Y-94816094D01*
X60076500Y-94783422D01*
X60076500Y-94586577D01*
X60074437Y-94573549D01*
X66625500Y-94573549D01*
X66625500Y-94796450D01*
X66625501Y-94796466D01*
X66654594Y-95017452D01*
X66654595Y-95017457D01*
X66654596Y-95017463D01*
X66694135Y-95165025D01*
X66712290Y-95232780D01*
X66712293Y-95232790D01*
X66797593Y-95438722D01*
X66797595Y-95438726D01*
X66909052Y-95631774D01*
X66909057Y-95631780D01*
X66909058Y-95631782D01*
X67044751Y-95808622D01*
X67044757Y-95808629D01*
X67202370Y-95966242D01*
X67202376Y-95966247D01*
X67379226Y-96101948D01*
X67572274Y-96213405D01*
X67778219Y-96298710D01*
X67993537Y-96356404D01*
X68214543Y-96385500D01*
X68214550Y-96385500D01*
X68437450Y-96385500D01*
X68437457Y-96385500D01*
X68658463Y-96356404D01*
X68873781Y-96298710D01*
X69079726Y-96213405D01*
X69272774Y-96101948D01*
X69449624Y-95966247D01*
X69607247Y-95808624D01*
X69742948Y-95631774D01*
X69854405Y-95438726D01*
X69939710Y-95232781D01*
X69997404Y-95017463D01*
X70026500Y-94796457D01*
X70026500Y-94573543D01*
X69997404Y-94352537D01*
X69939710Y-94137219D01*
X69923250Y-94097482D01*
X69908197Y-94061140D01*
X69854405Y-93931274D01*
X69742948Y-93738226D01*
X69648759Y-93615476D01*
X69607248Y-93561377D01*
X69607242Y-93561370D01*
X69449629Y-93403757D01*
X69449622Y-93403751D01*
X69272782Y-93268058D01*
X69272780Y-93268057D01*
X69272774Y-93268052D01*
X69079726Y-93156595D01*
X69079722Y-93156593D01*
X68873790Y-93071293D01*
X68873783Y-93071291D01*
X68873781Y-93071290D01*
X68658463Y-93013596D01*
X68658457Y-93013595D01*
X68658452Y-93013594D01*
X68437466Y-92984501D01*
X68437463Y-92984500D01*
X68437457Y-92984500D01*
X68214543Y-92984500D01*
X68214537Y-92984500D01*
X68214533Y-92984501D01*
X67993547Y-93013594D01*
X67993540Y-93013595D01*
X67993537Y-93013596D01*
X67778219Y-93071290D01*
X67778209Y-93071293D01*
X67572277Y-93156593D01*
X67572273Y-93156595D01*
X67379226Y-93268052D01*
X67379217Y-93268058D01*
X67202377Y-93403751D01*
X67202370Y-93403757D01*
X67044757Y-93561370D01*
X67044751Y-93561377D01*
X66909058Y-93738217D01*
X66909052Y-93738226D01*
X66797595Y-93931273D01*
X66797593Y-93931277D01*
X66712293Y-94137209D01*
X66712290Y-94137219D01*
X66667200Y-94305500D01*
X66654597Y-94352534D01*
X66654594Y-94352547D01*
X66625501Y-94573533D01*
X66625500Y-94573549D01*
X60074437Y-94573549D01*
X60045709Y-94392173D01*
X60007814Y-94275546D01*
X59984884Y-94204975D01*
X59984882Y-94204972D01*
X59984882Y-94204970D01*
X59927186Y-94091735D01*
X59895524Y-94029595D01*
X59779828Y-93870354D01*
X59640646Y-93731172D01*
X59481405Y-93615476D01*
X59306029Y-93526117D01*
X59118826Y-93465290D01*
X58924422Y-93434500D01*
X58924417Y-93434500D01*
X58727583Y-93434500D01*
X58727578Y-93434500D01*
X58533173Y-93465290D01*
X58345970Y-93526117D01*
X58170594Y-93615476D01*
X58079741Y-93681485D01*
X58011354Y-93731172D01*
X58011352Y-93731174D01*
X58011351Y-93731174D01*
X57872174Y-93870351D01*
X57872174Y-93870352D01*
X57872172Y-93870354D01*
X57869588Y-93873911D01*
X57756474Y-94029597D01*
X57747766Y-94046687D01*
X57699790Y-94097482D01*
X57631968Y-94114275D01*
X57565834Y-94091735D01*
X57522722Y-94037841D01*
X57423598Y-93798534D01*
X57423590Y-93798517D01*
X57292511Y-93571483D01*
X57292505Y-93571475D01*
X57205918Y-93458633D01*
X57205917Y-93458633D01*
X56303577Y-94360973D01*
X56290641Y-94329742D01*
X56208563Y-94206903D01*
X56104097Y-94102437D01*
X55981258Y-94020359D01*
X55950023Y-94007421D01*
X56852365Y-93105080D01*
X56739524Y-93018494D01*
X56739516Y-93018488D01*
X56512482Y-92887409D01*
X56512471Y-92887404D01*
X56270255Y-92787075D01*
X56017020Y-92719222D01*
X56017009Y-92719220D01*
X55757094Y-92685000D01*
X55494905Y-92685000D01*
X55234990Y-92719220D01*
X55234979Y-92719222D01*
X54981744Y-92787075D01*
X54739528Y-92887404D01*
X54739517Y-92887409D01*
X54512471Y-93018496D01*
X54399633Y-93105079D01*
X54399633Y-93105080D01*
X55301974Y-94007421D01*
X55270742Y-94020359D01*
X55147903Y-94102437D01*
X55043437Y-94206903D01*
X54961359Y-94329742D01*
X54948421Y-94360974D01*
X54046080Y-93458633D01*
X54046079Y-93458633D01*
X53959496Y-93571471D01*
X53828409Y-93798517D01*
X53828404Y-93798528D01*
X53728075Y-94040744D01*
X53660222Y-94293979D01*
X53660220Y-94293990D01*
X53626000Y-94553905D01*
X51300500Y-94553905D01*
X51300500Y-92440258D01*
X63425500Y-92440258D01*
X63425500Y-92669741D01*
X63444010Y-92810330D01*
X63455452Y-92897238D01*
X63487942Y-93018494D01*
X63514842Y-93118887D01*
X63602650Y-93330876D01*
X63602657Y-93330890D01*
X63717392Y-93529617D01*
X63857081Y-93711661D01*
X63857089Y-93711670D01*
X64019330Y-93873911D01*
X64019338Y-93873918D01*
X64201382Y-94013607D01*
X64201385Y-94013608D01*
X64201388Y-94013611D01*
X64400112Y-94128344D01*
X64400117Y-94128346D01*
X64400123Y-94128349D01*
X64491480Y-94166190D01*
X64612113Y-94216158D01*
X64833762Y-94275548D01*
X65061266Y-94305500D01*
X65061273Y-94305500D01*
X65290727Y-94305500D01*
X65290734Y-94305500D01*
X65518238Y-94275548D01*
X65739887Y-94216158D01*
X65951888Y-94128344D01*
X66150612Y-94013611D01*
X66332661Y-93873919D01*
X66332665Y-93873914D01*
X66332670Y-93873911D01*
X66494911Y-93711670D01*
X66494914Y-93711665D01*
X66494919Y-93711661D01*
X66634611Y-93529612D01*
X66749344Y-93330888D01*
X66837158Y-93118887D01*
X66896548Y-92897238D01*
X66905217Y-92831389D01*
X80219500Y-92831389D01*
X80219500Y-93004610D01*
X80243571Y-93156593D01*
X80246598Y-93175701D01*
X80300127Y-93340445D01*
X80378768Y-93494788D01*
X80480586Y-93634928D01*
X80603072Y-93757414D01*
X80743212Y-93859232D01*
X80897555Y-93937873D01*
X81062299Y-93991402D01*
X81233389Y-94018500D01*
X81233390Y-94018500D01*
X81406610Y-94018500D01*
X81406611Y-94018500D01*
X81577701Y-93991402D01*
X81742445Y-93937873D01*
X81896788Y-93859232D01*
X82036928Y-93757414D01*
X82159414Y-93634928D01*
X82261232Y-93494788D01*
X82339873Y-93340445D01*
X82393402Y-93175701D01*
X82420500Y-93004611D01*
X82420500Y-92831389D01*
X82719500Y-92831389D01*
X82719500Y-93004610D01*
X82743571Y-93156593D01*
X82746598Y-93175701D01*
X82800127Y-93340445D01*
X82878768Y-93494788D01*
X82980586Y-93634928D01*
X83103072Y-93757414D01*
X83243212Y-93859232D01*
X83397555Y-93937873D01*
X83562299Y-93991402D01*
X83733389Y-94018500D01*
X83733390Y-94018500D01*
X83906610Y-94018500D01*
X83906611Y-94018500D01*
X84077701Y-93991402D01*
X84242445Y-93937873D01*
X84396788Y-93859232D01*
X84536928Y-93757414D01*
X84659414Y-93634928D01*
X84761232Y-93494788D01*
X84839873Y-93340445D01*
X84893402Y-93175701D01*
X84920500Y-93004611D01*
X84920500Y-92831389D01*
X85219500Y-92831389D01*
X85219500Y-93004610D01*
X85243571Y-93156593D01*
X85246598Y-93175701D01*
X85300127Y-93340445D01*
X85378768Y-93494788D01*
X85480586Y-93634928D01*
X85603072Y-93757414D01*
X85743212Y-93859232D01*
X85897555Y-93937873D01*
X86062299Y-93991402D01*
X86233389Y-94018500D01*
X86233390Y-94018500D01*
X86406610Y-94018500D01*
X86406611Y-94018500D01*
X86577701Y-93991402D01*
X86742445Y-93937873D01*
X86896788Y-93859232D01*
X87036928Y-93757414D01*
X87159414Y-93634928D01*
X87261232Y-93494788D01*
X87339873Y-93340445D01*
X87393402Y-93175701D01*
X87420500Y-93004611D01*
X87420500Y-92831389D01*
X87393402Y-92660299D01*
X87339873Y-92495555D01*
X87261232Y-92341212D01*
X87159414Y-92201072D01*
X87036928Y-92078586D01*
X86896788Y-91976768D01*
X86742445Y-91898127D01*
X86577701Y-91844598D01*
X86577699Y-91844597D01*
X86577698Y-91844597D01*
X86446271Y-91823781D01*
X86406611Y-91817500D01*
X86233389Y-91817500D01*
X86193728Y-91823781D01*
X86062302Y-91844597D01*
X85897552Y-91898128D01*
X85743211Y-91976768D01*
X85663256Y-92034859D01*
X85603072Y-92078586D01*
X85603070Y-92078588D01*
X85603069Y-92078588D01*
X85480588Y-92201069D01*
X85480588Y-92201070D01*
X85480586Y-92201072D01*
X85472095Y-92212759D01*
X85378768Y-92341211D01*
X85300128Y-92495552D01*
X85246597Y-92660302D01*
X85219500Y-92831389D01*
X84920500Y-92831389D01*
X84893402Y-92660299D01*
X84839873Y-92495555D01*
X84761232Y-92341212D01*
X84659414Y-92201072D01*
X84536928Y-92078586D01*
X84396788Y-91976768D01*
X84242445Y-91898127D01*
X84077701Y-91844598D01*
X84077699Y-91844597D01*
X84077698Y-91844597D01*
X83946271Y-91823781D01*
X83906611Y-91817500D01*
X83733389Y-91817500D01*
X83693728Y-91823781D01*
X83562302Y-91844597D01*
X83397552Y-91898128D01*
X83243211Y-91976768D01*
X83163256Y-92034859D01*
X83103072Y-92078586D01*
X83103070Y-92078588D01*
X83103069Y-92078588D01*
X82980588Y-92201069D01*
X82980588Y-92201070D01*
X82980586Y-92201072D01*
X82972095Y-92212759D01*
X82878768Y-92341211D01*
X82800128Y-92495552D01*
X82746597Y-92660302D01*
X82719500Y-92831389D01*
X82420500Y-92831389D01*
X82393402Y-92660299D01*
X82339873Y-92495555D01*
X82261232Y-92341212D01*
X82159414Y-92201072D01*
X82036928Y-92078586D01*
X81896788Y-91976768D01*
X81742445Y-91898127D01*
X81577701Y-91844598D01*
X81577699Y-91844597D01*
X81577698Y-91844597D01*
X81446271Y-91823781D01*
X81406611Y-91817500D01*
X81233389Y-91817500D01*
X81193728Y-91823781D01*
X81062302Y-91844597D01*
X80897552Y-91898128D01*
X80743211Y-91976768D01*
X80663256Y-92034859D01*
X80603072Y-92078586D01*
X80603070Y-92078588D01*
X80603069Y-92078588D01*
X80480588Y-92201069D01*
X80480588Y-92201070D01*
X80480586Y-92201072D01*
X80472095Y-92212759D01*
X80378768Y-92341211D01*
X80300128Y-92495552D01*
X80246597Y-92660302D01*
X80219500Y-92831389D01*
X66905217Y-92831389D01*
X66926500Y-92669734D01*
X66926500Y-92440266D01*
X66896548Y-92212762D01*
X66837158Y-91991113D01*
X66749344Y-91779112D01*
X66634611Y-91580388D01*
X66634608Y-91580385D01*
X66634607Y-91580382D01*
X66494918Y-91398338D01*
X66494911Y-91398330D01*
X66332670Y-91236089D01*
X66332661Y-91236081D01*
X66150617Y-91096392D01*
X65951890Y-90981657D01*
X65951876Y-90981650D01*
X65739887Y-90893842D01*
X65518238Y-90834452D01*
X65480215Y-90829446D01*
X65290741Y-90804500D01*
X65290734Y-90804500D01*
X65061266Y-90804500D01*
X65061258Y-90804500D01*
X64844715Y-90833009D01*
X64833762Y-90834452D01*
X64740076Y-90859554D01*
X64612112Y-90893842D01*
X64400123Y-90981650D01*
X64400109Y-90981657D01*
X64201382Y-91096392D01*
X64019338Y-91236081D01*
X63857081Y-91398338D01*
X63717392Y-91580382D01*
X63602657Y-91779109D01*
X63602650Y-91779123D01*
X63514842Y-91991112D01*
X63455453Y-92212759D01*
X63455451Y-92212770D01*
X63425500Y-92440258D01*
X51300500Y-92440258D01*
X51300500Y-90104108D01*
X99829500Y-90104108D01*
X99829500Y-90235891D01*
X99863608Y-90363187D01*
X99896554Y-90420250D01*
X99929500Y-90477314D01*
X100022686Y-90570500D01*
X100136814Y-90636392D01*
X100264108Y-90670500D01*
X100264110Y-90670500D01*
X100395890Y-90670500D01*
X100395892Y-90670500D01*
X100523186Y-90636392D01*
X100637314Y-90570500D01*
X100650995Y-90556819D01*
X100712318Y-90523334D01*
X100738676Y-90520500D01*
X101646142Y-90520500D01*
X101646144Y-90520500D01*
X101735288Y-90496614D01*
X101745912Y-90490480D01*
X101815212Y-90450470D01*
X102699952Y-89565730D01*
X120282849Y-89565730D01*
X120282849Y-90774269D01*
X120285702Y-90804699D01*
X120285702Y-90804701D01*
X120316895Y-90893842D01*
X120330556Y-90932882D01*
X120411199Y-91042150D01*
X120520467Y-91122793D01*
X120546925Y-91132051D01*
X120648648Y-91167646D01*
X120679079Y-91170500D01*
X120679083Y-91170500D01*
X121887619Y-91170500D01*
X121918048Y-91167646D01*
X121918050Y-91167646D01*
X121982139Y-91145219D01*
X122046231Y-91122793D01*
X122155499Y-91042150D01*
X122236142Y-90932882D01*
X122270584Y-90834452D01*
X122280995Y-90804701D01*
X122280995Y-90804699D01*
X122283849Y-90774269D01*
X122283849Y-90268543D01*
X123782848Y-90268543D01*
X123821296Y-90461829D01*
X123821299Y-90461839D01*
X123896713Y-90643907D01*
X123896720Y-90643920D01*
X124006209Y-90807781D01*
X124006212Y-90807785D01*
X124145563Y-90947136D01*
X124145567Y-90947139D01*
X124309428Y-91056628D01*
X124309441Y-91056635D01*
X124469163Y-91122793D01*
X124491514Y-91132051D01*
X124491518Y-91132051D01*
X124491519Y-91132052D01*
X124684805Y-91170500D01*
X124684808Y-91170500D01*
X124881892Y-91170500D01*
X125011931Y-91144632D01*
X125075184Y-91132051D01*
X125257263Y-91056632D01*
X125421131Y-90947139D01*
X125560488Y-90807782D01*
X125669981Y-90643914D01*
X125745400Y-90461835D01*
X125783849Y-90268541D01*
X125783849Y-90071459D01*
X125783849Y-90071456D01*
X125745401Y-89878170D01*
X125745400Y-89878169D01*
X125745400Y-89878165D01*
X125745398Y-89878160D01*
X125669984Y-89696092D01*
X125669977Y-89696079D01*
X125560488Y-89532218D01*
X125560485Y-89532214D01*
X125421134Y-89392863D01*
X125421130Y-89392860D01*
X125257269Y-89283371D01*
X125257256Y-89283364D01*
X125075188Y-89207950D01*
X125075178Y-89207947D01*
X124881892Y-89169500D01*
X124881890Y-89169500D01*
X124684808Y-89169500D01*
X124684806Y-89169500D01*
X124491519Y-89207947D01*
X124491509Y-89207950D01*
X124309441Y-89283364D01*
X124309428Y-89283371D01*
X124145567Y-89392860D01*
X124145563Y-89392863D01*
X124006212Y-89532214D01*
X124006209Y-89532218D01*
X123896720Y-89696079D01*
X123896713Y-89696092D01*
X123821299Y-89878160D01*
X123821296Y-89878170D01*
X123782849Y-90071456D01*
X123782849Y-90071459D01*
X123782849Y-90268541D01*
X123782849Y-90268543D01*
X123782848Y-90268543D01*
X122283849Y-90268543D01*
X122283849Y-89565730D01*
X122280995Y-89535300D01*
X122280995Y-89535298D01*
X122236142Y-89407119D01*
X122236141Y-89407117D01*
X122210000Y-89371697D01*
X122155499Y-89297850D01*
X122046231Y-89217207D01*
X122046229Y-89217206D01*
X121918049Y-89172353D01*
X121887619Y-89169500D01*
X121887615Y-89169500D01*
X120679083Y-89169500D01*
X120679079Y-89169500D01*
X120648649Y-89172353D01*
X120648647Y-89172353D01*
X120520468Y-89217206D01*
X120520466Y-89217207D01*
X120411199Y-89297850D01*
X120330556Y-89407117D01*
X120330555Y-89407119D01*
X120285702Y-89535298D01*
X120285702Y-89535300D01*
X120282849Y-89565730D01*
X102699952Y-89565730D01*
X103463863Y-88801819D01*
X103525186Y-88768334D01*
X103551544Y-88765500D01*
X103570890Y-88765500D01*
X103570892Y-88765500D01*
X103698186Y-88731392D01*
X103812314Y-88665500D01*
X103905500Y-88572314D01*
X103971392Y-88458186D01*
X104005500Y-88330892D01*
X104005500Y-88199108D01*
X103971392Y-88071814D01*
X103905500Y-87957686D01*
X103812314Y-87864500D01*
X103754166Y-87830928D01*
X103698187Y-87798608D01*
X103634539Y-87781554D01*
X103570892Y-87764500D01*
X103439108Y-87764500D01*
X103311812Y-87798608D01*
X103197686Y-87864500D01*
X103197683Y-87864502D01*
X103104502Y-87957683D01*
X103104500Y-87957686D01*
X103038608Y-88071812D01*
X103004500Y-88199108D01*
X103004500Y-88218456D01*
X102984815Y-88285495D01*
X102968181Y-88306137D01*
X101491137Y-89783181D01*
X101429814Y-89816666D01*
X101403456Y-89819500D01*
X100738676Y-89819500D01*
X100671637Y-89799815D01*
X100650995Y-89783181D01*
X100637316Y-89769502D01*
X100637314Y-89769500D01*
X100580250Y-89736554D01*
X100523187Y-89703608D01*
X100459539Y-89686554D01*
X100395892Y-89669500D01*
X100264108Y-89669500D01*
X100136812Y-89703608D01*
X100022686Y-89769500D01*
X100022683Y-89769502D01*
X99929502Y-89862683D01*
X99929500Y-89862686D01*
X99863608Y-89976812D01*
X99829500Y-90104108D01*
X51300500Y-90104108D01*
X51300500Y-85783186D01*
X77019500Y-85783186D01*
X77019500Y-86052813D01*
X77049686Y-86320719D01*
X77049688Y-86320731D01*
X77109684Y-86583594D01*
X77109687Y-86583602D01*
X77198734Y-86838082D01*
X77315714Y-87080994D01*
X77315716Y-87080997D01*
X77459162Y-87309289D01*
X77627266Y-87520085D01*
X77817915Y-87710734D01*
X78028711Y-87878838D01*
X78257003Y-88022284D01*
X78499921Y-88139267D01*
X78659357Y-88195056D01*
X78754397Y-88228312D01*
X78754405Y-88228315D01*
X78754408Y-88228315D01*
X78754409Y-88228316D01*
X79017268Y-88288312D01*
X79285187Y-88318499D01*
X79285188Y-88318500D01*
X79285191Y-88318500D01*
X79554812Y-88318500D01*
X79554812Y-88318499D01*
X79822732Y-88288312D01*
X80085591Y-88228316D01*
X80340079Y-88139267D01*
X80582997Y-88022284D01*
X80811289Y-87878838D01*
X81022085Y-87710734D01*
X81212734Y-87520085D01*
X81380838Y-87309289D01*
X81524284Y-87080997D01*
X81641267Y-86838079D01*
X81730316Y-86583591D01*
X81790312Y-86320732D01*
X81820500Y-86052809D01*
X81820500Y-85783191D01*
X81820499Y-85783186D01*
X85819500Y-85783186D01*
X85819500Y-86052813D01*
X85849686Y-86320719D01*
X85849688Y-86320731D01*
X85909684Y-86583594D01*
X85909687Y-86583602D01*
X85998734Y-86838082D01*
X86115714Y-87080994D01*
X86115716Y-87080997D01*
X86259162Y-87309289D01*
X86427266Y-87520085D01*
X86617915Y-87710734D01*
X86828711Y-87878838D01*
X87057003Y-88022284D01*
X87299921Y-88139267D01*
X87459357Y-88195056D01*
X87554397Y-88228312D01*
X87554405Y-88228315D01*
X87554408Y-88228315D01*
X87554409Y-88228316D01*
X87817268Y-88288312D01*
X88085187Y-88318499D01*
X88085188Y-88318500D01*
X88085191Y-88318500D01*
X88354812Y-88318500D01*
X88354812Y-88318499D01*
X88622732Y-88288312D01*
X88885591Y-88228316D01*
X89140079Y-88139267D01*
X89382997Y-88022284D01*
X89611289Y-87878838D01*
X89822085Y-87710734D01*
X90012734Y-87520085D01*
X90180838Y-87309289D01*
X90324284Y-87080997D01*
X90441267Y-86838079D01*
X90530316Y-86583591D01*
X90590312Y-86320732D01*
X90620500Y-86052809D01*
X90620500Y-85783191D01*
X90590312Y-85515268D01*
X90530316Y-85252409D01*
X90512662Y-85201958D01*
X90465622Y-85067525D01*
X90441267Y-84997921D01*
X90437760Y-84990640D01*
X90437760Y-84990637D01*
X90437759Y-84990636D01*
X90413244Y-84939730D01*
X110423388Y-84939730D01*
X110423388Y-86148269D01*
X110426241Y-86178699D01*
X110426241Y-86178701D01*
X110471094Y-86306879D01*
X110471095Y-86306882D01*
X110551738Y-86416150D01*
X110661006Y-86496793D01*
X110703733Y-86511744D01*
X110789187Y-86541646D01*
X110819618Y-86544500D01*
X110819622Y-86544500D01*
X112028158Y-86544500D01*
X112058587Y-86541646D01*
X112058589Y-86541646D01*
X112122678Y-86519219D01*
X112186770Y-86496793D01*
X112296038Y-86416150D01*
X112376681Y-86306882D01*
X112404597Y-86227101D01*
X112433956Y-86180377D01*
X113023888Y-85590445D01*
X113023888Y-85596661D01*
X113051147Y-85698394D01*
X113103808Y-85789606D01*
X113178282Y-85864080D01*
X113269494Y-85916741D01*
X113371227Y-85944000D01*
X113377441Y-85944000D01*
X112697964Y-86623474D01*
X112742538Y-86655859D01*
X112924856Y-86748755D01*
X113119470Y-86811990D01*
X113321571Y-86844000D01*
X113526205Y-86844000D01*
X113728305Y-86811990D01*
X113922919Y-86748755D01*
X114105237Y-86655859D01*
X114149809Y-86623474D01*
X113470335Y-85944000D01*
X113476549Y-85944000D01*
X113578282Y-85916741D01*
X113669494Y-85864080D01*
X113743968Y-85789606D01*
X113796629Y-85698394D01*
X113823888Y-85596661D01*
X113823888Y-85590447D01*
X114503362Y-86269921D01*
X114535747Y-86225349D01*
X114628643Y-86043029D01*
X114633725Y-86027389D01*
X132249500Y-86027389D01*
X132249500Y-87200610D01*
X132276033Y-87368139D01*
X132276598Y-87371701D01*
X132330127Y-87536445D01*
X132408768Y-87690788D01*
X132510586Y-87830928D01*
X132633072Y-87953414D01*
X132773212Y-88055232D01*
X132927555Y-88133873D01*
X133092299Y-88187402D01*
X133263389Y-88214500D01*
X133263390Y-88214500D01*
X133436610Y-88214500D01*
X133436611Y-88214500D01*
X133607701Y-88187402D01*
X133772445Y-88133873D01*
X133926788Y-88055232D01*
X133965110Y-88027389D01*
X135949500Y-88027389D01*
X135949500Y-89200611D01*
X135976598Y-89371701D01*
X136030127Y-89536445D01*
X136108768Y-89690788D01*
X136210586Y-89830928D01*
X136333072Y-89953414D01*
X136473212Y-90055232D01*
X136627555Y-90133873D01*
X136792299Y-90187402D01*
X136963389Y-90214500D01*
X136963390Y-90214500D01*
X137136610Y-90214500D01*
X137136611Y-90214500D01*
X137307701Y-90187402D01*
X137472445Y-90133873D01*
X137626788Y-90055232D01*
X137766928Y-89953414D01*
X137889414Y-89830928D01*
X137991232Y-89690788D01*
X138069873Y-89536445D01*
X138123402Y-89371701D01*
X138150500Y-89200611D01*
X138150500Y-88195056D01*
X138170185Y-88128017D01*
X138222989Y-88082262D01*
X138292147Y-88072318D01*
X138330791Y-88084569D01*
X138427555Y-88133873D01*
X138592299Y-88187402D01*
X138763389Y-88214500D01*
X138763390Y-88214500D01*
X138936610Y-88214500D01*
X138936611Y-88214500D01*
X139107701Y-88187402D01*
X139272445Y-88133873D01*
X139426788Y-88055232D01*
X139566928Y-87953414D01*
X139689414Y-87830928D01*
X139791232Y-87690788D01*
X139869873Y-87536445D01*
X139923402Y-87371701D01*
X139950500Y-87200611D01*
X139950500Y-86027389D01*
X139938560Y-85952003D01*
X139923403Y-85856303D01*
X139923402Y-85856302D01*
X139923402Y-85856299D01*
X139869873Y-85691555D01*
X139791232Y-85537212D01*
X139689414Y-85397072D01*
X139566928Y-85274586D01*
X139426788Y-85172768D01*
X139272445Y-85094127D01*
X139107701Y-85040598D01*
X139107699Y-85040597D01*
X139107698Y-85040597D01*
X138976271Y-85019781D01*
X138936611Y-85013500D01*
X138763389Y-85013500D01*
X138723728Y-85019781D01*
X138592302Y-85040597D01*
X138427552Y-85094128D01*
X138273211Y-85172768D01*
X138193256Y-85230859D01*
X138133072Y-85274586D01*
X138133070Y-85274588D01*
X138133069Y-85274588D01*
X138010588Y-85397069D01*
X138010588Y-85397070D01*
X138010586Y-85397072D01*
X137978175Y-85441682D01*
X137908768Y-85537211D01*
X137830128Y-85691552D01*
X137776597Y-85856302D01*
X137749500Y-86027389D01*
X137749500Y-87032943D01*
X137729815Y-87099982D01*
X137677011Y-87145737D01*
X137607853Y-87155681D01*
X137569206Y-87143428D01*
X137472450Y-87094129D01*
X137472447Y-87094128D01*
X137472445Y-87094127D01*
X137307701Y-87040598D01*
X137307699Y-87040597D01*
X137307698Y-87040597D01*
X137176271Y-87019781D01*
X137136611Y-87013500D01*
X136963389Y-87013500D01*
X136923728Y-87019781D01*
X136792302Y-87040597D01*
X136627552Y-87094128D01*
X136473211Y-87172768D01*
X136402451Y-87224179D01*
X136333072Y-87274586D01*
X136333070Y-87274588D01*
X136333069Y-87274588D01*
X136210588Y-87397069D01*
X136210588Y-87397070D01*
X136210586Y-87397072D01*
X136193196Y-87421007D01*
X136108768Y-87537211D01*
X136030128Y-87691552D01*
X135976597Y-87856302D01*
X135973028Y-87878838D01*
X135949500Y-88027389D01*
X133965110Y-88027389D01*
X134066928Y-87953414D01*
X134189414Y-87830928D01*
X134291232Y-87690788D01*
X134369873Y-87536445D01*
X134423402Y-87371701D01*
X134450500Y-87200611D01*
X134450500Y-86027389D01*
X134423402Y-85856299D01*
X134369873Y-85691555D01*
X134291232Y-85537212D01*
X134189414Y-85397072D01*
X134066928Y-85274586D01*
X133926788Y-85172768D01*
X133772445Y-85094127D01*
X133607701Y-85040598D01*
X133607699Y-85040597D01*
X133607698Y-85040597D01*
X133476271Y-85019781D01*
X133436611Y-85013500D01*
X133263389Y-85013500D01*
X133223728Y-85019781D01*
X133092302Y-85040597D01*
X132927552Y-85094128D01*
X132773211Y-85172768D01*
X132693256Y-85230859D01*
X132633072Y-85274586D01*
X132633070Y-85274588D01*
X132633069Y-85274588D01*
X132510588Y-85397069D01*
X132510588Y-85397070D01*
X132510586Y-85397072D01*
X132478175Y-85441682D01*
X132408768Y-85537211D01*
X132330128Y-85691552D01*
X132276597Y-85856302D01*
X132249500Y-86027389D01*
X114633725Y-86027389D01*
X114647759Y-85984199D01*
X114647759Y-85984198D01*
X114691878Y-85848417D01*
X114723888Y-85646317D01*
X114723888Y-85441682D01*
X114691878Y-85239582D01*
X114628643Y-85044968D01*
X114535747Y-84862650D01*
X114503362Y-84818077D01*
X114503362Y-84818076D01*
X113823888Y-85497551D01*
X113823888Y-85491339D01*
X113796629Y-85389606D01*
X113743968Y-85298394D01*
X113669494Y-85223920D01*
X113578282Y-85171259D01*
X113476549Y-85144000D01*
X113470334Y-85144000D01*
X114149810Y-84464524D01*
X114149809Y-84464523D01*
X114105247Y-84432147D01*
X114105238Y-84432141D01*
X113922919Y-84339244D01*
X113728305Y-84276009D01*
X113526205Y-84244000D01*
X113321571Y-84244000D01*
X113119470Y-84276009D01*
X112924856Y-84339244D01*
X112742532Y-84432143D01*
X112697965Y-84464523D01*
X112697965Y-84464524D01*
X113377442Y-85144000D01*
X113371227Y-85144000D01*
X113269494Y-85171259D01*
X113178282Y-85223920D01*
X113103808Y-85298394D01*
X113051147Y-85389606D01*
X113023888Y-85491339D01*
X113023888Y-85497553D01*
X112433956Y-84907621D01*
X112404596Y-84860896D01*
X112376681Y-84781118D01*
X112296038Y-84671850D01*
X112186770Y-84591207D01*
X112186768Y-84591206D01*
X112058588Y-84546353D01*
X112028158Y-84543500D01*
X112028154Y-84543500D01*
X110819622Y-84543500D01*
X110819618Y-84543500D01*
X110789188Y-84546353D01*
X110789186Y-84546353D01*
X110661007Y-84591206D01*
X110661005Y-84591207D01*
X110551738Y-84671850D01*
X110471095Y-84781117D01*
X110471094Y-84781119D01*
X110426241Y-84909298D01*
X110426241Y-84909300D01*
X110423388Y-84939730D01*
X90413244Y-84939730D01*
X90324287Y-84755008D01*
X90276891Y-84679578D01*
X90180838Y-84526711D01*
X90012734Y-84315915D01*
X89822085Y-84125266D01*
X89611289Y-83957162D01*
X89382997Y-83813716D01*
X89382994Y-83813714D01*
X89140082Y-83696734D01*
X88885602Y-83607687D01*
X88885594Y-83607684D01*
X88688446Y-83562687D01*
X88622732Y-83547688D01*
X88622728Y-83547687D01*
X88622719Y-83547686D01*
X88354813Y-83517500D01*
X88354809Y-83517500D01*
X88085191Y-83517500D01*
X88085186Y-83517500D01*
X87817280Y-83547686D01*
X87817268Y-83547688D01*
X87554405Y-83607684D01*
X87554397Y-83607687D01*
X87299917Y-83696734D01*
X87057005Y-83813714D01*
X86828712Y-83957161D01*
X86617915Y-84125265D01*
X86427265Y-84315915D01*
X86259161Y-84526712D01*
X86115714Y-84755005D01*
X85998734Y-84997917D01*
X85909687Y-85252397D01*
X85909684Y-85252405D01*
X85849688Y-85515268D01*
X85849686Y-85515280D01*
X85819500Y-85783186D01*
X81820499Y-85783186D01*
X81790312Y-85515268D01*
X81730316Y-85252409D01*
X81712662Y-85201958D01*
X81665622Y-85067525D01*
X81641267Y-84997921D01*
X81524284Y-84755003D01*
X81380838Y-84526711D01*
X81212734Y-84315915D01*
X81022085Y-84125266D01*
X80811289Y-83957162D01*
X80582997Y-83813716D01*
X80582994Y-83813714D01*
X80340082Y-83696734D01*
X80085602Y-83607687D01*
X80085594Y-83607684D01*
X79888446Y-83562687D01*
X79822732Y-83547688D01*
X79822728Y-83547687D01*
X79822719Y-83547686D01*
X79554813Y-83517500D01*
X79554809Y-83517500D01*
X79285191Y-83517500D01*
X79285186Y-83517500D01*
X79017280Y-83547686D01*
X79017268Y-83547688D01*
X78754405Y-83607684D01*
X78754397Y-83607687D01*
X78499917Y-83696734D01*
X78257005Y-83813714D01*
X78028712Y-83957161D01*
X77817915Y-84125265D01*
X77627265Y-84315915D01*
X77459161Y-84526712D01*
X77315714Y-84755005D01*
X77198734Y-84997917D01*
X77109687Y-85252397D01*
X77109684Y-85252405D01*
X77049688Y-85515268D01*
X77049686Y-85515280D01*
X77019500Y-85783186D01*
X51300500Y-85783186D01*
X51300500Y-83143549D01*
X53925500Y-83143549D01*
X53925500Y-83366450D01*
X53925501Y-83366466D01*
X53954594Y-83587452D01*
X53954595Y-83587457D01*
X53954596Y-83587463D01*
X53994135Y-83735025D01*
X54012290Y-83802780D01*
X54012293Y-83802790D01*
X54097593Y-84008722D01*
X54097595Y-84008726D01*
X54209052Y-84201774D01*
X54209057Y-84201780D01*
X54209058Y-84201782D01*
X54344751Y-84378622D01*
X54344757Y-84378629D01*
X54502370Y-84536242D01*
X54502376Y-84536247D01*
X54679226Y-84671948D01*
X54872274Y-84783405D01*
X55078219Y-84868710D01*
X55293537Y-84926404D01*
X55514543Y-84955500D01*
X55514550Y-84955500D01*
X55737450Y-84955500D01*
X55737457Y-84955500D01*
X55958463Y-84926404D01*
X56173781Y-84868710D01*
X56379726Y-84783405D01*
X56379733Y-84783401D01*
X56559559Y-84679578D01*
X56562272Y-84678011D01*
X56572774Y-84671948D01*
X56749624Y-84536247D01*
X56907247Y-84378624D01*
X57042948Y-84201774D01*
X57154405Y-84008726D01*
X57239710Y-83802781D01*
X57297404Y-83587463D01*
X57326500Y-83366457D01*
X57326500Y-83156577D01*
X57575500Y-83156577D01*
X57575500Y-83353422D01*
X57606290Y-83547826D01*
X57667117Y-83735029D01*
X57719361Y-83837563D01*
X57756476Y-83910405D01*
X57872172Y-84069646D01*
X58011354Y-84208828D01*
X58170595Y-84324524D01*
X58199485Y-84339244D01*
X58345970Y-84413882D01*
X58345972Y-84413882D01*
X58345975Y-84413884D01*
X58446317Y-84446487D01*
X58533173Y-84474709D01*
X58727578Y-84505500D01*
X58727583Y-84505500D01*
X58924422Y-84505500D01*
X59118826Y-84474709D01*
X59150175Y-84464523D01*
X59306025Y-84413884D01*
X59481405Y-84324524D01*
X59640646Y-84208828D01*
X59779828Y-84069646D01*
X59895524Y-83910405D01*
X59984884Y-83735025D01*
X60045709Y-83547826D01*
X60071327Y-83386080D01*
X60076500Y-83353422D01*
X60076500Y-83156576D01*
X60073756Y-83139251D01*
X60071325Y-83123905D01*
X66326000Y-83123905D01*
X66326000Y-83386094D01*
X66360220Y-83646009D01*
X66360222Y-83646020D01*
X66428075Y-83899255D01*
X66528404Y-84141471D01*
X66528409Y-84141482D01*
X66659488Y-84368516D01*
X66659494Y-84368524D01*
X66746080Y-84481365D01*
X67648421Y-83579024D01*
X67661359Y-83610258D01*
X67743437Y-83733097D01*
X67847903Y-83837563D01*
X67970742Y-83919641D01*
X68001974Y-83932577D01*
X67099633Y-84834917D01*
X67099633Y-84834918D01*
X67212475Y-84921505D01*
X67212483Y-84921511D01*
X67439517Y-85052590D01*
X67439528Y-85052595D01*
X67681744Y-85152924D01*
X67934979Y-85220777D01*
X67934990Y-85220779D01*
X68194905Y-85254999D01*
X68194920Y-85255000D01*
X68457080Y-85255000D01*
X68457094Y-85254999D01*
X68717009Y-85220779D01*
X68717020Y-85220777D01*
X68970255Y-85152924D01*
X69212471Y-85052595D01*
X69212482Y-85052590D01*
X69439516Y-84921511D01*
X69439534Y-84921499D01*
X69552365Y-84834919D01*
X69552365Y-84834917D01*
X68650025Y-83932578D01*
X68681258Y-83919641D01*
X68804097Y-83837563D01*
X68908563Y-83733097D01*
X68990641Y-83610258D01*
X69003577Y-83579025D01*
X69905917Y-84481365D01*
X69905919Y-84481365D01*
X69992499Y-84368534D01*
X69992511Y-84368516D01*
X70123590Y-84141482D01*
X70123595Y-84141471D01*
X70223924Y-83899255D01*
X70291777Y-83646020D01*
X70291779Y-83646009D01*
X70325999Y-83386094D01*
X70326000Y-83386080D01*
X70326000Y-83123919D01*
X70325999Y-83123905D01*
X70291779Y-82863990D01*
X70291777Y-82863979D01*
X70223924Y-82610744D01*
X70123595Y-82368528D01*
X70123590Y-82368517D01*
X69992511Y-82141483D01*
X69992505Y-82141475D01*
X69905918Y-82028633D01*
X69905917Y-82028633D01*
X69003577Y-82930973D01*
X68990641Y-82899742D01*
X68908563Y-82776903D01*
X68804097Y-82672437D01*
X68681258Y-82590359D01*
X68650023Y-82577421D01*
X69552365Y-81675080D01*
X69439524Y-81588494D01*
X69439516Y-81588488D01*
X69212482Y-81457409D01*
X69212471Y-81457404D01*
X68970255Y-81357075D01*
X68717020Y-81289222D01*
X68717009Y-81289220D01*
X68457094Y-81255000D01*
X68194905Y-81255000D01*
X67934990Y-81289220D01*
X67934979Y-81289222D01*
X67681744Y-81357075D01*
X67439528Y-81457404D01*
X67439517Y-81457409D01*
X67212471Y-81588496D01*
X67099633Y-81675079D01*
X67099633Y-81675080D01*
X68001974Y-82577421D01*
X67970742Y-82590359D01*
X67847903Y-82672437D01*
X67743437Y-82776903D01*
X67661359Y-82899742D01*
X67648421Y-82930974D01*
X66746080Y-82028633D01*
X66746079Y-82028633D01*
X66659496Y-82141471D01*
X66528409Y-82368517D01*
X66528404Y-82368528D01*
X66428075Y-82610744D01*
X66360222Y-82863979D01*
X66360220Y-82863990D01*
X66326000Y-83123905D01*
X60071325Y-83123905D01*
X60045709Y-82962173D01*
X59984882Y-82774970D01*
X59932639Y-82672437D01*
X59895524Y-82599595D01*
X59779828Y-82440354D01*
X59640646Y-82301172D01*
X59481405Y-82185476D01*
X59306029Y-82096117D01*
X59118826Y-82035290D01*
X58924422Y-82004500D01*
X58924417Y-82004500D01*
X58727583Y-82004500D01*
X58727578Y-82004500D01*
X58533173Y-82035290D01*
X58345970Y-82096117D01*
X58170594Y-82185476D01*
X58079741Y-82251485D01*
X58011354Y-82301172D01*
X58011352Y-82301174D01*
X58011351Y-82301174D01*
X57872174Y-82440351D01*
X57872174Y-82440352D01*
X57872172Y-82440354D01*
X57827912Y-82501273D01*
X57756476Y-82599594D01*
X57667117Y-82774970D01*
X57606290Y-82962173D01*
X57575500Y-83156577D01*
X57326500Y-83156577D01*
X57326500Y-83143543D01*
X57297404Y-82922537D01*
X57239710Y-82707219D01*
X57154405Y-82501274D01*
X57042948Y-82308226D01*
X56948759Y-82185476D01*
X56907248Y-82131377D01*
X56907242Y-82131370D01*
X56749629Y-81973757D01*
X56749622Y-81973751D01*
X56572782Y-81838058D01*
X56572780Y-81838056D01*
X56572774Y-81838052D01*
X56572769Y-81838049D01*
X56572766Y-81838047D01*
X56559555Y-81830420D01*
X56379726Y-81726595D01*
X56379722Y-81726593D01*
X56173790Y-81641293D01*
X56173783Y-81641291D01*
X56173781Y-81641290D01*
X55958463Y-81583596D01*
X55958457Y-81583595D01*
X55958452Y-81583594D01*
X55737466Y-81554501D01*
X55737463Y-81554500D01*
X55737457Y-81554500D01*
X55514543Y-81554500D01*
X55514537Y-81554500D01*
X55514533Y-81554501D01*
X55293547Y-81583594D01*
X55293540Y-81583595D01*
X55293537Y-81583596D01*
X55118492Y-81630499D01*
X55078219Y-81641290D01*
X55078209Y-81641293D01*
X54872277Y-81726593D01*
X54872273Y-81726595D01*
X54679226Y-81838052D01*
X54679217Y-81838058D01*
X54502377Y-81973751D01*
X54502370Y-81973757D01*
X54344757Y-82131370D01*
X54344751Y-82131377D01*
X54209058Y-82308217D01*
X54209052Y-82308226D01*
X54097595Y-82501273D01*
X54097593Y-82501277D01*
X54012293Y-82707209D01*
X54012290Y-82707219D01*
X53970287Y-82863979D01*
X53954597Y-82922534D01*
X53954594Y-82922547D01*
X53925501Y-83143533D01*
X53925500Y-83143549D01*
X51300500Y-83143549D01*
X51300500Y-79944108D01*
X108719500Y-79944108D01*
X108719500Y-80075891D01*
X108753608Y-80203187D01*
X108786554Y-80260250D01*
X108819500Y-80317314D01*
X108912686Y-80410500D01*
X109026814Y-80476392D01*
X109154108Y-80510500D01*
X109173456Y-80510500D01*
X109240495Y-80530185D01*
X109261137Y-80546819D01*
X110274788Y-81560470D01*
X110344085Y-81600478D01*
X110344087Y-81600480D01*
X110351342Y-81604668D01*
X110354712Y-81606614D01*
X110443856Y-81630500D01*
X111351324Y-81630500D01*
X111418363Y-81650185D01*
X111439005Y-81666819D01*
X111452686Y-81680500D01*
X111566814Y-81746392D01*
X111694108Y-81780500D01*
X111694110Y-81780500D01*
X111825890Y-81780500D01*
X111825892Y-81780500D01*
X111953186Y-81746392D01*
X112067314Y-81680500D01*
X112160500Y-81587314D01*
X112226392Y-81473186D01*
X112260500Y-81345892D01*
X112260500Y-81214108D01*
X112226392Y-81086814D01*
X112160500Y-80972686D01*
X112067314Y-80879500D01*
X112010250Y-80846554D01*
X111953187Y-80813608D01*
X111889539Y-80796554D01*
X111825892Y-80779500D01*
X111694108Y-80779500D01*
X111566812Y-80813608D01*
X111452686Y-80879500D01*
X111452683Y-80879502D01*
X111439005Y-80893181D01*
X111377682Y-80926666D01*
X111351324Y-80929500D01*
X110686544Y-80929500D01*
X110619505Y-80909815D01*
X110598863Y-80893181D01*
X109756819Y-80051137D01*
X109723334Y-79989814D01*
X109720500Y-79963456D01*
X109720500Y-79944110D01*
X109720500Y-79944108D01*
X109686392Y-79816814D01*
X109620500Y-79702686D01*
X109527314Y-79609500D01*
X109470250Y-79576554D01*
X109413187Y-79543608D01*
X109349539Y-79526554D01*
X109285892Y-79509500D01*
X109154108Y-79509500D01*
X109026812Y-79543608D01*
X108912686Y-79609500D01*
X108912683Y-79609502D01*
X108819502Y-79702683D01*
X108819500Y-79702686D01*
X108753608Y-79816812D01*
X108719500Y-79944108D01*
X51300500Y-79944108D01*
X51300500Y-74667155D01*
X77644000Y-74667155D01*
X77644000Y-75315000D01*
X78560988Y-75315000D01*
X78528075Y-75372007D01*
X78494000Y-75499174D01*
X78494000Y-75630826D01*
X78528075Y-75757993D01*
X78560988Y-75815000D01*
X77644000Y-75815000D01*
X77644000Y-76462844D01*
X77650401Y-76522372D01*
X77650403Y-76522379D01*
X77700645Y-76657086D01*
X77700649Y-76657093D01*
X77786809Y-76772187D01*
X77786812Y-76772190D01*
X77901906Y-76858350D01*
X77901913Y-76858354D01*
X78036620Y-76908596D01*
X78036627Y-76908598D01*
X78096155Y-76914999D01*
X78096172Y-76915000D01*
X78744000Y-76915000D01*
X78744000Y-75998012D01*
X78801007Y-76030925D01*
X78928174Y-76065000D01*
X79059826Y-76065000D01*
X79186993Y-76030925D01*
X79244000Y-75998012D01*
X79244000Y-76915000D01*
X79891828Y-76915000D01*
X79891844Y-76914999D01*
X79951372Y-76908598D01*
X79951379Y-76908596D01*
X80086086Y-76858354D01*
X80086093Y-76858350D01*
X80201187Y-76772190D01*
X80201190Y-76772187D01*
X80287350Y-76657093D01*
X80287354Y-76657086D01*
X80337596Y-76522379D01*
X80337598Y-76522372D01*
X80343999Y-76462844D01*
X80344000Y-76462827D01*
X80344000Y-76060564D01*
X80363685Y-75993525D01*
X80416489Y-75947770D01*
X80485647Y-75937826D01*
X80549203Y-75966851D01*
X80582561Y-76013112D01*
X80600929Y-76057457D01*
X80603059Y-76062598D01*
X80623039Y-76092500D01*
X80718024Y-76234657D01*
X80864342Y-76380975D01*
X80864345Y-76380977D01*
X81036402Y-76495941D01*
X81227580Y-76575130D01*
X81430530Y-76615499D01*
X81430534Y-76615500D01*
X81430535Y-76615500D01*
X81637466Y-76615500D01*
X81637467Y-76615499D01*
X81840420Y-76575130D01*
X82031598Y-76495941D01*
X82203655Y-76380977D01*
X82349977Y-76234655D01*
X82464941Y-76062598D01*
X82544130Y-75871420D01*
X82584500Y-75668465D01*
X82584500Y-75461535D01*
X82584499Y-75461530D01*
X83023500Y-75461530D01*
X83023500Y-75668469D01*
X83063868Y-75871412D01*
X83063870Y-75871420D01*
X83140929Y-76057457D01*
X83143059Y-76062598D01*
X83163037Y-76092497D01*
X83258024Y-76234657D01*
X83404342Y-76380975D01*
X83404345Y-76380977D01*
X83576402Y-76495941D01*
X83767580Y-76575130D01*
X83970530Y-76615499D01*
X83970534Y-76615500D01*
X83970535Y-76615500D01*
X84177466Y-76615500D01*
X84177467Y-76615499D01*
X84380420Y-76575130D01*
X84571598Y-76495941D01*
X84743655Y-76380977D01*
X84889977Y-76234655D01*
X85004941Y-76062598D01*
X85084130Y-75871420D01*
X85124500Y-75668465D01*
X85124500Y-75461535D01*
X85124499Y-75461530D01*
X85563500Y-75461530D01*
X85563500Y-75668469D01*
X85603868Y-75871412D01*
X85603870Y-75871420D01*
X85680929Y-76057457D01*
X85683059Y-76062598D01*
X85703037Y-76092497D01*
X85798024Y-76234657D01*
X85944342Y-76380975D01*
X85944345Y-76380977D01*
X86116402Y-76495941D01*
X86307580Y-76575130D01*
X86510530Y-76615499D01*
X86510534Y-76615500D01*
X86510535Y-76615500D01*
X86717466Y-76615500D01*
X86717467Y-76615499D01*
X86920420Y-76575130D01*
X87111598Y-76495941D01*
X87283655Y-76380977D01*
X87429977Y-76234655D01*
X87544941Y-76062598D01*
X87624130Y-75871420D01*
X87664500Y-75668465D01*
X87664500Y-75626108D01*
X89161500Y-75626108D01*
X89161500Y-75757891D01*
X89195608Y-75885187D01*
X89226000Y-75937826D01*
X89261500Y-75999314D01*
X89354686Y-76092500D01*
X89468814Y-76158392D01*
X89596108Y-76192500D01*
X89596110Y-76192500D01*
X89727890Y-76192500D01*
X89727892Y-76192500D01*
X89855186Y-76158392D01*
X89969314Y-76092500D01*
X89982995Y-76078819D01*
X90044318Y-76045334D01*
X90070676Y-76042500D01*
X91539324Y-76042500D01*
X91606363Y-76062185D01*
X91627005Y-76078819D01*
X91640686Y-76092500D01*
X91754814Y-76158392D01*
X91882108Y-76192500D01*
X91882110Y-76192500D01*
X92013890Y-76192500D01*
X92013892Y-76192500D01*
X92141186Y-76158392D01*
X92255314Y-76092500D01*
X92348500Y-75999314D01*
X92414392Y-75885186D01*
X92427960Y-75834549D01*
X127585500Y-75834549D01*
X127585500Y-76057450D01*
X127585501Y-76057466D01*
X127614594Y-76278452D01*
X127614595Y-76278457D01*
X127614596Y-76278463D01*
X127672290Y-76493780D01*
X127672293Y-76493790D01*
X127757593Y-76699722D01*
X127757595Y-76699726D01*
X127869052Y-76892774D01*
X127869057Y-76892780D01*
X127869058Y-76892782D01*
X128004751Y-77069622D01*
X128004757Y-77069629D01*
X128162370Y-77227242D01*
X128162376Y-77227247D01*
X128339226Y-77362948D01*
X128532274Y-77474405D01*
X128738219Y-77559710D01*
X128953537Y-77617404D01*
X129174543Y-77646500D01*
X129174550Y-77646500D01*
X129397450Y-77646500D01*
X129397457Y-77646500D01*
X129618463Y-77617404D01*
X129833781Y-77559710D01*
X130039726Y-77474405D01*
X130232774Y-77362948D01*
X130409624Y-77227247D01*
X130567247Y-77069624D01*
X130702948Y-76892774D01*
X130814405Y-76699726D01*
X130899710Y-76493781D01*
X130957404Y-76278463D01*
X130986500Y-76057457D01*
X130986500Y-75847577D01*
X137535500Y-75847577D01*
X137535500Y-76044422D01*
X137566290Y-76238826D01*
X137627117Y-76426029D01*
X137703088Y-76575129D01*
X137716476Y-76601405D01*
X137832172Y-76760646D01*
X137971354Y-76899828D01*
X138130595Y-77015524D01*
X138213455Y-77057743D01*
X138305970Y-77104882D01*
X138305972Y-77104882D01*
X138305975Y-77104884D01*
X138406317Y-77137487D01*
X138493173Y-77165709D01*
X138687578Y-77196500D01*
X138687583Y-77196500D01*
X138884422Y-77196500D01*
X139078826Y-77165709D01*
X139266025Y-77104884D01*
X139441405Y-77015524D01*
X139600646Y-76899828D01*
X139739828Y-76760646D01*
X139855524Y-76601405D01*
X139944884Y-76426025D01*
X140005709Y-76238826D01*
X140013046Y-76192500D01*
X140036500Y-76044422D01*
X140036500Y-75847577D01*
X140034437Y-75834549D01*
X140285500Y-75834549D01*
X140285500Y-76057450D01*
X140285501Y-76057466D01*
X140314594Y-76278452D01*
X140314595Y-76278457D01*
X140314596Y-76278463D01*
X140372290Y-76493780D01*
X140372293Y-76493790D01*
X140457593Y-76699722D01*
X140457595Y-76699726D01*
X140569052Y-76892774D01*
X140569057Y-76892780D01*
X140569058Y-76892782D01*
X140704751Y-77069622D01*
X140704757Y-77069629D01*
X140862370Y-77227242D01*
X140862376Y-77227247D01*
X141039226Y-77362948D01*
X141232274Y-77474405D01*
X141438219Y-77559710D01*
X141653537Y-77617404D01*
X141874543Y-77646500D01*
X141874550Y-77646500D01*
X142097450Y-77646500D01*
X142097457Y-77646500D01*
X142318463Y-77617404D01*
X142533781Y-77559710D01*
X142739726Y-77474405D01*
X142932774Y-77362948D01*
X143109624Y-77227247D01*
X143267247Y-77069624D01*
X143402948Y-76892774D01*
X143514405Y-76699726D01*
X143599710Y-76493781D01*
X143657404Y-76278463D01*
X143686500Y-76057457D01*
X143686500Y-75834543D01*
X143657404Y-75613537D01*
X143599710Y-75398219D01*
X143594104Y-75384686D01*
X143514406Y-75192277D01*
X143514405Y-75192274D01*
X143402948Y-74999226D01*
X143323238Y-74895345D01*
X143267248Y-74822377D01*
X143267242Y-74822370D01*
X143109629Y-74664757D01*
X143109622Y-74664751D01*
X142932782Y-74529058D01*
X142932780Y-74529057D01*
X142932774Y-74529052D01*
X142739726Y-74417595D01*
X142739722Y-74417593D01*
X142533790Y-74332293D01*
X142533783Y-74332291D01*
X142533781Y-74332290D01*
X142318463Y-74274596D01*
X142318457Y-74274595D01*
X142318452Y-74274594D01*
X142097466Y-74245501D01*
X142097463Y-74245500D01*
X142097457Y-74245500D01*
X141874543Y-74245500D01*
X141874537Y-74245500D01*
X141874533Y-74245501D01*
X141653547Y-74274594D01*
X141653540Y-74274595D01*
X141653537Y-74274596D01*
X141438219Y-74332290D01*
X141438209Y-74332293D01*
X141232277Y-74417593D01*
X141232273Y-74417595D01*
X141039226Y-74529052D01*
X141039217Y-74529058D01*
X140862377Y-74664751D01*
X140862370Y-74664757D01*
X140704757Y-74822370D01*
X140704751Y-74822377D01*
X140569058Y-74999217D01*
X140569052Y-74999226D01*
X140457595Y-75192273D01*
X140457593Y-75192277D01*
X140372293Y-75398209D01*
X140372290Y-75398219D01*
X140314597Y-75613534D01*
X140314594Y-75613547D01*
X140285501Y-75834533D01*
X140285500Y-75834549D01*
X140034437Y-75834549D01*
X140005709Y-75653173D01*
X139944882Y-75465970D01*
X139867959Y-75315000D01*
X139855524Y-75290595D01*
X139739828Y-75131354D01*
X139600646Y-74992172D01*
X139441405Y-74876476D01*
X139266029Y-74787117D01*
X139078826Y-74726290D01*
X138884422Y-74695500D01*
X138884417Y-74695500D01*
X138687583Y-74695500D01*
X138687578Y-74695500D01*
X138493173Y-74726290D01*
X138305970Y-74787117D01*
X138130594Y-74876476D01*
X138039741Y-74942485D01*
X137971354Y-74992172D01*
X137971352Y-74992174D01*
X137971351Y-74992174D01*
X137832174Y-75131351D01*
X137832174Y-75131352D01*
X137832172Y-75131354D01*
X137807799Y-75164901D01*
X137716476Y-75290594D01*
X137627117Y-75465970D01*
X137566290Y-75653173D01*
X137535500Y-75847577D01*
X130986500Y-75847577D01*
X130986500Y-75834543D01*
X130957404Y-75613537D01*
X130899710Y-75398219D01*
X130894104Y-75384686D01*
X130814406Y-75192277D01*
X130814405Y-75192274D01*
X130702948Y-74999226D01*
X130623238Y-74895345D01*
X130567248Y-74822377D01*
X130567242Y-74822370D01*
X130409629Y-74664757D01*
X130409622Y-74664751D01*
X130232782Y-74529058D01*
X130232780Y-74529057D01*
X130232774Y-74529052D01*
X130039726Y-74417595D01*
X130039722Y-74417593D01*
X129833790Y-74332293D01*
X129833783Y-74332291D01*
X129833781Y-74332290D01*
X129618463Y-74274596D01*
X129618457Y-74274595D01*
X129618452Y-74274594D01*
X129397466Y-74245501D01*
X129397463Y-74245500D01*
X129397457Y-74245500D01*
X129174543Y-74245500D01*
X129174537Y-74245500D01*
X129174533Y-74245501D01*
X128953547Y-74274594D01*
X128953540Y-74274595D01*
X128953537Y-74274596D01*
X128738219Y-74332290D01*
X128738209Y-74332293D01*
X128532277Y-74417593D01*
X128532273Y-74417595D01*
X128339226Y-74529052D01*
X128339217Y-74529058D01*
X128162377Y-74664751D01*
X128162370Y-74664757D01*
X128004757Y-74822370D01*
X128004751Y-74822377D01*
X127869058Y-74999217D01*
X127869052Y-74999226D01*
X127757595Y-75192273D01*
X127757593Y-75192277D01*
X127672293Y-75398209D01*
X127672290Y-75398219D01*
X127614597Y-75613534D01*
X127614594Y-75613547D01*
X127585501Y-75834533D01*
X127585500Y-75834549D01*
X92427960Y-75834549D01*
X92448500Y-75757892D01*
X92448500Y-75626108D01*
X92414392Y-75498814D01*
X92348500Y-75384686D01*
X92255314Y-75291500D01*
X92197278Y-75257993D01*
X92141187Y-75225608D01*
X92077539Y-75208554D01*
X92013892Y-75191500D01*
X91882108Y-75191500D01*
X91754812Y-75225608D01*
X91640686Y-75291500D01*
X91640683Y-75291502D01*
X91627005Y-75305181D01*
X91565682Y-75338666D01*
X91539324Y-75341500D01*
X90070676Y-75341500D01*
X90003637Y-75321815D01*
X89982995Y-75305181D01*
X89969316Y-75291502D01*
X89969314Y-75291500D01*
X89911278Y-75257993D01*
X89855187Y-75225608D01*
X89791539Y-75208554D01*
X89727892Y-75191500D01*
X89596108Y-75191500D01*
X89468812Y-75225608D01*
X89354686Y-75291500D01*
X89354683Y-75291502D01*
X89261502Y-75384683D01*
X89261500Y-75384686D01*
X89195608Y-75498812D01*
X89161500Y-75626108D01*
X87664500Y-75626108D01*
X87664500Y-75461535D01*
X87624130Y-75258580D01*
X87544941Y-75067402D01*
X87429977Y-74895345D01*
X87429975Y-74895342D01*
X87283657Y-74749024D01*
X87157532Y-74664751D01*
X87111598Y-74634059D01*
X86920420Y-74554870D01*
X86920412Y-74554868D01*
X86717469Y-74514500D01*
X86717465Y-74514500D01*
X86510535Y-74514500D01*
X86510530Y-74514500D01*
X86307587Y-74554868D01*
X86307579Y-74554870D01*
X86116403Y-74634058D01*
X85944342Y-74749024D01*
X85798024Y-74895342D01*
X85683058Y-75067403D01*
X85603870Y-75258579D01*
X85603868Y-75258587D01*
X85563500Y-75461530D01*
X85124499Y-75461530D01*
X85084130Y-75258580D01*
X85004941Y-75067402D01*
X84889977Y-74895345D01*
X84889975Y-74895342D01*
X84743657Y-74749024D01*
X84617532Y-74664751D01*
X84571598Y-74634059D01*
X84380420Y-74554870D01*
X84380412Y-74554868D01*
X84177469Y-74514500D01*
X84177465Y-74514500D01*
X83970535Y-74514500D01*
X83970530Y-74514500D01*
X83767587Y-74554868D01*
X83767579Y-74554870D01*
X83576403Y-74634058D01*
X83404342Y-74749024D01*
X83258024Y-74895342D01*
X83143058Y-75067403D01*
X83063870Y-75258579D01*
X83063868Y-75258587D01*
X83023500Y-75461530D01*
X82584499Y-75461530D01*
X82544130Y-75258580D01*
X82464941Y-75067402D01*
X82349977Y-74895345D01*
X82349975Y-74895342D01*
X82203657Y-74749024D01*
X82077532Y-74664751D01*
X82031598Y-74634059D01*
X81840420Y-74554870D01*
X81840412Y-74554868D01*
X81637469Y-74514500D01*
X81637465Y-74514500D01*
X81430535Y-74514500D01*
X81430530Y-74514500D01*
X81227587Y-74554868D01*
X81227579Y-74554870D01*
X81036403Y-74634058D01*
X80864342Y-74749024D01*
X80718024Y-74895342D01*
X80603058Y-75067403D01*
X80582561Y-75116888D01*
X80538720Y-75171291D01*
X80472426Y-75193356D01*
X80404726Y-75176077D01*
X80357116Y-75124939D01*
X80344000Y-75069435D01*
X80344000Y-74667172D01*
X80343999Y-74667155D01*
X80337598Y-74607627D01*
X80337596Y-74607620D01*
X80287354Y-74472913D01*
X80287350Y-74472906D01*
X80201190Y-74357812D01*
X80201187Y-74357809D01*
X80086093Y-74271649D01*
X80086086Y-74271645D01*
X79951379Y-74221403D01*
X79951372Y-74221401D01*
X79891844Y-74215000D01*
X79244000Y-74215000D01*
X79244000Y-75131988D01*
X79186993Y-75099075D01*
X79059826Y-75065000D01*
X78928174Y-75065000D01*
X78801007Y-75099075D01*
X78744000Y-75131988D01*
X78744000Y-74215000D01*
X78096155Y-74215000D01*
X78036627Y-74221401D01*
X78036620Y-74221403D01*
X77901913Y-74271645D01*
X77901906Y-74271649D01*
X77786812Y-74357809D01*
X77786809Y-74357812D01*
X77700649Y-74472906D01*
X77700645Y-74472913D01*
X77650403Y-74607620D01*
X77650401Y-74607627D01*
X77644000Y-74667155D01*
X51300500Y-74667155D01*
X51300500Y-71651530D01*
X51664500Y-71651530D01*
X51664500Y-71858469D01*
X51704868Y-72061412D01*
X51704870Y-72061420D01*
X51784058Y-72252596D01*
X51899024Y-72424657D01*
X52045342Y-72570975D01*
X52045345Y-72570977D01*
X52217402Y-72685941D01*
X52408580Y-72765130D01*
X52611530Y-72805499D01*
X52611534Y-72805500D01*
X52611535Y-72805500D01*
X52818466Y-72805500D01*
X52818467Y-72805499D01*
X53021420Y-72765130D01*
X53212598Y-72685941D01*
X53384655Y-72570977D01*
X53530977Y-72424655D01*
X53645941Y-72252598D01*
X53725130Y-72061420D01*
X53765500Y-71858465D01*
X53765500Y-71651535D01*
X53765499Y-71651530D01*
X54204500Y-71651530D01*
X54204500Y-71858469D01*
X54244868Y-72061412D01*
X54244870Y-72061420D01*
X54324058Y-72252596D01*
X54439024Y-72424657D01*
X54585342Y-72570975D01*
X54585345Y-72570977D01*
X54757402Y-72685941D01*
X54948580Y-72765130D01*
X55151530Y-72805499D01*
X55151534Y-72805500D01*
X55151535Y-72805500D01*
X55358466Y-72805500D01*
X55358467Y-72805499D01*
X55561420Y-72765130D01*
X55752598Y-72685941D01*
X55924655Y-72570977D01*
X56070977Y-72424655D01*
X56185941Y-72252598D01*
X56265130Y-72061420D01*
X56305500Y-71858465D01*
X56305500Y-71651535D01*
X56305499Y-71651530D01*
X56744500Y-71651530D01*
X56744500Y-71858469D01*
X56784868Y-72061412D01*
X56784870Y-72061420D01*
X56864058Y-72252596D01*
X56979024Y-72424657D01*
X57125342Y-72570975D01*
X57125345Y-72570977D01*
X57297402Y-72685941D01*
X57488580Y-72765130D01*
X57691530Y-72805499D01*
X57691534Y-72805500D01*
X57691535Y-72805500D01*
X57898466Y-72805500D01*
X57898467Y-72805499D01*
X58101420Y-72765130D01*
X58292598Y-72685941D01*
X58464655Y-72570977D01*
X58610977Y-72424655D01*
X58725941Y-72252598D01*
X58805130Y-72061420D01*
X58845500Y-71858465D01*
X58845500Y-71651535D01*
X58845499Y-71651530D01*
X59284500Y-71651530D01*
X59284500Y-71858469D01*
X59324868Y-72061412D01*
X59324870Y-72061420D01*
X59404058Y-72252596D01*
X59519024Y-72424657D01*
X59665342Y-72570975D01*
X59665345Y-72570977D01*
X59837402Y-72685941D01*
X60028580Y-72765130D01*
X60231530Y-72805499D01*
X60231534Y-72805500D01*
X60231535Y-72805500D01*
X60438466Y-72805500D01*
X60438467Y-72805499D01*
X60641420Y-72765130D01*
X60832598Y-72685941D01*
X61004655Y-72570977D01*
X61150977Y-72424655D01*
X61265941Y-72252598D01*
X61345130Y-72061420D01*
X61385500Y-71858465D01*
X61385500Y-71651535D01*
X61385499Y-71651530D01*
X61824500Y-71651530D01*
X61824500Y-71858469D01*
X61864868Y-72061412D01*
X61864870Y-72061420D01*
X61944058Y-72252596D01*
X62059024Y-72424657D01*
X62205342Y-72570975D01*
X62205345Y-72570977D01*
X62377402Y-72685941D01*
X62568580Y-72765130D01*
X62771530Y-72805499D01*
X62771534Y-72805500D01*
X62771535Y-72805500D01*
X62978466Y-72805500D01*
X62978467Y-72805499D01*
X63181420Y-72765130D01*
X63372598Y-72685941D01*
X63544655Y-72570977D01*
X63690977Y-72424655D01*
X63805941Y-72252598D01*
X63885130Y-72061420D01*
X63925500Y-71858465D01*
X63925500Y-71651535D01*
X63925499Y-71651530D01*
X64364500Y-71651530D01*
X64364500Y-71858469D01*
X64404868Y-72061412D01*
X64404870Y-72061420D01*
X64484058Y-72252596D01*
X64599024Y-72424657D01*
X64745342Y-72570975D01*
X64745345Y-72570977D01*
X64917402Y-72685941D01*
X65108580Y-72765130D01*
X65311530Y-72805499D01*
X65311534Y-72805500D01*
X65311535Y-72805500D01*
X65518466Y-72805500D01*
X65518467Y-72805499D01*
X65721420Y-72765130D01*
X65912598Y-72685941D01*
X66084655Y-72570977D01*
X66230977Y-72424655D01*
X66345941Y-72252598D01*
X66425130Y-72061420D01*
X66465500Y-71858465D01*
X66465500Y-71651535D01*
X66465499Y-71651530D01*
X66904500Y-71651530D01*
X66904500Y-71858469D01*
X66944868Y-72061412D01*
X66944870Y-72061420D01*
X67024058Y-72252596D01*
X67139024Y-72424657D01*
X67285342Y-72570975D01*
X67285345Y-72570977D01*
X67457402Y-72685941D01*
X67648580Y-72765130D01*
X67851530Y-72805499D01*
X67851534Y-72805500D01*
X67851535Y-72805500D01*
X68058466Y-72805500D01*
X68058467Y-72805499D01*
X68261420Y-72765130D01*
X68452598Y-72685941D01*
X68624655Y-72570977D01*
X68770977Y-72424655D01*
X68885941Y-72252598D01*
X68965130Y-72061420D01*
X69005500Y-71858465D01*
X69005500Y-71651535D01*
X69005499Y-71651530D01*
X69444500Y-71651530D01*
X69444500Y-71858469D01*
X69484868Y-72061412D01*
X69484870Y-72061420D01*
X69564058Y-72252596D01*
X69679024Y-72424657D01*
X69825342Y-72570975D01*
X69825345Y-72570977D01*
X69997402Y-72685941D01*
X70188580Y-72765130D01*
X70391530Y-72805499D01*
X70391534Y-72805500D01*
X70391535Y-72805500D01*
X70598466Y-72805500D01*
X70598467Y-72805499D01*
X70801420Y-72765130D01*
X70992598Y-72685941D01*
X71164655Y-72570977D01*
X71310977Y-72424655D01*
X71425941Y-72252598D01*
X71505130Y-72061420D01*
X71545500Y-71858465D01*
X71545500Y-71651535D01*
X71545499Y-71651530D01*
X71984500Y-71651530D01*
X71984500Y-71858469D01*
X72024868Y-72061412D01*
X72024870Y-72061420D01*
X72104058Y-72252596D01*
X72219024Y-72424657D01*
X72365342Y-72570975D01*
X72365345Y-72570977D01*
X72537402Y-72685941D01*
X72728580Y-72765130D01*
X72931530Y-72805499D01*
X72931534Y-72805500D01*
X72931535Y-72805500D01*
X73138466Y-72805500D01*
X73138467Y-72805499D01*
X73341420Y-72765130D01*
X73532598Y-72685941D01*
X73704655Y-72570977D01*
X73850977Y-72424655D01*
X73965941Y-72252598D01*
X74045130Y-72061420D01*
X74085500Y-71858465D01*
X74085500Y-71651535D01*
X74085499Y-71651530D01*
X74524500Y-71651530D01*
X74524500Y-71858469D01*
X74564868Y-72061412D01*
X74564870Y-72061420D01*
X74644058Y-72252596D01*
X74759024Y-72424657D01*
X74905342Y-72570975D01*
X74905345Y-72570977D01*
X75077402Y-72685941D01*
X75268580Y-72765130D01*
X75471530Y-72805499D01*
X75471534Y-72805500D01*
X75471535Y-72805500D01*
X75678466Y-72805500D01*
X75678467Y-72805499D01*
X75881420Y-72765130D01*
X76072598Y-72685941D01*
X76244655Y-72570977D01*
X76390977Y-72424655D01*
X76505941Y-72252598D01*
X76585130Y-72061420D01*
X76625500Y-71858465D01*
X76625500Y-71651535D01*
X76625499Y-71651530D01*
X77064500Y-71651530D01*
X77064500Y-71858469D01*
X77104868Y-72061412D01*
X77104870Y-72061420D01*
X77184058Y-72252596D01*
X77299024Y-72424657D01*
X77445342Y-72570975D01*
X77445345Y-72570977D01*
X77617402Y-72685941D01*
X77808580Y-72765130D01*
X78011530Y-72805499D01*
X78011534Y-72805500D01*
X78011535Y-72805500D01*
X78218466Y-72805500D01*
X78218467Y-72805499D01*
X78421420Y-72765130D01*
X78612598Y-72685941D01*
X78784655Y-72570977D01*
X78930977Y-72424655D01*
X79045941Y-72252598D01*
X79125130Y-72061420D01*
X79165500Y-71858465D01*
X79165500Y-71651535D01*
X79165499Y-71651530D01*
X79604500Y-71651530D01*
X79604500Y-71858469D01*
X79644868Y-72061412D01*
X79644870Y-72061420D01*
X79724058Y-72252596D01*
X79839024Y-72424657D01*
X79985342Y-72570975D01*
X79985345Y-72570977D01*
X80157402Y-72685941D01*
X80348580Y-72765130D01*
X80551530Y-72805499D01*
X80551534Y-72805500D01*
X80551535Y-72805500D01*
X80758466Y-72805500D01*
X80758467Y-72805499D01*
X80961420Y-72765130D01*
X81152598Y-72685941D01*
X81324655Y-72570977D01*
X81470977Y-72424655D01*
X81585941Y-72252598D01*
X81665130Y-72061420D01*
X81705500Y-71858465D01*
X81705500Y-71651535D01*
X81705499Y-71651530D01*
X82144500Y-71651530D01*
X82144500Y-71858469D01*
X82184868Y-72061412D01*
X82184870Y-72061420D01*
X82264058Y-72252596D01*
X82379024Y-72424657D01*
X82525342Y-72570975D01*
X82525345Y-72570977D01*
X82697402Y-72685941D01*
X82888580Y-72765130D01*
X83091530Y-72805499D01*
X83091534Y-72805500D01*
X83091535Y-72805500D01*
X83298466Y-72805500D01*
X83298467Y-72805499D01*
X83501420Y-72765130D01*
X83692598Y-72685941D01*
X83864655Y-72570977D01*
X84010977Y-72424655D01*
X84125941Y-72252598D01*
X84205130Y-72061420D01*
X84245500Y-71858465D01*
X84245500Y-71651535D01*
X84245499Y-71651530D01*
X84684500Y-71651530D01*
X84684500Y-71858469D01*
X84724868Y-72061412D01*
X84724870Y-72061420D01*
X84804058Y-72252596D01*
X84919024Y-72424657D01*
X85065342Y-72570975D01*
X85065345Y-72570977D01*
X85237402Y-72685941D01*
X85428580Y-72765130D01*
X85631530Y-72805499D01*
X85631534Y-72805500D01*
X85631535Y-72805500D01*
X85838466Y-72805500D01*
X85838467Y-72805499D01*
X86041420Y-72765130D01*
X86232598Y-72685941D01*
X86404655Y-72570977D01*
X86550977Y-72424655D01*
X86665941Y-72252598D01*
X86745130Y-72061420D01*
X86785500Y-71858465D01*
X86785500Y-71651535D01*
X86785499Y-71651530D01*
X87224500Y-71651530D01*
X87224500Y-71858469D01*
X87264868Y-72061412D01*
X87264870Y-72061420D01*
X87344058Y-72252596D01*
X87459024Y-72424657D01*
X87605342Y-72570975D01*
X87605345Y-72570977D01*
X87777402Y-72685941D01*
X87968580Y-72765130D01*
X88171530Y-72805499D01*
X88171534Y-72805500D01*
X88171535Y-72805500D01*
X88378466Y-72805500D01*
X88378467Y-72805499D01*
X88581420Y-72765130D01*
X88772598Y-72685941D01*
X88944655Y-72570977D01*
X89090977Y-72424655D01*
X89205941Y-72252598D01*
X89285130Y-72061420D01*
X89325500Y-71858465D01*
X89325500Y-71651535D01*
X89325499Y-71651530D01*
X89764500Y-71651530D01*
X89764500Y-71858469D01*
X89804868Y-72061412D01*
X89804870Y-72061420D01*
X89884058Y-72252596D01*
X89999024Y-72424657D01*
X90145342Y-72570975D01*
X90145345Y-72570977D01*
X90317402Y-72685941D01*
X90508580Y-72765130D01*
X90711530Y-72805499D01*
X90711534Y-72805500D01*
X90711535Y-72805500D01*
X90918466Y-72805500D01*
X90918467Y-72805499D01*
X91121420Y-72765130D01*
X91312598Y-72685941D01*
X91484655Y-72570977D01*
X91630977Y-72424655D01*
X91745941Y-72252598D01*
X91825130Y-72061420D01*
X91865500Y-71858465D01*
X91865500Y-71651535D01*
X91865499Y-71651530D01*
X92304500Y-71651530D01*
X92304500Y-71858469D01*
X92344868Y-72061412D01*
X92344870Y-72061420D01*
X92424058Y-72252596D01*
X92539024Y-72424657D01*
X92685342Y-72570975D01*
X92685345Y-72570977D01*
X92857402Y-72685941D01*
X93048580Y-72765130D01*
X93251530Y-72805499D01*
X93251534Y-72805500D01*
X93251535Y-72805500D01*
X93458466Y-72805500D01*
X93458467Y-72805499D01*
X93661420Y-72765130D01*
X93852598Y-72685941D01*
X94024655Y-72570977D01*
X94170977Y-72424655D01*
X94285941Y-72252598D01*
X94365130Y-72061420D01*
X94405500Y-71858465D01*
X94405500Y-71651535D01*
X94405499Y-71651530D01*
X94844500Y-71651530D01*
X94844500Y-71858469D01*
X94884868Y-72061412D01*
X94884870Y-72061420D01*
X94964058Y-72252596D01*
X95079024Y-72424657D01*
X95225342Y-72570975D01*
X95225345Y-72570977D01*
X95397402Y-72685941D01*
X95588580Y-72765130D01*
X95791530Y-72805499D01*
X95791534Y-72805500D01*
X95791535Y-72805500D01*
X95998466Y-72805500D01*
X95998467Y-72805499D01*
X96201420Y-72765130D01*
X96392598Y-72685941D01*
X96564655Y-72570977D01*
X96710977Y-72424655D01*
X96825941Y-72252598D01*
X96905130Y-72061420D01*
X96945500Y-71858465D01*
X96945500Y-71651535D01*
X96945499Y-71651530D01*
X97384500Y-71651530D01*
X97384500Y-71858469D01*
X97424868Y-72061412D01*
X97424870Y-72061420D01*
X97504058Y-72252596D01*
X97619024Y-72424657D01*
X97765342Y-72570975D01*
X97765345Y-72570977D01*
X97937402Y-72685941D01*
X98128580Y-72765130D01*
X98331530Y-72805499D01*
X98331534Y-72805500D01*
X98331535Y-72805500D01*
X98538466Y-72805500D01*
X98538467Y-72805499D01*
X98741420Y-72765130D01*
X98932598Y-72685941D01*
X99104655Y-72570977D01*
X99250977Y-72424655D01*
X99365941Y-72252598D01*
X99386439Y-72203112D01*
X99430279Y-72148708D01*
X99496573Y-72126643D01*
X99564273Y-72143922D01*
X99611884Y-72195059D01*
X99625000Y-72250564D01*
X99625000Y-72652844D01*
X99631401Y-72712372D01*
X99631403Y-72712379D01*
X99681645Y-72847086D01*
X99681649Y-72847093D01*
X99767809Y-72962187D01*
X99767812Y-72962190D01*
X99882906Y-73048350D01*
X99882913Y-73048354D01*
X100017620Y-73098596D01*
X100017627Y-73098598D01*
X100077155Y-73104999D01*
X100077172Y-73105000D01*
X100725000Y-73105000D01*
X100725000Y-72188012D01*
X100782007Y-72220925D01*
X100909174Y-72255000D01*
X101040826Y-72255000D01*
X101167993Y-72220925D01*
X101225000Y-72188012D01*
X101225000Y-73105000D01*
X101872828Y-73105000D01*
X101872844Y-73104999D01*
X101932372Y-73098598D01*
X101932379Y-73098596D01*
X102067086Y-73048354D01*
X102067093Y-73048350D01*
X102182187Y-72962190D01*
X102182190Y-72962187D01*
X102268350Y-72847093D01*
X102268354Y-72847086D01*
X102318596Y-72712379D01*
X102318598Y-72712372D01*
X102324999Y-72652844D01*
X102325000Y-72652827D01*
X102325000Y-72005000D01*
X101408012Y-72005000D01*
X101440925Y-71947993D01*
X101475000Y-71820826D01*
X101475000Y-71689174D01*
X101440925Y-71562007D01*
X101408012Y-71505000D01*
X102325000Y-71505000D01*
X102325000Y-70857172D01*
X102324999Y-70857155D01*
X102318598Y-70797627D01*
X102318596Y-70797620D01*
X102268354Y-70662913D01*
X102268350Y-70662906D01*
X102182190Y-70547812D01*
X102182187Y-70547809D01*
X102067093Y-70461649D01*
X102067086Y-70461645D01*
X101932379Y-70411403D01*
X101932372Y-70411401D01*
X101872844Y-70405000D01*
X101225000Y-70405000D01*
X101225000Y-71321988D01*
X101167993Y-71289075D01*
X101040826Y-71255000D01*
X100909174Y-71255000D01*
X100782007Y-71289075D01*
X100725000Y-71321988D01*
X100725000Y-70405000D01*
X100077155Y-70405000D01*
X100017627Y-70411401D01*
X100017620Y-70411403D01*
X99882913Y-70461645D01*
X99882906Y-70461649D01*
X99767812Y-70547809D01*
X99767809Y-70547812D01*
X99681649Y-70662906D01*
X99681645Y-70662913D01*
X99631403Y-70797620D01*
X99631401Y-70797627D01*
X99625000Y-70857155D01*
X99625000Y-71259435D01*
X99605315Y-71326474D01*
X99552511Y-71372229D01*
X99483353Y-71382173D01*
X99419797Y-71353148D01*
X99386439Y-71306888D01*
X99365941Y-71257403D01*
X99365941Y-71257402D01*
X99250977Y-71085345D01*
X99250975Y-71085342D01*
X99104657Y-70939024D01*
X98982130Y-70857155D01*
X98932598Y-70824059D01*
X98741420Y-70744870D01*
X98741412Y-70744868D01*
X98538469Y-70704500D01*
X98538465Y-70704500D01*
X98331535Y-70704500D01*
X98331530Y-70704500D01*
X98128587Y-70744868D01*
X98128579Y-70744870D01*
X97937403Y-70824058D01*
X97765342Y-70939024D01*
X97619024Y-71085342D01*
X97504058Y-71257403D01*
X97424870Y-71448579D01*
X97424868Y-71448587D01*
X97384500Y-71651530D01*
X96945499Y-71651530D01*
X96905130Y-71448580D01*
X96825941Y-71257402D01*
X96710977Y-71085345D01*
X96710975Y-71085342D01*
X96564657Y-70939024D01*
X96442130Y-70857155D01*
X96392598Y-70824059D01*
X96201420Y-70744870D01*
X96201412Y-70744868D01*
X95998469Y-70704500D01*
X95998465Y-70704500D01*
X95791535Y-70704500D01*
X95791530Y-70704500D01*
X95588587Y-70744868D01*
X95588579Y-70744870D01*
X95397403Y-70824058D01*
X95225342Y-70939024D01*
X95079024Y-71085342D01*
X94964058Y-71257403D01*
X94884870Y-71448579D01*
X94884868Y-71448587D01*
X94844500Y-71651530D01*
X94405499Y-71651530D01*
X94365130Y-71448580D01*
X94285941Y-71257402D01*
X94170977Y-71085345D01*
X94170975Y-71085342D01*
X94024657Y-70939024D01*
X93902130Y-70857155D01*
X93852598Y-70824059D01*
X93661420Y-70744870D01*
X93661412Y-70744868D01*
X93458469Y-70704500D01*
X93458465Y-70704500D01*
X93251535Y-70704500D01*
X93251530Y-70704500D01*
X93048587Y-70744868D01*
X93048579Y-70744870D01*
X92857403Y-70824058D01*
X92685342Y-70939024D01*
X92539024Y-71085342D01*
X92424058Y-71257403D01*
X92344870Y-71448579D01*
X92344868Y-71448587D01*
X92304500Y-71651530D01*
X91865499Y-71651530D01*
X91825130Y-71448580D01*
X91745941Y-71257402D01*
X91630977Y-71085345D01*
X91630975Y-71085342D01*
X91484657Y-70939024D01*
X91362130Y-70857155D01*
X91312598Y-70824059D01*
X91121420Y-70744870D01*
X91121412Y-70744868D01*
X90918469Y-70704500D01*
X90918465Y-70704500D01*
X90711535Y-70704500D01*
X90711530Y-70704500D01*
X90508587Y-70744868D01*
X90508579Y-70744870D01*
X90317403Y-70824058D01*
X90145342Y-70939024D01*
X89999024Y-71085342D01*
X89884058Y-71257403D01*
X89804870Y-71448579D01*
X89804868Y-71448587D01*
X89764500Y-71651530D01*
X89325499Y-71651530D01*
X89285130Y-71448580D01*
X89205941Y-71257402D01*
X89090977Y-71085345D01*
X89090975Y-71085342D01*
X88944657Y-70939024D01*
X88822130Y-70857155D01*
X88772598Y-70824059D01*
X88581420Y-70744870D01*
X88581412Y-70744868D01*
X88378469Y-70704500D01*
X88378465Y-70704500D01*
X88171535Y-70704500D01*
X88171530Y-70704500D01*
X87968587Y-70744868D01*
X87968579Y-70744870D01*
X87777403Y-70824058D01*
X87605342Y-70939024D01*
X87459024Y-71085342D01*
X87344058Y-71257403D01*
X87264870Y-71448579D01*
X87264868Y-71448587D01*
X87224500Y-71651530D01*
X86785499Y-71651530D01*
X86745130Y-71448580D01*
X86665941Y-71257402D01*
X86550977Y-71085345D01*
X86550975Y-71085342D01*
X86404657Y-70939024D01*
X86282130Y-70857155D01*
X86232598Y-70824059D01*
X86041420Y-70744870D01*
X86041412Y-70744868D01*
X85838469Y-70704500D01*
X85838465Y-70704500D01*
X85631535Y-70704500D01*
X85631530Y-70704500D01*
X85428587Y-70744868D01*
X85428579Y-70744870D01*
X85237403Y-70824058D01*
X85065342Y-70939024D01*
X84919024Y-71085342D01*
X84804058Y-71257403D01*
X84724870Y-71448579D01*
X84724868Y-71448587D01*
X84684500Y-71651530D01*
X84245499Y-71651530D01*
X84205130Y-71448580D01*
X84125941Y-71257402D01*
X84010977Y-71085345D01*
X84010975Y-71085342D01*
X83864657Y-70939024D01*
X83742130Y-70857155D01*
X83692598Y-70824059D01*
X83501420Y-70744870D01*
X83501412Y-70744868D01*
X83298469Y-70704500D01*
X83298465Y-70704500D01*
X83091535Y-70704500D01*
X83091530Y-70704500D01*
X82888587Y-70744868D01*
X82888579Y-70744870D01*
X82697403Y-70824058D01*
X82525342Y-70939024D01*
X82379024Y-71085342D01*
X82264058Y-71257403D01*
X82184870Y-71448579D01*
X82184868Y-71448587D01*
X82144500Y-71651530D01*
X81705499Y-71651530D01*
X81665130Y-71448580D01*
X81585941Y-71257402D01*
X81470977Y-71085345D01*
X81470975Y-71085342D01*
X81324657Y-70939024D01*
X81202130Y-70857155D01*
X81152598Y-70824059D01*
X80961420Y-70744870D01*
X80961412Y-70744868D01*
X80758469Y-70704500D01*
X80758465Y-70704500D01*
X80551535Y-70704500D01*
X80551530Y-70704500D01*
X80348587Y-70744868D01*
X80348579Y-70744870D01*
X80157403Y-70824058D01*
X79985342Y-70939024D01*
X79839024Y-71085342D01*
X79724058Y-71257403D01*
X79644870Y-71448579D01*
X79644868Y-71448587D01*
X79604500Y-71651530D01*
X79165499Y-71651530D01*
X79125130Y-71448580D01*
X79045941Y-71257402D01*
X78930977Y-71085345D01*
X78930975Y-71085342D01*
X78784657Y-70939024D01*
X78662130Y-70857155D01*
X78612598Y-70824059D01*
X78421420Y-70744870D01*
X78421412Y-70744868D01*
X78218469Y-70704500D01*
X78218465Y-70704500D01*
X78011535Y-70704500D01*
X78011530Y-70704500D01*
X77808587Y-70744868D01*
X77808579Y-70744870D01*
X77617403Y-70824058D01*
X77445342Y-70939024D01*
X77299024Y-71085342D01*
X77184058Y-71257403D01*
X77104870Y-71448579D01*
X77104868Y-71448587D01*
X77064500Y-71651530D01*
X76625499Y-71651530D01*
X76585130Y-71448580D01*
X76505941Y-71257402D01*
X76390977Y-71085345D01*
X76390975Y-71085342D01*
X76244657Y-70939024D01*
X76122130Y-70857155D01*
X76072598Y-70824059D01*
X75881420Y-70744870D01*
X75881412Y-70744868D01*
X75678469Y-70704500D01*
X75678465Y-70704500D01*
X75471535Y-70704500D01*
X75471530Y-70704500D01*
X75268587Y-70744868D01*
X75268579Y-70744870D01*
X75077403Y-70824058D01*
X74905342Y-70939024D01*
X74759024Y-71085342D01*
X74644058Y-71257403D01*
X74564870Y-71448579D01*
X74564868Y-71448587D01*
X74524500Y-71651530D01*
X74085499Y-71651530D01*
X74045130Y-71448580D01*
X73965941Y-71257402D01*
X73850977Y-71085345D01*
X73850975Y-71085342D01*
X73704657Y-70939024D01*
X73582130Y-70857155D01*
X73532598Y-70824059D01*
X73341420Y-70744870D01*
X73341412Y-70744868D01*
X73138469Y-70704500D01*
X73138465Y-70704500D01*
X72931535Y-70704500D01*
X72931530Y-70704500D01*
X72728587Y-70744868D01*
X72728579Y-70744870D01*
X72537403Y-70824058D01*
X72365342Y-70939024D01*
X72219024Y-71085342D01*
X72104058Y-71257403D01*
X72024870Y-71448579D01*
X72024868Y-71448587D01*
X71984500Y-71651530D01*
X71545499Y-71651530D01*
X71505130Y-71448580D01*
X71425941Y-71257402D01*
X71310977Y-71085345D01*
X71310975Y-71085342D01*
X71164657Y-70939024D01*
X71042130Y-70857155D01*
X70992598Y-70824059D01*
X70801420Y-70744870D01*
X70801412Y-70744868D01*
X70598469Y-70704500D01*
X70598465Y-70704500D01*
X70391535Y-70704500D01*
X70391530Y-70704500D01*
X70188587Y-70744868D01*
X70188579Y-70744870D01*
X69997403Y-70824058D01*
X69825342Y-70939024D01*
X69679024Y-71085342D01*
X69564058Y-71257403D01*
X69484870Y-71448579D01*
X69484868Y-71448587D01*
X69444500Y-71651530D01*
X69005499Y-71651530D01*
X68965130Y-71448580D01*
X68885941Y-71257402D01*
X68770977Y-71085345D01*
X68770975Y-71085342D01*
X68624657Y-70939024D01*
X68502130Y-70857155D01*
X68452598Y-70824059D01*
X68261420Y-70744870D01*
X68261412Y-70744868D01*
X68058469Y-70704500D01*
X68058465Y-70704500D01*
X67851535Y-70704500D01*
X67851530Y-70704500D01*
X67648587Y-70744868D01*
X67648579Y-70744870D01*
X67457403Y-70824058D01*
X67285342Y-70939024D01*
X67139024Y-71085342D01*
X67024058Y-71257403D01*
X66944870Y-71448579D01*
X66944868Y-71448587D01*
X66904500Y-71651530D01*
X66465499Y-71651530D01*
X66425130Y-71448580D01*
X66345941Y-71257402D01*
X66230977Y-71085345D01*
X66230975Y-71085342D01*
X66084657Y-70939024D01*
X65962130Y-70857155D01*
X65912598Y-70824059D01*
X65721420Y-70744870D01*
X65721412Y-70744868D01*
X65518469Y-70704500D01*
X65518465Y-70704500D01*
X65311535Y-70704500D01*
X65311530Y-70704500D01*
X65108587Y-70744868D01*
X65108579Y-70744870D01*
X64917403Y-70824058D01*
X64745342Y-70939024D01*
X64599024Y-71085342D01*
X64484058Y-71257403D01*
X64404870Y-71448579D01*
X64404868Y-71448587D01*
X64364500Y-71651530D01*
X63925499Y-71651530D01*
X63885130Y-71448580D01*
X63805941Y-71257402D01*
X63690977Y-71085345D01*
X63690975Y-71085342D01*
X63544657Y-70939024D01*
X63422130Y-70857155D01*
X63372598Y-70824059D01*
X63181420Y-70744870D01*
X63181412Y-70744868D01*
X62978469Y-70704500D01*
X62978465Y-70704500D01*
X62771535Y-70704500D01*
X62771530Y-70704500D01*
X62568587Y-70744868D01*
X62568579Y-70744870D01*
X62377403Y-70824058D01*
X62205342Y-70939024D01*
X62059024Y-71085342D01*
X61944058Y-71257403D01*
X61864870Y-71448579D01*
X61864868Y-71448587D01*
X61824500Y-71651530D01*
X61385499Y-71651530D01*
X61345130Y-71448580D01*
X61265941Y-71257402D01*
X61150977Y-71085345D01*
X61150975Y-71085342D01*
X61004657Y-70939024D01*
X60882130Y-70857155D01*
X60832598Y-70824059D01*
X60641420Y-70744870D01*
X60641412Y-70744868D01*
X60438469Y-70704500D01*
X60438465Y-70704500D01*
X60231535Y-70704500D01*
X60231530Y-70704500D01*
X60028587Y-70744868D01*
X60028579Y-70744870D01*
X59837403Y-70824058D01*
X59665342Y-70939024D01*
X59519024Y-71085342D01*
X59404058Y-71257403D01*
X59324870Y-71448579D01*
X59324868Y-71448587D01*
X59284500Y-71651530D01*
X58845499Y-71651530D01*
X58805130Y-71448580D01*
X58725941Y-71257402D01*
X58610977Y-71085345D01*
X58610975Y-71085342D01*
X58464657Y-70939024D01*
X58342130Y-70857155D01*
X58292598Y-70824059D01*
X58101420Y-70744870D01*
X58101412Y-70744868D01*
X57898469Y-70704500D01*
X57898465Y-70704500D01*
X57691535Y-70704500D01*
X57691530Y-70704500D01*
X57488587Y-70744868D01*
X57488579Y-70744870D01*
X57297403Y-70824058D01*
X57125342Y-70939024D01*
X56979024Y-71085342D01*
X56864058Y-71257403D01*
X56784870Y-71448579D01*
X56784868Y-71448587D01*
X56744500Y-71651530D01*
X56305499Y-71651530D01*
X56265130Y-71448580D01*
X56185941Y-71257402D01*
X56070977Y-71085345D01*
X56070975Y-71085342D01*
X55924657Y-70939024D01*
X55802130Y-70857155D01*
X55752598Y-70824059D01*
X55561420Y-70744870D01*
X55561412Y-70744868D01*
X55358469Y-70704500D01*
X55358465Y-70704500D01*
X55151535Y-70704500D01*
X55151530Y-70704500D01*
X54948587Y-70744868D01*
X54948579Y-70744870D01*
X54757403Y-70824058D01*
X54585342Y-70939024D01*
X54439024Y-71085342D01*
X54324058Y-71257403D01*
X54244870Y-71448579D01*
X54244868Y-71448587D01*
X54204500Y-71651530D01*
X53765499Y-71651530D01*
X53725130Y-71448580D01*
X53645941Y-71257402D01*
X53530977Y-71085345D01*
X53530975Y-71085342D01*
X53384657Y-70939024D01*
X53262130Y-70857155D01*
X53212598Y-70824059D01*
X53021420Y-70744870D01*
X53021412Y-70744868D01*
X52818469Y-70704500D01*
X52818465Y-70704500D01*
X52611535Y-70704500D01*
X52611530Y-70704500D01*
X52408587Y-70744868D01*
X52408579Y-70744870D01*
X52217403Y-70824058D01*
X52045342Y-70939024D01*
X51899024Y-71085342D01*
X51784058Y-71257403D01*
X51704870Y-71448579D01*
X51704868Y-71448587D01*
X51664500Y-71651530D01*
X51300500Y-71651530D01*
X51300500Y-67075247D01*
X51664500Y-67075247D01*
X51664500Y-68814752D01*
X51676131Y-68873229D01*
X51676132Y-68873230D01*
X51720447Y-68939552D01*
X51786769Y-68983867D01*
X51786770Y-68983868D01*
X51845247Y-68995499D01*
X51845250Y-68995500D01*
X51845252Y-68995500D01*
X53584750Y-68995500D01*
X53584751Y-68995499D01*
X53599568Y-68992552D01*
X53643229Y-68983868D01*
X53643229Y-68983867D01*
X53643231Y-68983867D01*
X53709552Y-68939552D01*
X53753867Y-68873231D01*
X53753867Y-68873229D01*
X53753868Y-68873229D01*
X53765499Y-68814752D01*
X53765500Y-68814750D01*
X53765500Y-67841530D01*
X54204500Y-67841530D01*
X54204500Y-68048469D01*
X54244868Y-68251412D01*
X54244870Y-68251420D01*
X54300246Y-68385110D01*
X54324059Y-68442598D01*
X54337836Y-68463217D01*
X54439024Y-68614657D01*
X54585342Y-68760975D01*
X54585345Y-68760977D01*
X54757402Y-68875941D01*
X54948580Y-68955130D01*
X55093052Y-68983867D01*
X55151530Y-68995499D01*
X55151534Y-68995500D01*
X55151535Y-68995500D01*
X55358466Y-68995500D01*
X55358467Y-68995499D01*
X55561420Y-68955130D01*
X55752598Y-68875941D01*
X55924655Y-68760977D01*
X56070977Y-68614655D01*
X56185941Y-68442598D01*
X56265130Y-68251420D01*
X56305500Y-68048465D01*
X56305500Y-67841535D01*
X56305499Y-67841530D01*
X56744500Y-67841530D01*
X56744500Y-68048469D01*
X56784868Y-68251412D01*
X56784870Y-68251420D01*
X56840246Y-68385110D01*
X56864059Y-68442598D01*
X56877836Y-68463217D01*
X56979024Y-68614657D01*
X57125342Y-68760975D01*
X57125345Y-68760977D01*
X57297402Y-68875941D01*
X57488580Y-68955130D01*
X57633052Y-68983867D01*
X57691530Y-68995499D01*
X57691534Y-68995500D01*
X57691535Y-68995500D01*
X57898466Y-68995500D01*
X57898467Y-68995499D01*
X58101420Y-68955130D01*
X58292598Y-68875941D01*
X58464655Y-68760977D01*
X58610977Y-68614655D01*
X58725941Y-68442598D01*
X58805130Y-68251420D01*
X58845500Y-68048465D01*
X58845500Y-67841535D01*
X58845499Y-67841530D01*
X59284500Y-67841530D01*
X59284500Y-68048469D01*
X59324868Y-68251412D01*
X59324870Y-68251420D01*
X59380246Y-68385110D01*
X59404059Y-68442598D01*
X59417836Y-68463217D01*
X59519024Y-68614657D01*
X59665342Y-68760975D01*
X59665345Y-68760977D01*
X59837402Y-68875941D01*
X60028580Y-68955130D01*
X60173052Y-68983867D01*
X60231530Y-68995499D01*
X60231534Y-68995500D01*
X60231535Y-68995500D01*
X60438466Y-68995500D01*
X60438467Y-68995499D01*
X60641420Y-68955130D01*
X60832598Y-68875941D01*
X61004655Y-68760977D01*
X61150977Y-68614655D01*
X61265941Y-68442598D01*
X61345130Y-68251420D01*
X61385500Y-68048465D01*
X61385500Y-67841535D01*
X61385499Y-67841530D01*
X61824500Y-67841530D01*
X61824500Y-68048469D01*
X61864868Y-68251412D01*
X61864870Y-68251420D01*
X61920246Y-68385110D01*
X61944059Y-68442598D01*
X61957836Y-68463217D01*
X62059024Y-68614657D01*
X62205342Y-68760975D01*
X62205345Y-68760977D01*
X62377402Y-68875941D01*
X62568580Y-68955130D01*
X62713052Y-68983867D01*
X62771530Y-68995499D01*
X62771534Y-68995500D01*
X62771535Y-68995500D01*
X62978466Y-68995500D01*
X62978467Y-68995499D01*
X63181420Y-68955130D01*
X63372598Y-68875941D01*
X63544655Y-68760977D01*
X63690977Y-68614655D01*
X63805941Y-68442598D01*
X63885130Y-68251420D01*
X63925500Y-68048465D01*
X63925500Y-67841535D01*
X63925499Y-67841530D01*
X64364500Y-67841530D01*
X64364500Y-68048469D01*
X64404868Y-68251412D01*
X64404870Y-68251420D01*
X64460246Y-68385110D01*
X64484059Y-68442598D01*
X64497836Y-68463217D01*
X64599024Y-68614657D01*
X64745342Y-68760975D01*
X64745345Y-68760977D01*
X64917402Y-68875941D01*
X65108580Y-68955130D01*
X65253052Y-68983867D01*
X65311530Y-68995499D01*
X65311534Y-68995500D01*
X65311535Y-68995500D01*
X65518466Y-68995500D01*
X65518467Y-68995499D01*
X65721420Y-68955130D01*
X65912598Y-68875941D01*
X66084655Y-68760977D01*
X66230977Y-68614655D01*
X66345941Y-68442598D01*
X66425130Y-68251420D01*
X66465500Y-68048465D01*
X66465500Y-67841535D01*
X66465499Y-67841530D01*
X66904500Y-67841530D01*
X66904500Y-68048469D01*
X66944868Y-68251412D01*
X66944870Y-68251420D01*
X67000246Y-68385110D01*
X67024059Y-68442598D01*
X67037836Y-68463217D01*
X67139024Y-68614657D01*
X67285342Y-68760975D01*
X67285345Y-68760977D01*
X67457402Y-68875941D01*
X67648580Y-68955130D01*
X67793052Y-68983867D01*
X67851530Y-68995499D01*
X67851534Y-68995500D01*
X67851535Y-68995500D01*
X68058466Y-68995500D01*
X68058467Y-68995499D01*
X68261420Y-68955130D01*
X68452598Y-68875941D01*
X68624655Y-68760977D01*
X68770977Y-68614655D01*
X68885941Y-68442598D01*
X68965130Y-68251420D01*
X69005500Y-68048465D01*
X69005500Y-67841535D01*
X69005499Y-67841530D01*
X69444500Y-67841530D01*
X69444500Y-68048469D01*
X69484868Y-68251412D01*
X69484870Y-68251420D01*
X69540246Y-68385110D01*
X69564059Y-68442598D01*
X69577836Y-68463217D01*
X69679024Y-68614657D01*
X69825342Y-68760975D01*
X69825345Y-68760977D01*
X69997402Y-68875941D01*
X70188580Y-68955130D01*
X70333052Y-68983867D01*
X70391530Y-68995499D01*
X70391534Y-68995500D01*
X70391535Y-68995500D01*
X70598466Y-68995500D01*
X70598467Y-68995499D01*
X70801420Y-68955130D01*
X70992598Y-68875941D01*
X71164655Y-68760977D01*
X71310977Y-68614655D01*
X71425941Y-68442598D01*
X71505130Y-68251420D01*
X71545500Y-68048465D01*
X71545500Y-67841535D01*
X71545499Y-67841530D01*
X71984500Y-67841530D01*
X71984500Y-68048469D01*
X72024868Y-68251412D01*
X72024870Y-68251420D01*
X72080246Y-68385110D01*
X72104059Y-68442598D01*
X72117836Y-68463217D01*
X72219024Y-68614657D01*
X72365342Y-68760975D01*
X72365345Y-68760977D01*
X72537402Y-68875941D01*
X72728580Y-68955130D01*
X72873052Y-68983867D01*
X72931530Y-68995499D01*
X72931534Y-68995500D01*
X72931535Y-68995500D01*
X73138466Y-68995500D01*
X73138467Y-68995499D01*
X73341420Y-68955130D01*
X73532598Y-68875941D01*
X73704655Y-68760977D01*
X73850977Y-68614655D01*
X73965941Y-68442598D01*
X74045130Y-68251420D01*
X74085500Y-68048465D01*
X74085500Y-67841535D01*
X74085499Y-67841530D01*
X74524500Y-67841530D01*
X74524500Y-68048469D01*
X74564868Y-68251412D01*
X74564870Y-68251420D01*
X74620246Y-68385110D01*
X74644059Y-68442598D01*
X74657836Y-68463217D01*
X74759024Y-68614657D01*
X74905342Y-68760975D01*
X74905345Y-68760977D01*
X75077402Y-68875941D01*
X75268580Y-68955130D01*
X75413052Y-68983867D01*
X75471530Y-68995499D01*
X75471534Y-68995500D01*
X75471535Y-68995500D01*
X75678466Y-68995500D01*
X75678467Y-68995499D01*
X75881420Y-68955130D01*
X76072598Y-68875941D01*
X76244655Y-68760977D01*
X76390977Y-68614655D01*
X76505941Y-68442598D01*
X76585130Y-68251420D01*
X76625500Y-68048465D01*
X76625500Y-67841535D01*
X76625499Y-67841530D01*
X77064500Y-67841530D01*
X77064500Y-68048469D01*
X77104868Y-68251412D01*
X77104870Y-68251420D01*
X77160246Y-68385110D01*
X77184059Y-68442598D01*
X77197836Y-68463217D01*
X77299024Y-68614657D01*
X77445342Y-68760975D01*
X77445345Y-68760977D01*
X77617402Y-68875941D01*
X77808580Y-68955130D01*
X77953052Y-68983867D01*
X78011530Y-68995499D01*
X78011534Y-68995500D01*
X78011535Y-68995500D01*
X78218466Y-68995500D01*
X78218467Y-68995499D01*
X78421420Y-68955130D01*
X78612598Y-68875941D01*
X78784655Y-68760977D01*
X78930977Y-68614655D01*
X79045941Y-68442598D01*
X79125130Y-68251420D01*
X79165500Y-68048465D01*
X79165500Y-67841535D01*
X79165499Y-67841530D01*
X79604500Y-67841530D01*
X79604500Y-68048469D01*
X79644868Y-68251412D01*
X79644870Y-68251420D01*
X79700246Y-68385110D01*
X79724059Y-68442598D01*
X79737836Y-68463217D01*
X79839024Y-68614657D01*
X79985342Y-68760975D01*
X79985345Y-68760977D01*
X80157402Y-68875941D01*
X80348580Y-68955130D01*
X80493052Y-68983867D01*
X80551530Y-68995499D01*
X80551534Y-68995500D01*
X80551535Y-68995500D01*
X80758466Y-68995500D01*
X80758467Y-68995499D01*
X80961420Y-68955130D01*
X81152598Y-68875941D01*
X81324655Y-68760977D01*
X81470977Y-68614655D01*
X81585941Y-68442598D01*
X81665130Y-68251420D01*
X81705500Y-68048465D01*
X81705500Y-67841535D01*
X81705499Y-67841530D01*
X82144500Y-67841530D01*
X82144500Y-68048469D01*
X82184868Y-68251412D01*
X82184870Y-68251420D01*
X82240246Y-68385110D01*
X82264059Y-68442598D01*
X82277836Y-68463217D01*
X82379024Y-68614657D01*
X82525342Y-68760975D01*
X82525345Y-68760977D01*
X82697402Y-68875941D01*
X82888580Y-68955130D01*
X83033052Y-68983867D01*
X83091530Y-68995499D01*
X83091534Y-68995500D01*
X83091535Y-68995500D01*
X83298466Y-68995500D01*
X83298467Y-68995499D01*
X83501420Y-68955130D01*
X83692598Y-68875941D01*
X83864655Y-68760977D01*
X84010977Y-68614655D01*
X84125941Y-68442598D01*
X84205130Y-68251420D01*
X84245500Y-68048465D01*
X84245500Y-67841535D01*
X84245499Y-67841530D01*
X84684500Y-67841530D01*
X84684500Y-68048469D01*
X84724868Y-68251412D01*
X84724870Y-68251420D01*
X84780246Y-68385110D01*
X84804059Y-68442598D01*
X84817836Y-68463217D01*
X84919024Y-68614657D01*
X85065342Y-68760975D01*
X85065345Y-68760977D01*
X85237402Y-68875941D01*
X85428580Y-68955130D01*
X85573052Y-68983867D01*
X85631530Y-68995499D01*
X85631534Y-68995500D01*
X85631535Y-68995500D01*
X85838466Y-68995500D01*
X85838467Y-68995499D01*
X86041420Y-68955130D01*
X86232598Y-68875941D01*
X86404655Y-68760977D01*
X86550977Y-68614655D01*
X86665941Y-68442598D01*
X86745130Y-68251420D01*
X86785500Y-68048465D01*
X86785500Y-67841535D01*
X86785499Y-67841530D01*
X87224500Y-67841530D01*
X87224500Y-68048469D01*
X87264868Y-68251412D01*
X87264870Y-68251420D01*
X87320246Y-68385110D01*
X87344059Y-68442598D01*
X87357836Y-68463217D01*
X87459024Y-68614657D01*
X87605342Y-68760975D01*
X87605345Y-68760977D01*
X87777402Y-68875941D01*
X87968580Y-68955130D01*
X88113052Y-68983867D01*
X88171530Y-68995499D01*
X88171534Y-68995500D01*
X88171535Y-68995500D01*
X88378466Y-68995500D01*
X88378467Y-68995499D01*
X88581420Y-68955130D01*
X88772598Y-68875941D01*
X88944655Y-68760977D01*
X89090977Y-68614655D01*
X89205941Y-68442598D01*
X89285130Y-68251420D01*
X89325500Y-68048465D01*
X89325500Y-67841535D01*
X89325499Y-67841530D01*
X89764500Y-67841530D01*
X89764500Y-68048469D01*
X89804868Y-68251412D01*
X89804870Y-68251420D01*
X89860246Y-68385110D01*
X89884059Y-68442598D01*
X89897836Y-68463217D01*
X89999024Y-68614657D01*
X90145342Y-68760975D01*
X90145345Y-68760977D01*
X90317402Y-68875941D01*
X90508580Y-68955130D01*
X90653052Y-68983867D01*
X90711530Y-68995499D01*
X90711534Y-68995500D01*
X90711535Y-68995500D01*
X90918466Y-68995500D01*
X90918467Y-68995499D01*
X91121420Y-68955130D01*
X91312598Y-68875941D01*
X91484655Y-68760977D01*
X91630977Y-68614655D01*
X91745941Y-68442598D01*
X91825130Y-68251420D01*
X91865500Y-68048465D01*
X91865500Y-67841535D01*
X91865499Y-67841530D01*
X92304500Y-67841530D01*
X92304500Y-68048469D01*
X92344868Y-68251412D01*
X92344870Y-68251420D01*
X92400246Y-68385110D01*
X92424059Y-68442598D01*
X92437836Y-68463217D01*
X92539024Y-68614657D01*
X92685342Y-68760975D01*
X92685345Y-68760977D01*
X92857402Y-68875941D01*
X93048580Y-68955130D01*
X93193052Y-68983867D01*
X93251530Y-68995499D01*
X93251534Y-68995500D01*
X93251535Y-68995500D01*
X93458466Y-68995500D01*
X93458467Y-68995499D01*
X93661420Y-68955130D01*
X93852598Y-68875941D01*
X94024655Y-68760977D01*
X94170977Y-68614655D01*
X94285941Y-68442598D01*
X94365130Y-68251420D01*
X94405500Y-68048465D01*
X94405500Y-67841535D01*
X94405499Y-67841530D01*
X94844500Y-67841530D01*
X94844500Y-68048469D01*
X94884868Y-68251412D01*
X94884870Y-68251420D01*
X94940246Y-68385110D01*
X94964059Y-68442598D01*
X94977836Y-68463217D01*
X95079024Y-68614657D01*
X95225342Y-68760975D01*
X95225345Y-68760977D01*
X95397402Y-68875941D01*
X95588580Y-68955130D01*
X95733052Y-68983867D01*
X95791530Y-68995499D01*
X95791534Y-68995500D01*
X95791535Y-68995500D01*
X95998466Y-68995500D01*
X95998467Y-68995499D01*
X96201420Y-68955130D01*
X96392598Y-68875941D01*
X96564655Y-68760977D01*
X96710977Y-68614655D01*
X96825941Y-68442598D01*
X96905130Y-68251420D01*
X96945500Y-68048465D01*
X96945500Y-67841535D01*
X96945499Y-67841530D01*
X97384500Y-67841530D01*
X97384500Y-68048469D01*
X97424868Y-68251412D01*
X97424870Y-68251420D01*
X97480246Y-68385110D01*
X97504059Y-68442598D01*
X97517836Y-68463217D01*
X97619024Y-68614657D01*
X97765342Y-68760975D01*
X97765345Y-68760977D01*
X97937402Y-68875941D01*
X98128580Y-68955130D01*
X98273052Y-68983867D01*
X98331530Y-68995499D01*
X98331534Y-68995500D01*
X98331535Y-68995500D01*
X98538466Y-68995500D01*
X98538467Y-68995499D01*
X98741420Y-68955130D01*
X98932598Y-68875941D01*
X99104655Y-68760977D01*
X99250977Y-68614655D01*
X99365941Y-68442598D01*
X99434165Y-68277889D01*
X99478004Y-68223488D01*
X99544298Y-68201423D01*
X99611998Y-68218702D01*
X99659609Y-68269839D01*
X99666656Y-68287026D01*
X99723904Y-68463216D01*
X99820375Y-68652550D01*
X99859728Y-68706716D01*
X100451212Y-68115233D01*
X100462482Y-68157292D01*
X100534890Y-68282708D01*
X100637292Y-68385110D01*
X100762708Y-68457518D01*
X100804765Y-68468787D01*
X100213282Y-69060269D01*
X100213282Y-69060270D01*
X100267449Y-69099624D01*
X100456782Y-69196095D01*
X100658870Y-69261757D01*
X100868754Y-69295000D01*
X101081246Y-69295000D01*
X101291127Y-69261757D01*
X101291130Y-69261757D01*
X101493217Y-69196095D01*
X101682554Y-69099622D01*
X101736716Y-69060270D01*
X101736717Y-69060270D01*
X101145233Y-68468787D01*
X101187292Y-68457518D01*
X101312708Y-68385110D01*
X101415110Y-68282708D01*
X101487518Y-68157292D01*
X101498787Y-68115233D01*
X102090270Y-68706717D01*
X102090270Y-68706716D01*
X102129622Y-68652554D01*
X102226095Y-68463217D01*
X102291757Y-68261130D01*
X102291757Y-68261127D01*
X102325000Y-68051246D01*
X102325000Y-67838753D01*
X102291757Y-67628872D01*
X102291757Y-67628869D01*
X102226095Y-67426782D01*
X102129624Y-67237449D01*
X102090270Y-67183282D01*
X102090269Y-67183282D01*
X101498787Y-67774765D01*
X101487518Y-67732708D01*
X101415110Y-67607292D01*
X101312708Y-67504890D01*
X101187292Y-67432482D01*
X101145233Y-67421212D01*
X101736716Y-66829728D01*
X101682550Y-66790375D01*
X101493217Y-66693904D01*
X101343129Y-66645138D01*
X101291129Y-66628242D01*
X101081246Y-66595000D01*
X100868754Y-66595000D01*
X100658872Y-66628242D01*
X100658869Y-66628242D01*
X100456782Y-66693904D01*
X100267439Y-66790380D01*
X100213282Y-66829727D01*
X100213282Y-66829728D01*
X100804766Y-67421212D01*
X100762708Y-67432482D01*
X100637292Y-67504890D01*
X100534890Y-67607292D01*
X100462482Y-67732708D01*
X100451212Y-67774766D01*
X99859728Y-67183282D01*
X99859727Y-67183282D01*
X99820380Y-67237439D01*
X99723905Y-67426781D01*
X99666656Y-67602974D01*
X99627218Y-67660649D01*
X99562859Y-67687847D01*
X99494013Y-67675932D01*
X99442537Y-67628688D01*
X99434164Y-67612107D01*
X99365943Y-67447405D01*
X99250975Y-67275342D01*
X99104657Y-67129024D01*
X98936655Y-67016770D01*
X98932598Y-67014059D01*
X98741420Y-66934870D01*
X98741412Y-66934868D01*
X98538469Y-66894500D01*
X98538465Y-66894500D01*
X98331535Y-66894500D01*
X98331530Y-66894500D01*
X98128587Y-66934868D01*
X98128579Y-66934870D01*
X97937403Y-67014058D01*
X97765342Y-67129024D01*
X97619024Y-67275342D01*
X97504058Y-67447403D01*
X97424870Y-67638579D01*
X97424868Y-67638587D01*
X97384500Y-67841530D01*
X96945499Y-67841530D01*
X96905130Y-67638580D01*
X96825941Y-67447402D01*
X96710977Y-67275345D01*
X96710975Y-67275342D01*
X96564657Y-67129024D01*
X96396655Y-67016770D01*
X96392598Y-67014059D01*
X96330239Y-66988229D01*
X96201420Y-66934870D01*
X96201412Y-66934868D01*
X95998469Y-66894500D01*
X95998465Y-66894500D01*
X95791535Y-66894500D01*
X95791530Y-66894500D01*
X95588587Y-66934868D01*
X95588579Y-66934870D01*
X95397403Y-67014058D01*
X95225342Y-67129024D01*
X95079024Y-67275342D01*
X94964058Y-67447403D01*
X94884870Y-67638579D01*
X94884868Y-67638587D01*
X94844500Y-67841530D01*
X94405499Y-67841530D01*
X94365130Y-67638580D01*
X94285941Y-67447402D01*
X94170977Y-67275345D01*
X94170975Y-67275342D01*
X94024657Y-67129024D01*
X93856655Y-67016770D01*
X93852598Y-67014059D01*
X93790239Y-66988229D01*
X93661420Y-66934870D01*
X93661412Y-66934868D01*
X93458469Y-66894500D01*
X93458465Y-66894500D01*
X93251535Y-66894500D01*
X93251530Y-66894500D01*
X93048587Y-66934868D01*
X93048579Y-66934870D01*
X92857403Y-67014058D01*
X92685342Y-67129024D01*
X92539024Y-67275342D01*
X92424058Y-67447403D01*
X92344870Y-67638579D01*
X92344868Y-67638587D01*
X92304500Y-67841530D01*
X91865499Y-67841530D01*
X91825130Y-67638580D01*
X91745941Y-67447402D01*
X91630977Y-67275345D01*
X91630975Y-67275342D01*
X91484657Y-67129024D01*
X91316655Y-67016770D01*
X91312598Y-67014059D01*
X91250239Y-66988229D01*
X91121420Y-66934870D01*
X91121412Y-66934868D01*
X90918469Y-66894500D01*
X90918465Y-66894500D01*
X90711535Y-66894500D01*
X90711530Y-66894500D01*
X90508587Y-66934868D01*
X90508579Y-66934870D01*
X90317403Y-67014058D01*
X90145342Y-67129024D01*
X89999024Y-67275342D01*
X89884058Y-67447403D01*
X89804870Y-67638579D01*
X89804868Y-67638587D01*
X89764500Y-67841530D01*
X89325499Y-67841530D01*
X89285130Y-67638580D01*
X89205941Y-67447402D01*
X89090977Y-67275345D01*
X89090975Y-67275342D01*
X88944657Y-67129024D01*
X88776655Y-67016770D01*
X88772598Y-67014059D01*
X88710239Y-66988229D01*
X88581420Y-66934870D01*
X88581412Y-66934868D01*
X88378469Y-66894500D01*
X88378465Y-66894500D01*
X88171535Y-66894500D01*
X88171530Y-66894500D01*
X87968587Y-66934868D01*
X87968579Y-66934870D01*
X87777403Y-67014058D01*
X87605342Y-67129024D01*
X87459024Y-67275342D01*
X87344058Y-67447403D01*
X87264870Y-67638579D01*
X87264868Y-67638587D01*
X87224500Y-67841530D01*
X86785499Y-67841530D01*
X86745130Y-67638580D01*
X86665941Y-67447402D01*
X86550977Y-67275345D01*
X86550975Y-67275342D01*
X86404657Y-67129024D01*
X86236655Y-67016770D01*
X86232598Y-67014059D01*
X86170239Y-66988229D01*
X86041420Y-66934870D01*
X86041412Y-66934868D01*
X85838469Y-66894500D01*
X85838465Y-66894500D01*
X85631535Y-66894500D01*
X85631530Y-66894500D01*
X85428587Y-66934868D01*
X85428579Y-66934870D01*
X85237403Y-67014058D01*
X85065342Y-67129024D01*
X84919024Y-67275342D01*
X84804058Y-67447403D01*
X84724870Y-67638579D01*
X84724868Y-67638587D01*
X84684500Y-67841530D01*
X84245499Y-67841530D01*
X84205130Y-67638580D01*
X84125941Y-67447402D01*
X84010977Y-67275345D01*
X84010975Y-67275342D01*
X83864657Y-67129024D01*
X83696655Y-67016770D01*
X83692598Y-67014059D01*
X83630239Y-66988229D01*
X83501420Y-66934870D01*
X83501412Y-66934868D01*
X83298469Y-66894500D01*
X83298465Y-66894500D01*
X83091535Y-66894500D01*
X83091530Y-66894500D01*
X82888587Y-66934868D01*
X82888579Y-66934870D01*
X82697403Y-67014058D01*
X82525342Y-67129024D01*
X82379024Y-67275342D01*
X82264058Y-67447403D01*
X82184870Y-67638579D01*
X82184868Y-67638587D01*
X82144500Y-67841530D01*
X81705499Y-67841530D01*
X81665130Y-67638580D01*
X81585941Y-67447402D01*
X81470977Y-67275345D01*
X81470975Y-67275342D01*
X81324657Y-67129024D01*
X81156655Y-67016770D01*
X81152598Y-67014059D01*
X81090239Y-66988229D01*
X80961420Y-66934870D01*
X80961412Y-66934868D01*
X80758469Y-66894500D01*
X80758465Y-66894500D01*
X80551535Y-66894500D01*
X80551530Y-66894500D01*
X80348587Y-66934868D01*
X80348579Y-66934870D01*
X80157403Y-67014058D01*
X79985342Y-67129024D01*
X79839024Y-67275342D01*
X79724058Y-67447403D01*
X79644870Y-67638579D01*
X79644868Y-67638587D01*
X79604500Y-67841530D01*
X79165499Y-67841530D01*
X79125130Y-67638580D01*
X79045941Y-67447402D01*
X78930977Y-67275345D01*
X78930975Y-67275342D01*
X78784657Y-67129024D01*
X78616655Y-67016770D01*
X78612598Y-67014059D01*
X78550239Y-66988229D01*
X78421420Y-66934870D01*
X78421412Y-66934868D01*
X78218469Y-66894500D01*
X78218465Y-66894500D01*
X78011535Y-66894500D01*
X78011530Y-66894500D01*
X77808587Y-66934868D01*
X77808579Y-66934870D01*
X77617403Y-67014058D01*
X77445342Y-67129024D01*
X77299024Y-67275342D01*
X77184058Y-67447403D01*
X77104870Y-67638579D01*
X77104868Y-67638587D01*
X77064500Y-67841530D01*
X76625499Y-67841530D01*
X76585130Y-67638580D01*
X76505941Y-67447402D01*
X76390977Y-67275345D01*
X76390975Y-67275342D01*
X76244657Y-67129024D01*
X76076655Y-67016770D01*
X76072598Y-67014059D01*
X76010239Y-66988229D01*
X75881420Y-66934870D01*
X75881412Y-66934868D01*
X75678469Y-66894500D01*
X75678465Y-66894500D01*
X75471535Y-66894500D01*
X75471530Y-66894500D01*
X75268587Y-66934868D01*
X75268579Y-66934870D01*
X75077403Y-67014058D01*
X74905342Y-67129024D01*
X74759024Y-67275342D01*
X74644058Y-67447403D01*
X74564870Y-67638579D01*
X74564868Y-67638587D01*
X74524500Y-67841530D01*
X74085499Y-67841530D01*
X74045130Y-67638580D01*
X73965941Y-67447402D01*
X73850977Y-67275345D01*
X73850975Y-67275342D01*
X73704657Y-67129024D01*
X73536655Y-67016770D01*
X73532598Y-67014059D01*
X73470239Y-66988229D01*
X73341420Y-66934870D01*
X73341412Y-66934868D01*
X73138469Y-66894500D01*
X73138465Y-66894500D01*
X72931535Y-66894500D01*
X72931530Y-66894500D01*
X72728587Y-66934868D01*
X72728579Y-66934870D01*
X72537403Y-67014058D01*
X72365342Y-67129024D01*
X72219024Y-67275342D01*
X72104058Y-67447403D01*
X72024870Y-67638579D01*
X72024868Y-67638587D01*
X71984500Y-67841530D01*
X71545499Y-67841530D01*
X71505130Y-67638580D01*
X71425941Y-67447402D01*
X71310977Y-67275345D01*
X71310975Y-67275342D01*
X71164657Y-67129024D01*
X70996655Y-67016770D01*
X70992598Y-67014059D01*
X70930239Y-66988229D01*
X70801420Y-66934870D01*
X70801412Y-66934868D01*
X70598469Y-66894500D01*
X70598465Y-66894500D01*
X70391535Y-66894500D01*
X70391530Y-66894500D01*
X70188587Y-66934868D01*
X70188579Y-66934870D01*
X69997403Y-67014058D01*
X69825342Y-67129024D01*
X69679024Y-67275342D01*
X69564058Y-67447403D01*
X69484870Y-67638579D01*
X69484868Y-67638587D01*
X69444500Y-67841530D01*
X69005499Y-67841530D01*
X68965130Y-67638580D01*
X68885941Y-67447402D01*
X68770977Y-67275345D01*
X68770975Y-67275342D01*
X68624657Y-67129024D01*
X68456655Y-67016770D01*
X68452598Y-67014059D01*
X68390239Y-66988229D01*
X68261420Y-66934870D01*
X68261412Y-66934868D01*
X68058469Y-66894500D01*
X68058465Y-66894500D01*
X67851535Y-66894500D01*
X67851530Y-66894500D01*
X67648587Y-66934868D01*
X67648579Y-66934870D01*
X67457403Y-67014058D01*
X67285342Y-67129024D01*
X67139024Y-67275342D01*
X67024058Y-67447403D01*
X66944870Y-67638579D01*
X66944868Y-67638587D01*
X66904500Y-67841530D01*
X66465499Y-67841530D01*
X66425130Y-67638580D01*
X66345941Y-67447402D01*
X66230977Y-67275345D01*
X66230975Y-67275342D01*
X66084657Y-67129024D01*
X65916655Y-67016770D01*
X65912598Y-67014059D01*
X65850239Y-66988229D01*
X65721420Y-66934870D01*
X65721412Y-66934868D01*
X65518469Y-66894500D01*
X65518465Y-66894500D01*
X65311535Y-66894500D01*
X65311530Y-66894500D01*
X65108587Y-66934868D01*
X65108579Y-66934870D01*
X64917403Y-67014058D01*
X64745342Y-67129024D01*
X64599024Y-67275342D01*
X64484058Y-67447403D01*
X64404870Y-67638579D01*
X64404868Y-67638587D01*
X64364500Y-67841530D01*
X63925499Y-67841530D01*
X63885130Y-67638580D01*
X63805941Y-67447402D01*
X63690977Y-67275345D01*
X63690975Y-67275342D01*
X63544657Y-67129024D01*
X63376655Y-67016770D01*
X63372598Y-67014059D01*
X63310239Y-66988229D01*
X63181420Y-66934870D01*
X63181412Y-66934868D01*
X62978469Y-66894500D01*
X62978465Y-66894500D01*
X62771535Y-66894500D01*
X62771530Y-66894500D01*
X62568587Y-66934868D01*
X62568579Y-66934870D01*
X62377403Y-67014058D01*
X62205342Y-67129024D01*
X62059024Y-67275342D01*
X61944058Y-67447403D01*
X61864870Y-67638579D01*
X61864868Y-67638587D01*
X61824500Y-67841530D01*
X61385499Y-67841530D01*
X61345130Y-67638580D01*
X61265941Y-67447402D01*
X61150977Y-67275345D01*
X61150975Y-67275342D01*
X61004657Y-67129024D01*
X60836655Y-67016770D01*
X60832598Y-67014059D01*
X60770239Y-66988229D01*
X60641420Y-66934870D01*
X60641412Y-66934868D01*
X60438469Y-66894500D01*
X60438465Y-66894500D01*
X60231535Y-66894500D01*
X60231530Y-66894500D01*
X60028587Y-66934868D01*
X60028579Y-66934870D01*
X59837403Y-67014058D01*
X59665342Y-67129024D01*
X59519024Y-67275342D01*
X59404058Y-67447403D01*
X59324870Y-67638579D01*
X59324868Y-67638587D01*
X59284500Y-67841530D01*
X58845499Y-67841530D01*
X58805130Y-67638580D01*
X58725941Y-67447402D01*
X58610977Y-67275345D01*
X58610975Y-67275342D01*
X58464657Y-67129024D01*
X58296655Y-67016770D01*
X58292598Y-67014059D01*
X58230239Y-66988229D01*
X58101420Y-66934870D01*
X58101412Y-66934868D01*
X57898469Y-66894500D01*
X57898465Y-66894500D01*
X57691535Y-66894500D01*
X57691530Y-66894500D01*
X57488587Y-66934868D01*
X57488579Y-66934870D01*
X57297403Y-67014058D01*
X57125342Y-67129024D01*
X56979024Y-67275342D01*
X56864058Y-67447403D01*
X56784870Y-67638579D01*
X56784868Y-67638587D01*
X56744500Y-67841530D01*
X56305499Y-67841530D01*
X56265130Y-67638580D01*
X56185941Y-67447402D01*
X56070977Y-67275345D01*
X56070975Y-67275342D01*
X55924657Y-67129024D01*
X55756655Y-67016770D01*
X55752598Y-67014059D01*
X55690239Y-66988229D01*
X55561420Y-66934870D01*
X55561412Y-66934868D01*
X55358469Y-66894500D01*
X55358465Y-66894500D01*
X55151535Y-66894500D01*
X55151530Y-66894500D01*
X54948587Y-66934868D01*
X54948579Y-66934870D01*
X54757403Y-67014058D01*
X54585342Y-67129024D01*
X54439024Y-67275342D01*
X54324058Y-67447403D01*
X54244870Y-67638579D01*
X54244868Y-67638587D01*
X54204500Y-67841530D01*
X53765500Y-67841530D01*
X53765500Y-67075249D01*
X53765499Y-67075247D01*
X53753868Y-67016770D01*
X53753867Y-67016769D01*
X53709552Y-66950447D01*
X53643230Y-66906132D01*
X53643229Y-66906131D01*
X53584752Y-66894500D01*
X53584748Y-66894500D01*
X51845252Y-66894500D01*
X51845247Y-66894500D01*
X51786770Y-66906131D01*
X51786769Y-66906132D01*
X51720447Y-66950447D01*
X51676132Y-67016769D01*
X51676131Y-67016770D01*
X51664500Y-67075247D01*
X51300500Y-67075247D01*
X51300500Y-66531258D01*
X130685500Y-66531258D01*
X130685500Y-66760741D01*
X130694583Y-66829727D01*
X130715452Y-66988238D01*
X130738767Y-67075252D01*
X130774842Y-67209887D01*
X130862650Y-67421876D01*
X130862657Y-67421890D01*
X130977392Y-67620617D01*
X131117081Y-67802661D01*
X131117089Y-67802670D01*
X131279330Y-67964911D01*
X131279338Y-67964918D01*
X131461382Y-68104607D01*
X131461385Y-68104608D01*
X131461388Y-68104611D01*
X131660112Y-68219344D01*
X131660117Y-68219346D01*
X131660123Y-68219349D01*
X131670116Y-68223488D01*
X131872113Y-68307158D01*
X132093762Y-68366548D01*
X132321266Y-68396500D01*
X132321273Y-68396500D01*
X132550727Y-68396500D01*
X132550734Y-68396500D01*
X132778238Y-68366548D01*
X132999887Y-68307158D01*
X133211888Y-68219344D01*
X133410612Y-68104611D01*
X133592661Y-67964919D01*
X133592665Y-67964914D01*
X133592670Y-67964911D01*
X133754911Y-67802670D01*
X133754914Y-67802665D01*
X133754919Y-67802661D01*
X133894611Y-67620612D01*
X134009344Y-67421888D01*
X134097158Y-67209887D01*
X134156548Y-66988238D01*
X134186500Y-66760734D01*
X134186500Y-66531266D01*
X134156548Y-66303762D01*
X134097158Y-66082113D01*
X134009344Y-65870112D01*
X133894611Y-65671388D01*
X133894608Y-65671385D01*
X133894607Y-65671382D01*
X133754918Y-65489338D01*
X133754911Y-65489330D01*
X133592670Y-65327089D01*
X133592661Y-65327081D01*
X133410617Y-65187392D01*
X133211890Y-65072657D01*
X133211876Y-65072650D01*
X132999887Y-64984842D01*
X132778238Y-64925452D01*
X132740215Y-64920446D01*
X132550741Y-64895500D01*
X132550734Y-64895500D01*
X132321266Y-64895500D01*
X132321258Y-64895500D01*
X132104715Y-64924009D01*
X132093762Y-64925452D01*
X132000076Y-64950554D01*
X131872112Y-64984842D01*
X131660123Y-65072650D01*
X131660109Y-65072657D01*
X131461382Y-65187392D01*
X131279338Y-65327081D01*
X131117081Y-65489338D01*
X130977392Y-65671382D01*
X130862657Y-65870109D01*
X130862650Y-65870123D01*
X130774842Y-66082112D01*
X130715453Y-66303759D01*
X130715451Y-66303770D01*
X130685500Y-66531258D01*
X51300500Y-66531258D01*
X51300500Y-64404549D01*
X127585500Y-64404549D01*
X127585500Y-64627450D01*
X127585501Y-64627466D01*
X127614594Y-64848452D01*
X127614595Y-64848457D01*
X127614596Y-64848463D01*
X127654135Y-64996025D01*
X127672290Y-65063780D01*
X127672293Y-65063790D01*
X127757593Y-65269722D01*
X127757595Y-65269726D01*
X127869052Y-65462774D01*
X127869057Y-65462780D01*
X127869058Y-65462782D01*
X128004751Y-65639622D01*
X128004757Y-65639629D01*
X128162370Y-65797242D01*
X128162376Y-65797247D01*
X128339226Y-65932948D01*
X128532274Y-66044405D01*
X128738219Y-66129710D01*
X128953537Y-66187404D01*
X129174543Y-66216500D01*
X129174550Y-66216500D01*
X129397450Y-66216500D01*
X129397457Y-66216500D01*
X129618463Y-66187404D01*
X129833781Y-66129710D01*
X130039726Y-66044405D01*
X130232774Y-65932948D01*
X130409624Y-65797247D01*
X130567247Y-65639624D01*
X130702948Y-65462774D01*
X130814405Y-65269726D01*
X130899710Y-65063781D01*
X130957404Y-64848463D01*
X130986500Y-64627457D01*
X130986500Y-64417577D01*
X137535500Y-64417577D01*
X137535500Y-64614422D01*
X137566290Y-64808826D01*
X137627117Y-64996029D01*
X137707770Y-65154318D01*
X137716476Y-65171405D01*
X137832172Y-65330646D01*
X137971354Y-65469828D01*
X138130595Y-65585524D01*
X138213455Y-65627743D01*
X138305970Y-65674882D01*
X138305972Y-65674882D01*
X138305975Y-65674884D01*
X138406317Y-65707487D01*
X138493173Y-65735709D01*
X138687578Y-65766500D01*
X138687583Y-65766500D01*
X138884422Y-65766500D01*
X139078826Y-65735709D01*
X139266025Y-65674884D01*
X139441405Y-65585524D01*
X139600646Y-65469828D01*
X139739828Y-65330646D01*
X139855524Y-65171405D01*
X139864230Y-65154317D01*
X139912203Y-65103521D01*
X139980024Y-65086724D01*
X140046159Y-65109260D01*
X140089277Y-65163157D01*
X140188404Y-65402471D01*
X140188409Y-65402482D01*
X140319488Y-65629516D01*
X140319494Y-65629524D01*
X140406080Y-65742365D01*
X141308421Y-64840024D01*
X141321359Y-64871258D01*
X141403437Y-64994097D01*
X141507903Y-65098563D01*
X141630742Y-65180641D01*
X141661974Y-65193577D01*
X140759633Y-66095917D01*
X140759633Y-66095918D01*
X140872475Y-66182505D01*
X140872483Y-66182511D01*
X141099517Y-66313590D01*
X141099528Y-66313595D01*
X141341744Y-66413924D01*
X141594979Y-66481777D01*
X141594990Y-66481779D01*
X141854905Y-66515999D01*
X141854920Y-66516000D01*
X142117080Y-66516000D01*
X142117094Y-66515999D01*
X142377009Y-66481779D01*
X142377020Y-66481777D01*
X142630255Y-66413924D01*
X142872471Y-66313595D01*
X142872482Y-66313590D01*
X143099516Y-66182511D01*
X143099534Y-66182499D01*
X143212365Y-66095919D01*
X143212365Y-66095917D01*
X142310025Y-65193578D01*
X142341258Y-65180641D01*
X142464097Y-65098563D01*
X142568563Y-64994097D01*
X142650641Y-64871258D01*
X142663577Y-64840025D01*
X143565917Y-65742365D01*
X143565919Y-65742365D01*
X143652499Y-65629534D01*
X143652511Y-65629516D01*
X143783590Y-65402482D01*
X143783595Y-65402471D01*
X143883924Y-65160255D01*
X143951777Y-64907020D01*
X143951779Y-64907009D01*
X143985999Y-64647094D01*
X143986000Y-64647080D01*
X143986000Y-64384919D01*
X143985999Y-64384905D01*
X143951779Y-64124990D01*
X143951777Y-64124979D01*
X143883924Y-63871744D01*
X143783595Y-63629528D01*
X143783590Y-63629517D01*
X143652511Y-63402483D01*
X143652505Y-63402475D01*
X143565918Y-63289633D01*
X143565917Y-63289633D01*
X142663577Y-64191973D01*
X142650641Y-64160742D01*
X142568563Y-64037903D01*
X142464097Y-63933437D01*
X142341258Y-63851359D01*
X142310023Y-63838421D01*
X143212365Y-62936080D01*
X143099524Y-62849494D01*
X143099516Y-62849488D01*
X142872482Y-62718409D01*
X142872471Y-62718404D01*
X142630255Y-62618075D01*
X142377020Y-62550222D01*
X142377009Y-62550220D01*
X142117094Y-62516000D01*
X141854905Y-62516000D01*
X141594990Y-62550220D01*
X141594979Y-62550222D01*
X141341744Y-62618075D01*
X141099528Y-62718404D01*
X141099517Y-62718409D01*
X140872471Y-62849496D01*
X140759633Y-62936079D01*
X140759633Y-62936080D01*
X141661974Y-63838421D01*
X141630742Y-63851359D01*
X141507903Y-63933437D01*
X141403437Y-64037903D01*
X141321359Y-64160742D01*
X141308421Y-64191974D01*
X140406080Y-63289633D01*
X140406079Y-63289633D01*
X140319496Y-63402471D01*
X140188409Y-63629517D01*
X140188404Y-63629528D01*
X140089277Y-63868842D01*
X140045436Y-63923245D01*
X139979142Y-63945310D01*
X139911442Y-63928031D01*
X139864231Y-63877683D01*
X139855525Y-63860596D01*
X139838144Y-63836674D01*
X139739828Y-63701354D01*
X139600646Y-63562172D01*
X139441405Y-63446476D01*
X139266029Y-63357117D01*
X139078826Y-63296290D01*
X138884422Y-63265500D01*
X138884417Y-63265500D01*
X138687583Y-63265500D01*
X138687578Y-63265500D01*
X138493173Y-63296290D01*
X138305970Y-63357117D01*
X138130594Y-63446476D01*
X138039741Y-63512485D01*
X137971354Y-63562172D01*
X137971352Y-63562174D01*
X137971351Y-63562174D01*
X137832174Y-63701351D01*
X137832174Y-63701352D01*
X137832172Y-63701354D01*
X137787912Y-63762273D01*
X137716476Y-63860594D01*
X137627117Y-64035970D01*
X137566290Y-64223173D01*
X137535500Y-64417577D01*
X130986500Y-64417577D01*
X130986500Y-64404543D01*
X130957404Y-64183537D01*
X130899710Y-63968219D01*
X130814405Y-63762274D01*
X130702948Y-63569226D01*
X130608759Y-63446476D01*
X130567248Y-63392377D01*
X130567242Y-63392370D01*
X130409629Y-63234757D01*
X130409622Y-63234751D01*
X130232782Y-63099058D01*
X130232780Y-63099056D01*
X130232774Y-63099052D01*
X130232769Y-63099049D01*
X130232766Y-63099047D01*
X130219555Y-63091420D01*
X130039726Y-62987595D01*
X130039722Y-62987593D01*
X129833790Y-62902293D01*
X129833783Y-62902291D01*
X129833781Y-62902290D01*
X129618463Y-62844596D01*
X129618457Y-62844595D01*
X129618452Y-62844594D01*
X129397466Y-62815501D01*
X129397463Y-62815500D01*
X129397457Y-62815500D01*
X129174543Y-62815500D01*
X129174537Y-62815500D01*
X129174533Y-62815501D01*
X128953547Y-62844594D01*
X128953540Y-62844595D01*
X128953537Y-62844596D01*
X128738219Y-62902290D01*
X128738209Y-62902293D01*
X128532277Y-62987593D01*
X128532273Y-62987595D01*
X128339226Y-63099052D01*
X128339217Y-63099058D01*
X128162377Y-63234751D01*
X128162370Y-63234757D01*
X128004757Y-63392370D01*
X128004751Y-63392377D01*
X127869058Y-63569217D01*
X127869052Y-63569226D01*
X127757595Y-63762273D01*
X127757593Y-63762277D01*
X127672293Y-63968209D01*
X127672290Y-63968219D01*
X127630287Y-64124979D01*
X127614597Y-64183534D01*
X127614594Y-64183547D01*
X127585501Y-64404533D01*
X127585500Y-64404549D01*
X51300500Y-64404549D01*
X51300500Y-60065389D01*
X116200500Y-60065389D01*
X116200500Y-60238611D01*
X116227598Y-60409701D01*
X116281127Y-60574445D01*
X116359768Y-60728788D01*
X116461586Y-60868928D01*
X116584072Y-60991414D01*
X116724212Y-61093232D01*
X116878555Y-61171873D01*
X117043299Y-61225402D01*
X117214389Y-61252500D01*
X117214390Y-61252500D01*
X117387610Y-61252500D01*
X117387611Y-61252500D01*
X117558701Y-61225402D01*
X117723445Y-61171873D01*
X117877788Y-61093232D01*
X118017928Y-60991414D01*
X118140414Y-60868928D01*
X118242232Y-60728788D01*
X118320873Y-60574445D01*
X118374402Y-60409701D01*
X118401500Y-60238611D01*
X118401500Y-60065389D01*
X118700500Y-60065389D01*
X118700500Y-60238611D01*
X118727598Y-60409701D01*
X118781127Y-60574445D01*
X118859768Y-60728788D01*
X118961586Y-60868928D01*
X119084072Y-60991414D01*
X119224212Y-61093232D01*
X119378555Y-61171873D01*
X119543299Y-61225402D01*
X119714389Y-61252500D01*
X119714390Y-61252500D01*
X119887610Y-61252500D01*
X119887611Y-61252500D01*
X120058701Y-61225402D01*
X120223445Y-61171873D01*
X120377788Y-61093232D01*
X120517928Y-60991414D01*
X120640414Y-60868928D01*
X120742232Y-60728788D01*
X120773712Y-60667003D01*
X120821685Y-60616208D01*
X120889506Y-60599412D01*
X120955641Y-60621949D01*
X120999093Y-60676663D01*
X121002128Y-60684980D01*
X121003567Y-60689410D01*
X121103611Y-60885756D01*
X121149932Y-60949513D01*
X121818037Y-60281408D01*
X121835075Y-60344993D01*
X121900901Y-60459007D01*
X121993993Y-60552099D01*
X122108007Y-60617925D01*
X122171590Y-60634962D01*
X121503485Y-61303065D01*
X121503485Y-61303066D01*
X121567243Y-61349388D01*
X121763589Y-61449432D01*
X121973164Y-61517526D01*
X122190819Y-61552000D01*
X122411181Y-61552000D01*
X122628835Y-61517526D01*
X122838410Y-61449432D01*
X123034760Y-61349386D01*
X123098513Y-61303066D01*
X123098514Y-61303066D01*
X122430409Y-60634962D01*
X122493993Y-60617925D01*
X122608007Y-60552099D01*
X122701099Y-60459007D01*
X122766925Y-60344993D01*
X122783962Y-60281410D01*
X123452066Y-60949514D01*
X123452066Y-60949513D01*
X123498386Y-60885760D01*
X123598432Y-60689410D01*
X123666526Y-60479835D01*
X123701000Y-60262181D01*
X123701000Y-60065389D01*
X134575500Y-60065389D01*
X134575500Y-60238611D01*
X134602598Y-60409701D01*
X134656127Y-60574445D01*
X134734768Y-60728788D01*
X134836586Y-60868928D01*
X134959072Y-60991414D01*
X135099212Y-61093232D01*
X135253555Y-61171873D01*
X135418299Y-61225402D01*
X135589389Y-61252500D01*
X135589390Y-61252500D01*
X135762610Y-61252500D01*
X135762611Y-61252500D01*
X135933701Y-61225402D01*
X136098445Y-61171873D01*
X136252788Y-61093232D01*
X136392928Y-60991414D01*
X136515414Y-60868928D01*
X136617232Y-60728788D01*
X136695873Y-60574445D01*
X136749402Y-60409701D01*
X136776500Y-60238611D01*
X136776500Y-60065389D01*
X137075500Y-60065389D01*
X137075500Y-60238611D01*
X137102598Y-60409701D01*
X137156127Y-60574445D01*
X137234768Y-60728788D01*
X137336586Y-60868928D01*
X137459072Y-60991414D01*
X137599212Y-61093232D01*
X137753555Y-61171873D01*
X137918299Y-61225402D01*
X138089389Y-61252500D01*
X138089390Y-61252500D01*
X138262610Y-61252500D01*
X138262611Y-61252500D01*
X138433701Y-61225402D01*
X138598445Y-61171873D01*
X138752788Y-61093232D01*
X138892928Y-60991414D01*
X139015414Y-60868928D01*
X139117232Y-60728788D01*
X139148712Y-60667003D01*
X139196685Y-60616208D01*
X139264506Y-60599412D01*
X139330641Y-60621949D01*
X139374093Y-60676663D01*
X139377128Y-60684980D01*
X139378567Y-60689410D01*
X139478611Y-60885756D01*
X139524932Y-60949513D01*
X140193037Y-60281408D01*
X140210075Y-60344993D01*
X140275901Y-60459007D01*
X140368993Y-60552099D01*
X140483007Y-60617925D01*
X140546590Y-60634962D01*
X139878485Y-61303065D01*
X139878485Y-61303066D01*
X139942243Y-61349388D01*
X140138589Y-61449432D01*
X140348164Y-61517526D01*
X140565819Y-61552000D01*
X140786181Y-61552000D01*
X141003835Y-61517526D01*
X141213410Y-61449432D01*
X141409760Y-61349386D01*
X141473513Y-61303066D01*
X141473514Y-61303066D01*
X140805409Y-60634962D01*
X140868993Y-60617925D01*
X140983007Y-60552099D01*
X141076099Y-60459007D01*
X141141925Y-60344993D01*
X141158962Y-60281409D01*
X141827066Y-60949514D01*
X141827066Y-60949513D01*
X141873386Y-60885760D01*
X141973432Y-60689410D01*
X142041526Y-60479835D01*
X142076000Y-60262181D01*
X142076000Y-60041818D01*
X142041526Y-59824164D01*
X141973432Y-59614589D01*
X141873388Y-59418243D01*
X141827066Y-59354485D01*
X141827065Y-59354485D01*
X141158962Y-60022589D01*
X141141925Y-59959007D01*
X141076099Y-59844993D01*
X140983007Y-59751901D01*
X140868993Y-59686075D01*
X140805407Y-59669037D01*
X141473513Y-59000932D01*
X141409756Y-58954611D01*
X141213410Y-58854567D01*
X141003835Y-58786473D01*
X140786181Y-58752000D01*
X140565819Y-58752000D01*
X140348164Y-58786473D01*
X140138589Y-58854567D01*
X139942233Y-58954616D01*
X139878485Y-59000931D01*
X139878485Y-59000932D01*
X140546590Y-59669037D01*
X140483007Y-59686075D01*
X140368993Y-59751901D01*
X140275901Y-59844993D01*
X140210075Y-59959007D01*
X140193037Y-60022590D01*
X139524932Y-59354485D01*
X139524931Y-59354485D01*
X139478616Y-59418233D01*
X139378566Y-59614590D01*
X139377127Y-59619022D01*
X139337688Y-59676697D01*
X139273329Y-59703893D01*
X139204482Y-59691977D01*
X139153008Y-59644731D01*
X139148712Y-59636995D01*
X139117233Y-59575213D01*
X139101937Y-59554160D01*
X139015414Y-59435072D01*
X138892928Y-59312586D01*
X138752788Y-59210768D01*
X138598445Y-59132127D01*
X138433701Y-59078598D01*
X138433699Y-59078597D01*
X138433698Y-59078597D01*
X138302271Y-59057781D01*
X138262611Y-59051500D01*
X138089389Y-59051500D01*
X138049728Y-59057781D01*
X137918302Y-59078597D01*
X137753552Y-59132128D01*
X137599211Y-59210768D01*
X137519256Y-59268859D01*
X137459072Y-59312586D01*
X137459070Y-59312588D01*
X137459069Y-59312588D01*
X137336588Y-59435069D01*
X137336588Y-59435070D01*
X137336586Y-59435072D01*
X137292859Y-59495256D01*
X137234768Y-59575211D01*
X137156128Y-59729552D01*
X137102597Y-59894302D01*
X137092349Y-59959007D01*
X137075500Y-60065389D01*
X136776500Y-60065389D01*
X136749402Y-59894299D01*
X136695873Y-59729555D01*
X136617232Y-59575212D01*
X136515414Y-59435072D01*
X136392928Y-59312586D01*
X136252788Y-59210768D01*
X136098445Y-59132127D01*
X135933701Y-59078598D01*
X135933699Y-59078597D01*
X135933698Y-59078597D01*
X135802271Y-59057781D01*
X135762611Y-59051500D01*
X135589389Y-59051500D01*
X135549728Y-59057781D01*
X135418302Y-59078597D01*
X135253552Y-59132128D01*
X135099211Y-59210768D01*
X135019256Y-59268859D01*
X134959072Y-59312586D01*
X134959070Y-59312588D01*
X134959069Y-59312588D01*
X134836588Y-59435069D01*
X134836588Y-59435070D01*
X134836586Y-59435072D01*
X134792859Y-59495256D01*
X134734768Y-59575211D01*
X134656128Y-59729552D01*
X134602597Y-59894302D01*
X134592349Y-59959007D01*
X134575500Y-60065389D01*
X123701000Y-60065389D01*
X123701000Y-60041818D01*
X123666526Y-59824164D01*
X123598432Y-59614589D01*
X123498388Y-59418243D01*
X123452066Y-59354485D01*
X123452065Y-59354485D01*
X122783962Y-60022589D01*
X122766925Y-59959007D01*
X122701099Y-59844993D01*
X122608007Y-59751901D01*
X122493993Y-59686075D01*
X122430407Y-59669037D01*
X123098513Y-59000932D01*
X123034756Y-58954611D01*
X122838410Y-58854567D01*
X122628835Y-58786473D01*
X122411181Y-58752000D01*
X122190819Y-58752000D01*
X121973164Y-58786473D01*
X121763589Y-58854567D01*
X121567233Y-58954616D01*
X121503485Y-59000931D01*
X121503485Y-59000932D01*
X122171590Y-59669037D01*
X122108007Y-59686075D01*
X121993993Y-59751901D01*
X121900901Y-59844993D01*
X121835075Y-59959007D01*
X121818037Y-60022590D01*
X121149932Y-59354485D01*
X121149931Y-59354485D01*
X121103616Y-59418233D01*
X121003566Y-59614590D01*
X121002127Y-59619022D01*
X120962688Y-59676697D01*
X120898329Y-59703893D01*
X120829482Y-59691977D01*
X120778008Y-59644731D01*
X120773712Y-59636995D01*
X120742233Y-59575213D01*
X120726937Y-59554160D01*
X120640414Y-59435072D01*
X120517928Y-59312586D01*
X120377788Y-59210768D01*
X120223445Y-59132127D01*
X120058701Y-59078598D01*
X120058699Y-59078597D01*
X120058698Y-59078597D01*
X119927271Y-59057781D01*
X119887611Y-59051500D01*
X119714389Y-59051500D01*
X119674728Y-59057781D01*
X119543302Y-59078597D01*
X119378552Y-59132128D01*
X119224211Y-59210768D01*
X119144256Y-59268859D01*
X119084072Y-59312586D01*
X119084070Y-59312588D01*
X119084069Y-59312588D01*
X118961588Y-59435069D01*
X118961588Y-59435070D01*
X118961586Y-59435072D01*
X118917859Y-59495256D01*
X118859768Y-59575211D01*
X118781128Y-59729552D01*
X118727597Y-59894302D01*
X118717349Y-59959007D01*
X118700500Y-60065389D01*
X118401500Y-60065389D01*
X118374402Y-59894299D01*
X118320873Y-59729555D01*
X118242232Y-59575212D01*
X118140414Y-59435072D01*
X118017928Y-59312586D01*
X117877788Y-59210768D01*
X117723445Y-59132127D01*
X117558701Y-59078598D01*
X117558699Y-59078597D01*
X117558698Y-59078597D01*
X117427271Y-59057781D01*
X117387611Y-59051500D01*
X117214389Y-59051500D01*
X117174728Y-59057781D01*
X117043302Y-59078597D01*
X116878552Y-59132128D01*
X116724211Y-59210768D01*
X116644256Y-59268859D01*
X116584072Y-59312586D01*
X116584070Y-59312588D01*
X116584069Y-59312588D01*
X116461588Y-59435069D01*
X116461588Y-59435070D01*
X116461586Y-59435072D01*
X116417859Y-59495256D01*
X116359768Y-59575211D01*
X116281128Y-59729552D01*
X116227597Y-59894302D01*
X116217349Y-59959007D01*
X116200500Y-60065389D01*
X51300500Y-60065389D01*
X51300500Y-53419014D01*
X51320185Y-53351975D01*
X51372989Y-53306220D01*
X51442147Y-53296276D01*
X51505703Y-53325301D01*
X51534985Y-53362719D01*
X51560375Y-53412550D01*
X51599728Y-53466716D01*
X52191212Y-52875233D01*
X52202482Y-52917292D01*
X52274890Y-53042708D01*
X52377292Y-53145110D01*
X52502708Y-53217518D01*
X52544765Y-53228787D01*
X51953282Y-53820269D01*
X51953282Y-53820270D01*
X52007449Y-53859624D01*
X52196782Y-53956095D01*
X52398870Y-54021757D01*
X52608754Y-54055000D01*
X52821246Y-54055000D01*
X53031127Y-54021757D01*
X53031130Y-54021757D01*
X53233217Y-53956095D01*
X53422554Y-53859622D01*
X53476716Y-53820270D01*
X53476717Y-53820270D01*
X52885233Y-53228787D01*
X52927292Y-53217518D01*
X53052708Y-53145110D01*
X53155110Y-53042708D01*
X53227518Y-52917292D01*
X53238787Y-52875234D01*
X53830270Y-53466717D01*
X53830270Y-53466716D01*
X53869622Y-53412554D01*
X53966095Y-53223217D01*
X54023343Y-53047026D01*
X54062780Y-52989351D01*
X54127139Y-52962152D01*
X54195985Y-52974066D01*
X54247461Y-53021310D01*
X54255835Y-53037891D01*
X54324058Y-53202596D01*
X54439024Y-53374657D01*
X54585342Y-53520975D01*
X54585345Y-53520977D01*
X54757402Y-53635941D01*
X54948580Y-53715130D01*
X55151530Y-53755499D01*
X55151534Y-53755500D01*
X55151535Y-53755500D01*
X55358466Y-53755500D01*
X55358467Y-53755499D01*
X55561420Y-53715130D01*
X55752598Y-53635941D01*
X55924655Y-53520977D01*
X56070977Y-53374655D01*
X56185941Y-53202598D01*
X56265130Y-53011420D01*
X56305500Y-52808465D01*
X56305500Y-52601535D01*
X56305499Y-52601530D01*
X56744500Y-52601530D01*
X56744500Y-52808469D01*
X56784868Y-53011412D01*
X56784870Y-53011420D01*
X56864058Y-53202596D01*
X56979024Y-53374657D01*
X57125342Y-53520975D01*
X57125345Y-53520977D01*
X57297402Y-53635941D01*
X57488580Y-53715130D01*
X57691530Y-53755499D01*
X57691534Y-53755500D01*
X57691535Y-53755500D01*
X57898466Y-53755500D01*
X57898467Y-53755499D01*
X58101420Y-53715130D01*
X58292598Y-53635941D01*
X58464655Y-53520977D01*
X58610977Y-53374655D01*
X58725941Y-53202598D01*
X58805130Y-53011420D01*
X58845500Y-52808465D01*
X58845500Y-52601535D01*
X58845499Y-52601530D01*
X59284500Y-52601530D01*
X59284500Y-52808469D01*
X59324868Y-53011412D01*
X59324870Y-53011420D01*
X59404058Y-53202596D01*
X59519024Y-53374657D01*
X59665342Y-53520975D01*
X59665345Y-53520977D01*
X59837402Y-53635941D01*
X60028580Y-53715130D01*
X60231530Y-53755499D01*
X60231534Y-53755500D01*
X60231535Y-53755500D01*
X60438466Y-53755500D01*
X60438467Y-53755499D01*
X60641420Y-53715130D01*
X60832598Y-53635941D01*
X61004655Y-53520977D01*
X61150977Y-53374655D01*
X61265941Y-53202598D01*
X61345130Y-53011420D01*
X61385500Y-52808465D01*
X61385500Y-52601535D01*
X61385499Y-52601530D01*
X61824500Y-52601530D01*
X61824500Y-52808469D01*
X61864868Y-53011412D01*
X61864870Y-53011420D01*
X61944058Y-53202596D01*
X62059024Y-53374657D01*
X62205342Y-53520975D01*
X62205345Y-53520977D01*
X62377402Y-53635941D01*
X62568580Y-53715130D01*
X62771530Y-53755499D01*
X62771534Y-53755500D01*
X62771535Y-53755500D01*
X62978466Y-53755500D01*
X62978467Y-53755499D01*
X63181420Y-53715130D01*
X63372598Y-53635941D01*
X63544655Y-53520977D01*
X63690977Y-53374655D01*
X63805941Y-53202598D01*
X63885130Y-53011420D01*
X63925500Y-52808465D01*
X63925500Y-52601535D01*
X63925499Y-52601530D01*
X64364500Y-52601530D01*
X64364500Y-52808469D01*
X64404868Y-53011412D01*
X64404870Y-53011420D01*
X64484058Y-53202596D01*
X64599024Y-53374657D01*
X64745342Y-53520975D01*
X64745345Y-53520977D01*
X64917402Y-53635941D01*
X65108580Y-53715130D01*
X65311530Y-53755499D01*
X65311534Y-53755500D01*
X65311535Y-53755500D01*
X65518466Y-53755500D01*
X65518467Y-53755499D01*
X65721420Y-53715130D01*
X65912598Y-53635941D01*
X66084655Y-53520977D01*
X66230977Y-53374655D01*
X66345941Y-53202598D01*
X66425130Y-53011420D01*
X66465500Y-52808465D01*
X66465500Y-52601535D01*
X66465499Y-52601530D01*
X66904500Y-52601530D01*
X66904500Y-52808469D01*
X66944868Y-53011412D01*
X66944870Y-53011420D01*
X67024058Y-53202596D01*
X67139024Y-53374657D01*
X67285342Y-53520975D01*
X67285345Y-53520977D01*
X67457402Y-53635941D01*
X67648580Y-53715130D01*
X67851530Y-53755499D01*
X67851534Y-53755500D01*
X67851535Y-53755500D01*
X68058466Y-53755500D01*
X68058467Y-53755499D01*
X68261420Y-53715130D01*
X68452598Y-53635941D01*
X68624655Y-53520977D01*
X68770977Y-53374655D01*
X68885941Y-53202598D01*
X68965130Y-53011420D01*
X69005500Y-52808465D01*
X69005500Y-52601535D01*
X69005499Y-52601530D01*
X69444500Y-52601530D01*
X69444500Y-52808469D01*
X69484868Y-53011412D01*
X69484870Y-53011420D01*
X69564058Y-53202596D01*
X69679024Y-53374657D01*
X69825342Y-53520975D01*
X69825345Y-53520977D01*
X69997402Y-53635941D01*
X70188580Y-53715130D01*
X70391530Y-53755499D01*
X70391534Y-53755500D01*
X70391535Y-53755500D01*
X70598466Y-53755500D01*
X70598467Y-53755499D01*
X70801420Y-53715130D01*
X70992598Y-53635941D01*
X71164655Y-53520977D01*
X71310977Y-53374655D01*
X71425941Y-53202598D01*
X71505130Y-53011420D01*
X71545500Y-52808465D01*
X71545500Y-52601535D01*
X71545499Y-52601530D01*
X71984500Y-52601530D01*
X71984500Y-52808469D01*
X72024868Y-53011412D01*
X72024870Y-53011420D01*
X72104058Y-53202596D01*
X72219024Y-53374657D01*
X72365342Y-53520975D01*
X72365345Y-53520977D01*
X72537402Y-53635941D01*
X72728580Y-53715130D01*
X72931530Y-53755499D01*
X72931534Y-53755500D01*
X72931535Y-53755500D01*
X73138466Y-53755500D01*
X73138467Y-53755499D01*
X73341420Y-53715130D01*
X73532598Y-53635941D01*
X73704655Y-53520977D01*
X73850977Y-53374655D01*
X73965941Y-53202598D01*
X74045130Y-53011420D01*
X74085500Y-52808465D01*
X74085500Y-52601535D01*
X74085499Y-52601530D01*
X74524500Y-52601530D01*
X74524500Y-52808469D01*
X74564868Y-53011412D01*
X74564870Y-53011420D01*
X74644058Y-53202596D01*
X74759024Y-53374657D01*
X74905342Y-53520975D01*
X74905345Y-53520977D01*
X75077402Y-53635941D01*
X75268580Y-53715130D01*
X75471530Y-53755499D01*
X75471534Y-53755500D01*
X75471535Y-53755500D01*
X75678466Y-53755500D01*
X75678467Y-53755499D01*
X75881420Y-53715130D01*
X76072598Y-53635941D01*
X76244655Y-53520977D01*
X76390977Y-53374655D01*
X76505941Y-53202598D01*
X76585130Y-53011420D01*
X76625500Y-52808465D01*
X76625500Y-52601535D01*
X76625499Y-52601530D01*
X77064500Y-52601530D01*
X77064500Y-52808469D01*
X77104868Y-53011412D01*
X77104870Y-53011420D01*
X77184058Y-53202596D01*
X77299024Y-53374657D01*
X77445342Y-53520975D01*
X77445345Y-53520977D01*
X77617402Y-53635941D01*
X77808580Y-53715130D01*
X78011530Y-53755499D01*
X78011534Y-53755500D01*
X78011535Y-53755500D01*
X78218466Y-53755500D01*
X78218467Y-53755499D01*
X78421420Y-53715130D01*
X78612598Y-53635941D01*
X78784655Y-53520977D01*
X78930977Y-53374655D01*
X79045941Y-53202598D01*
X79125130Y-53011420D01*
X79165500Y-52808465D01*
X79165500Y-52601535D01*
X79165499Y-52601530D01*
X79604500Y-52601530D01*
X79604500Y-52808469D01*
X79644868Y-53011412D01*
X79644870Y-53011420D01*
X79724058Y-53202596D01*
X79839024Y-53374657D01*
X79985342Y-53520975D01*
X79985345Y-53520977D01*
X80157402Y-53635941D01*
X80348580Y-53715130D01*
X80551530Y-53755499D01*
X80551534Y-53755500D01*
X80551535Y-53755500D01*
X80758466Y-53755500D01*
X80758467Y-53755499D01*
X80961420Y-53715130D01*
X81152598Y-53635941D01*
X81324655Y-53520977D01*
X81470977Y-53374655D01*
X81585941Y-53202598D01*
X81665130Y-53011420D01*
X81705500Y-52808465D01*
X81705500Y-52601535D01*
X81705499Y-52601530D01*
X82144500Y-52601530D01*
X82144500Y-52808469D01*
X82184868Y-53011412D01*
X82184870Y-53011420D01*
X82264058Y-53202596D01*
X82379024Y-53374657D01*
X82525342Y-53520975D01*
X82525345Y-53520977D01*
X82697402Y-53635941D01*
X82888580Y-53715130D01*
X83091530Y-53755499D01*
X83091534Y-53755500D01*
X83091535Y-53755500D01*
X83298466Y-53755500D01*
X83298467Y-53755499D01*
X83501420Y-53715130D01*
X83692598Y-53635941D01*
X83864655Y-53520977D01*
X84010977Y-53374655D01*
X84125941Y-53202598D01*
X84205130Y-53011420D01*
X84245500Y-52808465D01*
X84245500Y-52601535D01*
X84245499Y-52601530D01*
X84684500Y-52601530D01*
X84684500Y-52808469D01*
X84724868Y-53011412D01*
X84724870Y-53011420D01*
X84804058Y-53202596D01*
X84919024Y-53374657D01*
X85065342Y-53520975D01*
X85065345Y-53520977D01*
X85237402Y-53635941D01*
X85428580Y-53715130D01*
X85631530Y-53755499D01*
X85631534Y-53755500D01*
X85631535Y-53755500D01*
X85838466Y-53755500D01*
X85838467Y-53755499D01*
X86041420Y-53715130D01*
X86232598Y-53635941D01*
X86404655Y-53520977D01*
X86550977Y-53374655D01*
X86665941Y-53202598D01*
X86745130Y-53011420D01*
X86785500Y-52808465D01*
X86785500Y-52601535D01*
X86785499Y-52601530D01*
X87224500Y-52601530D01*
X87224500Y-52808469D01*
X87264868Y-53011412D01*
X87264870Y-53011420D01*
X87344058Y-53202596D01*
X87459024Y-53374657D01*
X87605342Y-53520975D01*
X87605345Y-53520977D01*
X87777402Y-53635941D01*
X87968580Y-53715130D01*
X88171530Y-53755499D01*
X88171534Y-53755500D01*
X88171535Y-53755500D01*
X88378466Y-53755500D01*
X88378467Y-53755499D01*
X88581420Y-53715130D01*
X88772598Y-53635941D01*
X88944655Y-53520977D01*
X89090977Y-53374655D01*
X89205941Y-53202598D01*
X89285130Y-53011420D01*
X89325500Y-52808465D01*
X89325500Y-52601535D01*
X89325499Y-52601530D01*
X89764500Y-52601530D01*
X89764500Y-52808469D01*
X89804868Y-53011412D01*
X89804870Y-53011420D01*
X89884058Y-53202596D01*
X89999024Y-53374657D01*
X90145342Y-53520975D01*
X90145345Y-53520977D01*
X90317402Y-53635941D01*
X90508580Y-53715130D01*
X90711530Y-53755499D01*
X90711534Y-53755500D01*
X90711535Y-53755500D01*
X90918466Y-53755500D01*
X90918467Y-53755499D01*
X91121420Y-53715130D01*
X91312598Y-53635941D01*
X91484655Y-53520977D01*
X91630977Y-53374655D01*
X91745941Y-53202598D01*
X91825130Y-53011420D01*
X91865500Y-52808465D01*
X91865500Y-52601535D01*
X91865499Y-52601530D01*
X92304500Y-52601530D01*
X92304500Y-52808469D01*
X92344868Y-53011412D01*
X92344870Y-53011420D01*
X92424058Y-53202596D01*
X92539024Y-53374657D01*
X92685342Y-53520975D01*
X92685345Y-53520977D01*
X92857402Y-53635941D01*
X93048580Y-53715130D01*
X93251530Y-53755499D01*
X93251534Y-53755500D01*
X93251535Y-53755500D01*
X93458466Y-53755500D01*
X93458467Y-53755499D01*
X93661420Y-53715130D01*
X93852598Y-53635941D01*
X94024655Y-53520977D01*
X94170977Y-53374655D01*
X94285941Y-53202598D01*
X94365130Y-53011420D01*
X94405500Y-52808465D01*
X94405500Y-52601535D01*
X94405499Y-52601530D01*
X94844500Y-52601530D01*
X94844500Y-52808469D01*
X94884868Y-53011412D01*
X94884870Y-53011420D01*
X94964058Y-53202596D01*
X95079024Y-53374657D01*
X95225342Y-53520975D01*
X95225345Y-53520977D01*
X95397402Y-53635941D01*
X95588580Y-53715130D01*
X95791530Y-53755499D01*
X95791534Y-53755500D01*
X95791535Y-53755500D01*
X95998466Y-53755500D01*
X95998467Y-53755499D01*
X96201420Y-53715130D01*
X96392598Y-53635941D01*
X96564655Y-53520977D01*
X96710977Y-53374655D01*
X96825941Y-53202598D01*
X96905130Y-53011420D01*
X96945500Y-52808465D01*
X96945500Y-52601535D01*
X96945499Y-52601530D01*
X97384500Y-52601530D01*
X97384500Y-52808469D01*
X97424868Y-53011412D01*
X97424870Y-53011420D01*
X97504058Y-53202596D01*
X97619024Y-53374657D01*
X97765342Y-53520975D01*
X97765345Y-53520977D01*
X97937402Y-53635941D01*
X98128580Y-53715130D01*
X98331530Y-53755499D01*
X98331534Y-53755500D01*
X98331535Y-53755500D01*
X98538466Y-53755500D01*
X98538467Y-53755499D01*
X98741420Y-53715130D01*
X98932598Y-53635941D01*
X99104655Y-53520977D01*
X99250977Y-53374655D01*
X99365941Y-53202598D01*
X99445130Y-53011420D01*
X99485500Y-52808465D01*
X99485500Y-52601535D01*
X99485499Y-52601530D01*
X99924500Y-52601530D01*
X99924500Y-52808469D01*
X99964868Y-53011412D01*
X99964870Y-53011420D01*
X100044058Y-53202596D01*
X100159024Y-53374657D01*
X100305342Y-53520975D01*
X100305345Y-53520977D01*
X100477402Y-53635941D01*
X100668580Y-53715130D01*
X100871530Y-53755499D01*
X100871534Y-53755500D01*
X100871535Y-53755500D01*
X101078466Y-53755500D01*
X101078467Y-53755499D01*
X101281420Y-53715130D01*
X101472598Y-53635941D01*
X101644655Y-53520977D01*
X101790977Y-53374655D01*
X101905941Y-53202598D01*
X101982742Y-53017186D01*
X113000500Y-53017186D01*
X113000500Y-53286813D01*
X113030686Y-53554719D01*
X113030688Y-53554731D01*
X113090684Y-53817594D01*
X113090687Y-53817602D01*
X113179734Y-54072082D01*
X113296714Y-54314994D01*
X113296716Y-54314997D01*
X113440162Y-54543289D01*
X113608266Y-54754085D01*
X113798915Y-54944734D01*
X114009711Y-55112838D01*
X114238003Y-55256284D01*
X114480921Y-55373267D01*
X114672049Y-55440145D01*
X114735397Y-55462312D01*
X114735405Y-55462315D01*
X114735408Y-55462315D01*
X114735409Y-55462316D01*
X114998268Y-55522312D01*
X115266187Y-55552499D01*
X115266188Y-55552500D01*
X115266191Y-55552500D01*
X115535812Y-55552500D01*
X115535812Y-55552499D01*
X115803732Y-55522312D01*
X116066591Y-55462316D01*
X116321079Y-55373267D01*
X116563997Y-55256284D01*
X116792289Y-55112838D01*
X117003085Y-54944734D01*
X117193734Y-54754085D01*
X117361838Y-54543289D01*
X117505284Y-54314997D01*
X117622267Y-54072079D01*
X117711316Y-53817591D01*
X117771312Y-53554732D01*
X117801500Y-53286809D01*
X117801500Y-53017191D01*
X117801499Y-53017186D01*
X121800500Y-53017186D01*
X121800500Y-53286813D01*
X121830686Y-53554719D01*
X121830688Y-53554731D01*
X121890684Y-53817594D01*
X121890687Y-53817602D01*
X121979734Y-54072082D01*
X122096714Y-54314994D01*
X122096716Y-54314997D01*
X122240162Y-54543289D01*
X122408266Y-54754085D01*
X122598915Y-54944734D01*
X122809711Y-55112838D01*
X123038003Y-55256284D01*
X123280921Y-55373267D01*
X123472049Y-55440145D01*
X123535397Y-55462312D01*
X123535405Y-55462315D01*
X123535408Y-55462315D01*
X123535409Y-55462316D01*
X123798268Y-55522312D01*
X124066187Y-55552499D01*
X124066188Y-55552500D01*
X124066191Y-55552500D01*
X124335812Y-55552500D01*
X124335812Y-55552499D01*
X124603732Y-55522312D01*
X124866591Y-55462316D01*
X125121079Y-55373267D01*
X125363997Y-55256284D01*
X125592289Y-55112838D01*
X125803085Y-54944734D01*
X125993734Y-54754085D01*
X126161838Y-54543289D01*
X126305284Y-54314997D01*
X126422267Y-54072079D01*
X126511316Y-53817591D01*
X126571312Y-53554732D01*
X126601500Y-53286809D01*
X126601500Y-53017191D01*
X126601499Y-53017186D01*
X131375500Y-53017186D01*
X131375500Y-53286813D01*
X131405686Y-53554719D01*
X131405688Y-53554731D01*
X131465684Y-53817594D01*
X131465687Y-53817602D01*
X131554734Y-54072082D01*
X131671714Y-54314994D01*
X131671716Y-54314997D01*
X131815162Y-54543289D01*
X131983266Y-54754085D01*
X132173915Y-54944734D01*
X132384711Y-55112838D01*
X132613003Y-55256284D01*
X132855921Y-55373267D01*
X133047049Y-55440145D01*
X133110397Y-55462312D01*
X133110405Y-55462315D01*
X133110408Y-55462315D01*
X133110409Y-55462316D01*
X133373268Y-55522312D01*
X133641187Y-55552499D01*
X133641188Y-55552500D01*
X133641191Y-55552500D01*
X133910812Y-55552500D01*
X133910812Y-55552499D01*
X134178732Y-55522312D01*
X134441591Y-55462316D01*
X134696079Y-55373267D01*
X134938997Y-55256284D01*
X135167289Y-55112838D01*
X135378085Y-54944734D01*
X135568734Y-54754085D01*
X135736838Y-54543289D01*
X135880284Y-54314997D01*
X135997267Y-54072079D01*
X136086316Y-53817591D01*
X136146312Y-53554732D01*
X136176500Y-53286809D01*
X136176500Y-53017191D01*
X136176499Y-53017186D01*
X140175500Y-53017186D01*
X140175500Y-53286813D01*
X140205686Y-53554719D01*
X140205688Y-53554731D01*
X140265684Y-53817594D01*
X140265687Y-53817602D01*
X140354734Y-54072082D01*
X140471714Y-54314994D01*
X140471716Y-54314997D01*
X140615162Y-54543289D01*
X140783266Y-54754085D01*
X140973915Y-54944734D01*
X141184711Y-55112838D01*
X141413003Y-55256284D01*
X141655921Y-55373267D01*
X141847049Y-55440145D01*
X141910397Y-55462312D01*
X141910405Y-55462315D01*
X141910408Y-55462315D01*
X141910409Y-55462316D01*
X142173268Y-55522312D01*
X142441187Y-55552499D01*
X142441188Y-55552500D01*
X142441191Y-55552500D01*
X142710812Y-55552500D01*
X142710812Y-55552499D01*
X142978732Y-55522312D01*
X143241591Y-55462316D01*
X143496079Y-55373267D01*
X143738997Y-55256284D01*
X143967289Y-55112838D01*
X144178085Y-54944734D01*
X144368734Y-54754085D01*
X144536838Y-54543289D01*
X144680284Y-54314997D01*
X144797267Y-54072079D01*
X144886316Y-53817591D01*
X144946312Y-53554732D01*
X144976500Y-53286809D01*
X144976500Y-53017191D01*
X144946312Y-52749268D01*
X144886316Y-52486409D01*
X144797267Y-52231921D01*
X144684351Y-51997449D01*
X144680285Y-51989005D01*
X144651555Y-51943282D01*
X144536838Y-51760711D01*
X144368734Y-51549915D01*
X144178085Y-51359266D01*
X143967289Y-51191162D01*
X143738997Y-51047716D01*
X143738994Y-51047714D01*
X143496082Y-50930734D01*
X143241602Y-50841687D01*
X143241594Y-50841684D01*
X143044446Y-50796687D01*
X142978732Y-50781688D01*
X142978728Y-50781687D01*
X142978719Y-50781686D01*
X142710813Y-50751500D01*
X142710809Y-50751500D01*
X142441191Y-50751500D01*
X142441186Y-50751500D01*
X142173280Y-50781686D01*
X142173268Y-50781688D01*
X141910405Y-50841684D01*
X141910397Y-50841687D01*
X141655917Y-50930734D01*
X141413005Y-51047714D01*
X141184712Y-51191161D01*
X140973915Y-51359265D01*
X140783265Y-51549915D01*
X140615161Y-51760712D01*
X140471714Y-51989005D01*
X140354734Y-52231917D01*
X140265687Y-52486397D01*
X140265684Y-52486405D01*
X140205688Y-52749268D01*
X140205686Y-52749280D01*
X140175500Y-53017186D01*
X136176499Y-53017186D01*
X136146312Y-52749268D01*
X136086316Y-52486409D01*
X135997267Y-52231921D01*
X135884351Y-51997449D01*
X135880285Y-51989005D01*
X135851555Y-51943282D01*
X135736838Y-51760711D01*
X135568734Y-51549915D01*
X135378085Y-51359266D01*
X135167289Y-51191162D01*
X134938997Y-51047716D01*
X134938994Y-51047714D01*
X134696082Y-50930734D01*
X134441602Y-50841687D01*
X134441594Y-50841684D01*
X134244446Y-50796687D01*
X134178732Y-50781688D01*
X134178728Y-50781687D01*
X134178719Y-50781686D01*
X133910813Y-50751500D01*
X133910809Y-50751500D01*
X133641191Y-50751500D01*
X133641186Y-50751500D01*
X133373280Y-50781686D01*
X133373268Y-50781688D01*
X133110405Y-50841684D01*
X133110397Y-50841687D01*
X132855917Y-50930734D01*
X132613005Y-51047714D01*
X132384712Y-51191161D01*
X132173915Y-51359265D01*
X131983265Y-51549915D01*
X131815161Y-51760712D01*
X131671714Y-51989005D01*
X131554734Y-52231917D01*
X131465687Y-52486397D01*
X131465684Y-52486405D01*
X131405688Y-52749268D01*
X131405686Y-52749280D01*
X131375500Y-53017186D01*
X126601499Y-53017186D01*
X126571312Y-52749268D01*
X126511316Y-52486409D01*
X126422267Y-52231921D01*
X126309351Y-51997449D01*
X126305285Y-51989005D01*
X126276555Y-51943282D01*
X126161838Y-51760711D01*
X125993734Y-51549915D01*
X125803085Y-51359266D01*
X125592289Y-51191162D01*
X125363997Y-51047716D01*
X125363994Y-51047714D01*
X125121082Y-50930734D01*
X124866602Y-50841687D01*
X124866594Y-50841684D01*
X124669446Y-50796687D01*
X124603732Y-50781688D01*
X124603728Y-50781687D01*
X124603719Y-50781686D01*
X124335813Y-50751500D01*
X124335809Y-50751500D01*
X124066191Y-50751500D01*
X124066186Y-50751500D01*
X123798280Y-50781686D01*
X123798268Y-50781688D01*
X123535405Y-50841684D01*
X123535397Y-50841687D01*
X123280917Y-50930734D01*
X123038005Y-51047714D01*
X122809712Y-51191161D01*
X122598915Y-51359265D01*
X122408265Y-51549915D01*
X122240161Y-51760712D01*
X122096714Y-51989005D01*
X121979734Y-52231917D01*
X121890687Y-52486397D01*
X121890684Y-52486405D01*
X121830688Y-52749268D01*
X121830686Y-52749280D01*
X121800500Y-53017186D01*
X117801499Y-53017186D01*
X117771312Y-52749268D01*
X117711316Y-52486409D01*
X117622267Y-52231921D01*
X117509351Y-51997449D01*
X117505285Y-51989005D01*
X117476555Y-51943282D01*
X117361838Y-51760711D01*
X117193734Y-51549915D01*
X117003085Y-51359266D01*
X116792289Y-51191162D01*
X116563997Y-51047716D01*
X116563994Y-51047714D01*
X116321082Y-50930734D01*
X116066602Y-50841687D01*
X116066594Y-50841684D01*
X115869446Y-50796687D01*
X115803732Y-50781688D01*
X115803728Y-50781687D01*
X115803719Y-50781686D01*
X115535813Y-50751500D01*
X115535809Y-50751500D01*
X115266191Y-50751500D01*
X115266186Y-50751500D01*
X114998280Y-50781686D01*
X114998268Y-50781688D01*
X114735405Y-50841684D01*
X114735397Y-50841687D01*
X114480917Y-50930734D01*
X114238005Y-51047714D01*
X114009712Y-51191161D01*
X113798915Y-51359265D01*
X113608265Y-51549915D01*
X113440161Y-51760712D01*
X113296714Y-51989005D01*
X113179734Y-52231917D01*
X113090687Y-52486397D01*
X113090684Y-52486405D01*
X113030688Y-52749268D01*
X113030686Y-52749280D01*
X113000500Y-53017186D01*
X101982742Y-53017186D01*
X101985130Y-53011420D01*
X102025500Y-52808465D01*
X102025500Y-52601535D01*
X101985130Y-52398580D01*
X101905941Y-52207402D01*
X101790977Y-52035345D01*
X101790975Y-52035342D01*
X101644657Y-51889024D01*
X101558626Y-51831541D01*
X101472598Y-51774059D01*
X101440373Y-51760711D01*
X101281420Y-51694870D01*
X101281412Y-51694868D01*
X101078469Y-51654500D01*
X101078465Y-51654500D01*
X100871535Y-51654500D01*
X100871530Y-51654500D01*
X100668587Y-51694868D01*
X100668579Y-51694870D01*
X100477403Y-51774058D01*
X100305342Y-51889024D01*
X100159024Y-52035342D01*
X100044058Y-52207403D01*
X99964870Y-52398579D01*
X99964868Y-52398587D01*
X99924500Y-52601530D01*
X99485499Y-52601530D01*
X99445130Y-52398580D01*
X99365941Y-52207402D01*
X99250977Y-52035345D01*
X99250975Y-52035342D01*
X99104657Y-51889024D01*
X99018626Y-51831541D01*
X98932598Y-51774059D01*
X98900373Y-51760711D01*
X98741420Y-51694870D01*
X98741412Y-51694868D01*
X98538469Y-51654500D01*
X98538465Y-51654500D01*
X98331535Y-51654500D01*
X98331530Y-51654500D01*
X98128587Y-51694868D01*
X98128579Y-51694870D01*
X97937403Y-51774058D01*
X97765342Y-51889024D01*
X97619024Y-52035342D01*
X97504058Y-52207403D01*
X97424870Y-52398579D01*
X97424868Y-52398587D01*
X97384500Y-52601530D01*
X96945499Y-52601530D01*
X96905130Y-52398580D01*
X96825941Y-52207402D01*
X96710977Y-52035345D01*
X96710975Y-52035342D01*
X96564657Y-51889024D01*
X96478626Y-51831541D01*
X96392598Y-51774059D01*
X96360373Y-51760711D01*
X96201420Y-51694870D01*
X96201412Y-51694868D01*
X95998469Y-51654500D01*
X95998465Y-51654500D01*
X95791535Y-51654500D01*
X95791530Y-51654500D01*
X95588587Y-51694868D01*
X95588579Y-51694870D01*
X95397403Y-51774058D01*
X95225342Y-51889024D01*
X95079024Y-52035342D01*
X94964058Y-52207403D01*
X94884870Y-52398579D01*
X94884868Y-52398587D01*
X94844500Y-52601530D01*
X94405499Y-52601530D01*
X94365130Y-52398580D01*
X94285941Y-52207402D01*
X94170977Y-52035345D01*
X94170975Y-52035342D01*
X94024657Y-51889024D01*
X93938626Y-51831541D01*
X93852598Y-51774059D01*
X93820373Y-51760711D01*
X93661420Y-51694870D01*
X93661412Y-51694868D01*
X93458469Y-51654500D01*
X93458465Y-51654500D01*
X93251535Y-51654500D01*
X93251530Y-51654500D01*
X93048587Y-51694868D01*
X93048579Y-51694870D01*
X92857403Y-51774058D01*
X92685342Y-51889024D01*
X92539024Y-52035342D01*
X92424058Y-52207403D01*
X92344870Y-52398579D01*
X92344868Y-52398587D01*
X92304500Y-52601530D01*
X91865499Y-52601530D01*
X91825130Y-52398580D01*
X91745941Y-52207402D01*
X91630977Y-52035345D01*
X91630975Y-52035342D01*
X91484657Y-51889024D01*
X91398626Y-51831541D01*
X91312598Y-51774059D01*
X91280373Y-51760711D01*
X91121420Y-51694870D01*
X91121412Y-51694868D01*
X90918469Y-51654500D01*
X90918465Y-51654500D01*
X90711535Y-51654500D01*
X90711530Y-51654500D01*
X90508587Y-51694868D01*
X90508579Y-51694870D01*
X90317403Y-51774058D01*
X90145342Y-51889024D01*
X89999024Y-52035342D01*
X89884058Y-52207403D01*
X89804870Y-52398579D01*
X89804868Y-52398587D01*
X89764500Y-52601530D01*
X89325499Y-52601530D01*
X89285130Y-52398580D01*
X89205941Y-52207402D01*
X89090977Y-52035345D01*
X89090975Y-52035342D01*
X88944657Y-51889024D01*
X88858626Y-51831541D01*
X88772598Y-51774059D01*
X88740373Y-51760711D01*
X88581420Y-51694870D01*
X88581412Y-51694868D01*
X88378469Y-51654500D01*
X88378465Y-51654500D01*
X88171535Y-51654500D01*
X88171530Y-51654500D01*
X87968587Y-51694868D01*
X87968579Y-51694870D01*
X87777403Y-51774058D01*
X87605342Y-51889024D01*
X87459024Y-52035342D01*
X87344058Y-52207403D01*
X87264870Y-52398579D01*
X87264868Y-52398587D01*
X87224500Y-52601530D01*
X86785499Y-52601530D01*
X86745130Y-52398580D01*
X86665941Y-52207402D01*
X86550977Y-52035345D01*
X86550975Y-52035342D01*
X86404657Y-51889024D01*
X86318626Y-51831541D01*
X86232598Y-51774059D01*
X86200373Y-51760711D01*
X86041420Y-51694870D01*
X86041412Y-51694868D01*
X85838469Y-51654500D01*
X85838465Y-51654500D01*
X85631535Y-51654500D01*
X85631530Y-51654500D01*
X85428587Y-51694868D01*
X85428579Y-51694870D01*
X85237403Y-51774058D01*
X85065342Y-51889024D01*
X84919024Y-52035342D01*
X84804058Y-52207403D01*
X84724870Y-52398579D01*
X84724868Y-52398587D01*
X84684500Y-52601530D01*
X84245499Y-52601530D01*
X84205130Y-52398580D01*
X84125941Y-52207402D01*
X84010977Y-52035345D01*
X84010975Y-52035342D01*
X83864657Y-51889024D01*
X83778626Y-51831541D01*
X83692598Y-51774059D01*
X83660373Y-51760711D01*
X83501420Y-51694870D01*
X83501412Y-51694868D01*
X83298469Y-51654500D01*
X83298465Y-51654500D01*
X83091535Y-51654500D01*
X83091530Y-51654500D01*
X82888587Y-51694868D01*
X82888579Y-51694870D01*
X82697403Y-51774058D01*
X82525342Y-51889024D01*
X82379024Y-52035342D01*
X82264058Y-52207403D01*
X82184870Y-52398579D01*
X82184868Y-52398587D01*
X82144500Y-52601530D01*
X81705499Y-52601530D01*
X81665130Y-52398580D01*
X81585941Y-52207402D01*
X81470977Y-52035345D01*
X81470975Y-52035342D01*
X81324657Y-51889024D01*
X81238626Y-51831541D01*
X81152598Y-51774059D01*
X81120373Y-51760711D01*
X80961420Y-51694870D01*
X80961412Y-51694868D01*
X80758469Y-51654500D01*
X80758465Y-51654500D01*
X80551535Y-51654500D01*
X80551530Y-51654500D01*
X80348587Y-51694868D01*
X80348579Y-51694870D01*
X80157403Y-51774058D01*
X79985342Y-51889024D01*
X79839024Y-52035342D01*
X79724058Y-52207403D01*
X79644870Y-52398579D01*
X79644868Y-52398587D01*
X79604500Y-52601530D01*
X79165499Y-52601530D01*
X79125130Y-52398580D01*
X79045941Y-52207402D01*
X78930977Y-52035345D01*
X78930975Y-52035342D01*
X78784657Y-51889024D01*
X78698626Y-51831541D01*
X78612598Y-51774059D01*
X78580373Y-51760711D01*
X78421420Y-51694870D01*
X78421412Y-51694868D01*
X78218469Y-51654500D01*
X78218465Y-51654500D01*
X78011535Y-51654500D01*
X78011530Y-51654500D01*
X77808587Y-51694868D01*
X77808579Y-51694870D01*
X77617403Y-51774058D01*
X77445342Y-51889024D01*
X77299024Y-52035342D01*
X77184058Y-52207403D01*
X77104870Y-52398579D01*
X77104868Y-52398587D01*
X77064500Y-52601530D01*
X76625499Y-52601530D01*
X76585130Y-52398580D01*
X76505941Y-52207402D01*
X76390977Y-52035345D01*
X76390975Y-52035342D01*
X76244657Y-51889024D01*
X76158626Y-51831541D01*
X76072598Y-51774059D01*
X76040373Y-51760711D01*
X75881420Y-51694870D01*
X75881412Y-51694868D01*
X75678469Y-51654500D01*
X75678465Y-51654500D01*
X75471535Y-51654500D01*
X75471530Y-51654500D01*
X75268587Y-51694868D01*
X75268579Y-51694870D01*
X75077403Y-51774058D01*
X74905342Y-51889024D01*
X74759024Y-52035342D01*
X74644058Y-52207403D01*
X74564870Y-52398579D01*
X74564868Y-52398587D01*
X74524500Y-52601530D01*
X74085499Y-52601530D01*
X74045130Y-52398580D01*
X73965941Y-52207402D01*
X73850977Y-52035345D01*
X73850975Y-52035342D01*
X73704657Y-51889024D01*
X73618626Y-51831541D01*
X73532598Y-51774059D01*
X73500373Y-51760711D01*
X73341420Y-51694870D01*
X73341412Y-51694868D01*
X73138469Y-51654500D01*
X73138465Y-51654500D01*
X72931535Y-51654500D01*
X72931530Y-51654500D01*
X72728587Y-51694868D01*
X72728579Y-51694870D01*
X72537403Y-51774058D01*
X72365342Y-51889024D01*
X72219024Y-52035342D01*
X72104058Y-52207403D01*
X72024870Y-52398579D01*
X72024868Y-52398587D01*
X71984500Y-52601530D01*
X71545499Y-52601530D01*
X71505130Y-52398580D01*
X71425941Y-52207402D01*
X71310977Y-52035345D01*
X71310975Y-52035342D01*
X71164657Y-51889024D01*
X71078626Y-51831541D01*
X70992598Y-51774059D01*
X70960373Y-51760711D01*
X70801420Y-51694870D01*
X70801412Y-51694868D01*
X70598469Y-51654500D01*
X70598465Y-51654500D01*
X70391535Y-51654500D01*
X70391530Y-51654500D01*
X70188587Y-51694868D01*
X70188579Y-51694870D01*
X69997403Y-51774058D01*
X69825342Y-51889024D01*
X69679024Y-52035342D01*
X69564058Y-52207403D01*
X69484870Y-52398579D01*
X69484868Y-52398587D01*
X69444500Y-52601530D01*
X69005499Y-52601530D01*
X68965130Y-52398580D01*
X68885941Y-52207402D01*
X68770977Y-52035345D01*
X68770975Y-52035342D01*
X68624657Y-51889024D01*
X68538626Y-51831541D01*
X68452598Y-51774059D01*
X68420373Y-51760711D01*
X68261420Y-51694870D01*
X68261412Y-51694868D01*
X68058469Y-51654500D01*
X68058465Y-51654500D01*
X67851535Y-51654500D01*
X67851530Y-51654500D01*
X67648587Y-51694868D01*
X67648579Y-51694870D01*
X67457403Y-51774058D01*
X67285342Y-51889024D01*
X67139024Y-52035342D01*
X67024058Y-52207403D01*
X66944870Y-52398579D01*
X66944868Y-52398587D01*
X66904500Y-52601530D01*
X66465499Y-52601530D01*
X66425130Y-52398580D01*
X66345941Y-52207402D01*
X66230977Y-52035345D01*
X66230975Y-52035342D01*
X66084657Y-51889024D01*
X65998626Y-51831541D01*
X65912598Y-51774059D01*
X65880373Y-51760711D01*
X65721420Y-51694870D01*
X65721412Y-51694868D01*
X65518469Y-51654500D01*
X65518465Y-51654500D01*
X65311535Y-51654500D01*
X65311530Y-51654500D01*
X65108587Y-51694868D01*
X65108579Y-51694870D01*
X64917403Y-51774058D01*
X64745342Y-51889024D01*
X64599024Y-52035342D01*
X64484058Y-52207403D01*
X64404870Y-52398579D01*
X64404868Y-52398587D01*
X64364500Y-52601530D01*
X63925499Y-52601530D01*
X63885130Y-52398580D01*
X63805941Y-52207402D01*
X63690977Y-52035345D01*
X63690975Y-52035342D01*
X63544657Y-51889024D01*
X63458626Y-51831541D01*
X63372598Y-51774059D01*
X63340373Y-51760711D01*
X63181420Y-51694870D01*
X63181412Y-51694868D01*
X62978469Y-51654500D01*
X62978465Y-51654500D01*
X62771535Y-51654500D01*
X62771530Y-51654500D01*
X62568587Y-51694868D01*
X62568579Y-51694870D01*
X62377403Y-51774058D01*
X62205342Y-51889024D01*
X62059024Y-52035342D01*
X61944058Y-52207403D01*
X61864870Y-52398579D01*
X61864868Y-52398587D01*
X61824500Y-52601530D01*
X61385499Y-52601530D01*
X61345130Y-52398580D01*
X61265941Y-52207402D01*
X61150977Y-52035345D01*
X61150975Y-52035342D01*
X61004657Y-51889024D01*
X60918626Y-51831541D01*
X60832598Y-51774059D01*
X60800373Y-51760711D01*
X60641420Y-51694870D01*
X60641412Y-51694868D01*
X60438469Y-51654500D01*
X60438465Y-51654500D01*
X60231535Y-51654500D01*
X60231530Y-51654500D01*
X60028587Y-51694868D01*
X60028579Y-51694870D01*
X59837403Y-51774058D01*
X59665342Y-51889024D01*
X59519024Y-52035342D01*
X59404058Y-52207403D01*
X59324870Y-52398579D01*
X59324868Y-52398587D01*
X59284500Y-52601530D01*
X58845499Y-52601530D01*
X58805130Y-52398580D01*
X58725941Y-52207402D01*
X58610977Y-52035345D01*
X58610975Y-52035342D01*
X58464657Y-51889024D01*
X58378626Y-51831541D01*
X58292598Y-51774059D01*
X58260373Y-51760711D01*
X58101420Y-51694870D01*
X58101412Y-51694868D01*
X57898469Y-51654500D01*
X57898465Y-51654500D01*
X57691535Y-51654500D01*
X57691530Y-51654500D01*
X57488587Y-51694868D01*
X57488579Y-51694870D01*
X57297403Y-51774058D01*
X57125342Y-51889024D01*
X56979024Y-52035342D01*
X56864058Y-52207403D01*
X56784870Y-52398579D01*
X56784868Y-52398587D01*
X56744500Y-52601530D01*
X56305499Y-52601530D01*
X56265130Y-52398580D01*
X56185941Y-52207402D01*
X56070977Y-52035345D01*
X56070975Y-52035342D01*
X55924657Y-51889024D01*
X55838626Y-51831541D01*
X55752598Y-51774059D01*
X55720373Y-51760711D01*
X55561420Y-51694870D01*
X55561412Y-51694868D01*
X55358469Y-51654500D01*
X55358465Y-51654500D01*
X55151535Y-51654500D01*
X55151530Y-51654500D01*
X54948587Y-51694868D01*
X54948579Y-51694870D01*
X54757403Y-51774058D01*
X54585342Y-51889024D01*
X54439024Y-52035342D01*
X54324057Y-52207403D01*
X54255835Y-52372108D01*
X54211994Y-52426511D01*
X54145700Y-52448576D01*
X54078000Y-52431297D01*
X54030390Y-52380159D01*
X54023343Y-52362973D01*
X53966095Y-52186782D01*
X53869624Y-51997449D01*
X53830270Y-51943282D01*
X53830269Y-51943282D01*
X53238787Y-52534765D01*
X53227518Y-52492708D01*
X53155110Y-52367292D01*
X53052708Y-52264890D01*
X52927292Y-52192482D01*
X52885233Y-52181212D01*
X53476716Y-51589728D01*
X53422550Y-51550375D01*
X53233217Y-51453904D01*
X53031129Y-51388242D01*
X52821246Y-51355000D01*
X52608754Y-51355000D01*
X52398872Y-51388242D01*
X52398869Y-51388242D01*
X52196782Y-51453904D01*
X52007439Y-51550380D01*
X51953282Y-51589727D01*
X51953282Y-51589728D01*
X52544766Y-52181212D01*
X52502708Y-52192482D01*
X52377292Y-52264890D01*
X52274890Y-52367292D01*
X52202482Y-52492708D01*
X52191212Y-52534766D01*
X51599728Y-51943282D01*
X51599727Y-51943282D01*
X51560380Y-51997440D01*
X51560378Y-51997443D01*
X51534984Y-52047282D01*
X51487010Y-52098077D01*
X51419189Y-52114872D01*
X51353054Y-52092334D01*
X51309603Y-52037619D01*
X51300500Y-51990986D01*
X51300500Y-48974014D01*
X51320185Y-48906975D01*
X51372989Y-48861220D01*
X51442147Y-48851276D01*
X51505703Y-48880301D01*
X51534985Y-48917719D01*
X51560375Y-48967550D01*
X51599728Y-49021716D01*
X52232037Y-48389408D01*
X52249075Y-48452993D01*
X52314901Y-48567007D01*
X52407993Y-48660099D01*
X52522007Y-48725925D01*
X52585590Y-48742962D01*
X51953282Y-49375269D01*
X51953282Y-49375270D01*
X52007449Y-49414624D01*
X52196782Y-49511095D01*
X52398870Y-49576757D01*
X52608754Y-49610000D01*
X52821246Y-49610000D01*
X53031127Y-49576757D01*
X53031130Y-49576757D01*
X53233217Y-49511095D01*
X53422554Y-49414622D01*
X53476716Y-49375270D01*
X53476717Y-49375270D01*
X52844408Y-48742962D01*
X52907993Y-48725925D01*
X53022007Y-48660099D01*
X53115099Y-48567007D01*
X53180925Y-48452993D01*
X53197962Y-48389409D01*
X53830270Y-49021717D01*
X53830270Y-49021716D01*
X53869622Y-48967554D01*
X53966095Y-48778217D01*
X54023343Y-48602026D01*
X54062780Y-48544351D01*
X54127139Y-48517152D01*
X54195985Y-48529066D01*
X54247461Y-48576310D01*
X54255835Y-48592891D01*
X54324058Y-48757596D01*
X54439024Y-48929657D01*
X54585342Y-49075975D01*
X54585345Y-49075977D01*
X54757402Y-49190941D01*
X54948580Y-49270130D01*
X55093052Y-49298867D01*
X55151530Y-49310499D01*
X55151534Y-49310500D01*
X55151535Y-49310500D01*
X55358466Y-49310500D01*
X55358467Y-49310499D01*
X55561420Y-49270130D01*
X55752598Y-49190941D01*
X55924655Y-49075977D01*
X56070977Y-48929655D01*
X56185941Y-48757598D01*
X56265130Y-48566420D01*
X56305500Y-48363465D01*
X56305500Y-48156535D01*
X56305499Y-48156530D01*
X56744500Y-48156530D01*
X56744500Y-48363469D01*
X56784868Y-48566412D01*
X56784870Y-48566420D01*
X56864058Y-48757596D01*
X56979024Y-48929657D01*
X57125342Y-49075975D01*
X57125345Y-49075977D01*
X57297402Y-49190941D01*
X57488580Y-49270130D01*
X57633052Y-49298867D01*
X57691530Y-49310499D01*
X57691534Y-49310500D01*
X57691535Y-49310500D01*
X57898466Y-49310500D01*
X57898467Y-49310499D01*
X58101420Y-49270130D01*
X58292598Y-49190941D01*
X58464655Y-49075977D01*
X58610977Y-48929655D01*
X58725941Y-48757598D01*
X58805130Y-48566420D01*
X58845500Y-48363465D01*
X58845500Y-48156535D01*
X58845499Y-48156530D01*
X59284500Y-48156530D01*
X59284500Y-48363469D01*
X59324868Y-48566412D01*
X59324870Y-48566420D01*
X59404058Y-48757596D01*
X59519024Y-48929657D01*
X59665342Y-49075975D01*
X59665345Y-49075977D01*
X59837402Y-49190941D01*
X60028580Y-49270130D01*
X60173052Y-49298867D01*
X60231530Y-49310499D01*
X60231534Y-49310500D01*
X60231535Y-49310500D01*
X60438466Y-49310500D01*
X60438467Y-49310499D01*
X60641420Y-49270130D01*
X60832598Y-49190941D01*
X61004655Y-49075977D01*
X61150977Y-48929655D01*
X61265941Y-48757598D01*
X61345130Y-48566420D01*
X61385500Y-48363465D01*
X61385500Y-48156535D01*
X61385499Y-48156530D01*
X61824500Y-48156530D01*
X61824500Y-48363469D01*
X61864868Y-48566412D01*
X61864870Y-48566420D01*
X61944058Y-48757596D01*
X62059024Y-48929657D01*
X62205342Y-49075975D01*
X62205345Y-49075977D01*
X62377402Y-49190941D01*
X62568580Y-49270130D01*
X62713052Y-49298867D01*
X62771530Y-49310499D01*
X62771534Y-49310500D01*
X62771535Y-49310500D01*
X62978466Y-49310500D01*
X62978467Y-49310499D01*
X63181420Y-49270130D01*
X63372598Y-49190941D01*
X63544655Y-49075977D01*
X63690977Y-48929655D01*
X63805941Y-48757598D01*
X63885130Y-48566420D01*
X63925500Y-48363465D01*
X63925500Y-48156535D01*
X63925499Y-48156530D01*
X64364500Y-48156530D01*
X64364500Y-48363469D01*
X64404868Y-48566412D01*
X64404870Y-48566420D01*
X64484058Y-48757596D01*
X64599024Y-48929657D01*
X64745342Y-49075975D01*
X64745345Y-49075977D01*
X64917402Y-49190941D01*
X65108580Y-49270130D01*
X65253052Y-49298867D01*
X65311530Y-49310499D01*
X65311534Y-49310500D01*
X65311535Y-49310500D01*
X65518466Y-49310500D01*
X65518467Y-49310499D01*
X65721420Y-49270130D01*
X65912598Y-49190941D01*
X66084655Y-49075977D01*
X66230977Y-48929655D01*
X66345941Y-48757598D01*
X66425130Y-48566420D01*
X66465500Y-48363465D01*
X66465500Y-48156535D01*
X66465499Y-48156530D01*
X66904500Y-48156530D01*
X66904500Y-48363469D01*
X66944868Y-48566412D01*
X66944870Y-48566420D01*
X67024058Y-48757596D01*
X67139024Y-48929657D01*
X67285342Y-49075975D01*
X67285345Y-49075977D01*
X67457402Y-49190941D01*
X67648580Y-49270130D01*
X67793052Y-49298867D01*
X67851530Y-49310499D01*
X67851534Y-49310500D01*
X67851535Y-49310500D01*
X68058466Y-49310500D01*
X68058467Y-49310499D01*
X68261420Y-49270130D01*
X68452598Y-49190941D01*
X68624655Y-49075977D01*
X68770977Y-48929655D01*
X68885941Y-48757598D01*
X68965130Y-48566420D01*
X69005500Y-48363465D01*
X69005500Y-48156535D01*
X69005499Y-48156530D01*
X69444500Y-48156530D01*
X69444500Y-48363469D01*
X69484868Y-48566412D01*
X69484870Y-48566420D01*
X69564058Y-48757596D01*
X69679024Y-48929657D01*
X69825342Y-49075975D01*
X69825345Y-49075977D01*
X69997402Y-49190941D01*
X70188580Y-49270130D01*
X70333052Y-49298867D01*
X70391530Y-49310499D01*
X70391534Y-49310500D01*
X70391535Y-49310500D01*
X70598466Y-49310500D01*
X70598467Y-49310499D01*
X70801420Y-49270130D01*
X70992598Y-49190941D01*
X71164655Y-49075977D01*
X71310977Y-48929655D01*
X71425941Y-48757598D01*
X71505130Y-48566420D01*
X71545500Y-48363465D01*
X71545500Y-48156535D01*
X71545499Y-48156530D01*
X71984500Y-48156530D01*
X71984500Y-48363469D01*
X72024868Y-48566412D01*
X72024870Y-48566420D01*
X72104058Y-48757596D01*
X72219024Y-48929657D01*
X72365342Y-49075975D01*
X72365345Y-49075977D01*
X72537402Y-49190941D01*
X72728580Y-49270130D01*
X72873052Y-49298867D01*
X72931530Y-49310499D01*
X72931534Y-49310500D01*
X72931535Y-49310500D01*
X73138466Y-49310500D01*
X73138467Y-49310499D01*
X73341420Y-49270130D01*
X73532598Y-49190941D01*
X73704655Y-49075977D01*
X73850977Y-48929655D01*
X73965941Y-48757598D01*
X74045130Y-48566420D01*
X74085500Y-48363465D01*
X74085500Y-48156535D01*
X74085499Y-48156530D01*
X74524500Y-48156530D01*
X74524500Y-48363469D01*
X74564868Y-48566412D01*
X74564870Y-48566420D01*
X74644058Y-48757596D01*
X74759024Y-48929657D01*
X74905342Y-49075975D01*
X74905345Y-49075977D01*
X75077402Y-49190941D01*
X75268580Y-49270130D01*
X75413052Y-49298867D01*
X75471530Y-49310499D01*
X75471534Y-49310500D01*
X75471535Y-49310500D01*
X75678466Y-49310500D01*
X75678467Y-49310499D01*
X75881420Y-49270130D01*
X76072598Y-49190941D01*
X76244655Y-49075977D01*
X76390977Y-48929655D01*
X76505941Y-48757598D01*
X76585130Y-48566420D01*
X76625500Y-48363465D01*
X76625500Y-48156535D01*
X76625499Y-48156530D01*
X77064500Y-48156530D01*
X77064500Y-48363469D01*
X77104868Y-48566412D01*
X77104870Y-48566420D01*
X77184058Y-48757596D01*
X77299024Y-48929657D01*
X77445342Y-49075975D01*
X77445345Y-49075977D01*
X77617402Y-49190941D01*
X77808580Y-49270130D01*
X77953052Y-49298867D01*
X78011530Y-49310499D01*
X78011534Y-49310500D01*
X78011535Y-49310500D01*
X78218466Y-49310500D01*
X78218467Y-49310499D01*
X78421420Y-49270130D01*
X78612598Y-49190941D01*
X78784655Y-49075977D01*
X78930977Y-48929655D01*
X79045941Y-48757598D01*
X79125130Y-48566420D01*
X79165500Y-48363465D01*
X79165500Y-48156535D01*
X79165499Y-48156530D01*
X79604500Y-48156530D01*
X79604500Y-48363469D01*
X79644868Y-48566412D01*
X79644870Y-48566420D01*
X79724058Y-48757596D01*
X79839024Y-48929657D01*
X79985342Y-49075975D01*
X79985345Y-49075977D01*
X80157402Y-49190941D01*
X80348580Y-49270130D01*
X80493052Y-49298867D01*
X80551530Y-49310499D01*
X80551534Y-49310500D01*
X80551535Y-49310500D01*
X80758466Y-49310500D01*
X80758467Y-49310499D01*
X80961420Y-49270130D01*
X81152598Y-49190941D01*
X81324655Y-49075977D01*
X81470977Y-48929655D01*
X81585941Y-48757598D01*
X81665130Y-48566420D01*
X81705500Y-48363465D01*
X81705500Y-48156535D01*
X81705499Y-48156530D01*
X82144500Y-48156530D01*
X82144500Y-48363469D01*
X82184868Y-48566412D01*
X82184870Y-48566420D01*
X82264058Y-48757596D01*
X82379024Y-48929657D01*
X82525342Y-49075975D01*
X82525345Y-49075977D01*
X82697402Y-49190941D01*
X82888580Y-49270130D01*
X83033052Y-49298867D01*
X83091530Y-49310499D01*
X83091534Y-49310500D01*
X83091535Y-49310500D01*
X83298466Y-49310500D01*
X83298467Y-49310499D01*
X83501420Y-49270130D01*
X83692598Y-49190941D01*
X83864655Y-49075977D01*
X84010977Y-48929655D01*
X84125941Y-48757598D01*
X84205130Y-48566420D01*
X84245500Y-48363465D01*
X84245500Y-48156535D01*
X84245499Y-48156530D01*
X84684500Y-48156530D01*
X84684500Y-48363469D01*
X84724868Y-48566412D01*
X84724870Y-48566420D01*
X84804058Y-48757596D01*
X84919024Y-48929657D01*
X85065342Y-49075975D01*
X85065345Y-49075977D01*
X85237402Y-49190941D01*
X85428580Y-49270130D01*
X85573052Y-49298867D01*
X85631530Y-49310499D01*
X85631534Y-49310500D01*
X85631535Y-49310500D01*
X85838466Y-49310500D01*
X85838467Y-49310499D01*
X86041420Y-49270130D01*
X86232598Y-49190941D01*
X86404655Y-49075977D01*
X86550977Y-48929655D01*
X86665941Y-48757598D01*
X86745130Y-48566420D01*
X86785500Y-48363465D01*
X86785500Y-48156535D01*
X86785499Y-48156530D01*
X87224500Y-48156530D01*
X87224500Y-48363469D01*
X87264868Y-48566412D01*
X87264870Y-48566420D01*
X87344058Y-48757596D01*
X87459024Y-48929657D01*
X87605342Y-49075975D01*
X87605345Y-49075977D01*
X87777402Y-49190941D01*
X87968580Y-49270130D01*
X88113052Y-49298867D01*
X88171530Y-49310499D01*
X88171534Y-49310500D01*
X88171535Y-49310500D01*
X88378466Y-49310500D01*
X88378467Y-49310499D01*
X88581420Y-49270130D01*
X88772598Y-49190941D01*
X88944655Y-49075977D01*
X89090977Y-48929655D01*
X89205941Y-48757598D01*
X89285130Y-48566420D01*
X89325500Y-48363465D01*
X89325500Y-48156535D01*
X89325499Y-48156530D01*
X89764500Y-48156530D01*
X89764500Y-48363469D01*
X89804868Y-48566412D01*
X89804870Y-48566420D01*
X89884058Y-48757596D01*
X89999024Y-48929657D01*
X90145342Y-49075975D01*
X90145345Y-49075977D01*
X90317402Y-49190941D01*
X90508580Y-49270130D01*
X90653052Y-49298867D01*
X90711530Y-49310499D01*
X90711534Y-49310500D01*
X90711535Y-49310500D01*
X90918466Y-49310500D01*
X90918467Y-49310499D01*
X91121420Y-49270130D01*
X91312598Y-49190941D01*
X91484655Y-49075977D01*
X91630977Y-48929655D01*
X91745941Y-48757598D01*
X91825130Y-48566420D01*
X91865500Y-48363465D01*
X91865500Y-48156535D01*
X91865499Y-48156530D01*
X92304500Y-48156530D01*
X92304500Y-48363469D01*
X92344868Y-48566412D01*
X92344870Y-48566420D01*
X92424058Y-48757596D01*
X92539024Y-48929657D01*
X92685342Y-49075975D01*
X92685345Y-49075977D01*
X92857402Y-49190941D01*
X93048580Y-49270130D01*
X93193052Y-49298867D01*
X93251530Y-49310499D01*
X93251534Y-49310500D01*
X93251535Y-49310500D01*
X93458466Y-49310500D01*
X93458467Y-49310499D01*
X93661420Y-49270130D01*
X93852598Y-49190941D01*
X94024655Y-49075977D01*
X94170977Y-48929655D01*
X94285941Y-48757598D01*
X94365130Y-48566420D01*
X94405500Y-48363465D01*
X94405500Y-48156535D01*
X94405499Y-48156530D01*
X94844500Y-48156530D01*
X94844500Y-48363469D01*
X94884868Y-48566412D01*
X94884870Y-48566420D01*
X94964058Y-48757596D01*
X95079024Y-48929657D01*
X95225342Y-49075975D01*
X95225345Y-49075977D01*
X95397402Y-49190941D01*
X95588580Y-49270130D01*
X95733052Y-49298867D01*
X95791530Y-49310499D01*
X95791534Y-49310500D01*
X95791535Y-49310500D01*
X95998466Y-49310500D01*
X95998467Y-49310499D01*
X96201420Y-49270130D01*
X96392598Y-49190941D01*
X96564655Y-49075977D01*
X96710977Y-48929655D01*
X96825941Y-48757598D01*
X96905130Y-48566420D01*
X96945500Y-48363465D01*
X96945500Y-48156535D01*
X96945499Y-48156530D01*
X97384500Y-48156530D01*
X97384500Y-48363469D01*
X97424868Y-48566412D01*
X97424870Y-48566420D01*
X97504058Y-48757596D01*
X97619024Y-48929657D01*
X97765342Y-49075975D01*
X97765345Y-49075977D01*
X97937402Y-49190941D01*
X98128580Y-49270130D01*
X98273052Y-49298867D01*
X98331530Y-49310499D01*
X98331534Y-49310500D01*
X98331535Y-49310500D01*
X98538466Y-49310500D01*
X98538467Y-49310499D01*
X98741420Y-49270130D01*
X98932598Y-49190941D01*
X99104655Y-49075977D01*
X99250977Y-48929655D01*
X99365941Y-48757598D01*
X99445130Y-48566420D01*
X99485500Y-48363465D01*
X99485500Y-48156535D01*
X99445130Y-47953580D01*
X99365941Y-47762402D01*
X99250977Y-47590345D01*
X99250975Y-47590342D01*
X99104657Y-47444024D01*
X99024173Y-47390247D01*
X99924500Y-47390247D01*
X99924500Y-49129752D01*
X99936131Y-49188229D01*
X99936132Y-49188230D01*
X99980447Y-49254552D01*
X100046769Y-49298867D01*
X100046770Y-49298868D01*
X100105247Y-49310499D01*
X100105250Y-49310500D01*
X100105252Y-49310500D01*
X101844750Y-49310500D01*
X101844751Y-49310499D01*
X101859568Y-49307552D01*
X101903229Y-49298868D01*
X101903229Y-49298867D01*
X101903231Y-49298867D01*
X101969552Y-49254552D01*
X102013867Y-49188231D01*
X102013867Y-49188229D01*
X102013868Y-49188229D01*
X102025499Y-49129752D01*
X102025500Y-49129750D01*
X102025500Y-47390249D01*
X102025499Y-47390247D01*
X102013868Y-47331770D01*
X102013867Y-47331769D01*
X101969552Y-47265447D01*
X101903230Y-47221132D01*
X101903229Y-47221131D01*
X101844752Y-47209500D01*
X101844748Y-47209500D01*
X100105252Y-47209500D01*
X100105247Y-47209500D01*
X100046770Y-47221131D01*
X100046769Y-47221132D01*
X99980447Y-47265447D01*
X99936132Y-47331769D01*
X99936131Y-47331770D01*
X99924500Y-47390247D01*
X99024173Y-47390247D01*
X98936655Y-47331770D01*
X98932598Y-47329059D01*
X98741420Y-47249870D01*
X98741412Y-47249868D01*
X98538469Y-47209500D01*
X98538465Y-47209500D01*
X98331535Y-47209500D01*
X98331530Y-47209500D01*
X98128587Y-47249868D01*
X98128579Y-47249870D01*
X97937403Y-47329058D01*
X97765342Y-47444024D01*
X97619024Y-47590342D01*
X97504058Y-47762403D01*
X97424870Y-47953579D01*
X97424868Y-47953587D01*
X97384500Y-48156530D01*
X96945499Y-48156530D01*
X96905130Y-47953580D01*
X96825941Y-47762402D01*
X96710977Y-47590345D01*
X96710975Y-47590342D01*
X96564657Y-47444024D01*
X96396655Y-47331770D01*
X96392598Y-47329059D01*
X96201420Y-47249870D01*
X96201412Y-47249868D01*
X95998469Y-47209500D01*
X95998465Y-47209500D01*
X95791535Y-47209500D01*
X95791530Y-47209500D01*
X95588587Y-47249868D01*
X95588579Y-47249870D01*
X95397403Y-47329058D01*
X95225342Y-47444024D01*
X95079024Y-47590342D01*
X94964058Y-47762403D01*
X94884870Y-47953579D01*
X94884868Y-47953587D01*
X94844500Y-48156530D01*
X94405499Y-48156530D01*
X94365130Y-47953580D01*
X94285941Y-47762402D01*
X94170977Y-47590345D01*
X94170975Y-47590342D01*
X94024657Y-47444024D01*
X93856655Y-47331770D01*
X93852598Y-47329059D01*
X93661420Y-47249870D01*
X93661412Y-47249868D01*
X93458469Y-47209500D01*
X93458465Y-47209500D01*
X93251535Y-47209500D01*
X93251530Y-47209500D01*
X93048587Y-47249868D01*
X93048579Y-47249870D01*
X92857403Y-47329058D01*
X92685342Y-47444024D01*
X92539024Y-47590342D01*
X92424058Y-47762403D01*
X92344870Y-47953579D01*
X92344868Y-47953587D01*
X92304500Y-48156530D01*
X91865499Y-48156530D01*
X91825130Y-47953580D01*
X91745941Y-47762402D01*
X91630977Y-47590345D01*
X91630975Y-47590342D01*
X91484657Y-47444024D01*
X91316655Y-47331770D01*
X91312598Y-47329059D01*
X91121420Y-47249870D01*
X91121412Y-47249868D01*
X90918469Y-47209500D01*
X90918465Y-47209500D01*
X90711535Y-47209500D01*
X90711530Y-47209500D01*
X90508587Y-47249868D01*
X90508579Y-47249870D01*
X90317403Y-47329058D01*
X90145342Y-47444024D01*
X89999024Y-47590342D01*
X89884058Y-47762403D01*
X89804870Y-47953579D01*
X89804868Y-47953587D01*
X89764500Y-48156530D01*
X89325499Y-48156530D01*
X89285130Y-47953580D01*
X89205941Y-47762402D01*
X89090977Y-47590345D01*
X89090975Y-47590342D01*
X88944657Y-47444024D01*
X88776655Y-47331770D01*
X88772598Y-47329059D01*
X88581420Y-47249870D01*
X88581412Y-47249868D01*
X88378469Y-47209500D01*
X88378465Y-47209500D01*
X88171535Y-47209500D01*
X88171530Y-47209500D01*
X87968587Y-47249868D01*
X87968579Y-47249870D01*
X87777403Y-47329058D01*
X87605342Y-47444024D01*
X87459024Y-47590342D01*
X87344058Y-47762403D01*
X87264870Y-47953579D01*
X87264868Y-47953587D01*
X87224500Y-48156530D01*
X86785499Y-48156530D01*
X86745130Y-47953580D01*
X86665941Y-47762402D01*
X86550977Y-47590345D01*
X86550975Y-47590342D01*
X86404657Y-47444024D01*
X86236655Y-47331770D01*
X86232598Y-47329059D01*
X86041420Y-47249870D01*
X86041412Y-47249868D01*
X85838469Y-47209500D01*
X85838465Y-47209500D01*
X85631535Y-47209500D01*
X85631530Y-47209500D01*
X85428587Y-47249868D01*
X85428579Y-47249870D01*
X85237403Y-47329058D01*
X85065342Y-47444024D01*
X84919024Y-47590342D01*
X84804058Y-47762403D01*
X84724870Y-47953579D01*
X84724868Y-47953587D01*
X84684500Y-48156530D01*
X84245499Y-48156530D01*
X84205130Y-47953580D01*
X84125941Y-47762402D01*
X84010977Y-47590345D01*
X84010975Y-47590342D01*
X83864657Y-47444024D01*
X83696655Y-47331770D01*
X83692598Y-47329059D01*
X83501420Y-47249870D01*
X83501412Y-47249868D01*
X83298469Y-47209500D01*
X83298465Y-47209500D01*
X83091535Y-47209500D01*
X83091530Y-47209500D01*
X82888587Y-47249868D01*
X82888579Y-47249870D01*
X82697403Y-47329058D01*
X82525342Y-47444024D01*
X82379024Y-47590342D01*
X82264058Y-47762403D01*
X82184870Y-47953579D01*
X82184868Y-47953587D01*
X82144500Y-48156530D01*
X81705499Y-48156530D01*
X81665130Y-47953580D01*
X81585941Y-47762402D01*
X81470977Y-47590345D01*
X81470975Y-47590342D01*
X81324657Y-47444024D01*
X81156655Y-47331770D01*
X81152598Y-47329059D01*
X80961420Y-47249870D01*
X80961412Y-47249868D01*
X80758469Y-47209500D01*
X80758465Y-47209500D01*
X80551535Y-47209500D01*
X80551530Y-47209500D01*
X80348587Y-47249868D01*
X80348579Y-47249870D01*
X80157403Y-47329058D01*
X79985342Y-47444024D01*
X79839024Y-47590342D01*
X79724058Y-47762403D01*
X79644870Y-47953579D01*
X79644868Y-47953587D01*
X79604500Y-48156530D01*
X79165499Y-48156530D01*
X79125130Y-47953580D01*
X79045941Y-47762402D01*
X78930977Y-47590345D01*
X78930975Y-47590342D01*
X78784657Y-47444024D01*
X78616655Y-47331770D01*
X78612598Y-47329059D01*
X78421420Y-47249870D01*
X78421412Y-47249868D01*
X78218469Y-47209500D01*
X78218465Y-47209500D01*
X78011535Y-47209500D01*
X78011530Y-47209500D01*
X77808587Y-47249868D01*
X77808579Y-47249870D01*
X77617403Y-47329058D01*
X77445342Y-47444024D01*
X77299024Y-47590342D01*
X77184058Y-47762403D01*
X77104870Y-47953579D01*
X77104868Y-47953587D01*
X77064500Y-48156530D01*
X76625499Y-48156530D01*
X76585130Y-47953580D01*
X76505941Y-47762402D01*
X76390977Y-47590345D01*
X76390975Y-47590342D01*
X76244657Y-47444024D01*
X76076655Y-47331770D01*
X76072598Y-47329059D01*
X75881420Y-47249870D01*
X75881412Y-47249868D01*
X75678469Y-47209500D01*
X75678465Y-47209500D01*
X75471535Y-47209500D01*
X75471530Y-47209500D01*
X75268587Y-47249868D01*
X75268579Y-47249870D01*
X75077403Y-47329058D01*
X74905342Y-47444024D01*
X74759024Y-47590342D01*
X74644058Y-47762403D01*
X74564870Y-47953579D01*
X74564868Y-47953587D01*
X74524500Y-48156530D01*
X74085499Y-48156530D01*
X74045130Y-47953580D01*
X73965941Y-47762402D01*
X73850977Y-47590345D01*
X73850975Y-47590342D01*
X73704657Y-47444024D01*
X73536655Y-47331770D01*
X73532598Y-47329059D01*
X73341420Y-47249870D01*
X73341412Y-47249868D01*
X73138469Y-47209500D01*
X73138465Y-47209500D01*
X72931535Y-47209500D01*
X72931530Y-47209500D01*
X72728587Y-47249868D01*
X72728579Y-47249870D01*
X72537403Y-47329058D01*
X72365342Y-47444024D01*
X72219024Y-47590342D01*
X72104058Y-47762403D01*
X72024870Y-47953579D01*
X72024868Y-47953587D01*
X71984500Y-48156530D01*
X71545499Y-48156530D01*
X71505130Y-47953580D01*
X71425941Y-47762402D01*
X71310977Y-47590345D01*
X71310975Y-47590342D01*
X71164657Y-47444024D01*
X70996655Y-47331770D01*
X70992598Y-47329059D01*
X70801420Y-47249870D01*
X70801412Y-47249868D01*
X70598469Y-47209500D01*
X70598465Y-47209500D01*
X70391535Y-47209500D01*
X70391530Y-47209500D01*
X70188587Y-47249868D01*
X70188579Y-47249870D01*
X69997403Y-47329058D01*
X69825342Y-47444024D01*
X69679024Y-47590342D01*
X69564058Y-47762403D01*
X69484870Y-47953579D01*
X69484868Y-47953587D01*
X69444500Y-48156530D01*
X69005499Y-48156530D01*
X68965130Y-47953580D01*
X68885941Y-47762402D01*
X68770977Y-47590345D01*
X68770975Y-47590342D01*
X68624657Y-47444024D01*
X68456655Y-47331770D01*
X68452598Y-47329059D01*
X68261420Y-47249870D01*
X68261412Y-47249868D01*
X68058469Y-47209500D01*
X68058465Y-47209500D01*
X67851535Y-47209500D01*
X67851530Y-47209500D01*
X67648587Y-47249868D01*
X67648579Y-47249870D01*
X67457403Y-47329058D01*
X67285342Y-47444024D01*
X67139024Y-47590342D01*
X67024058Y-47762403D01*
X66944870Y-47953579D01*
X66944868Y-47953587D01*
X66904500Y-48156530D01*
X66465499Y-48156530D01*
X66425130Y-47953580D01*
X66345941Y-47762402D01*
X66230977Y-47590345D01*
X66230975Y-47590342D01*
X66084657Y-47444024D01*
X65916655Y-47331770D01*
X65912598Y-47329059D01*
X65721420Y-47249870D01*
X65721412Y-47249868D01*
X65518469Y-47209500D01*
X65518465Y-47209500D01*
X65311535Y-47209500D01*
X65311530Y-47209500D01*
X65108587Y-47249868D01*
X65108579Y-47249870D01*
X64917403Y-47329058D01*
X64745342Y-47444024D01*
X64599024Y-47590342D01*
X64484058Y-47762403D01*
X64404870Y-47953579D01*
X64404868Y-47953587D01*
X64364500Y-48156530D01*
X63925499Y-48156530D01*
X63885130Y-47953580D01*
X63805941Y-47762402D01*
X63690977Y-47590345D01*
X63690975Y-47590342D01*
X63544657Y-47444024D01*
X63376655Y-47331770D01*
X63372598Y-47329059D01*
X63181420Y-47249870D01*
X63181412Y-47249868D01*
X62978469Y-47209500D01*
X62978465Y-47209500D01*
X62771535Y-47209500D01*
X62771530Y-47209500D01*
X62568587Y-47249868D01*
X62568579Y-47249870D01*
X62377403Y-47329058D01*
X62205342Y-47444024D01*
X62059024Y-47590342D01*
X61944058Y-47762403D01*
X61864870Y-47953579D01*
X61864868Y-47953587D01*
X61824500Y-48156530D01*
X61385499Y-48156530D01*
X61345130Y-47953580D01*
X61265941Y-47762402D01*
X61150977Y-47590345D01*
X61150975Y-47590342D01*
X61004657Y-47444024D01*
X60836655Y-47331770D01*
X60832598Y-47329059D01*
X60641420Y-47249870D01*
X60641412Y-47249868D01*
X60438469Y-47209500D01*
X60438465Y-47209500D01*
X60231535Y-47209500D01*
X60231530Y-47209500D01*
X60028587Y-47249868D01*
X60028579Y-47249870D01*
X59837403Y-47329058D01*
X59665342Y-47444024D01*
X59519024Y-47590342D01*
X59404058Y-47762403D01*
X59324870Y-47953579D01*
X59324868Y-47953587D01*
X59284500Y-48156530D01*
X58845499Y-48156530D01*
X58805130Y-47953580D01*
X58725941Y-47762402D01*
X58610977Y-47590345D01*
X58610975Y-47590342D01*
X58464657Y-47444024D01*
X58296655Y-47331770D01*
X58292598Y-47329059D01*
X58101420Y-47249870D01*
X58101412Y-47249868D01*
X57898469Y-47209500D01*
X57898465Y-47209500D01*
X57691535Y-47209500D01*
X57691530Y-47209500D01*
X57488587Y-47249868D01*
X57488579Y-47249870D01*
X57297403Y-47329058D01*
X57125342Y-47444024D01*
X56979024Y-47590342D01*
X56864058Y-47762403D01*
X56784870Y-47953579D01*
X56784868Y-47953587D01*
X56744500Y-48156530D01*
X56305499Y-48156530D01*
X56265130Y-47953580D01*
X56185941Y-47762402D01*
X56070977Y-47590345D01*
X56070975Y-47590342D01*
X55924657Y-47444024D01*
X55756655Y-47331770D01*
X55752598Y-47329059D01*
X55561420Y-47249870D01*
X55561412Y-47249868D01*
X55358469Y-47209500D01*
X55358465Y-47209500D01*
X55151535Y-47209500D01*
X55151530Y-47209500D01*
X54948587Y-47249868D01*
X54948579Y-47249870D01*
X54757403Y-47329058D01*
X54585342Y-47444024D01*
X54439024Y-47590342D01*
X54324057Y-47762403D01*
X54255835Y-47927108D01*
X54211994Y-47981511D01*
X54145700Y-48003576D01*
X54078000Y-47986297D01*
X54030390Y-47935159D01*
X54023343Y-47917973D01*
X53966095Y-47741782D01*
X53869624Y-47552449D01*
X53830270Y-47498282D01*
X53830269Y-47498282D01*
X53197962Y-48130590D01*
X53180925Y-48067007D01*
X53115099Y-47952993D01*
X53022007Y-47859901D01*
X52907993Y-47794075D01*
X52844409Y-47777037D01*
X53476716Y-47144728D01*
X53422550Y-47105375D01*
X53233217Y-47008904D01*
X53031129Y-46943242D01*
X52821246Y-46910000D01*
X52608754Y-46910000D01*
X52398872Y-46943242D01*
X52398869Y-46943242D01*
X52196782Y-47008904D01*
X52007439Y-47105380D01*
X51953282Y-47144727D01*
X51953282Y-47144728D01*
X52585591Y-47777037D01*
X52522007Y-47794075D01*
X52407993Y-47859901D01*
X52314901Y-47952993D01*
X52249075Y-48067007D01*
X52232037Y-48130591D01*
X51599728Y-47498282D01*
X51599727Y-47498282D01*
X51560380Y-47552440D01*
X51560378Y-47552443D01*
X51534984Y-47602282D01*
X51487010Y-47653077D01*
X51419189Y-47669872D01*
X51353054Y-47647334D01*
X51309603Y-47592619D01*
X51300500Y-47545986D01*
X51300500Y-42586737D01*
X51320185Y-42519698D01*
X51372989Y-42473943D01*
X51442147Y-42463999D01*
X51505703Y-42493024D01*
X51542431Y-42548419D01*
X51585904Y-42682217D01*
X51682375Y-42871550D01*
X51721728Y-42925716D01*
X52354037Y-42293408D01*
X52371075Y-42356993D01*
X52436901Y-42471007D01*
X52529993Y-42564099D01*
X52644007Y-42629925D01*
X52707590Y-42646962D01*
X52075282Y-43279269D01*
X52075282Y-43279270D01*
X52129449Y-43318624D01*
X52318782Y-43415095D01*
X52520870Y-43480757D01*
X52730754Y-43514000D01*
X52943246Y-43514000D01*
X53153127Y-43480757D01*
X53153130Y-43480757D01*
X53355217Y-43415095D01*
X53544554Y-43318622D01*
X53598716Y-43279270D01*
X53598717Y-43279270D01*
X52966408Y-42646962D01*
X53029993Y-42629925D01*
X53144007Y-42564099D01*
X53237099Y-42471007D01*
X53302925Y-42356993D01*
X53319962Y-42293409D01*
X53952270Y-42925717D01*
X53952270Y-42925716D01*
X53991622Y-42871554D01*
X54090306Y-42677879D01*
X54091321Y-42678396D01*
X54131779Y-42628192D01*
X54198073Y-42606127D01*
X54265772Y-42623406D01*
X54313383Y-42674542D01*
X54326500Y-42730048D01*
X54326500Y-43033752D01*
X54338131Y-43092229D01*
X54338132Y-43092230D01*
X54382447Y-43158552D01*
X54448769Y-43202867D01*
X54448770Y-43202868D01*
X54507247Y-43214499D01*
X54507250Y-43214500D01*
X54507252Y-43214500D01*
X56246750Y-43214500D01*
X56246751Y-43214499D01*
X56261568Y-43211552D01*
X56305229Y-43202868D01*
X56305229Y-43202867D01*
X56305231Y-43202867D01*
X56371552Y-43158552D01*
X56415867Y-43092231D01*
X56415867Y-43092229D01*
X56415868Y-43092229D01*
X56427499Y-43033752D01*
X56427500Y-43033750D01*
X56427500Y-41294249D01*
X56427499Y-41294247D01*
X56415868Y-41235770D01*
X56415867Y-41235769D01*
X56371552Y-41169447D01*
X56305230Y-41125132D01*
X56305229Y-41125131D01*
X56246752Y-41113500D01*
X56246748Y-41113500D01*
X54507252Y-41113500D01*
X54507247Y-41113500D01*
X54448770Y-41125131D01*
X54448769Y-41125132D01*
X54382447Y-41169447D01*
X54338132Y-41235769D01*
X54338131Y-41235770D01*
X54326500Y-41294247D01*
X54326500Y-41597951D01*
X54306815Y-41664990D01*
X54254011Y-41710745D01*
X54184853Y-41720689D01*
X54121297Y-41691664D01*
X54091061Y-41649736D01*
X54090306Y-41650121D01*
X53991624Y-41456449D01*
X53952270Y-41402282D01*
X53952269Y-41402282D01*
X53319962Y-42034590D01*
X53302925Y-41971007D01*
X53237099Y-41856993D01*
X53144007Y-41763901D01*
X53029993Y-41698075D01*
X52966409Y-41681037D01*
X53598716Y-41048728D01*
X53544550Y-41009375D01*
X53355217Y-40912904D01*
X53153129Y-40847242D01*
X52943246Y-40814000D01*
X52730754Y-40814000D01*
X52520872Y-40847242D01*
X52520869Y-40847242D01*
X52318782Y-40912904D01*
X52129439Y-41009380D01*
X52075282Y-41048727D01*
X52075282Y-41048728D01*
X52707591Y-41681037D01*
X52644007Y-41698075D01*
X52529993Y-41763901D01*
X52436901Y-41856993D01*
X52371075Y-41971007D01*
X52354037Y-42034591D01*
X51721728Y-41402282D01*
X51721727Y-41402282D01*
X51682380Y-41456439D01*
X51585904Y-41645783D01*
X51542431Y-41779580D01*
X51502994Y-41837256D01*
X51438635Y-41864454D01*
X51369789Y-41852539D01*
X51318313Y-41805295D01*
X51300500Y-41741262D01*
X51300500Y-40629500D01*
X51320185Y-40562461D01*
X51372989Y-40516706D01*
X51424500Y-40505500D01*
X145933500Y-40505500D01*
X146000539Y-40525185D01*
G37*
%TD.AperFunction*%
%TD*%
M02*
